G04*
G04 #@! TF.GenerationSoftware,Altium Limited,Altium Designer,19.1.8 (144)*
G04*
G04 Layer_Color=8150272*
%FSLAX25Y25*%
%MOIN*%
G70*
G01*
G75*
%ADD46C,0.06693*%
G04:AMPARAMS|DCode=47|XSize=66.93mil|YSize=66.93mil|CornerRadius=17.72mil|HoleSize=0mil|Usage=FLASHONLY|Rotation=0.000|XOffset=0mil|YOffset=0mil|HoleType=Round|Shape=RoundedRectangle|*
%AMROUNDEDRECTD47*
21,1,0.06693,0.03150,0,0,0.0*
21,1,0.03150,0.06693,0,0,0.0*
1,1,0.03543,0.01575,-0.01575*
1,1,0.03543,-0.01575,-0.01575*
1,1,0.03543,-0.01575,0.01575*
1,1,0.03543,0.01575,0.01575*
%
%ADD47ROUNDEDRECTD47*%
G04:AMPARAMS|DCode=48|XSize=74.8mil|YSize=90.55mil|CornerRadius=19.68mil|HoleSize=0mil|Usage=FLASHONLY|Rotation=180.000|XOffset=0mil|YOffset=0mil|HoleType=Round|Shape=RoundedRectangle|*
%AMROUNDEDRECTD48*
21,1,0.07480,0.05118,0,0,180.0*
21,1,0.03543,0.09055,0,0,180.0*
1,1,0.03937,-0.01772,0.02559*
1,1,0.03937,0.01772,0.02559*
1,1,0.03937,0.01772,-0.02559*
1,1,0.03937,-0.01772,-0.02559*
%
%ADD48ROUNDEDRECTD48*%
G04:AMPARAMS|DCode=49|XSize=59.06mil|YSize=74.8mil|CornerRadius=15.75mil|HoleSize=0mil|Usage=FLASHONLY|Rotation=0.000|XOffset=0mil|YOffset=0mil|HoleType=Round|Shape=RoundedRectangle|*
%AMROUNDEDRECTD49*
21,1,0.05906,0.04331,0,0,0.0*
21,1,0.02756,0.07480,0,0,0.0*
1,1,0.03150,0.01378,-0.02165*
1,1,0.03150,-0.01378,-0.02165*
1,1,0.03150,-0.01378,0.02165*
1,1,0.03150,0.01378,0.02165*
%
%ADD49ROUNDEDRECTD49*%
%ADD50O,0.05906X0.07480*%
%ADD51C,0.04724*%
%ADD52O,0.08268X0.09843*%
G04:AMPARAMS|DCode=53|XSize=82.68mil|YSize=98.43mil|CornerRadius=21.65mil|HoleSize=0mil|Usage=FLASHONLY|Rotation=0.000|XOffset=0mil|YOffset=0mil|HoleType=Round|Shape=RoundedRectangle|*
%AMROUNDEDRECTD53*
21,1,0.08268,0.05512,0,0,0.0*
21,1,0.03937,0.09843,0,0,0.0*
1,1,0.04331,0.01968,-0.02756*
1,1,0.04331,-0.01968,-0.02756*
1,1,0.04331,-0.01968,0.02756*
1,1,0.04331,0.01968,0.02756*
%
%ADD53ROUNDEDRECTD53*%
%ADD54C,0.22638*%
D46*
X114450Y177323D02*
D03*
X104449Y167323D02*
D03*
X114450D02*
D03*
Y157323D02*
D03*
X104449D02*
D03*
X90748Y12402D02*
D03*
X73032D02*
D03*
X71850Y63267D02*
D03*
X129921Y122244D02*
D03*
Y102559D02*
D03*
Y173819D02*
D03*
Y154134D02*
D03*
X37244Y80709D02*
D03*
D47*
X104449Y177323D02*
D03*
X71850Y53267D02*
D03*
X47244Y80709D02*
D03*
D48*
X95276Y22244D02*
D03*
X68504D02*
D03*
D49*
X237126Y157480D02*
D03*
Y187008D02*
D03*
D50*
X247126Y157480D02*
D03*
Y187008D02*
D03*
D51*
X212953Y211693D02*
D03*
X202953D02*
D03*
X172953D02*
D03*
X162953D02*
D03*
X132953D02*
D03*
X122953D02*
D03*
X92953D02*
D03*
X82953D02*
D03*
X52953D02*
D03*
X42953D02*
D03*
X222953D02*
D03*
X182953D02*
D03*
X192953D02*
D03*
X142953D02*
D03*
X152953D02*
D03*
X102953D02*
D03*
X112953D02*
D03*
X72953D02*
D03*
X62953D02*
D03*
X32953D02*
D03*
X212953Y201693D02*
D03*
X202953D02*
D03*
X172953D02*
D03*
X162953D02*
D03*
X132953D02*
D03*
X122953D02*
D03*
X92953D02*
D03*
X82953D02*
D03*
X52953D02*
D03*
X42953D02*
D03*
X222953D02*
D03*
X182953D02*
D03*
X192953D02*
D03*
X142953D02*
D03*
X152953D02*
D03*
X102953D02*
D03*
X112953D02*
D03*
X72953D02*
D03*
X62953D02*
D03*
X32953D02*
D03*
D52*
X48622Y23622D02*
D03*
D53*
X34843D02*
D03*
D54*
X242126Y206693D02*
D03*
Y13780D02*
D03*
X13780Y206693D02*
D03*
Y13780D02*
D03*
M02*
