G04*
G04 #@! TF.GenerationSoftware,Altium Limited,Altium Designer,19.1.8 (144)*
G04*
G04 Layer_Color=16711680*
%FSLAX25Y25*%
%MOIN*%
G70*
G01*
G75*
%ADD99C,0.00394*%
D99*
X173228Y15748D02*
G03*
X181102Y15748I3937J0D01*
G01*
Y74803D02*
G03*
X173228Y74803I-3937J0D01*
G01*
X228346Y186221D02*
G03*
X224410Y190157I-3937J0D01*
G01*
X145669D02*
G03*
X141732Y186221I0J-3937D01*
G01*
X141732Y90158D02*
G03*
X145669Y86221I3937J0D01*
G01*
X224410D02*
G03*
X228346Y90158I0J3937D01*
G01*
X0Y11811D02*
G03*
X11811Y0I11811J0D01*
G01*
Y222441D02*
G03*
X0Y210630I0J-11811D01*
G01*
X255906D02*
G03*
X244094Y222441I-11811J0D01*
G01*
Y0D02*
G03*
X255906Y11811I0J11811D01*
G01*
X0Y147638D02*
G03*
X3937Y143701I3937J0D01*
G01*
X19685Y139764D02*
G03*
X15748Y143701I-3937J0D01*
G01*
Y76772D02*
G03*
X19685Y80709I0J3937D01*
G01*
X3937Y76772D02*
G03*
X0Y72835I0J-3937D01*
G01*
X141732Y90158D02*
Y186221D01*
X228346Y90158D02*
Y186221D01*
X181102Y15748D02*
Y74803D01*
X173228Y15748D02*
Y74803D01*
X145669Y190157D02*
X224410Y190157D01*
X145669Y86221D02*
X224410D01*
X3937Y143701D02*
X15748D01*
X19685Y80709D02*
Y139764D01*
X3937Y76772D02*
X15748D01*
X11811Y0D02*
X244094D01*
X255906Y11811D02*
Y86614D01*
X11811Y222441D02*
X244094D01*
X0Y147638D02*
Y210630D01*
Y11811D02*
Y72835D01*
X255906Y190551D02*
Y210630D01*
Y86614D02*
Y190551D01*
M02*
