M48
;Layer_Color=6321
;FILE_FORMAT=2:5
INCH,TZ
;TYPE=PLATED
T1F00S00C0.01181
T2F00S00C0.03150
T3F00S00C0.03937
T4F00S00C0.04724
;TYPE=NON_PLATED
T5F00S00C0.03937
T6F00S00C0.10827
%
T01
X24409Y47441
X52165Y53543
X58071Y49016
X58268Y38386
X58268Y30511
X65945
X97441Y37992
Y41142
Y44488
Y47835
X100197Y46260
Y42913
Y39567
X100000Y59055
Y62402
Y65748
X97244Y67323
Y63976
Y60630
Y57480
X126574Y37993
X130511Y37993
X134449Y37992
X138386Y37992
X143110
X147835
X151772Y37993
Y32874
X147835Y32874
X143110
X138386
X134449Y32874
X130511Y32874
X126574Y32874
X128543Y35433
X132480Y35433
X145669Y59055
Y62402
Y65748
X148425Y67323
Y64173
Y60827
Y57480
X155905Y9843
X187795Y7087
X103150Y9449
X246063Y42913
X235039Y93504
X243110Y150984
X242520Y181496
X227953Y209449
X217952Y201693
X197953Y201693
X187952Y211693
X177953
X147952Y201693
X127953
X127953Y211693
Y189370
X118110Y189961
X107953Y201693
X97953Y211693
X77953Y201693
X87874Y191339
X80708Y182677
X85236Y160630
X97973Y164823
X98228Y128740
X103740
X103937Y110236
X102756Y101968
X96457Y104528
X90354Y98819
X95472Y92520
X100248Y93948
X102756Y78937
X118898
X123819Y83268
X129724Y86811
X133268
X136811
X115354Y88386
X119095Y99606
X119095Y110236
Y114173
X119095Y121653
Y135827
Y142913
X87008Y116142
X82677
Y111811
X87008
Y107480
X82677
Y89173
X78347Y93307
X187795Y80905
X72441Y78740
X70669Y97441
X74213Y103347
X61417Y100788
X56496Y105905
X57480Y113583
X45079Y110236
X44291Y136024
X48229Y136023
X52167Y136023
X56104Y136023
X60042Y136022
X58074Y138582
X54136Y138582
X50198Y138582
X46260Y138583
X50590Y145866
Y152953
X69685Y159843
Y164823
Y172047
Y177559
X50984Y178543
X42913Y178347
X18504Y165354
Y157087
X14961Y148425
X23228Y197047
X57953Y211693
X32283Y78347
X23487Y80709
X23228Y84449
T02
X129921Y102559
Y122244
Y154134
Y173819
T03
X73032Y12402
X71850Y53267
Y63267
X90748Y12402
X237126Y157480
X247126
Y187008
X237126
X114450Y177323
X104449
Y167323
X114450
Y157323
X104449
X47244Y80709
X37244
T04
X34843Y23622
X48622
X68504Y22244
X95276
T05
X82953Y201693
Y211693
X92953
X102953
X112953
X122953
X132953
X142953
X152953
X162953
X172953
X182953
X192953
X202953
X212953
X222953
Y201693
X212953
X202953
X192953
X182953
X172953
X162953
X152953
X142953
X132953
X122953
X112953
X102953
X92953
X72953
Y211693
X62953
X52953
X42953
X32953
Y201693
X42953
X52953
X62953
T06
X13780Y13780
X242126
Y206693
X13780
M30
