G04*
G04 #@! TF.GenerationSoftware,Altium Limited,Altium Designer,19.1.8 (144)*
G04*
G04 Layer_Physical_Order=1*
G04 Layer_Color=25308*
%FSLAX25Y25*%
%MOIN*%
G70*
G01*
G75*
%ADD10C,0.00787*%
%ADD13C,0.01575*%
%ADD25R,0.12205X0.09449*%
%ADD56C,0.02362*%
G04:AMPARAMS|DCode=57|XSize=55.12mil|YSize=39.37mil|CornerRadius=9.84mil|HoleSize=0mil|Usage=FLASHONLY|Rotation=0.000|XOffset=0mil|YOffset=0mil|HoleType=Round|Shape=RoundedRectangle|*
%AMROUNDEDRECTD57*
21,1,0.05512,0.01968,0,0,0.0*
21,1,0.03543,0.03937,0,0,0.0*
1,1,0.01968,0.01772,-0.00984*
1,1,0.01968,-0.01772,-0.00984*
1,1,0.01968,-0.01772,0.00984*
1,1,0.01968,0.01772,0.00984*
%
%ADD57ROUNDEDRECTD57*%
G04:AMPARAMS|DCode=58|XSize=31.5mil|YSize=39.37mil|CornerRadius=7.87mil|HoleSize=0mil|Usage=FLASHONLY|Rotation=180.000|XOffset=0mil|YOffset=0mil|HoleType=Round|Shape=RoundedRectangle|*
%AMROUNDEDRECTD58*
21,1,0.03150,0.02362,0,0,180.0*
21,1,0.01575,0.03937,0,0,180.0*
1,1,0.01575,-0.00787,0.01181*
1,1,0.01575,0.00787,0.01181*
1,1,0.01575,0.00787,-0.01181*
1,1,0.01575,-0.00787,-0.01181*
%
%ADD58ROUNDEDRECTD58*%
G04:AMPARAMS|DCode=59|XSize=51.18mil|YSize=39.37mil|CornerRadius=9.84mil|HoleSize=0mil|Usage=FLASHONLY|Rotation=0.000|XOffset=0mil|YOffset=0mil|HoleType=Round|Shape=RoundedRectangle|*
%AMROUNDEDRECTD59*
21,1,0.05118,0.01968,0,0,0.0*
21,1,0.03150,0.03937,0,0,0.0*
1,1,0.01968,0.01575,-0.00984*
1,1,0.01968,-0.01575,-0.00984*
1,1,0.01968,-0.01575,0.00984*
1,1,0.01968,0.01575,0.00984*
%
%ADD59ROUNDEDRECTD59*%
G04:AMPARAMS|DCode=60|XSize=51.18mil|YSize=39.37mil|CornerRadius=9.84mil|HoleSize=0mil|Usage=FLASHONLY|Rotation=270.000|XOffset=0mil|YOffset=0mil|HoleType=Round|Shape=RoundedRectangle|*
%AMROUNDEDRECTD60*
21,1,0.05118,0.01968,0,0,270.0*
21,1,0.03150,0.03937,0,0,270.0*
1,1,0.01968,-0.00984,-0.01575*
1,1,0.01968,-0.00984,0.01575*
1,1,0.01968,0.00984,0.01575*
1,1,0.01968,0.00984,-0.01575*
%
%ADD60ROUNDEDRECTD60*%
G04:AMPARAMS|DCode=61|XSize=55.12mil|YSize=39.37mil|CornerRadius=9.84mil|HoleSize=0mil|Usage=FLASHONLY|Rotation=270.000|XOffset=0mil|YOffset=0mil|HoleType=Round|Shape=RoundedRectangle|*
%AMROUNDEDRECTD61*
21,1,0.05512,0.01968,0,0,270.0*
21,1,0.03543,0.03937,0,0,270.0*
1,1,0.01968,-0.00984,-0.01772*
1,1,0.01968,-0.00984,0.01772*
1,1,0.01968,0.00984,0.01772*
1,1,0.01968,0.00984,-0.01772*
%
%ADD61ROUNDEDRECTD61*%
G04:AMPARAMS|DCode=62|XSize=31.5mil|YSize=35.43mil|CornerRadius=7.87mil|HoleSize=0mil|Usage=FLASHONLY|Rotation=90.000|XOffset=0mil|YOffset=0mil|HoleType=Round|Shape=RoundedRectangle|*
%AMROUNDEDRECTD62*
21,1,0.03150,0.01968,0,0,90.0*
21,1,0.01575,0.03543,0,0,90.0*
1,1,0.01575,0.00984,0.00787*
1,1,0.01575,0.00984,-0.00787*
1,1,0.01575,-0.00984,-0.00787*
1,1,0.01575,-0.00984,0.00787*
%
%ADD62ROUNDEDRECTD62*%
G04:AMPARAMS|DCode=63|XSize=23.62mil|YSize=59.06mil|CornerRadius=5.91mil|HoleSize=0mil|Usage=FLASHONLY|Rotation=90.000|XOffset=0mil|YOffset=0mil|HoleType=Round|Shape=RoundedRectangle|*
%AMROUNDEDRECTD63*
21,1,0.02362,0.04724,0,0,90.0*
21,1,0.01181,0.05906,0,0,90.0*
1,1,0.01181,0.02362,0.00591*
1,1,0.01181,0.02362,-0.00591*
1,1,0.01181,-0.02362,-0.00591*
1,1,0.01181,-0.02362,0.00591*
%
%ADD63ROUNDEDRECTD63*%
%ADD64R,0.05906X0.10236*%
%ADD65O,0.00984X0.02953*%
%ADD66O,0.02953X0.00984*%
G04:AMPARAMS|DCode=67|XSize=23.62mil|YSize=59.06mil|CornerRadius=5.91mil|HoleSize=0mil|Usage=FLASHONLY|Rotation=180.000|XOffset=0mil|YOffset=0mil|HoleType=Round|Shape=RoundedRectangle|*
%AMROUNDEDRECTD67*
21,1,0.02362,0.04724,0,0,180.0*
21,1,0.01181,0.05906,0,0,180.0*
1,1,0.01181,-0.00591,0.02362*
1,1,0.01181,0.00591,0.02362*
1,1,0.01181,0.00591,-0.02362*
1,1,0.01181,-0.00591,-0.02362*
%
%ADD67ROUNDEDRECTD67*%
G04:AMPARAMS|DCode=68|XSize=15.75mil|YSize=39.37mil|CornerRadius=3.94mil|HoleSize=0mil|Usage=FLASHONLY|Rotation=270.000|XOffset=0mil|YOffset=0mil|HoleType=Round|Shape=RoundedRectangle|*
%AMROUNDEDRECTD68*
21,1,0.01575,0.03150,0,0,270.0*
21,1,0.00787,0.03937,0,0,270.0*
1,1,0.00787,-0.01575,-0.00394*
1,1,0.00787,-0.01575,0.00394*
1,1,0.00787,0.01575,0.00394*
1,1,0.00787,0.01575,-0.00394*
%
%ADD68ROUNDEDRECTD68*%
G04:AMPARAMS|DCode=69|XSize=15.75mil|YSize=35.43mil|CornerRadius=3.94mil|HoleSize=0mil|Usage=FLASHONLY|Rotation=90.000|XOffset=0mil|YOffset=0mil|HoleType=Round|Shape=RoundedRectangle|*
%AMROUNDEDRECTD69*
21,1,0.01575,0.02756,0,0,90.0*
21,1,0.00787,0.03543,0,0,90.0*
1,1,0.00787,0.01378,0.00394*
1,1,0.00787,0.01378,-0.00394*
1,1,0.00787,-0.01378,-0.00394*
1,1,0.00787,-0.01378,0.00394*
%
%ADD69ROUNDEDRECTD69*%
G04:AMPARAMS|DCode=70|XSize=86.61mil|YSize=68.9mil|CornerRadius=3.45mil|HoleSize=0mil|Usage=FLASHONLY|Rotation=90.000|XOffset=0mil|YOffset=0mil|HoleType=Round|Shape=RoundedRectangle|*
%AMROUNDEDRECTD70*
21,1,0.08661,0.06201,0,0,90.0*
21,1,0.07972,0.06890,0,0,90.0*
1,1,0.00689,0.03100,0.03986*
1,1,0.00689,0.03100,-0.03986*
1,1,0.00689,-0.03100,-0.03986*
1,1,0.00689,-0.03100,0.03986*
%
%ADD70ROUNDEDRECTD70*%
G04:AMPARAMS|DCode=71|XSize=15.75mil|YSize=23.62mil|CornerRadius=3.94mil|HoleSize=0mil|Usage=FLASHONLY|Rotation=270.000|XOffset=0mil|YOffset=0mil|HoleType=Round|Shape=RoundedRectangle|*
%AMROUNDEDRECTD71*
21,1,0.01575,0.01575,0,0,270.0*
21,1,0.00787,0.02362,0,0,270.0*
1,1,0.00787,-0.00787,-0.00394*
1,1,0.00787,-0.00787,0.00394*
1,1,0.00787,0.00787,0.00394*
1,1,0.00787,0.00787,-0.00394*
%
%ADD71ROUNDEDRECTD71*%
G04:AMPARAMS|DCode=72|XSize=35.43mil|YSize=37.4mil|CornerRadius=8.86mil|HoleSize=0mil|Usage=FLASHONLY|Rotation=0.000|XOffset=0mil|YOffset=0mil|HoleType=Round|Shape=RoundedRectangle|*
%AMROUNDEDRECTD72*
21,1,0.03543,0.01968,0,0,0.0*
21,1,0.01772,0.03740,0,0,0.0*
1,1,0.01772,0.00886,-0.00984*
1,1,0.01772,-0.00886,-0.00984*
1,1,0.01772,-0.00886,0.00984*
1,1,0.01772,0.00886,0.00984*
%
%ADD72ROUNDEDRECTD72*%
G04:AMPARAMS|DCode=73|XSize=94.49mil|YSize=66.93mil|CornerRadius=3.35mil|HoleSize=0mil|Usage=FLASHONLY|Rotation=0.000|XOffset=0mil|YOffset=0mil|HoleType=Round|Shape=RoundedRectangle|*
%AMROUNDEDRECTD73*
21,1,0.09449,0.06024,0,0,0.0*
21,1,0.08780,0.06693,0,0,0.0*
1,1,0.00669,0.04390,-0.03012*
1,1,0.00669,-0.04390,-0.03012*
1,1,0.00669,-0.04390,0.03012*
1,1,0.00669,0.04390,0.03012*
%
%ADD73ROUNDEDRECTD73*%
G04:AMPARAMS|DCode=74|XSize=15.75mil|YSize=27.56mil|CornerRadius=3.94mil|HoleSize=0mil|Usage=FLASHONLY|Rotation=0.000|XOffset=0mil|YOffset=0mil|HoleType=Round|Shape=RoundedRectangle|*
%AMROUNDEDRECTD74*
21,1,0.01575,0.01968,0,0,0.0*
21,1,0.00787,0.02756,0,0,0.0*
1,1,0.00787,0.00394,-0.00984*
1,1,0.00787,-0.00394,-0.00984*
1,1,0.00787,-0.00394,0.00984*
1,1,0.00787,0.00394,0.00984*
%
%ADD74ROUNDEDRECTD74*%
G04:AMPARAMS|DCode=75|XSize=66.93mil|YSize=70.87mil|CornerRadius=16.73mil|HoleSize=0mil|Usage=FLASHONLY|Rotation=270.000|XOffset=0mil|YOffset=0mil|HoleType=Round|Shape=RoundedRectangle|*
%AMROUNDEDRECTD75*
21,1,0.06693,0.03740,0,0,270.0*
21,1,0.03347,0.07087,0,0,270.0*
1,1,0.03346,-0.01870,-0.01673*
1,1,0.03346,-0.01870,0.01673*
1,1,0.03346,0.01870,0.01673*
1,1,0.03346,0.01870,-0.01673*
%
%ADD75ROUNDEDRECTD75*%
G04:AMPARAMS|DCode=76|XSize=110.24mil|YSize=39.37mil|CornerRadius=9.84mil|HoleSize=0mil|Usage=FLASHONLY|Rotation=0.000|XOffset=0mil|YOffset=0mil|HoleType=Round|Shape=RoundedRectangle|*
%AMROUNDEDRECTD76*
21,1,0.11024,0.01968,0,0,0.0*
21,1,0.09055,0.03937,0,0,0.0*
1,1,0.01968,0.04528,-0.00984*
1,1,0.01968,-0.04528,-0.00984*
1,1,0.01968,-0.04528,0.00984*
1,1,0.01968,0.04528,0.00984*
%
%ADD76ROUNDEDRECTD76*%
G04:AMPARAMS|DCode=77|XSize=110.24mil|YSize=39.37mil|CornerRadius=9.84mil|HoleSize=0mil|Usage=FLASHONLY|Rotation=270.000|XOffset=0mil|YOffset=0mil|HoleType=Round|Shape=RoundedRectangle|*
%AMROUNDEDRECTD77*
21,1,0.11024,0.01968,0,0,270.0*
21,1,0.09055,0.03937,0,0,270.0*
1,1,0.01968,-0.00984,-0.04528*
1,1,0.01968,-0.00984,0.04528*
1,1,0.01968,0.00984,0.04528*
1,1,0.01968,0.00984,-0.04528*
%
%ADD77ROUNDEDRECTD77*%
G04:AMPARAMS|DCode=78|XSize=70.87mil|YSize=39.37mil|CornerRadius=9.84mil|HoleSize=0mil|Usage=FLASHONLY|Rotation=90.000|XOffset=0mil|YOffset=0mil|HoleType=Round|Shape=RoundedRectangle|*
%AMROUNDEDRECTD78*
21,1,0.07087,0.01968,0,0,90.0*
21,1,0.05118,0.03937,0,0,90.0*
1,1,0.01968,0.00984,0.02559*
1,1,0.01968,0.00984,-0.02559*
1,1,0.01968,-0.00984,-0.02559*
1,1,0.01968,-0.00984,0.02559*
%
%ADD78ROUNDEDRECTD78*%
G04:AMPARAMS|DCode=79|XSize=55.12mil|YSize=216.54mil|CornerRadius=13.78mil|HoleSize=0mil|Usage=FLASHONLY|Rotation=180.000|XOffset=0mil|YOffset=0mil|HoleType=Round|Shape=RoundedRectangle|*
%AMROUNDEDRECTD79*
21,1,0.05512,0.18898,0,0,180.0*
21,1,0.02756,0.21654,0,0,180.0*
1,1,0.02756,-0.01378,0.09449*
1,1,0.02756,0.01378,0.09449*
1,1,0.02756,0.01378,-0.09449*
1,1,0.02756,-0.01378,-0.09449*
%
%ADD79ROUNDEDRECTD79*%
G04:AMPARAMS|DCode=80|XSize=62.99mil|YSize=137.8mil|CornerRadius=15.75mil|HoleSize=0mil|Usage=FLASHONLY|Rotation=0.000|XOffset=0mil|YOffset=0mil|HoleType=Round|Shape=RoundedRectangle|*
%AMROUNDEDRECTD80*
21,1,0.06299,0.10630,0,0,0.0*
21,1,0.03150,0.13780,0,0,0.0*
1,1,0.03150,0.01575,-0.05315*
1,1,0.03150,-0.01575,-0.05315*
1,1,0.03150,-0.01575,0.05315*
1,1,0.03150,0.01575,0.05315*
%
%ADD80ROUNDEDRECTD80*%
G04:AMPARAMS|DCode=81|XSize=62.99mil|YSize=47.24mil|CornerRadius=11.81mil|HoleSize=0mil|Usage=FLASHONLY|Rotation=90.000|XOffset=0mil|YOffset=0mil|HoleType=Round|Shape=RoundedRectangle|*
%AMROUNDEDRECTD81*
21,1,0.06299,0.02362,0,0,90.0*
21,1,0.03937,0.04724,0,0,90.0*
1,1,0.02362,0.01181,0.01968*
1,1,0.02362,0.01181,-0.01968*
1,1,0.02362,-0.01181,-0.01968*
1,1,0.02362,-0.01181,0.01968*
%
%ADD81ROUNDEDRECTD81*%
G04:AMPARAMS|DCode=82|XSize=31.5mil|YSize=35.43mil|CornerRadius=7.87mil|HoleSize=0mil|Usage=FLASHONLY|Rotation=180.000|XOffset=0mil|YOffset=0mil|HoleType=Round|Shape=RoundedRectangle|*
%AMROUNDEDRECTD82*
21,1,0.03150,0.01968,0,0,180.0*
21,1,0.01575,0.03543,0,0,180.0*
1,1,0.01575,-0.00787,0.00984*
1,1,0.01575,0.00787,0.00984*
1,1,0.01575,0.00787,-0.00984*
1,1,0.01575,-0.00787,-0.00984*
%
%ADD82ROUNDEDRECTD82*%
G04:AMPARAMS|DCode=83|XSize=47.24mil|YSize=185.04mil|CornerRadius=11.81mil|HoleSize=0mil|Usage=FLASHONLY|Rotation=180.000|XOffset=0mil|YOffset=0mil|HoleType=Round|Shape=RoundedRectangle|*
%AMROUNDEDRECTD83*
21,1,0.04724,0.16142,0,0,180.0*
21,1,0.02362,0.18504,0,0,180.0*
1,1,0.02362,-0.01181,0.08071*
1,1,0.02362,0.01181,0.08071*
1,1,0.02362,0.01181,-0.08071*
1,1,0.02362,-0.01181,-0.08071*
%
%ADD83ROUNDEDRECTD83*%
G04:AMPARAMS|DCode=84|XSize=82.68mil|YSize=31.5mil|CornerRadius=7.87mil|HoleSize=0mil|Usage=FLASHONLY|Rotation=270.000|XOffset=0mil|YOffset=0mil|HoleType=Round|Shape=RoundedRectangle|*
%AMROUNDEDRECTD84*
21,1,0.08268,0.01575,0,0,270.0*
21,1,0.06693,0.03150,0,0,270.0*
1,1,0.01575,-0.00787,-0.03347*
1,1,0.01575,-0.00787,0.03347*
1,1,0.01575,0.00787,0.03347*
1,1,0.01575,0.00787,-0.03347*
%
%ADD84ROUNDEDRECTD84*%
%ADD85C,0.03937*%
%ADD86C,0.02362*%
%ADD87C,0.06299*%
%ADD88C,0.01968*%
%ADD89R,0.09843X0.11417*%
%ADD90R,0.09252X0.06299*%
%ADD91C,0.06299*%
G04:AMPARAMS|DCode=92|XSize=62.99mil|YSize=62.99mil|CornerRadius=15.75mil|HoleSize=0mil|Usage=FLASHONLY|Rotation=0.000|XOffset=0mil|YOffset=0mil|HoleType=Round|Shape=RoundedRectangle|*
%AMROUNDEDRECTD92*
21,1,0.06299,0.03150,0,0,0.0*
21,1,0.03150,0.06299,0,0,0.0*
1,1,0.03150,0.01575,-0.01575*
1,1,0.03150,-0.01575,-0.01575*
1,1,0.03150,-0.01575,0.01575*
1,1,0.03150,0.01575,0.01575*
%
%ADD92ROUNDEDRECTD92*%
G04:AMPARAMS|DCode=93|XSize=70.87mil|YSize=86.61mil|CornerRadius=17.72mil|HoleSize=0mil|Usage=FLASHONLY|Rotation=180.000|XOffset=0mil|YOffset=0mil|HoleType=Round|Shape=RoundedRectangle|*
%AMROUNDEDRECTD93*
21,1,0.07087,0.05118,0,0,180.0*
21,1,0.03543,0.08661,0,0,180.0*
1,1,0.03543,-0.01772,0.02559*
1,1,0.03543,0.01772,0.02559*
1,1,0.03543,0.01772,-0.02559*
1,1,0.03543,-0.01772,-0.02559*
%
%ADD93ROUNDEDRECTD93*%
G04:AMPARAMS|DCode=94|XSize=55.12mil|YSize=70.87mil|CornerRadius=13.78mil|HoleSize=0mil|Usage=FLASHONLY|Rotation=0.000|XOffset=0mil|YOffset=0mil|HoleType=Round|Shape=RoundedRectangle|*
%AMROUNDEDRECTD94*
21,1,0.05512,0.04331,0,0,0.0*
21,1,0.02756,0.07087,0,0,0.0*
1,1,0.02756,0.01378,-0.02165*
1,1,0.02756,-0.01378,-0.02165*
1,1,0.02756,-0.01378,0.02165*
1,1,0.02756,0.01378,0.02165*
%
%ADD94ROUNDEDRECTD94*%
%ADD95O,0.05512X0.07087*%
%ADD96O,0.07874X0.09449*%
G04:AMPARAMS|DCode=97|XSize=78.74mil|YSize=94.49mil|CornerRadius=19.68mil|HoleSize=0mil|Usage=FLASHONLY|Rotation=0.000|XOffset=0mil|YOffset=0mil|HoleType=Round|Shape=RoundedRectangle|*
%AMROUNDEDRECTD97*
21,1,0.07874,0.05512,0,0,0.0*
21,1,0.03937,0.09449,0,0,0.0*
1,1,0.03937,0.01968,-0.02756*
1,1,0.03937,-0.01968,-0.02756*
1,1,0.03937,-0.01968,0.02756*
1,1,0.03937,0.01968,0.02756*
%
%ADD97ROUNDEDRECTD97*%
G36*
X199488Y220262D02*
X199802Y219800D01*
X199835Y219647D01*
X199812Y219512D01*
X199800Y219291D01*
Y218508D01*
X199213D01*
X199027Y218493D01*
X198846Y218450D01*
X198675Y218378D01*
X198516Y218281D01*
X198375Y218161D01*
X197115Y216901D01*
X196994Y216759D01*
X196897Y216601D01*
X196826Y216429D01*
X196783Y216248D01*
X196768Y216063D01*
Y211482D01*
X196201Y210990D01*
X195699Y211422D01*
X195712Y211693D01*
X195699Y211963D01*
X195659Y212231D01*
X195593Y212494D01*
X195502Y212749D01*
X195386Y212994D01*
X195247Y213226D01*
X195086Y213443D01*
X194904Y213644D01*
X194703Y213826D01*
X194486Y213987D01*
X194253Y214126D01*
X194009Y214242D01*
X193754Y214333D01*
X193491Y214399D01*
X193223Y214439D01*
X192953Y214452D01*
X192682Y214439D01*
X192414Y214399D01*
X192152Y214333D01*
X191897Y214242D01*
X191652Y214126D01*
X191420Y213987D01*
X191202Y213826D01*
X191002Y213644D01*
X190820Y213443D01*
X190658Y213226D01*
X190519Y212994D01*
X190403Y212749D01*
X190312Y212494D01*
X190246Y212231D01*
X190207Y211963D01*
X190193Y211693D01*
X190207Y211422D01*
X190246Y211155D01*
X190312Y210892D01*
X190403Y210637D01*
X190519Y210392D01*
X190182Y209755D01*
X190057Y209649D01*
X185848D01*
X185723Y209755D01*
X185386Y210392D01*
X185502Y210637D01*
X185593Y210892D01*
X185659Y211155D01*
X185699Y211422D01*
X185712Y211693D01*
X185699Y211963D01*
X185659Y212231D01*
X185593Y212494D01*
X185502Y212749D01*
X185386Y212993D01*
X185275Y213370D01*
X185351Y213754D01*
X185528Y213960D01*
X185675Y214125D01*
X185803Y214305D01*
X185910Y214499D01*
X185995Y214703D01*
X186056Y214916D01*
X186093Y215134D01*
X186105Y215354D01*
Y219291D01*
X186093Y219512D01*
X186070Y219647D01*
X186103Y219800D01*
X186417Y220262D01*
X186643Y220434D01*
X199262D01*
X199488Y220262D01*
D02*
G37*
G36*
X179488D02*
X179802Y219800D01*
X179835Y219647D01*
X179812Y219512D01*
X179800Y219291D01*
Y215354D01*
X179812Y215134D01*
X179849Y214916D01*
X179911Y214703D01*
X179995Y214499D01*
X180102Y214305D01*
X180230Y214125D01*
X180377Y213960D01*
X180554Y213754D01*
X180630Y213370D01*
X180519Y212993D01*
X180403Y212749D01*
X180312Y212494D01*
X180246Y212231D01*
X180207Y211963D01*
X180193Y211693D01*
X180207Y211422D01*
X180246Y211155D01*
X180312Y210892D01*
X180403Y210637D01*
X180519Y210392D01*
X180182Y209755D01*
X180057Y209649D01*
X175848D01*
X175723Y209755D01*
X175386Y210392D01*
X175502Y210637D01*
X175593Y210892D01*
X175659Y211155D01*
X175699Y211422D01*
X175712Y211693D01*
X175699Y211963D01*
X175659Y212231D01*
X175593Y212494D01*
X175502Y212749D01*
X175386Y212994D01*
X175247Y213226D01*
X175085Y213443D01*
X174904Y213644D01*
X174703Y213826D01*
X174486Y213987D01*
X174253Y214126D01*
X174009Y214242D01*
X173754Y214333D01*
X173491Y214399D01*
X173223Y214439D01*
X172953Y214452D01*
X172682Y214439D01*
X172414Y214399D01*
X172152Y214333D01*
X171897Y214242D01*
X171652Y214126D01*
X171420Y213987D01*
X171202Y213826D01*
X171002Y213644D01*
X170820Y213443D01*
X170658Y213226D01*
X170519Y212994D01*
X170403Y212749D01*
X170312Y212494D01*
X170246Y212231D01*
X170207Y211963D01*
X170193Y211693D01*
X170207Y211422D01*
X170246Y211155D01*
X170312Y210892D01*
X170403Y210637D01*
X170519Y210392D01*
X170182Y209755D01*
X170057Y209649D01*
X165849D01*
X165723Y209755D01*
X165386Y210392D01*
X165502Y210637D01*
X165593Y210892D01*
X165659Y211155D01*
X165699Y211422D01*
X165712Y211693D01*
X165699Y211963D01*
X165659Y212231D01*
X165593Y212494D01*
X165502Y212749D01*
X165386Y212993D01*
X165275Y213370D01*
X165351Y213754D01*
X165528Y213960D01*
X165675Y214125D01*
X165803Y214305D01*
X165910Y214499D01*
X165995Y214703D01*
X166056Y214916D01*
X166093Y215134D01*
X166105Y215354D01*
Y219291D01*
X166093Y219512D01*
X166070Y219647D01*
X166103Y219800D01*
X166417Y220262D01*
X166643Y220434D01*
X179262D01*
X179488Y220262D01*
D02*
G37*
G36*
X118636Y220211D02*
X118866Y220003D01*
X119114Y219819D01*
X119380Y219660D01*
X119659Y219528D01*
X119951Y219423D01*
X120251Y219348D01*
X120252Y219348D01*
X120557Y219303D01*
X120866Y219287D01*
Y219288D01*
X129800D01*
Y215354D01*
X129812Y215134D01*
X129849Y214916D01*
X129911Y214703D01*
X129995Y214499D01*
X130102Y214305D01*
X130230Y214125D01*
X130377Y213960D01*
X130554Y213754D01*
X130630Y213370D01*
X130519Y212993D01*
X130403Y212749D01*
X130312Y212494D01*
X130246Y212231D01*
X130207Y211963D01*
X130193Y211693D01*
X130207Y211422D01*
X130246Y211155D01*
X130312Y210892D01*
X130403Y210637D01*
X130519Y210392D01*
X130182Y209755D01*
X130057Y209649D01*
X125848D01*
X125723Y209755D01*
X125386Y210392D01*
X125502Y210637D01*
X125593Y210892D01*
X125659Y211155D01*
X125699Y211422D01*
X125712Y211693D01*
X125699Y211963D01*
X125659Y212231D01*
X125593Y212494D01*
X125502Y212749D01*
X125386Y212994D01*
X125247Y213226D01*
X125085Y213443D01*
X124904Y213644D01*
X124703Y213826D01*
X124486Y213987D01*
X124253Y214126D01*
X124009Y214242D01*
X123754Y214333D01*
X123491Y214399D01*
X123223Y214439D01*
X122953Y214452D01*
X122682Y214439D01*
X122414Y214399D01*
X122152Y214333D01*
X121897Y214242D01*
X121652Y214126D01*
X121420Y213987D01*
X121202Y213826D01*
X121002Y213644D01*
X120820Y213443D01*
X120658Y213226D01*
X120519Y212994D01*
X120403Y212749D01*
X120312Y212494D01*
X120246Y212231D01*
X120207Y211963D01*
X120193Y211693D01*
X120207Y211422D01*
X120246Y211155D01*
X120312Y210892D01*
X120403Y210637D01*
X120519Y210392D01*
X120182Y209755D01*
X120057Y209649D01*
X115849D01*
X115723Y209755D01*
X115386Y210392D01*
X115502Y210637D01*
X115593Y210892D01*
X115659Y211155D01*
X115699Y211422D01*
X115712Y211693D01*
X115699Y211963D01*
X115659Y212231D01*
X115593Y212494D01*
X115502Y212749D01*
X115386Y212993D01*
X115275Y213370D01*
X115351Y213754D01*
X115528Y213960D01*
X115675Y214125D01*
X115803Y214305D01*
X115910Y214499D01*
X115995Y214703D01*
X116056Y214916D01*
X116093Y215134D01*
X116105Y215354D01*
Y219291D01*
X116093Y219512D01*
X116070Y219647D01*
X116103Y219800D01*
X116417Y220262D01*
X116643Y220434D01*
X118434D01*
X118636Y220211D01*
D02*
G37*
G36*
X230311Y218013D02*
Y206693D01*
X230311Y206691D01*
X230326Y206113D01*
X230368Y205535D01*
X230439Y204959D01*
X230538Y204388D01*
X230665Y203822D01*
X230820Y203263D01*
X231002Y202713D01*
X231211Y202172D01*
X231446Y201642D01*
X231706Y201124D01*
X231992Y200619D01*
X232302Y200129D01*
X232636Y199655D01*
X232993Y199198D01*
X233372Y198759D01*
X233772Y198339D01*
X234192Y197939D01*
X234631Y197560D01*
X235088Y197203D01*
X235562Y196870D01*
X236052Y196559D01*
X236557Y196273D01*
X237075Y196013D01*
X237605Y195778D01*
X238146Y195569D01*
X238427Y195476D01*
X238300Y194689D01*
X235530D01*
X229925Y200294D01*
Y203150D01*
X229910Y203335D01*
X229867Y203516D01*
X229796Y203688D01*
X229699Y203846D01*
X229578Y203987D01*
X227806Y205759D01*
X227665Y205880D01*
X227506Y205977D01*
X227335Y206048D01*
X227154Y206091D01*
X226969Y206106D01*
X217472D01*
X217170Y206834D01*
X218791Y208454D01*
X218911Y208595D01*
X219008Y208753D01*
X219079Y208925D01*
X219123Y209106D01*
X219138Y209291D01*
Y214542D01*
X219911Y214703D01*
X219995Y214499D01*
X220102Y214305D01*
X220230Y214125D01*
X220377Y213960D01*
X220554Y213754D01*
X220630Y213370D01*
X220519Y212993D01*
X220403Y212749D01*
X220312Y212494D01*
X220246Y212231D01*
X220207Y211963D01*
X220193Y211693D01*
X220207Y211422D01*
X220246Y211155D01*
X220312Y210892D01*
X220403Y210637D01*
X220519Y210392D01*
X220658Y210160D01*
X220820Y209942D01*
X221002Y209742D01*
X221202Y209560D01*
X221420Y209399D01*
X221652Y209259D01*
X221897Y209144D01*
X222152Y209052D01*
X222414Y208987D01*
X222682Y208947D01*
X222953Y208934D01*
X223223Y208947D01*
X223491Y208987D01*
X223754Y209052D01*
X224008Y209144D01*
X224253Y209259D01*
X224486Y209399D01*
X224703Y209560D01*
X224904Y209742D01*
X225085Y209942D01*
X225247Y210160D01*
X225386Y210392D01*
X225502Y210637D01*
X225593Y210892D01*
X225659Y211155D01*
X225698Y211422D01*
X225712Y211693D01*
X225698Y211963D01*
X225659Y212231D01*
X225593Y212494D01*
X225502Y212749D01*
X225386Y212993D01*
X225275Y213370D01*
X225351Y213754D01*
X225528Y213960D01*
X225675Y214125D01*
X225803Y214305D01*
X225910Y214499D01*
X225995Y214703D01*
X226056Y214916D01*
X226093Y215134D01*
X226105Y215354D01*
Y219291D01*
X226093Y219512D01*
X226070Y219647D01*
X226103Y219800D01*
X226417Y220262D01*
X226643Y220434D01*
X227891D01*
X230311Y218013D01*
D02*
G37*
G36*
X99488Y220262D02*
X99802Y219800D01*
X99835Y219647D01*
X99812Y219512D01*
X99800Y219291D01*
Y215354D01*
X99812Y215134D01*
X99849Y214916D01*
X99911Y214703D01*
X99995Y214499D01*
X100102Y214305D01*
X100230Y214125D01*
X100377Y213960D01*
X100554Y213754D01*
X100630Y213370D01*
X100519Y212993D01*
X100403Y212749D01*
X100312Y212494D01*
X100246Y212231D01*
X100207Y211963D01*
X100193Y211693D01*
X100207Y211422D01*
X100246Y211155D01*
X100312Y210892D01*
X100403Y210637D01*
X100519Y210392D01*
X100182Y209755D01*
X100057Y209649D01*
X95849D01*
X95723Y209755D01*
X95386Y210392D01*
X95502Y210637D01*
X95593Y210892D01*
X95659Y211155D01*
X95699Y211422D01*
X95712Y211693D01*
X95699Y211963D01*
X95659Y212231D01*
X95593Y212494D01*
X95502Y212749D01*
X95386Y212994D01*
X95247Y213226D01*
X95086Y213443D01*
X94904Y213644D01*
X94703Y213826D01*
X94486Y213987D01*
X94253Y214126D01*
X94008Y214242D01*
X93754Y214333D01*
X93491Y214399D01*
X93223Y214439D01*
X92953Y214452D01*
X92682Y214439D01*
X92414Y214399D01*
X92152Y214333D01*
X91897Y214242D01*
X91652Y214126D01*
X91420Y213987D01*
X91202Y213826D01*
X91002Y213644D01*
X90820Y213443D01*
X90658Y213226D01*
X90519Y212994D01*
X90403Y212749D01*
X90312Y212494D01*
X90246Y212231D01*
X90207Y211963D01*
X90193Y211693D01*
X90207Y211422D01*
X90246Y211155D01*
X90312Y210892D01*
X90403Y210637D01*
X90519Y210392D01*
X90525Y210357D01*
X90523Y210107D01*
X90507Y210024D01*
X90428Y209779D01*
X90229Y209450D01*
X90225Y209446D01*
X90187Y209423D01*
X90045Y209302D01*
X87036Y206293D01*
X86915Y206152D01*
X86818Y205993D01*
X86747Y205821D01*
X86704Y205641D01*
X86689Y205455D01*
Y199063D01*
X85910Y198887D01*
X85803Y199080D01*
X85675Y199261D01*
X85528Y199426D01*
X85351Y199632D01*
X85275Y200016D01*
X85386Y200392D01*
X85502Y200637D01*
X85593Y200892D01*
X85659Y201154D01*
X85699Y201422D01*
X85712Y201693D01*
X85699Y201963D01*
X85659Y202231D01*
X85593Y202494D01*
X85502Y202749D01*
X85386Y202993D01*
X85247Y203226D01*
X85085Y203443D01*
X84904Y203644D01*
X84703Y203826D01*
X84486Y203987D01*
X84253Y204126D01*
X84009Y204242D01*
X83754Y204333D01*
X83491Y204399D01*
X83223Y204439D01*
X82953Y204452D01*
X82682Y204439D01*
X82414Y204399D01*
X82152Y204333D01*
X81897Y204242D01*
X81652Y204126D01*
X81420Y203987D01*
X81202Y203826D01*
X81002Y203644D01*
X80820Y203443D01*
X80658Y203226D01*
X80519Y202993D01*
X80403Y202749D01*
X80312Y202494D01*
X80246Y202231D01*
X80207Y201963D01*
X80193Y201693D01*
X80207Y201422D01*
X80246Y201154D01*
X80312Y200892D01*
X80403Y200637D01*
X80519Y200392D01*
X80526Y200369D01*
X80532Y200218D01*
X80504Y200075D01*
X80348Y199647D01*
X80314Y199590D01*
X80201Y199465D01*
X80128Y199421D01*
X80010Y199320D01*
X79910Y199202D01*
X79829Y199070D01*
X79770Y198927D01*
X79734Y198776D01*
X79721Y198622D01*
Y188783D01*
X59546D01*
X58318Y190011D01*
X58177Y190132D01*
X58018Y190229D01*
X57846Y190300D01*
X57666Y190343D01*
X57480Y190358D01*
X56105D01*
Y196653D01*
X56105Y196655D01*
Y198031D01*
X56093Y198252D01*
X56056Y198470D01*
X55995Y198683D01*
X55910Y198887D01*
X55803Y199080D01*
X55675Y199261D01*
X55528Y199426D01*
X55351Y199632D01*
X55275Y200016D01*
X55386Y200392D01*
X55502Y200637D01*
X55593Y200892D01*
X55659Y201154D01*
X55699Y201422D01*
X55712Y201693D01*
X55699Y201963D01*
X55659Y202231D01*
X55593Y202494D01*
X55502Y202749D01*
X55386Y202993D01*
X55247Y203226D01*
X55085Y203443D01*
X54904Y203644D01*
X54703Y203826D01*
X54486Y203987D01*
X54253Y204126D01*
X54009Y204242D01*
X53754Y204333D01*
X53491Y204399D01*
X53223Y204439D01*
X52953Y204452D01*
X52682Y204439D01*
X52414Y204399D01*
X52152Y204333D01*
X51897Y204242D01*
X51652Y204126D01*
X51420Y203987D01*
X51202Y203826D01*
X51187Y203812D01*
X50555Y204022D01*
X50400Y204152D01*
X50400Y206811D01*
Y209233D01*
X50555Y209364D01*
X51187Y209574D01*
X51202Y209560D01*
X51420Y209399D01*
X51652Y209259D01*
X51897Y209144D01*
X52152Y209052D01*
X52414Y208987D01*
X52682Y208947D01*
X52953Y208934D01*
X53223Y208947D01*
X53491Y208987D01*
X53754Y209052D01*
X54009Y209144D01*
X54253Y209259D01*
X54486Y209399D01*
X54703Y209560D01*
X54904Y209742D01*
X55085Y209942D01*
X55247Y210160D01*
X55386Y210392D01*
X55502Y210637D01*
X55593Y210892D01*
X55659Y211155D01*
X55699Y211422D01*
X55712Y211693D01*
X55699Y211963D01*
X55659Y212231D01*
X55593Y212494D01*
X55502Y212749D01*
X55386Y212994D01*
X55247Y213226D01*
X55085Y213443D01*
X54904Y213644D01*
X54703Y213826D01*
X54486Y213987D01*
X54253Y214126D01*
X54009Y214242D01*
X53754Y214333D01*
X53491Y214399D01*
X53223Y214439D01*
X52953Y214452D01*
X52682Y214439D01*
X52414Y214399D01*
X52152Y214333D01*
X51897Y214242D01*
X51652Y214126D01*
X51420Y213987D01*
X51202Y213826D01*
X51187Y213812D01*
X50555Y214022D01*
X50400Y214152D01*
Y218138D01*
X50384Y218292D01*
X50340Y218441D01*
X50266Y218578D01*
X50168Y218697D01*
X49159Y219707D01*
X49461Y220434D01*
X59262D01*
X59488Y220262D01*
X59802Y219800D01*
X59835Y219647D01*
X59812Y219512D01*
X59800Y219291D01*
Y215354D01*
X59812Y215134D01*
X59849Y214916D01*
X59911Y214703D01*
X59995Y214499D01*
X60102Y214305D01*
X60230Y214125D01*
X60377Y213960D01*
X60554Y213754D01*
X60630Y213370D01*
X60519Y212993D01*
X60403Y212749D01*
X60312Y212494D01*
X60246Y212231D01*
X60207Y211963D01*
X60193Y211693D01*
X60207Y211422D01*
X60246Y211155D01*
X60312Y210892D01*
X60403Y210637D01*
X60519Y210392D01*
X60658Y210160D01*
X60820Y209942D01*
X61002Y209742D01*
X61202Y209560D01*
X61420Y209399D01*
X61652Y209259D01*
X61897Y209144D01*
X62152Y209052D01*
X62414Y208987D01*
X62682Y208947D01*
X62953Y208934D01*
X63223Y208947D01*
X63491Y208987D01*
X63754Y209052D01*
X64008Y209144D01*
X64253Y209259D01*
X64486Y209399D01*
X64703Y209560D01*
X64904Y209742D01*
X65086Y209942D01*
X65247Y210160D01*
X65386Y210392D01*
X65502Y210637D01*
X65593Y210892D01*
X65659Y211155D01*
X65699Y211422D01*
X65712Y211693D01*
X65699Y211963D01*
X65659Y212231D01*
X65593Y212494D01*
X65502Y212749D01*
X65386Y212993D01*
X65275Y213370D01*
X65351Y213754D01*
X65528Y213960D01*
X65675Y214125D01*
X65803Y214305D01*
X65910Y214499D01*
X65995Y214703D01*
X66056Y214916D01*
X66093Y215134D01*
X66105Y215354D01*
Y219291D01*
X66093Y219512D01*
X66070Y219647D01*
X66104Y219800D01*
X66417Y220262D01*
X66643Y220434D01*
X69262D01*
X69488Y220262D01*
X69802Y219800D01*
X69835Y219647D01*
X69812Y219512D01*
X69800Y219291D01*
Y215354D01*
X69812Y215134D01*
X69849Y214916D01*
X69911Y214703D01*
X69995Y214499D01*
X70102Y214305D01*
X70230Y214125D01*
X70377Y213960D01*
X70554Y213754D01*
X70630Y213370D01*
X70519Y212993D01*
X70403Y212749D01*
X70312Y212494D01*
X70246Y212231D01*
X70207Y211963D01*
X70193Y211693D01*
X70207Y211422D01*
X70246Y211155D01*
X70312Y210892D01*
X70403Y210637D01*
X70519Y210392D01*
X70658Y210160D01*
X70820Y209942D01*
X71002Y209742D01*
X71202Y209560D01*
X71420Y209399D01*
X71652Y209259D01*
X71897Y209144D01*
X72152Y209052D01*
X72414Y208987D01*
X72682Y208947D01*
X72953Y208934D01*
X73223Y208947D01*
X73491Y208987D01*
X73754Y209052D01*
X74009Y209144D01*
X74253Y209259D01*
X74486Y209399D01*
X74703Y209560D01*
X74904Y209742D01*
X75086Y209942D01*
X75247Y210160D01*
X75386Y210392D01*
X75502Y210637D01*
X75593Y210892D01*
X75659Y211155D01*
X75699Y211422D01*
X75712Y211693D01*
X75699Y211963D01*
X75659Y212231D01*
X75593Y212494D01*
X75502Y212749D01*
X75386Y212993D01*
X75275Y213370D01*
X75351Y213754D01*
X75528Y213960D01*
X75675Y214125D01*
X75803Y214305D01*
X75910Y214499D01*
X75995Y214703D01*
X76056Y214916D01*
X76093Y215134D01*
X76105Y215354D01*
Y219291D01*
X76093Y219512D01*
X76070Y219647D01*
X76104Y219800D01*
X76417Y220262D01*
X76643Y220434D01*
X79262D01*
X79488Y220262D01*
X79802Y219800D01*
X79835Y219647D01*
X79812Y219512D01*
X79800Y219291D01*
Y215354D01*
X79812Y215134D01*
X79849Y214916D01*
X79911Y214703D01*
X79995Y214499D01*
X80102Y214305D01*
X80230Y214125D01*
X80377Y213960D01*
X80554Y213754D01*
X80630Y213370D01*
X80519Y212993D01*
X80403Y212749D01*
X80312Y212494D01*
X80246Y212231D01*
X80207Y211963D01*
X80193Y211693D01*
X80207Y211422D01*
X80246Y211155D01*
X80312Y210892D01*
X80403Y210637D01*
X80519Y210392D01*
X80658Y210160D01*
X80820Y209942D01*
X81002Y209742D01*
X81202Y209560D01*
X81420Y209399D01*
X81652Y209259D01*
X81897Y209144D01*
X82152Y209052D01*
X82414Y208987D01*
X82682Y208947D01*
X82953Y208934D01*
X83223Y208947D01*
X83491Y208987D01*
X83754Y209052D01*
X84009Y209144D01*
X84253Y209259D01*
X84486Y209399D01*
X84703Y209560D01*
X84904Y209742D01*
X85085Y209942D01*
X85247Y210160D01*
X85386Y210392D01*
X85502Y210637D01*
X85593Y210892D01*
X85659Y211155D01*
X85699Y211422D01*
X85712Y211693D01*
X85699Y211963D01*
X85659Y212231D01*
X85593Y212494D01*
X85502Y212749D01*
X85386Y212993D01*
X85275Y213370D01*
X85351Y213754D01*
X85528Y213960D01*
X85675Y214125D01*
X85803Y214305D01*
X85910Y214499D01*
X85995Y214703D01*
X86056Y214916D01*
X86093Y215134D01*
X86105Y215354D01*
Y219291D01*
X86093Y219512D01*
X86070Y219647D01*
X86103Y219800D01*
X86417Y220262D01*
X86643Y220434D01*
X99262D01*
X99488Y220262D01*
D02*
G37*
G36*
X227555Y202659D02*
Y199803D01*
X227570Y199618D01*
X227613Y199437D01*
X227684Y199265D01*
X227782Y199107D01*
X227902Y198965D01*
X234202Y192666D01*
X234343Y192545D01*
X234502Y192448D01*
X234673Y192377D01*
X234854Y192334D01*
X235039Y192319D01*
X240139D01*
X243711Y188747D01*
X243700Y188713D01*
X243633Y188411D01*
X243593Y188104D01*
X243579Y187795D01*
Y186221D01*
X243593Y185911D01*
X243633Y185605D01*
X243700Y185302D01*
X243793Y185007D01*
X243912Y184722D01*
X244055Y184447D01*
X244221Y184186D01*
X244409Y183941D01*
X244618Y183713D01*
X244846Y183504D01*
X245092Y183315D01*
X245353Y183149D01*
X245627Y183006D01*
X245913Y182888D01*
X245941Y182879D01*
Y161609D01*
X245913Y161600D01*
X245627Y161482D01*
X245353Y161339D01*
X245092Y161173D01*
X244846Y160985D01*
X244618Y160776D01*
X244409Y160547D01*
X244221Y160302D01*
X244055Y160041D01*
X243912Y159767D01*
X243793Y159481D01*
X243700Y159186D01*
X243633Y158884D01*
X243593Y158577D01*
X243579Y158268D01*
Y156693D01*
X243593Y156384D01*
X243633Y156077D01*
X243700Y155775D01*
X243793Y155480D01*
X243912Y155194D01*
X244055Y154920D01*
X244221Y154659D01*
X244409Y154413D01*
X244618Y154185D01*
X244846Y153976D01*
X245092Y153788D01*
X245353Y153621D01*
X245627Y153479D01*
X245913Y153360D01*
X246208Y153267D01*
X246510Y153200D01*
X246817Y153160D01*
X247126Y153146D01*
X247435Y153160D01*
X247742Y153200D01*
X248044Y153267D01*
X248339Y153360D01*
X248625Y153479D01*
X248899Y153621D01*
X249160Y153788D01*
X249406Y153976D01*
X249634Y154185D01*
X249843Y154413D01*
X250031Y154659D01*
X250198Y154920D01*
X250340Y155194D01*
X250459Y155480D01*
X250552Y155775D01*
X250619Y156077D01*
X250659Y156384D01*
X250673Y156693D01*
Y158268D01*
X250659Y158577D01*
X250619Y158884D01*
X250552Y159186D01*
X250459Y159481D01*
X250340Y159767D01*
X250198Y160041D01*
X250031Y160302D01*
X249843Y160547D01*
X249634Y160776D01*
X249406Y160985D01*
X249160Y161173D01*
X248899Y161339D01*
X248625Y161482D01*
X248339Y161600D01*
X248311Y161609D01*
Y182879D01*
X248339Y182888D01*
X248625Y183006D01*
X248899Y183149D01*
X249160Y183315D01*
X249406Y183504D01*
X249634Y183713D01*
X249843Y183941D01*
X250031Y184186D01*
X250198Y184447D01*
X250340Y184722D01*
X250459Y185007D01*
X250552Y185302D01*
X250619Y185605D01*
X250659Y185911D01*
X250673Y186221D01*
Y187795D01*
X250659Y188104D01*
X250619Y188411D01*
X250552Y188713D01*
X250459Y189008D01*
X250340Y189294D01*
X250198Y189569D01*
X250031Y189830D01*
X249843Y190075D01*
X249634Y190303D01*
X249406Y190512D01*
X249160Y190700D01*
X248899Y190867D01*
X248625Y191010D01*
X248339Y191128D01*
X248044Y191221D01*
X247742Y191288D01*
X247435Y191328D01*
X247126Y191342D01*
X246817Y191328D01*
X246510Y191288D01*
X246208Y191221D01*
X245913Y191128D01*
X245627Y191010D01*
X245353Y190867D01*
X245102Y190707D01*
X241708Y194101D01*
X242042Y194880D01*
X242124Y194878D01*
X242126Y194878D01*
X249903D01*
X253899Y190883D01*
Y120137D01*
X253829Y120104D01*
X253563Y119945D01*
X253314Y119761D01*
X253085Y119553D01*
X252877Y119323D01*
X252693Y119075D01*
X252534Y118809D01*
X252402Y118530D01*
X252297Y118238D01*
X252222Y117938D01*
X252222Y117938D01*
X252177Y117632D01*
X252162Y117323D01*
X252162D01*
Y103150D01*
X252162Y103150D01*
X252177Y102840D01*
X252222Y102535D01*
X252222Y102534D01*
X252256Y102401D01*
X252256Y102401D01*
X252257Y102395D01*
X252297Y102234D01*
X252402Y101943D01*
X252534Y101663D01*
X252693Y101398D01*
X252877Y101149D01*
X253085Y100920D01*
X253314Y100712D01*
X253563Y100528D01*
X253829Y100368D01*
X253899Y100335D01*
Y29590D01*
X249903Y25594D01*
X242126D01*
X242124Y25594D01*
X241546Y25580D01*
X240968Y25537D01*
X240392Y25466D01*
X239821Y25367D01*
X239255Y25240D01*
X238696Y25085D01*
X238146Y24904D01*
X237605Y24695D01*
X237075Y24460D01*
X236557Y24199D01*
X236052Y23913D01*
X235562Y23603D01*
X235088Y23269D01*
X234631Y22912D01*
X234192Y22534D01*
X233772Y22134D01*
X233372Y21714D01*
X232993Y21275D01*
X232636Y20818D01*
X232302Y20343D01*
X231992Y19853D01*
X231706Y19349D01*
X231446Y18831D01*
X231211Y18301D01*
X231002Y17760D01*
X230820Y17209D01*
X230665Y16650D01*
X230538Y16084D01*
X230439Y15513D01*
X230368Y14938D01*
X230326Y14359D01*
X230311Y13781D01*
X230311Y13780D01*
Y6003D01*
X226316Y2007D01*
X142288D01*
X142189Y2033D01*
X141539Y2362D01*
Y12386D01*
X143715Y14563D01*
X146260D01*
X146492Y14578D01*
X146719Y14623D01*
X146939Y14698D01*
X147148Y14801D01*
X147341Y14930D01*
X147515Y15083D01*
X147668Y15257D01*
X147797Y15451D01*
X147900Y15659D01*
X147975Y15879D01*
X148020Y16106D01*
X148035Y16338D01*
Y18307D01*
X148020Y18539D01*
X147975Y18766D01*
X147900Y18986D01*
X147838Y19113D01*
Y27953D01*
X147826Y28107D01*
X147789Y28258D01*
X147730Y28401D01*
X147649Y28533D01*
X147548Y28651D01*
X146564Y29635D01*
X146447Y29736D01*
X146314Y29817D01*
X146171Y29876D01*
X146021Y29912D01*
X145866Y29924D01*
X118508D01*
X117982Y30247D01*
X117838Y30391D01*
X117751Y30523D01*
X117720Y30603D01*
X117720Y88898D01*
X117715Y88956D01*
X117712Y89015D01*
X117752Y89282D01*
X117929Y89548D01*
X118118Y89691D01*
X118259Y89812D01*
X125491Y97044D01*
X139370D01*
X139735Y96391D01*
X139761Y96298D01*
Y90158D01*
X139761Y90158D01*
Y89770D01*
X139765Y89687D01*
X139768Y89604D01*
X139771Y89577D01*
X139773Y89549D01*
X139787Y89467D01*
X139799Y89385D01*
X139950Y88625D01*
X139971Y88544D01*
X139989Y88463D01*
X139998Y88437D01*
X140005Y88410D01*
X140035Y88333D01*
X140062Y88255D01*
X140359Y87538D01*
X140395Y87463D01*
X140429Y87388D01*
X140443Y87364D01*
X140455Y87339D01*
X140499Y87269D01*
X140541Y87197D01*
X140972Y86552D01*
X141022Y86486D01*
X141070Y86418D01*
X141088Y86398D01*
X141105Y86376D01*
X141162Y86315D01*
X141217Y86254D01*
X141765Y85705D01*
X141827Y85650D01*
X141888Y85593D01*
X141910Y85576D01*
X141930Y85558D01*
X141998Y85510D01*
X142064Y85460D01*
X142709Y85029D01*
X142780Y84987D01*
X142851Y84943D01*
X142876Y84931D01*
X142900Y84917D01*
X142975Y84883D01*
X143050Y84847D01*
X143766Y84550D01*
X143845Y84523D01*
X143922Y84493D01*
X143949Y84486D01*
X143975Y84477D01*
X144056Y84459D01*
X144136Y84438D01*
X144897Y84287D01*
X144979Y84275D01*
X145061Y84261D01*
X145088Y84260D01*
X145116Y84256D01*
X145199Y84254D01*
X145282Y84249D01*
X175499D01*
X175580Y84217D01*
X175712Y84131D01*
X176178Y83661D01*
Y81299D01*
X176190Y81145D01*
X176169Y80949D01*
X175607Y80503D01*
X175604Y80502D01*
X175135Y80376D01*
X175100Y80365D01*
X175065Y80356D01*
X174995Y80330D01*
X174925Y80307D01*
X174892Y80292D01*
X174857Y80279D01*
X174792Y80246D01*
X174724Y80215D01*
X174693Y80196D01*
X174660Y80179D01*
X173762Y79661D01*
X173731Y79641D01*
X173699Y79623D01*
X173639Y79580D01*
X173577Y79540D01*
X173549Y79516D01*
X173519Y79495D01*
X173464Y79446D01*
X173407Y79399D01*
X173381Y79372D01*
X173354Y79348D01*
X172621Y78615D01*
X172596Y78587D01*
X172570Y78562D01*
X172523Y78505D01*
X172474Y78450D01*
X172452Y78420D01*
X172429Y78391D01*
X172388Y78330D01*
X172346Y78269D01*
X172328Y78237D01*
X172308Y78206D01*
X171789Y77309D01*
X171773Y77276D01*
X171754Y77244D01*
X171723Y77177D01*
X171689Y77111D01*
X171677Y77077D01*
X171661Y77043D01*
X171638Y76973D01*
X171613Y76904D01*
X171604Y76868D01*
X171592Y76833D01*
X171324Y75832D01*
X171316Y75796D01*
X171306Y75760D01*
X171294Y75687D01*
X171279Y75615D01*
X171275Y75578D01*
X171269Y75542D01*
X171265Y75469D01*
X171258Y75395D01*
X171259Y75358D01*
X171257Y75322D01*
Y74803D01*
Y54878D01*
X171217Y54751D01*
X170866Y54137D01*
X168898D01*
X168693Y54361D01*
X168644Y54593D01*
X168569Y54813D01*
X168467Y55022D01*
X168338Y55215D01*
X168185Y55389D01*
X168010Y55542D01*
X167817Y55671D01*
X167609Y55774D01*
X167389Y55849D01*
X167161Y55894D01*
X166929Y55909D01*
X163779D01*
X163548Y55894D01*
X163320Y55849D01*
X163100Y55774D01*
X162892Y55671D01*
X162699Y55542D01*
X162524Y55389D01*
X162371Y55215D01*
X162242Y55022D01*
X161957Y54943D01*
X161666D01*
X161380Y55022D01*
X161251Y55215D01*
X161098Y55389D01*
X160923Y55542D01*
X160730Y55671D01*
X160522Y55774D01*
X160302Y55849D01*
X160074Y55894D01*
X159843Y55909D01*
X156693D01*
X156461Y55894D01*
X156233Y55849D01*
X156014Y55774D01*
X155805Y55671D01*
X155612Y55542D01*
X155438Y55389D01*
X155284Y55215D01*
X155155Y55022D01*
X155053Y54813D01*
X154978Y54593D01*
X154933Y54366D01*
X154931Y54334D01*
X153154D01*
X153153Y65354D01*
X153153Y73622D01*
X153138Y73776D01*
X153093Y73925D01*
X153020Y74062D01*
X152922Y74181D01*
X150952Y76151D01*
X150832Y76249D01*
X150696Y76322D01*
X150547Y76367D01*
X150393Y76382D01*
X140627Y76382D01*
X138779D01*
X138548Y76367D01*
X138320Y76321D01*
X138100Y76247D01*
X137892Y76144D01*
X137699Y76015D01*
X137524Y75862D01*
X137371Y75687D01*
X137242Y75494D01*
X137139Y75286D01*
X137065Y75066D01*
X137019Y74838D01*
X137004Y74606D01*
Y74410D01*
X137004Y74409D01*
X137004Y55713D01*
X137004Y55709D01*
Y52165D01*
X137004Y52161D01*
Y50984D01*
X137019Y50830D01*
X137064Y50681D01*
X137137Y50545D01*
X137236Y50425D01*
X138639Y49022D01*
Y46063D01*
X138639Y46060D01*
Y43701D01*
X138651Y43521D01*
X138686Y43343D01*
X138744Y43172D01*
X138824Y43010D01*
X138924Y42860D01*
X139043Y42724D01*
X139179Y42605D01*
X139329Y42505D01*
X139491Y42425D01*
X139662Y42367D01*
X139839Y42332D01*
X140020Y42320D01*
X141201D01*
X141381Y42332D01*
X141558Y42367D01*
X141729Y42425D01*
X141891Y42505D01*
X142041Y42605D01*
X142177Y42724D01*
X142296Y42860D01*
X142397Y43010D01*
X142477Y43172D01*
X142535Y43343D01*
X142570Y43521D01*
X142582Y43701D01*
Y46060D01*
X142582Y46063D01*
Y48957D01*
X143284Y49799D01*
X148345Y49799D01*
X148498Y49658D01*
X148618Y49458D01*
X148773Y49012D01*
X148744Y48954D01*
X148686Y48783D01*
X148651Y48605D01*
X148639Y48425D01*
Y43701D01*
X148651Y43521D01*
X148686Y43343D01*
X148744Y43172D01*
X148824Y43010D01*
X148924Y42860D01*
X149043Y42724D01*
X149179Y42605D01*
X149329Y42505D01*
X149491Y42425D01*
X149662Y42367D01*
X149839Y42332D01*
X150020Y42320D01*
X151201D01*
X151381Y42332D01*
X151558Y42367D01*
X151729Y42425D01*
X151891Y42505D01*
X152041Y42605D01*
X152177Y42724D01*
X152296Y42860D01*
X152397Y43010D01*
X152477Y43172D01*
X152535Y43343D01*
X152570Y43521D01*
X152582Y43701D01*
Y44878D01*
X154931D01*
X154933Y44847D01*
X154978Y44619D01*
X155053Y44399D01*
X155155Y44191D01*
X155284Y43998D01*
X155438Y43823D01*
X155612Y43670D01*
X155805Y43541D01*
X156014Y43438D01*
X156233Y43364D01*
X156461Y43319D01*
X156693Y43303D01*
X159843D01*
X160074Y43319D01*
X160302Y43364D01*
X160522Y43438D01*
X160730Y43541D01*
X160923Y43670D01*
X161098Y43823D01*
X161251Y43998D01*
X161380Y44191D01*
X161483Y44399D01*
X161557Y44619D01*
X161603Y44847D01*
X161618Y45079D01*
Y47047D01*
X161603Y47279D01*
X161557Y47507D01*
X161514Y47634D01*
X164169Y50289D01*
X164255Y50390D01*
X166929D01*
X167161Y50405D01*
X167389Y50450D01*
X167609Y50525D01*
X167817Y50628D01*
X168010Y50757D01*
X168185Y50910D01*
X168338Y51085D01*
X168467Y51278D01*
X168569Y51486D01*
X168644Y51706D01*
X168693Y51938D01*
X168898Y52162D01*
X170866D01*
X171217Y51548D01*
X171257Y51421D01*
Y15748D01*
Y15230D01*
X171259Y15193D01*
X171258Y15156D01*
X171265Y15082D01*
X171269Y15009D01*
X171275Y14973D01*
X171279Y14936D01*
X171294Y14864D01*
X171306Y14791D01*
X171316Y14755D01*
X171324Y14719D01*
X171592Y13718D01*
X171604Y13683D01*
X171613Y13647D01*
X171638Y13578D01*
X171661Y13508D01*
X171677Y13475D01*
X171689Y13440D01*
X171723Y13374D01*
X171754Y13307D01*
X171773Y13276D01*
X171789Y13243D01*
X172308Y12345D01*
X172328Y12314D01*
X172346Y12282D01*
X172388Y12222D01*
X172429Y12160D01*
X172452Y12132D01*
X172474Y12101D01*
X172523Y12046D01*
X172570Y11990D01*
X172596Y11964D01*
X172621Y11936D01*
X173354Y11203D01*
X173381Y11179D01*
X173407Y11152D01*
X173464Y11105D01*
X173519Y11056D01*
X173549Y11035D01*
X173577Y11011D01*
X173639Y10971D01*
X173699Y10928D01*
X173731Y10910D01*
X173762Y10890D01*
X174660Y10372D01*
X174693Y10355D01*
X174724Y10336D01*
X174792Y10305D01*
X174857Y10272D01*
X174892Y10259D01*
X174925Y10244D01*
X174996Y10221D01*
X175065Y10195D01*
X175100Y10186D01*
X175135Y10175D01*
X176137Y9907D01*
X176173Y9899D01*
X176208Y9889D01*
X176281Y9877D01*
X176353Y9861D01*
X176390Y9858D01*
X176426Y9852D01*
X176500Y9848D01*
X176573Y9841D01*
X176610Y9842D01*
X176647Y9839D01*
X177684D01*
X177720Y9842D01*
X177757Y9841D01*
X177831Y9848D01*
X177904Y9852D01*
X177941Y9858D01*
X177978Y9861D01*
X178050Y9877D01*
X178122Y9889D01*
X178158Y9899D01*
X178194Y9907D01*
X179195Y10175D01*
X179230Y10187D01*
X179266Y10195D01*
X179335Y10221D01*
X179405Y10244D01*
X179439Y10259D01*
X179473Y10272D01*
X179539Y10306D01*
X179606Y10336D01*
X179638Y10355D01*
X179671Y10372D01*
X180569Y10890D01*
X180599Y10910D01*
X180632Y10928D01*
X180692Y10971D01*
X180754Y11011D01*
X180782Y11035D01*
X180812Y11056D01*
X180867Y11105D01*
X180924Y11152D01*
X180949Y11179D01*
X180977Y11203D01*
X181710Y11936D01*
X181734Y11964D01*
X181761Y11990D01*
X181808Y12046D01*
X181857Y12101D01*
X181879Y12132D01*
X181902Y12160D01*
X181942Y12221D01*
X181985Y12282D01*
X182003Y12314D01*
X182023Y12345D01*
X182542Y13243D01*
X182558Y13275D01*
X182577Y13307D01*
X182608Y13374D01*
X182641Y13440D01*
X182654Y13475D01*
X182669Y13508D01*
X182692Y13578D01*
X182718Y13647D01*
X182727Y13683D01*
X182738Y13718D01*
X183007Y14719D01*
X183014Y14755D01*
X183025Y14791D01*
X183037Y14864D01*
X183052Y14936D01*
X183055Y14973D01*
X183062Y15009D01*
X183066Y15083D01*
X183073Y15156D01*
X183072Y15193D01*
X183074Y15230D01*
Y15748D01*
Y74803D01*
Y75322D01*
X183072Y75358D01*
X183073Y75395D01*
X183066Y75469D01*
X183062Y75542D01*
X183055Y75579D01*
X183052Y75615D01*
X183037Y75687D01*
X183025Y75760D01*
X183014Y75796D01*
X183007Y75832D01*
X182738Y76833D01*
X182727Y76868D01*
X182718Y76904D01*
X182692Y76973D01*
X182669Y77043D01*
X182654Y77077D01*
X182641Y77111D01*
X182608Y77177D01*
X182577Y77244D01*
X182558Y77276D01*
X182542Y77309D01*
X182023Y78206D01*
X182003Y78237D01*
X181985Y78269D01*
X181942Y78330D01*
X181902Y78391D01*
X181879Y78420D01*
X181857Y78450D01*
X181808Y78505D01*
X181761Y78562D01*
X181734Y78587D01*
X181710Y78615D01*
X180977Y79348D01*
X180949Y79372D01*
X180924Y79399D01*
X180867Y79446D01*
X180812Y79495D01*
X180782Y79516D01*
X180754Y79540D01*
X180692Y79580D01*
X180632Y79623D01*
X180599Y79641D01*
X180569Y79661D01*
X179671Y80179D01*
X179638Y80196D01*
X179606Y80215D01*
X179539Y80246D01*
X179473Y80279D01*
X179439Y80292D01*
X179405Y80307D01*
X179335Y80330D01*
X179266Y80356D01*
X179230Y80365D01*
X179195Y80376D01*
X178726Y80502D01*
X178724Y80503D01*
X178161Y80949D01*
X178140Y81145D01*
X178153Y81299D01*
Y83661D01*
X178619Y84131D01*
X178750Y84217D01*
X178832Y84249D01*
X224797D01*
X224880Y84254D01*
X224963Y84256D01*
X224990Y84260D01*
X225018Y84261D01*
X225100Y84275D01*
X225182Y84287D01*
X225942Y84438D01*
X226023Y84459D01*
X226104Y84477D01*
X226130Y84486D01*
X226156Y84493D01*
X226234Y84523D01*
X226312Y84550D01*
X227029Y84847D01*
X227104Y84883D01*
X227179Y84917D01*
X227203Y84931D01*
X227228Y84943D01*
X227298Y84987D01*
X227370Y85029D01*
X228014Y85460D01*
X228081Y85510D01*
X228148Y85558D01*
X228169Y85576D01*
X228191Y85593D01*
X228252Y85650D01*
X228313Y85705D01*
X228862Y86254D01*
X228917Y86315D01*
X228974Y86376D01*
X228991Y86398D01*
X229009Y86418D01*
X229057Y86486D01*
X229107Y86552D01*
X229538Y87197D01*
X229580Y87269D01*
X229624Y87339D01*
X229636Y87364D01*
X229650Y87388D01*
X229684Y87463D01*
X229720Y87538D01*
X230017Y88255D01*
X230044Y88333D01*
X230074Y88410D01*
X230081Y88437D01*
X230090Y88463D01*
X230108Y88544D01*
X230129Y88624D01*
X230280Y89385D01*
X230292Y89467D01*
X230306Y89549D01*
X230307Y89577D01*
X230311Y89604D01*
X230313Y89687D01*
X230318Y89770D01*
Y90158D01*
Y186221D01*
Y186608D01*
X230313Y186691D01*
X230311Y186774D01*
X230307Y186801D01*
X230306Y186829D01*
X230292Y186911D01*
X230280Y186993D01*
X230129Y187753D01*
X230108Y187834D01*
X230090Y187915D01*
X230081Y187941D01*
X230074Y187968D01*
X230044Y188045D01*
X230017Y188123D01*
X229720Y188840D01*
X229684Y188915D01*
X229650Y188990D01*
X229636Y189014D01*
X229624Y189039D01*
X229580Y189109D01*
X229538Y189181D01*
X229107Y189825D01*
X229057Y189892D01*
X229009Y189959D01*
X228991Y189980D01*
X228974Y190002D01*
X228917Y190063D01*
X228862Y190124D01*
X228313Y190673D01*
X228252Y190728D01*
X228191Y190785D01*
X228169Y190802D01*
X228148Y190820D01*
X228081Y190868D01*
X228014Y190918D01*
X227370Y191349D01*
X227298Y191391D01*
X227228Y191435D01*
X227203Y191447D01*
X227179Y191461D01*
X227104Y191495D01*
X227029Y191531D01*
X226312Y191828D01*
X226234Y191855D01*
X226157Y191885D01*
X226130Y191892D01*
X226104Y191901D01*
X226023Y191919D01*
X225942Y191940D01*
X225182Y192091D01*
X225100Y192103D01*
X225018Y192117D01*
X224990Y192118D01*
X224963Y192122D01*
X224880Y192124D01*
X224797Y192129D01*
X216060D01*
X215976Y192219D01*
X215758Y192688D01*
X215711Y192917D01*
X215803Y193045D01*
X215910Y193239D01*
X215995Y193443D01*
X216056Y193656D01*
X216093Y193874D01*
X216105Y194095D01*
Y198031D01*
X216093Y198252D01*
X216056Y198470D01*
X215995Y198683D01*
X215910Y198887D01*
X215803Y199080D01*
X215675Y199261D01*
X215528Y199426D01*
X215351Y199632D01*
X215275Y200016D01*
X215386Y200392D01*
X215502Y200637D01*
X215593Y200892D01*
X215659Y201154D01*
X215699Y201422D01*
X215712Y201693D01*
X215699Y201963D01*
X215659Y202231D01*
X215593Y202494D01*
X215502Y202749D01*
X215386Y202993D01*
X215723Y203630D01*
X215848Y203736D01*
X220057D01*
X220182Y203630D01*
X220519Y202993D01*
X220403Y202749D01*
X220312Y202494D01*
X220246Y202231D01*
X220207Y201963D01*
X220193Y201693D01*
X220207Y201422D01*
X220246Y201154D01*
X220312Y200892D01*
X220403Y200637D01*
X220519Y200392D01*
X220658Y200160D01*
X220820Y199942D01*
X221002Y199742D01*
X221202Y199560D01*
X221420Y199399D01*
X221652Y199259D01*
X221897Y199144D01*
X222152Y199052D01*
X222414Y198987D01*
X222682Y198947D01*
X222953Y198933D01*
X223223Y198947D01*
X223491Y198987D01*
X223754Y199052D01*
X224008Y199144D01*
X224253Y199259D01*
X224486Y199399D01*
X224703Y199560D01*
X224904Y199742D01*
X225085Y199942D01*
X225247Y200160D01*
X225386Y200392D01*
X225502Y200637D01*
X225593Y200892D01*
X225659Y201154D01*
X225698Y201422D01*
X225712Y201693D01*
X225698Y201963D01*
X225659Y202231D01*
X225593Y202494D01*
X225502Y202749D01*
X225386Y202993D01*
X225723Y203630D01*
X225848Y203736D01*
X226478D01*
X227555Y202659D01*
D02*
G37*
G36*
X160182Y203630D02*
X160519Y202993D01*
X160403Y202749D01*
X160312Y202494D01*
X160246Y202231D01*
X160207Y201963D01*
X160193Y201693D01*
X160207Y201422D01*
X160246Y201154D01*
X160312Y200892D01*
X160403Y200637D01*
X160519Y200392D01*
X160630Y200016D01*
X160554Y199632D01*
X160377Y199426D01*
X160230Y199261D01*
X160102Y199080D01*
X159995Y198887D01*
X159911Y198683D01*
X159849Y198470D01*
X159812Y198252D01*
X159800Y198031D01*
Y194095D01*
X159812Y193874D01*
X159849Y193656D01*
X159911Y193443D01*
X159995Y193239D01*
X160102Y193045D01*
X160194Y192917D01*
X160147Y192688D01*
X159929Y192219D01*
X159845Y192129D01*
X146060D01*
X145976Y192219D01*
X145758Y192688D01*
X145712Y192917D01*
X145803Y193045D01*
X145910Y193239D01*
X145995Y193443D01*
X146056Y193656D01*
X146093Y193874D01*
X146105Y194095D01*
Y198031D01*
X146093Y198252D01*
X146056Y198470D01*
X145995Y198683D01*
X145910Y198887D01*
X145803Y199080D01*
X145675Y199261D01*
X145528Y199426D01*
X145351Y199632D01*
X145275Y200016D01*
X145386Y200392D01*
X145502Y200637D01*
X145593Y200892D01*
X145659Y201154D01*
X145699Y201422D01*
X145712Y201693D01*
X145699Y201963D01*
X145659Y202231D01*
X145593Y202494D01*
X145502Y202749D01*
X145386Y202993D01*
X145723Y203630D01*
X145848Y203736D01*
X150057D01*
X150182Y203630D01*
X150519Y202993D01*
X150403Y202749D01*
X150312Y202494D01*
X150246Y202231D01*
X150207Y201963D01*
X150193Y201693D01*
X150207Y201422D01*
X150246Y201154D01*
X150312Y200892D01*
X150403Y200637D01*
X150519Y200392D01*
X150658Y200160D01*
X150820Y199942D01*
X151002Y199742D01*
X151202Y199560D01*
X151420Y199399D01*
X151652Y199259D01*
X151897Y199144D01*
X152152Y199052D01*
X152414Y198987D01*
X152682Y198947D01*
X152953Y198933D01*
X153223Y198947D01*
X153491Y198987D01*
X153754Y199052D01*
X154008Y199144D01*
X154253Y199259D01*
X154486Y199399D01*
X154703Y199560D01*
X154904Y199742D01*
X155086Y199942D01*
X155247Y200160D01*
X155386Y200392D01*
X155502Y200637D01*
X155593Y200892D01*
X155659Y201154D01*
X155699Y201422D01*
X155712Y201693D01*
X155699Y201963D01*
X155659Y202231D01*
X155593Y202494D01*
X155502Y202749D01*
X155386Y202993D01*
X155723Y203630D01*
X155848Y203736D01*
X160057D01*
X160182Y203630D01*
D02*
G37*
G36*
X200182D02*
X200519Y202993D01*
X200403Y202749D01*
X200312Y202494D01*
X200246Y202231D01*
X200207Y201963D01*
X200193Y201693D01*
X200207Y201422D01*
X200246Y201154D01*
X200312Y200892D01*
X200403Y200637D01*
X200519Y200392D01*
X200630Y200016D01*
X200554Y199632D01*
X200377Y199426D01*
X200230Y199261D01*
X200102Y199080D01*
X199995Y198887D01*
X199911Y198683D01*
X199849Y198470D01*
X199812Y198252D01*
X199800Y198031D01*
Y194095D01*
X199812Y193874D01*
X199849Y193656D01*
X199911Y193443D01*
X199995Y193239D01*
X200102Y193045D01*
X200194Y192917D01*
X200147Y192688D01*
X199929Y192219D01*
X199845Y192129D01*
X196060D01*
X195976Y192219D01*
X195758Y192688D01*
X195712Y192917D01*
X195803Y193045D01*
X195910Y193239D01*
X195995Y193443D01*
X196056Y193656D01*
X196093Y193874D01*
X196105Y194095D01*
Y198031D01*
X196093Y198252D01*
X196056Y198470D01*
X195995Y198683D01*
X195910Y198887D01*
X195803Y199080D01*
X195675Y199261D01*
X195528Y199426D01*
X195351Y199632D01*
X195275Y200016D01*
X195386Y200392D01*
X195502Y200637D01*
X195593Y200892D01*
X195659Y201154D01*
X195699Y201422D01*
X195712Y201693D01*
X195699Y201963D01*
X195659Y202231D01*
X195593Y202494D01*
X195502Y202749D01*
X195386Y202993D01*
X195723Y203630D01*
X195848Y203736D01*
X200057D01*
X200182Y203630D01*
D02*
G37*
G36*
X140182D02*
X140519Y202993D01*
X140403Y202749D01*
X140312Y202494D01*
X140246Y202231D01*
X140207Y201963D01*
X140193Y201693D01*
X140207Y201422D01*
X140246Y201154D01*
X140312Y200892D01*
X140403Y200637D01*
X140519Y200392D01*
X140630Y200016D01*
X140554Y199632D01*
X140377Y199426D01*
X140230Y199261D01*
X140102Y199080D01*
X139995Y198887D01*
X139911Y198683D01*
X139849Y198470D01*
X139812Y198252D01*
X139800Y198031D01*
Y194095D01*
X139812Y193874D01*
X139849Y193656D01*
X139911Y193443D01*
X139995Y193239D01*
X140102Y193045D01*
X140230Y192865D01*
X140377Y192700D01*
X140542Y192553D01*
X140723Y192425D01*
X140916Y192318D01*
X141120Y192234D01*
X141333Y192172D01*
X141551Y192135D01*
X141771Y192123D01*
X142184D01*
X142276Y192004D01*
X142106Y190946D01*
X142064Y190918D01*
X141998Y190868D01*
X141930Y190820D01*
X141910Y190802D01*
X141888Y190785D01*
X141827Y190728D01*
X141765Y190673D01*
X141217Y190124D01*
X141162Y190062D01*
X141105Y190002D01*
X141088Y189980D01*
X141070Y189959D01*
X141022Y189892D01*
X140972Y189825D01*
X140541Y189181D01*
X140499Y189109D01*
X140455Y189039D01*
X140443Y189014D01*
X140429Y188990D01*
X140395Y188915D01*
X140359Y188840D01*
X140062Y188123D01*
X140035Y188045D01*
X140005Y187968D01*
X139998Y187941D01*
X139989Y187915D01*
X139971Y187834D01*
X139950Y187753D01*
X139799Y186993D01*
X139787Y186911D01*
X139773Y186829D01*
X139771Y186801D01*
X139768Y186774D01*
X139765Y186691D01*
X139761Y186608D01*
X139761Y186220D01*
Y180080D01*
X139737Y179990D01*
X139689Y179904D01*
X138973Y179336D01*
X122248Y179389D01*
Y182480D01*
Y192123D01*
X124134D01*
X124355Y192135D01*
X124572Y192172D01*
X124785Y192234D01*
X124989Y192318D01*
X125183Y192425D01*
X125363Y192553D01*
X125528Y192700D01*
X125675Y192865D01*
X125803Y193045D01*
X125910Y193239D01*
X125995Y193443D01*
X126056Y193656D01*
X126093Y193874D01*
X126105Y194095D01*
Y198031D01*
X126093Y198252D01*
X126056Y198470D01*
X125995Y198683D01*
X125910Y198887D01*
X125803Y199080D01*
X125675Y199261D01*
X125528Y199426D01*
X125351Y199632D01*
X125275Y200016D01*
X125386Y200392D01*
X125502Y200637D01*
X125593Y200892D01*
X125659Y201154D01*
X125699Y201422D01*
X125712Y201693D01*
X125699Y201963D01*
X125659Y202231D01*
X125593Y202494D01*
X125502Y202749D01*
X125386Y202993D01*
X125723Y203630D01*
X125848Y203736D01*
X130057D01*
X130182Y203630D01*
X130519Y202993D01*
X130403Y202749D01*
X130312Y202494D01*
X130246Y202231D01*
X130207Y201963D01*
X130193Y201693D01*
X130207Y201422D01*
X130246Y201154D01*
X130312Y200892D01*
X130403Y200637D01*
X130519Y200392D01*
X130630Y200016D01*
X130554Y199632D01*
X130377Y199426D01*
X130230Y199261D01*
X130102Y199080D01*
X129995Y198887D01*
X129911Y198683D01*
X129849Y198470D01*
X129812Y198252D01*
X129800Y198031D01*
Y194095D01*
X129812Y193874D01*
X129849Y193656D01*
X129911Y193443D01*
X129995Y193239D01*
X130102Y193045D01*
X130230Y192865D01*
X130377Y192700D01*
X130542Y192553D01*
X130723Y192425D01*
X130916Y192318D01*
X131120Y192234D01*
X131333Y192172D01*
X131551Y192135D01*
X131772Y192123D01*
X134134D01*
X134354Y192135D01*
X134572Y192172D01*
X134785Y192234D01*
X134989Y192318D01*
X135183Y192425D01*
X135363Y192553D01*
X135528Y192700D01*
X135675Y192865D01*
X135803Y193045D01*
X135910Y193239D01*
X135995Y193443D01*
X136056Y193656D01*
X136093Y193874D01*
X136105Y194095D01*
Y198031D01*
X136093Y198252D01*
X136056Y198470D01*
X135995Y198683D01*
X135910Y198887D01*
X135803Y199080D01*
X135675Y199261D01*
X135528Y199426D01*
X135351Y199632D01*
X135275Y200016D01*
X135386Y200392D01*
X135502Y200637D01*
X135593Y200892D01*
X135659Y201154D01*
X135699Y201422D01*
X135712Y201693D01*
X135699Y201963D01*
X135659Y202231D01*
X135593Y202494D01*
X135502Y202749D01*
X135386Y202993D01*
X135723Y203630D01*
X135848Y203736D01*
X140057D01*
X140182Y203630D01*
D02*
G37*
G36*
X88382Y185336D02*
Y158583D01*
X88278Y158468D01*
X81987D01*
X79137Y161318D01*
Y171457D01*
X79123Y171642D01*
X79080Y171823D01*
X79008Y171995D01*
X78911Y172153D01*
X78790Y172294D01*
X75424Y175661D01*
X75283Y175781D01*
X75125Y175878D01*
X74953Y175950D01*
X74772Y175993D01*
X74587Y176008D01*
X67523D01*
Y178830D01*
X67683Y179033D01*
X68195Y179358D01*
X68311Y179374D01*
X68469Y179342D01*
X68701Y179327D01*
X70669D01*
X70901Y179342D01*
X71129Y179387D01*
X71349Y179462D01*
X71557Y179565D01*
X71750Y179694D01*
X71925Y179847D01*
X72078Y180022D01*
X72207Y180215D01*
X72310Y180423D01*
X72384Y180643D01*
X72430Y180871D01*
X72445Y181102D01*
Y184252D01*
X72430Y184484D01*
X72384Y184712D01*
X72310Y184931D01*
X72207Y185140D01*
X72078Y185333D01*
X71925Y185507D01*
X71789Y185626D01*
X71790Y185764D01*
X72040Y186414D01*
X87305D01*
X88382Y185336D01*
D02*
G37*
G36*
X24996Y200956D02*
Y171264D01*
X18298D01*
X18296Y171295D01*
X18250Y171522D01*
X18176Y171742D01*
X18073Y171951D01*
X17944Y172144D01*
X17791Y172318D01*
X17616Y172472D01*
X17423Y172601D01*
X17215Y172703D01*
X16995Y172778D01*
X16767Y172823D01*
X16535Y172838D01*
X13386D01*
X13154Y172823D01*
X12926Y172778D01*
X12706Y172703D01*
X12498Y172601D01*
X12305Y172472D01*
X12130Y172318D01*
X11977Y172144D01*
X11848Y171951D01*
X11745Y171742D01*
X11671Y171522D01*
X11626Y171295D01*
X11610Y171063D01*
Y169095D01*
X11626Y168863D01*
X11671Y168635D01*
X11745Y168415D01*
X11848Y168207D01*
X11977Y168014D01*
X12130Y167839D01*
X12305Y167686D01*
X12498Y167557D01*
X12706Y167454D01*
X12926Y167379D01*
X13154Y167334D01*
X13272Y167326D01*
X13247Y166539D01*
X11728D01*
X9846Y168421D01*
Y170473D01*
X9832Y170679D01*
X9792Y170881D01*
X9726Y171077D01*
X9634Y171262D01*
X9520Y171433D01*
X9384Y171589D01*
X9228Y171725D01*
X9057Y171839D01*
X8872Y171931D01*
X8676Y171997D01*
X8474Y172037D01*
X8268Y172051D01*
X6693D01*
X6487Y172037D01*
X6284Y171997D01*
X6089Y171931D01*
X5904Y171839D01*
X5732Y171725D01*
X5577Y171589D01*
X5441Y171433D01*
X5326Y171262D01*
X5235Y171077D01*
X5169Y170881D01*
X5128Y170679D01*
X5115Y170473D01*
Y168111D01*
X5128Y167905D01*
X5169Y167702D01*
X5235Y167507D01*
X5326Y167322D01*
X5441Y167150D01*
X5577Y166995D01*
X5732Y166858D01*
X5904Y166744D01*
X6089Y166653D01*
X6284Y166586D01*
X6487Y166546D01*
X6693Y166532D01*
X8268D01*
X8376Y166540D01*
X10399Y164517D01*
X10541Y164396D01*
X10699Y164299D01*
X10871Y164228D01*
X11052Y164184D01*
X11237Y164170D01*
X13247D01*
X13272Y163382D01*
X13154Y163374D01*
X12926Y163329D01*
X12706Y163254D01*
X12498Y163152D01*
X12305Y163023D01*
X12130Y162870D01*
X11977Y162695D01*
X11964Y162675D01*
X11769Y162557D01*
X11472Y162473D01*
X11091Y162444D01*
X10974Y162471D01*
X10971Y162473D01*
X10799Y162544D01*
X10618Y162588D01*
X10433Y162602D01*
X9846D01*
X9832Y162805D01*
X9792Y163007D01*
X9726Y163203D01*
X9634Y163388D01*
X9520Y163559D01*
X9384Y163715D01*
X9228Y163851D01*
X9057Y163965D01*
X8872Y164057D01*
X8676Y164123D01*
X8474Y164163D01*
X8268Y164177D01*
X6693D01*
X6487Y164163D01*
X6284Y164123D01*
X6089Y164057D01*
X5904Y163965D01*
X5732Y163851D01*
X5577Y163715D01*
X5441Y163559D01*
X5326Y163388D01*
X5235Y163203D01*
X5169Y163007D01*
X5128Y162805D01*
X5115Y162599D01*
Y160237D01*
X5128Y160031D01*
X5169Y159828D01*
X5235Y159633D01*
X5326Y159448D01*
X5441Y159276D01*
X5577Y159121D01*
X5732Y158984D01*
X5904Y158870D01*
X6089Y158779D01*
X6284Y158712D01*
X6487Y158672D01*
X6693Y158658D01*
X8268D01*
X8474Y158672D01*
X8676Y158712D01*
X8872Y158779D01*
X9057Y158870D01*
X9228Y158984D01*
X9384Y159121D01*
X9520Y159276D01*
X9634Y159448D01*
X10036Y159633D01*
X10123Y159652D01*
X10524Y159671D01*
X10683Y159574D01*
X10854Y159503D01*
X11035Y159460D01*
X11220Y159445D01*
X11624D01*
X11626Y159414D01*
X11671Y159186D01*
X11745Y158966D01*
X11848Y158758D01*
X11977Y158565D01*
X12130Y158390D01*
X12305Y158237D01*
X12498Y158108D01*
X12706Y158005D01*
X12926Y157931D01*
X13154Y157885D01*
X13386Y157870D01*
X15862D01*
X16022Y157793D01*
X16122Y157701D01*
X16532Y157087D01*
X16122Y156473D01*
X16022Y156380D01*
X15862Y156303D01*
X13386D01*
X13154Y156288D01*
X12926Y156243D01*
X12706Y156168D01*
X12498Y156065D01*
X12305Y155936D01*
X12130Y155783D01*
X11977Y155608D01*
X11848Y155415D01*
X11745Y155207D01*
X11671Y154987D01*
X11626Y154759D01*
X11610Y154528D01*
Y152559D01*
X11626Y152327D01*
X11671Y152100D01*
X11745Y151880D01*
X11848Y151671D01*
X11977Y151478D01*
X12130Y151304D01*
X12305Y151151D01*
X12498Y151022D01*
X12706Y150919D01*
X12926Y150844D01*
X13154Y150799D01*
X13386Y150784D01*
X16535D01*
X16767Y150799D01*
X16995Y150844D01*
X17215Y150919D01*
X17423Y151022D01*
X17616Y151151D01*
X17791Y151304D01*
X17944Y151478D01*
X18019Y151591D01*
X18039Y151599D01*
X18455Y151654D01*
X18870Y151599D01*
X18890Y151591D01*
X18966Y151478D01*
X19119Y151304D01*
X19293Y151151D01*
X19486Y151022D01*
X19695Y150919D01*
X19915Y150844D01*
X20142Y150799D01*
X20374Y150784D01*
X23524D01*
X23755Y150799D01*
X23983Y150844D01*
X24203Y150919D01*
X24209Y150922D01*
X24767Y150683D01*
X24996Y150465D01*
Y90776D01*
X25003Y90709D01*
X25008Y90642D01*
X25010Y90632D01*
X25011Y90622D01*
X25031Y90557D01*
X25049Y90493D01*
X25053Y90483D01*
X25056Y90473D01*
X25088Y90414D01*
X25118Y90354D01*
X25125Y90346D01*
X25130Y90336D01*
X25172Y90285D01*
X25213Y90231D01*
X29347Y85873D01*
X29355Y85866D01*
X29362Y85858D01*
X29414Y85815D01*
X29464Y85771D01*
X29474Y85766D01*
X29482Y85760D01*
X29541Y85728D01*
X29599Y85695D01*
X29609Y85691D01*
X29618Y85686D01*
X29683Y85667D01*
X29746Y85646D01*
X29757Y85644D01*
X29767Y85641D01*
X29834Y85635D01*
X29900Y85626D01*
X29911Y85627D01*
X29921Y85626D01*
X50595Y85626D01*
X55717Y80727D01*
X55771Y80685D01*
X55824Y80641D01*
X55832Y80637D01*
X55839Y80632D01*
X55900Y80601D01*
X55961Y80568D01*
X55969Y80566D01*
X55977Y80562D01*
X56043Y80543D01*
X56109Y80523D01*
X56118Y80522D01*
X56126Y80520D01*
X56195Y80515D01*
X56263Y80508D01*
X73425Y80508D01*
X73580Y80523D01*
X73728Y80568D01*
X73865Y80641D01*
X73985Y80740D01*
X74969Y81724D01*
X74969Y81724D01*
X75639Y81613D01*
X75783Y81554D01*
X75801Y81545D01*
X76606Y80740D01*
X76726Y80641D01*
X76798Y80603D01*
X76863Y80568D01*
X77011Y80523D01*
X77165Y80508D01*
X87795Y80508D01*
X87950Y80523D01*
X88098Y80568D01*
X88235Y80641D01*
X88355Y80740D01*
X88583Y80968D01*
X89370Y80968D01*
X89598Y80740D01*
X89718Y80641D01*
X89718Y80641D01*
X89855Y80568D01*
X90003Y80523D01*
X90157Y80508D01*
X103216Y80508D01*
X104524Y79200D01*
Y75970D01*
X103796Y75669D01*
X102134Y77331D01*
X102015Y77429D01*
X102014Y77429D01*
X101878Y77503D01*
X101729Y77548D01*
X101575Y77563D01*
X53347Y77563D01*
X51549D01*
X51344Y77750D01*
X51051Y78350D01*
X51052Y78352D01*
X51126Y78607D01*
X51170Y78869D01*
X51185Y79134D01*
Y79921D01*
X43303D01*
Y79134D01*
X43318Y78869D01*
X43363Y78607D01*
X43436Y78352D01*
X43437Y78350D01*
X43144Y77750D01*
X42939Y77563D01*
X40769Y77563D01*
X40582Y77790D01*
X40397Y78350D01*
X40472Y78448D01*
X40657Y78738D01*
X40816Y79043D01*
X40947Y79361D01*
X41051Y79689D01*
X41125Y80024D01*
X41170Y80365D01*
X41185Y80709D01*
X41170Y81052D01*
X41125Y81393D01*
X41051Y81729D01*
X40947Y82056D01*
X40816Y82374D01*
X40657Y82679D01*
X40472Y82969D01*
X40263Y83242D01*
X40031Y83495D01*
X39777Y83727D01*
X39504Y83937D01*
X39215Y84122D01*
X38910Y84280D01*
X38592Y84412D01*
X38264Y84515D01*
X37928Y84589D01*
X37587Y84634D01*
X37244Y84649D01*
X36901Y84634D01*
X36560Y84589D01*
X36224Y84515D01*
X35896Y84412D01*
X35579Y84280D01*
X35274Y84122D01*
X34984Y83937D01*
X34711Y83727D01*
X34458Y83495D01*
X34225Y83242D01*
X34016Y82969D01*
X33831Y82679D01*
X33673Y82374D01*
X33541Y82056D01*
X33438Y81729D01*
X33363Y81393D01*
X33318Y81052D01*
X33303Y80709D01*
X33318Y80365D01*
X33363Y80024D01*
X33438Y79689D01*
X33541Y79361D01*
X33673Y79043D01*
X33831Y78738D01*
X34016Y78448D01*
X34091Y78350D01*
X33907Y77790D01*
X33719Y77563D01*
X23228D01*
X23074Y77548D01*
X22926Y77503D01*
X22789Y77429D01*
X22669Y77331D01*
X19161Y73823D01*
X6299Y73823D01*
X6145Y73808D01*
X5996Y73762D01*
X5860Y73689D01*
X5740Y73591D01*
X5346Y73197D01*
X5248Y73077D01*
X5175Y72940D01*
X5129Y72792D01*
X5114Y72638D01*
X5114Y62008D01*
X5130Y61853D01*
X5175Y61705D01*
X5175Y61705D01*
X5248Y61568D01*
X5248Y61568D01*
X5346Y61448D01*
X5561Y61234D01*
X5570Y61215D01*
X5629Y61072D01*
X5644Y60975D01*
X5644Y60428D01*
X5561Y60223D01*
X5346Y60008D01*
X5248Y59888D01*
X5175Y59752D01*
X5130Y59603D01*
X5114Y59449D01*
X5114Y45703D01*
X5129Y45549D01*
X5175Y45400D01*
X5248Y45263D01*
X5346Y45144D01*
X5579Y44910D01*
X5965Y44452D01*
X5942Y44177D01*
X5811Y43962D01*
X5704Y43769D01*
X5619Y43565D01*
X5558Y43352D01*
X5521Y43134D01*
X5509Y42913D01*
X5521Y42693D01*
X5558Y42475D01*
X5619Y42262D01*
X5704Y42058D01*
X5939Y41624D01*
X5937Y41352D01*
X5561Y40932D01*
X5346Y40717D01*
X5248Y40597D01*
X5175Y40460D01*
X5129Y40312D01*
X5114Y40157D01*
X5114Y28346D01*
X5130Y28192D01*
X5175Y28044D01*
X5248Y27907D01*
X5346Y27787D01*
X5740Y27393D01*
X5860Y27295D01*
X5996Y27222D01*
X6145Y27177D01*
X6299Y27161D01*
X21063Y27161D01*
X24672D01*
X27949Y23885D01*
Y18307D01*
X27964Y18153D01*
X28009Y18004D01*
X28082Y17867D01*
X28181Y17748D01*
X29362Y16567D01*
X29482Y16468D01*
X29618Y16395D01*
X29767Y16350D01*
X29921Y16335D01*
X39370Y16335D01*
X39524Y16350D01*
X39673Y16395D01*
X39810Y16468D01*
X39930Y16567D01*
X41111Y17748D01*
X41209Y17867D01*
X41282Y18004D01*
X41327Y18153D01*
X41342Y18307D01*
X41342Y30512D01*
X41327Y30666D01*
X41282Y30815D01*
X41209Y30951D01*
X41111Y31071D01*
X36618Y35564D01*
X36618Y41142D01*
X36603Y41296D01*
X36558Y41445D01*
X36485Y41581D01*
X36386Y41701D01*
X35402Y42685D01*
X35282Y42784D01*
X35145Y42857D01*
X34997Y42902D01*
X34843Y42917D01*
X23031D01*
X22571Y43371D01*
X22445Y43565D01*
Y44884D01*
X22489Y44915D01*
X22654Y45063D01*
X22801Y45227D01*
X22929Y45408D01*
X23036Y45601D01*
X23121Y45805D01*
X23182Y46018D01*
X23219Y46236D01*
X23231Y46457D01*
X23219Y46677D01*
X23182Y46895D01*
X23121Y47108D01*
X23036Y47312D01*
X23006Y47690D01*
X23150Y48040D01*
X23331Y48224D01*
X23476Y48389D01*
X23598Y48571D01*
X23695Y48768D01*
X23765Y48976D01*
X23808Y49191D01*
X23809Y49209D01*
X25390D01*
Y48819D01*
X25405Y48587D01*
X25450Y48359D01*
X25525Y48140D01*
X25628Y47931D01*
X25757Y47738D01*
X25910Y47563D01*
X26085Y47410D01*
X26278Y47281D01*
X26486Y47179D01*
X26706Y47104D01*
X26934Y47059D01*
X27165Y47043D01*
X29134D01*
X29366Y47059D01*
X29593Y47104D01*
X29813Y47179D01*
X30022Y47281D01*
X30215Y47410D01*
X30389Y47563D01*
X30542Y47738D01*
X30671Y47931D01*
X30774Y48140D01*
X30849Y48359D01*
X30894Y48587D01*
X30896Y48618D01*
X32490D01*
X32492Y48587D01*
X32537Y48359D01*
X32612Y48140D01*
X32714Y47931D01*
X32843Y47738D01*
X32996Y47563D01*
X33171Y47410D01*
X33364Y47281D01*
X33573Y47179D01*
X33792Y47104D01*
X34020Y47059D01*
X34252Y47043D01*
X36220D01*
X36452Y47059D01*
X36680Y47104D01*
X36900Y47179D01*
X37108Y47281D01*
X37301Y47410D01*
X37476Y47563D01*
X37629Y47738D01*
X37758Y47931D01*
X37861Y48140D01*
X37935Y48359D01*
X37981Y48587D01*
X37996Y48815D01*
X38986D01*
X38988Y48784D01*
X39033Y48556D01*
X39108Y48336D01*
X39210Y48128D01*
X39340Y47935D01*
X39493Y47760D01*
X39667Y47607D01*
X39860Y47478D01*
X40069Y47376D01*
X40288Y47301D01*
X40516Y47256D01*
X40748Y47240D01*
X43898D01*
X44129Y47256D01*
X44357Y47301D01*
X44577Y47376D01*
X44785Y47478D01*
X44978Y47607D01*
X45153Y47760D01*
X45306Y47935D01*
X45435Y48128D01*
X45538Y48336D01*
X45613Y48556D01*
X45658Y48784D01*
X45660Y48815D01*
X46850D01*
X47036Y48830D01*
X47216Y48873D01*
X47388Y48944D01*
X47547Y49042D01*
X47688Y49162D01*
X47932Y49406D01*
X48396D01*
X51986Y45816D01*
X52127Y45695D01*
X52286Y45598D01*
X52457Y45527D01*
X52638Y45483D01*
X52824Y45469D01*
X70276D01*
X70461Y45483D01*
X70642Y45527D01*
X70814Y45598D01*
X70972Y45695D01*
X71113Y45816D01*
X72688Y47391D01*
X72809Y47532D01*
X72906Y47690D01*
X72977Y47862D01*
X73021Y48043D01*
X73035Y48228D01*
Y49326D01*
X73425D01*
X73690Y49341D01*
X73952Y49386D01*
X74207Y49459D01*
X74452Y49561D01*
X74684Y49689D01*
X74900Y49843D01*
X75098Y50019D01*
X75275Y50217D01*
X75428Y50433D01*
X75557Y50666D01*
X75658Y50911D01*
X75732Y51166D01*
X75776Y51427D01*
X75791Y51692D01*
Y54842D01*
X75776Y55107D01*
X75732Y55368D01*
X75658Y55623D01*
X75557Y55868D01*
X75428Y56101D01*
X75275Y56317D01*
X75098Y56515D01*
X74900Y56692D01*
X74684Y56845D01*
X74452Y56973D01*
X74207Y57075D01*
X73952Y57148D01*
X73690Y57193D01*
X73425Y57208D01*
X70276D01*
X70011Y57193D01*
X69749Y57148D01*
X69494Y57075D01*
X69249Y56973D01*
X69017Y56845D01*
X68800Y56692D01*
X68603Y56515D01*
X68426Y56317D01*
X68272Y56101D01*
X68144Y55868D01*
X68042Y55623D01*
X67969Y55368D01*
X67924Y55107D01*
X67910Y54842D01*
Y51692D01*
X67924Y51427D01*
X67969Y51166D01*
X68042Y50911D01*
X68144Y50666D01*
X68272Y50433D01*
X68426Y50217D01*
X68603Y50019D01*
X68800Y49843D01*
X69017Y49689D01*
X69249Y49561D01*
X69494Y49459D01*
X69749Y49386D01*
X70011Y49341D01*
X70236Y49329D01*
X70306Y49211D01*
X70486Y48539D01*
X69785Y47838D01*
X53834D01*
X53631Y47955D01*
X53153Y48425D01*
Y51772D01*
X53148Y51837D01*
X53214Y51874D01*
X53395Y52002D01*
X53559Y52149D01*
X53595Y52189D01*
X53823Y52268D01*
X54196Y52293D01*
X54437Y52275D01*
X54583Y52221D01*
X54619Y52191D01*
X54777Y52094D01*
X54949Y52023D01*
X55130Y51979D01*
X55315Y51965D01*
X56890D01*
X57075Y51979D01*
X57256Y52023D01*
X57428Y52094D01*
X57586Y52191D01*
X57727Y52312D01*
X57767Y52359D01*
X58268D01*
X58453Y52373D01*
X58634Y52416D01*
X58806Y52488D01*
X58964Y52585D01*
X59105Y52706D01*
X60724Y54324D01*
X60726Y54327D01*
X63583D01*
X63814Y54342D01*
X64042Y54387D01*
X64262Y54462D01*
X64470Y54565D01*
X64663Y54694D01*
X64838Y54847D01*
X64991Y55022D01*
X65120Y55215D01*
X65223Y55423D01*
X65298Y55643D01*
X65343Y55871D01*
X65358Y56102D01*
Y58071D01*
X65343Y58303D01*
X65298Y58530D01*
X65223Y58750D01*
X65120Y58959D01*
X64991Y59152D01*
X64838Y59326D01*
X64663Y59479D01*
X64470Y59608D01*
X64262Y59711D01*
X64042Y59786D01*
X63814Y59831D01*
X63583Y59846D01*
X63330D01*
X63305Y60634D01*
X63421Y60641D01*
X63648Y60687D01*
X63868Y60761D01*
X64077Y60864D01*
X64270Y60993D01*
X64444Y61146D01*
X64597Y61321D01*
X64727Y61514D01*
X64829Y61722D01*
X64904Y61942D01*
X64949Y62170D01*
X64964Y62402D01*
Y65551D01*
X64952Y65744D01*
X64955Y65792D01*
X65314Y66351D01*
X65527Y66527D01*
X65539Y66532D01*
X68434D01*
X68751Y65948D01*
X68789Y65744D01*
X68622Y65527D01*
X68438Y65237D01*
X68279Y64933D01*
X68147Y64615D01*
X68044Y64287D01*
X67992Y64055D01*
X75708D01*
X75657Y64287D01*
X75554Y64615D01*
X75422Y64933D01*
X75263Y65237D01*
X75078Y65527D01*
X74912Y65744D01*
X74950Y65948D01*
X75267Y66532D01*
X76641D01*
X77752Y65420D01*
X77752Y55360D01*
X77752Y55358D01*
Y44388D01*
X76085Y42721D01*
X73022D01*
X73020Y42752D01*
X72975Y42980D01*
X72900Y43200D01*
X72797Y43408D01*
X72668Y43601D01*
X72515Y43776D01*
X72341Y43929D01*
X72148Y44058D01*
X71939Y44161D01*
X71719Y44235D01*
X71492Y44281D01*
X71260Y44296D01*
X68110D01*
X67879Y44281D01*
X67651Y44235D01*
X67431Y44161D01*
X67222Y44058D01*
X67029Y43929D01*
X66855Y43776D01*
X66702Y43601D01*
X66573Y43408D01*
X66470Y43200D01*
X66395Y42980D01*
X66350Y42752D01*
X66335Y42520D01*
Y40552D01*
X66350Y40320D01*
X66395Y40092D01*
X66470Y39872D01*
X66573Y39664D01*
X66702Y39471D01*
X66855Y39296D01*
X67029Y39143D01*
X67222Y39014D01*
X67431Y38912D01*
X67651Y38837D01*
X67879Y38792D01*
X68110Y38776D01*
X71260D01*
X71492Y38792D01*
X71719Y38837D01*
X71939Y38912D01*
X72148Y39014D01*
X72341Y39143D01*
X72515Y39296D01*
X72668Y39471D01*
X72797Y39664D01*
X72900Y39872D01*
X72975Y40092D01*
X73020Y40320D01*
X73022Y40351D01*
X76575D01*
X76761Y40366D01*
X76942Y40409D01*
X77113Y40481D01*
X77272Y40578D01*
X77413Y40698D01*
X79775Y43060D01*
X79896Y43201D01*
X79993Y43360D01*
X80064Y43532D01*
X80107Y43712D01*
X80122Y43898D01*
Y54790D01*
X80249Y54917D01*
X101575D01*
X101729Y54933D01*
X101878Y54978D01*
X102014Y55051D01*
X102134Y55149D01*
X103796Y56811D01*
X104524Y56510D01*
X104524Y7874D01*
X104452Y7587D01*
X104292Y7344D01*
X104079Y7179D01*
X103947Y7098D01*
X103829Y6997D01*
X103729Y6880D01*
X103648Y6747D01*
X103589Y6604D01*
X103552Y6454D01*
X103540Y6299D01*
Y3547D01*
X97441D01*
X97441Y3547D01*
X97132Y3532D01*
X96826Y3487D01*
X96826Y3487D01*
X96693Y3453D01*
X96692Y3453D01*
X96687Y3452D01*
X96526Y3412D01*
X96234Y3307D01*
X95954Y3175D01*
X95689Y3016D01*
X95440Y2832D01*
X95211Y2624D01*
X95003Y2394D01*
X94819Y2146D01*
X94736Y2007D01*
X29590D01*
X25594Y6002D01*
Y13780D01*
X25594Y13781D01*
X25580Y14359D01*
X25537Y14938D01*
X25466Y15513D01*
X25367Y16084D01*
X25240Y16650D01*
X25085Y17209D01*
X24904Y17760D01*
X24695Y18301D01*
X24460Y18831D01*
X24199Y19349D01*
X23913Y19853D01*
X23603Y20343D01*
X23269Y20818D01*
X22912Y21275D01*
X22534Y21714D01*
X22134Y22134D01*
X21714Y22534D01*
X21275Y22912D01*
X20818Y23269D01*
X20343Y23603D01*
X19853Y23913D01*
X19349Y24199D01*
X18831Y24460D01*
X18301Y24695D01*
X17760Y24904D01*
X17209Y25085D01*
X16650Y25240D01*
X16084Y25367D01*
X15513Y25466D01*
X14938Y25537D01*
X14359Y25580D01*
X13781Y25594D01*
X13780Y25594D01*
X6003D01*
X2007Y29590D01*
Y72835D01*
Y73025D01*
X2081Y73398D01*
X2227Y73749D01*
X2438Y74065D01*
X2707Y74334D01*
X3023Y74545D01*
X3374Y74691D01*
X3747Y74765D01*
X15748D01*
X15797Y74774D01*
X15846Y74767D01*
X16232Y74786D01*
X16377Y74822D01*
X16525D01*
X17282Y74973D01*
X17465Y75048D01*
X17659Y75087D01*
X18372Y75382D01*
X18536Y75492D01*
X18719Y75568D01*
X19361Y75997D01*
X19500Y76136D01*
X19665Y76246D01*
X20211Y76792D01*
X20320Y76956D01*
X20460Y77096D01*
X20889Y77738D01*
X20965Y77920D01*
X21074Y78085D01*
X21370Y78798D01*
X21408Y78992D01*
X21484Y79174D01*
X21634Y79931D01*
Y80080D01*
X21671Y80224D01*
X21690Y80610D01*
X21682Y80660D01*
X21692Y80709D01*
Y100051D01*
X21831Y100134D01*
X22079Y100318D01*
X22309Y100526D01*
X22516Y100755D01*
X22701Y101004D01*
X22860Y101269D01*
X22992Y101549D01*
X23096Y101840D01*
X23172Y102141D01*
X23172Y102141D01*
X23217Y102447D01*
X23232Y102756D01*
X23232D01*
Y116929D01*
X23232Y116929D01*
X23217Y117238D01*
X23172Y117544D01*
X23172Y117544D01*
X23138Y117677D01*
X23138Y117678D01*
X23137Y117683D01*
X23096Y117844D01*
X22992Y118136D01*
X22860Y118416D01*
X22701Y118681D01*
X22516Y118930D01*
X22309Y119159D01*
X22079Y119367D01*
X21831Y119551D01*
X21692Y119634D01*
Y139764D01*
X21682Y139813D01*
X21690Y139862D01*
X21671Y140248D01*
X21634Y140392D01*
Y140541D01*
X21484Y141298D01*
X21408Y141481D01*
X21370Y141675D01*
X21074Y142388D01*
X20965Y142552D01*
X20889Y142735D01*
X20460Y143377D01*
X20320Y143516D01*
X20211Y143681D01*
X19665Y144226D01*
X19500Y144336D01*
X19361Y144476D01*
X18719Y144905D01*
X18536Y144980D01*
X18372Y145090D01*
X17659Y145386D01*
X17465Y145424D01*
X17282Y145500D01*
X16525Y145650D01*
X16377D01*
X16232Y145686D01*
X15846Y145705D01*
X15797Y145698D01*
X15748Y145708D01*
X3747D01*
X3374Y145782D01*
X3023Y145928D01*
X2707Y146139D01*
X2438Y146407D01*
X2227Y146724D01*
X2081Y147075D01*
X2007Y147448D01*
Y147638D01*
Y190883D01*
X6003Y194878D01*
X13780D01*
X13781Y194878D01*
X14359Y194893D01*
X14938Y194935D01*
X15513Y195006D01*
X16084Y195105D01*
X16650Y195232D01*
X17209Y195387D01*
X17760Y195569D01*
X18301Y195778D01*
X18831Y196013D01*
X19349Y196273D01*
X19853Y196559D01*
X20343Y196870D01*
X20818Y197203D01*
X21275Y197560D01*
X21714Y197939D01*
X22134Y198339D01*
X22534Y198759D01*
X22912Y199198D01*
X23269Y199655D01*
X23603Y200129D01*
X23913Y200619D01*
X24199Y201124D01*
X24209Y201143D01*
X24996Y200956D01*
D02*
G37*
G36*
X52361Y179166D02*
X52359Y179134D01*
Y177559D01*
X52372Y177353D01*
X52413Y177150D01*
X52479Y176955D01*
X52570Y176770D01*
X52685Y176598D01*
X52821Y176443D01*
X52976Y176307D01*
X53148Y176192D01*
X53333Y176101D01*
X53529Y176034D01*
X53731Y175994D01*
X53937Y175981D01*
X55906D01*
X56112Y175994D01*
X56314Y176034D01*
X56510Y176101D01*
X56695Y176192D01*
X57234Y175998D01*
X57477Y175795D01*
Y170866D01*
X57491Y170681D01*
X57535Y170500D01*
X57606Y170328D01*
X57703Y170170D01*
X57824Y170028D01*
X58867Y168985D01*
X59008Y168864D01*
X59167Y168767D01*
X59339Y168696D01*
X59519Y168653D01*
X59705Y168638D01*
X60036D01*
Y163583D01*
X60051Y163428D01*
X60096Y163280D01*
X60169Y163143D01*
X60267Y163023D01*
X60387Y162925D01*
X60524Y162852D01*
X60672Y162807D01*
X60827Y162792D01*
X66732D01*
X66887Y162807D01*
X67035Y162852D01*
X67172Y162925D01*
X67292Y163023D01*
X67390Y163143D01*
X67452Y163259D01*
X67640Y163350D01*
X67964Y163428D01*
X68291Y163429D01*
X68456Y163281D01*
X68636Y163153D01*
X68830Y163047D01*
X69034Y162962D01*
X69246Y162901D01*
X69464Y162864D01*
X69685Y162851D01*
X69906Y162864D01*
X70124Y162901D01*
X70336Y162962D01*
X70540Y163047D01*
X70734Y163153D01*
X70914Y163281D01*
X71079Y163429D01*
X71227Y163594D01*
X71354Y163774D01*
X71461Y163967D01*
X71546Y164172D01*
X71607Y164384D01*
X71644Y164602D01*
X71657Y164823D01*
X71644Y165044D01*
X71607Y165262D01*
X71546Y165474D01*
X71461Y165678D01*
X71354Y165872D01*
X71227Y166052D01*
X71079Y166217D01*
X70914Y166364D01*
X70734Y166492D01*
X70540Y166599D01*
X70336Y166684D01*
X70124Y166745D01*
X69906Y166782D01*
X69685Y166794D01*
X69464Y166782D01*
X69246Y166745D01*
X69034Y166684D01*
X68830Y166599D01*
X68636Y166492D01*
X68456Y166364D01*
X68311Y166235D01*
X68217Y166243D01*
X67619Y166450D01*
X67523Y166522D01*
Y173638D01*
X74096D01*
X76768Y170966D01*
Y160827D01*
X76783Y160641D01*
X76826Y160461D01*
X76897Y160289D01*
X76994Y160130D01*
X77115Y159989D01*
X79680Y157424D01*
X79378Y156697D01*
X69388Y156697D01*
X68751Y157334D01*
X68610Y157455D01*
X68451Y157552D01*
X68279Y157623D01*
X68099Y157666D01*
X67913Y157681D01*
X56894D01*
Y158071D01*
X56878Y158303D01*
X56833Y158530D01*
X56758Y158750D01*
X56656Y158959D01*
X56527Y159152D01*
X56392Y159305D01*
X56392Y159307D01*
X56310Y159439D01*
X56210Y159556D01*
X56092Y159657D01*
X55960Y159738D01*
X55817Y159797D01*
X55666Y159833D01*
X55512Y159846D01*
X55129D01*
X55118Y159846D01*
X53150D01*
X53138Y159846D01*
X49806D01*
Y161996D01*
X49807Y162008D01*
Y165157D01*
X49806Y165169D01*
Y169275D01*
X49807Y169291D01*
Y172835D01*
X49806Y172851D01*
Y179721D01*
X51772D01*
X51799Y179724D01*
X52361Y179166D01*
D02*
G37*
G36*
X119657Y146057D02*
X120210Y145604D01*
X120272Y145480D01*
Y139281D01*
X120158Y139177D01*
X112996D01*
Y145472D01*
X113450Y145933D01*
X113644Y146059D01*
X118898D01*
X119241Y146074D01*
X119484Y146106D01*
X119657Y146057D01*
D02*
G37*
G36*
X44288Y172841D02*
X44288Y172835D01*
Y169291D01*
X44288Y169285D01*
Y165169D01*
X44287Y165157D01*
Y162008D01*
X44288Y161996D01*
Y158082D01*
X44287Y158071D01*
Y154921D01*
X44288Y154910D01*
Y151623D01*
X44160Y151510D01*
X44023Y151355D01*
X43909Y151183D01*
X43817Y150998D01*
X43751Y150802D01*
X43711Y150600D01*
X43697Y150394D01*
Y148819D01*
X43711Y148613D01*
X43751Y148411D01*
X43817Y148215D01*
X43909Y148030D01*
X44023Y147858D01*
X44160Y147703D01*
X44315Y147567D01*
X44486Y147452D01*
X44672Y147361D01*
X44867Y147295D01*
X45070Y147254D01*
X45075Y147254D01*
Y146654D01*
X45090Y146468D01*
X45133Y146288D01*
X45204Y146116D01*
X45301Y145957D01*
X45422Y145816D01*
X46209Y145028D01*
X46351Y144908D01*
X46509Y144811D01*
X46681Y144739D01*
X46862Y144696D01*
X47047Y144682D01*
X49017D01*
X49049Y144637D01*
X49196Y144472D01*
X49361Y144325D01*
X49542Y144197D01*
X49735Y144090D01*
X49939Y144005D01*
X50152Y143944D01*
X50370Y143907D01*
X50590Y143895D01*
X50811Y143907D01*
X51029Y143944D01*
X51242Y144005D01*
X51446Y144090D01*
X51639Y144197D01*
X51722Y144255D01*
X51822Y144284D01*
X52038Y144286D01*
X52534Y144194D01*
X52675Y144123D01*
X52704Y144096D01*
X52821Y143963D01*
X52976Y143827D01*
X53148Y143712D01*
X53333Y143621D01*
X53528Y143554D01*
X53731Y143514D01*
X53937Y143501D01*
X55905D01*
X56111Y143514D01*
X56314Y143554D01*
X56509Y143621D01*
X56695Y143712D01*
X56866Y143827D01*
X57021Y143963D01*
X57157Y144118D01*
X57272Y144290D01*
X57363Y144475D01*
X57430Y144670D01*
X57470Y144873D01*
X57484Y145079D01*
Y146654D01*
X57470Y146860D01*
X57430Y147062D01*
X57363Y147258D01*
X57272Y147443D01*
X57157Y147614D01*
X57021Y147770D01*
X56893Y147882D01*
Y154910D01*
X56894Y154921D01*
Y155311D01*
X67423D01*
X67713Y155021D01*
X67713Y137205D01*
X67728Y137050D01*
X67773Y136902D01*
X67846Y136765D01*
X67945Y136645D01*
X68929Y135661D01*
X69049Y135563D01*
X69185Y135490D01*
X69334Y135444D01*
X69450Y135433D01*
X69473Y135431D01*
X69488Y135429D01*
X69488D01*
X72838Y135429D01*
D01*
X75460Y135429D01*
X75587Y135302D01*
X75587Y129332D01*
X75593Y129267D01*
X75602Y129178D01*
X75621Y129115D01*
X75356Y128549D01*
X75147Y128350D01*
X43635D01*
X41736Y130249D01*
Y130705D01*
D01*
X41736Y137405D01*
D01*
X41736Y178291D01*
X41734Y178313D01*
X41735Y178335D01*
X41734Y178347D01*
X41735Y178358D01*
X41734Y178380D01*
X41736Y178402D01*
Y178947D01*
X41929Y179721D01*
X44288D01*
Y172841D01*
D02*
G37*
G36*
X120272Y131192D02*
Y115152D01*
X120272Y115148D01*
Y110530D01*
X118464Y108722D01*
X118168Y108724D01*
X117585Y108947D01*
X117482Y109155D01*
X117353Y109349D01*
X117200Y109523D01*
X117026Y109676D01*
X116833Y109805D01*
X116624Y109908D01*
X116404Y109983D01*
X116177Y110028D01*
X115945Y110043D01*
X113976D01*
X113745Y110028D01*
X113517Y109983D01*
X113390Y109939D01*
X112989Y110106D01*
X112717Y110280D01*
X112602Y110427D01*
Y117649D01*
X112587Y117834D01*
X112544Y118015D01*
X112473Y118187D01*
X112376Y118345D01*
X112255Y118487D01*
X110634Y120108D01*
Y122752D01*
X110735Y122839D01*
X113390Y125494D01*
X113517Y125450D01*
X113745Y125405D01*
X113976Y125390D01*
X115945D01*
X116177Y125405D01*
X116404Y125450D01*
X116624Y125525D01*
X116833Y125628D01*
X117026Y125757D01*
X117200Y125910D01*
X117353Y126084D01*
X117482Y126278D01*
X117585Y126486D01*
X117660Y126706D01*
X117705Y126934D01*
X117720Y127165D01*
Y130315D01*
X117708Y130508D01*
X117711Y130556D01*
X118070Y131114D01*
X118283Y131290D01*
X118295Y131295D01*
X120158D01*
X120272Y131192D01*
D02*
G37*
G36*
X99015Y155905D02*
X103150Y151772D01*
X103150Y150951D01*
X102593Y150394D01*
X85040Y150394D01*
X83661Y149016D01*
X83661Y127992D01*
X83658Y127953D01*
X83658Y123618D01*
X82876Y122836D01*
X76378Y129332D01*
X76378Y135630D01*
X75787Y136221D01*
X69488Y136221D01*
X68504Y137205D01*
X68504Y155349D01*
X69061Y155905D01*
X99015Y155905D01*
D02*
G37*
G36*
X94882Y147638D02*
X94882Y130468D01*
X87204Y122880D01*
X87205Y122407D01*
X86648Y121850D01*
X84449D01*
X84449Y127953D01*
X89370Y132874D01*
X89370Y147638D01*
X89961Y148228D01*
X94291Y148228D01*
X94882Y147638D01*
D02*
G37*
G36*
X97861Y146981D02*
X98133Y146772D01*
X98423Y146587D01*
X98728Y146429D01*
X99046Y146297D01*
X99374Y146194D01*
X99709Y146119D01*
X100050Y146074D01*
X100394Y146059D01*
X104466D01*
X104660Y145933D01*
X105114Y145472D01*
Y137012D01*
X103543D01*
X103358Y136997D01*
X103177Y136953D01*
X103005Y136882D01*
X102847Y136785D01*
X102706Y136664D01*
X99359Y133318D01*
X99238Y133177D01*
X99141Y133018D01*
X99070Y132846D01*
X99027Y132666D01*
X99012Y132480D01*
Y122538D01*
X95375Y118901D01*
X94093D01*
X93934Y118955D01*
X93770Y118988D01*
X93602Y118999D01*
X93457D01*
X93346Y119786D01*
X93368Y119793D01*
X93572Y119877D01*
X93765Y119984D01*
X93946Y120112D01*
X94111Y120259D01*
X94258Y120424D01*
X94386Y120605D01*
X94493Y120798D01*
X94577Y121002D01*
X94639Y121215D01*
X94676Y121433D01*
X94688Y121653D01*
X94676Y121874D01*
X94639Y122092D01*
X94577Y122305D01*
X94493Y122509D01*
X94386Y122703D01*
X94258Y122883D01*
X94111Y123048D01*
X93946Y123195D01*
X93765Y123323D01*
X93572Y123430D01*
X93368Y123514D01*
X93155Y123576D01*
X92937Y123613D01*
X92716Y123625D01*
X92496Y123613D01*
X92278Y123576D01*
X92065Y123514D01*
X91861Y123430D01*
X91435Y124094D01*
X96790Y129449D01*
X96794Y129453D01*
X96797Y129456D01*
X96843Y129511D01*
X96891Y129567D01*
X96894Y129571D01*
X96897Y129575D01*
X96934Y129637D01*
X96972Y129699D01*
X96974Y129704D01*
X96976Y129708D01*
X97004Y129776D01*
X97031Y129842D01*
X97032Y129847D01*
X97034Y129851D01*
X97051Y129923D01*
X97068Y129993D01*
X97068Y129998D01*
X97069Y130002D01*
X97074Y130075D01*
X97080Y130148D01*
X97079Y130152D01*
X97080Y130157D01*
X96921Y146926D01*
X97095Y146998D01*
X97707Y147122D01*
X97861Y146981D01*
D02*
G37*
G36*
X65507Y116417D02*
X65681Y116145D01*
X65848Y115744D01*
X65805Y115617D01*
X65759Y115389D01*
X65744Y115157D01*
Y112008D01*
X65757Y111815D01*
X65754Y111767D01*
X65394Y111208D01*
X65182Y111032D01*
X65170Y111027D01*
X56790D01*
X52413Y115405D01*
X52271Y115525D01*
X52113Y115622D01*
X51941Y115694D01*
X51760Y115737D01*
X51669Y115744D01*
X51699Y116500D01*
X51757Y116532D01*
X65360D01*
X65507Y116417D01*
D02*
G37*
G36*
X89764Y118898D02*
X89803Y118898D01*
X89810Y118895D01*
X89958D01*
Y118747D01*
X89961Y118740D01*
Y118701D01*
X89961Y104921D01*
X89961Y104921D01*
X89961Y104882D01*
X89958Y104875D01*
Y104727D01*
X89810D01*
X89803Y104724D01*
X79921D01*
X79921Y104724D01*
X79882Y104724D01*
X79875Y104727D01*
X79727D01*
Y104875D01*
X79724Y104882D01*
Y104921D01*
X79724Y117323D01*
X79727Y117326D01*
Y117701D01*
X80921Y118895D01*
X81296D01*
X81299Y118897D01*
X89764Y118898D01*
X89764Y118898D01*
D02*
G37*
G36*
X125550Y150750D02*
X125980Y150531D01*
Y122244D01*
X125996Y121901D01*
X126040Y121560D01*
X126115Y121224D01*
X126218Y120896D01*
X126350Y120579D01*
X126508Y120274D01*
X126693Y119984D01*
X126902Y119711D01*
X127135Y119458D01*
X127388Y119225D01*
X127661Y119016D01*
X127951Y118831D01*
X128256Y118673D01*
X128574Y118541D01*
X128736Y118490D01*
Y112302D01*
X124162Y107728D01*
X124041Y107586D01*
X123944Y107428D01*
X123873Y107256D01*
X123830Y107075D01*
X123815Y106890D01*
Y98719D01*
X120572Y95476D01*
X112550D01*
X112344Y95974D01*
X112301Y96263D01*
X112376Y96351D01*
X112473Y96509D01*
X112544Y96681D01*
X112587Y96862D01*
X112602Y97047D01*
Y102959D01*
X112717Y103106D01*
X112989Y103280D01*
X113390Y103446D01*
X113517Y103403D01*
X113745Y103358D01*
X113976Y103343D01*
X115945D01*
X116177Y103358D01*
X116404Y103403D01*
X116624Y103478D01*
X116833Y103580D01*
X117026Y103710D01*
X117200Y103863D01*
X117353Y104037D01*
X117482Y104230D01*
X117585Y104439D01*
X117660Y104659D01*
X117705Y104886D01*
X117720Y105118D01*
Y105508D01*
X118110D01*
X118296Y105523D01*
X118476Y105566D01*
X118648Y105637D01*
X118807Y105734D01*
X118948Y105855D01*
X122295Y109202D01*
X122415Y109343D01*
X122513Y109502D01*
X122584Y109674D01*
X122627Y109854D01*
X122642Y110040D01*
Y115152D01*
X122641Y115156D01*
Y148171D01*
X124243Y149773D01*
X124476Y150026D01*
X124521Y150085D01*
X124580Y150131D01*
X124834Y150363D01*
X125066Y150617D01*
X125193Y150782D01*
X125550Y150750D01*
D02*
G37*
G36*
X139735Y105053D02*
X139761Y104959D01*
Y100159D01*
X139735Y100065D01*
X139370Y99413D01*
X133447D01*
X133258Y99641D01*
X133074Y100200D01*
X133149Y100299D01*
X133334Y100589D01*
X133493Y100894D01*
X133624Y101211D01*
X133728Y101539D01*
X133779Y101772D01*
X129921D01*
Y103347D01*
X133779D01*
X133728Y103579D01*
X133624Y103907D01*
X133493Y104225D01*
X133334Y104529D01*
X133149Y104819D01*
X133074Y104918D01*
X133258Y105477D01*
X133446Y105705D01*
X139370D01*
X139735Y105053D01*
D02*
G37*
G36*
X51768Y112693D02*
X51777Y112689D01*
X55462Y109005D01*
X55603Y108884D01*
X55761Y108787D01*
X55933Y108716D01*
X56114Y108672D01*
X56299Y108658D01*
X65247D01*
X65450Y108498D01*
X65775Y107986D01*
X65791Y107870D01*
X65759Y107712D01*
X65744Y107480D01*
Y103937D01*
X65759Y103705D01*
X65804Y103478D01*
X65879Y103258D01*
X65982Y103049D01*
X66111Y102856D01*
X66264Y102682D01*
X66439Y102529D01*
X66632Y102400D01*
X66840Y102297D01*
X66925Y102268D01*
Y100784D01*
X66834Y100656D01*
X66727Y100462D01*
X66643Y100258D01*
X66581Y100045D01*
X66544Y99827D01*
X66532Y99607D01*
X66544Y99386D01*
X66581Y99168D01*
X66643Y98955D01*
X66727Y98751D01*
X66834Y98558D01*
X66962Y98377D01*
X67110Y98212D01*
X67274Y98065D01*
X67455Y97937D01*
X67648Y97830D01*
X67852Y97746D01*
X68065Y97685D01*
X68220Y97658D01*
X69750Y96128D01*
X69905Y95992D01*
X70077Y95877D01*
X70262Y95786D01*
X70458Y95720D01*
X70660Y95679D01*
X70866Y95666D01*
X75861D01*
X75934Y95569D01*
X76140Y94971D01*
X76148Y94879D01*
X76018Y94733D01*
X75890Y94553D01*
X75783Y94359D01*
X75698Y94155D01*
X75637Y93943D01*
X75600Y93725D01*
X75587Y93504D01*
X75600Y93283D01*
X75637Y93065D01*
X75698Y92853D01*
X75706Y92835D01*
X75709Y92782D01*
X75688Y92651D01*
X75679Y92627D01*
X75513Y92516D01*
X75489Y92505D01*
X74857Y92374D01*
X74005Y93264D01*
X73999Y93269D01*
X73993Y93276D01*
X73940Y93320D01*
X73887Y93365D01*
X73880Y93369D01*
X73873Y93374D01*
X73812Y93407D01*
X73752Y93441D01*
X73744Y93443D01*
X73736Y93448D01*
X73671Y93467D01*
X73605Y93489D01*
X73596Y93490D01*
X73588Y93493D01*
X73519Y93499D01*
X73451Y93507D01*
X73442Y93507D01*
X73434Y93508D01*
X60367Y93508D01*
X56662Y97213D01*
X56542Y97311D01*
X56405Y97385D01*
X56257Y97430D01*
X56102Y97445D01*
X55947D01*
X55892Y97490D01*
X55661Y97844D01*
X55526Y98232D01*
X55577Y98336D01*
X55652Y98556D01*
X55697Y98784D01*
X55712Y99016D01*
Y100984D01*
X55697Y101216D01*
X55652Y101444D01*
X55577Y101664D01*
X55475Y101872D01*
X55346Y102065D01*
X55192Y102240D01*
X55018Y102393D01*
X54825Y102522D01*
X54616Y102624D01*
X54396Y102699D01*
X54169Y102744D01*
X53937Y102760D01*
X50787D01*
X50694Y102753D01*
X50003Y103444D01*
Y112056D01*
X50015Y112058D01*
X50210Y112125D01*
X50395Y112216D01*
X50567Y112331D01*
X50722Y112467D01*
X50799Y112554D01*
X50934Y112634D01*
X51505Y112726D01*
X51768Y112693D01*
D02*
G37*
G36*
X87795Y90354D02*
X88583Y89567D01*
X88583Y82087D01*
X87795Y81299D01*
X77165Y81299D01*
X75590Y82874D01*
X75591Y88386D01*
X76507Y89302D01*
X76586Y89283D01*
X76772Y89268D01*
X79921D01*
X80107Y89283D01*
X80287Y89326D01*
X80459Y89397D01*
X80618Y89494D01*
X80759Y89615D01*
X80880Y89756D01*
X80977Y89915D01*
X81048Y90087D01*
X81053Y90108D01*
X81299Y90354D01*
X87795Y90354D01*
D02*
G37*
G36*
X49608Y218138D02*
X49608Y206811D01*
X49608Y190947D01*
X48241Y189580D01*
X48239Y189578D01*
X48121Y189478D01*
X48020Y189360D01*
X48018Y189357D01*
X45472Y186811D01*
X40945Y182283D01*
Y180748D01*
X40942Y180709D01*
X40945Y180670D01*
X40945Y178402D01*
X40942Y178347D01*
X40945Y178291D01*
X40945Y129921D01*
X43307Y127559D01*
X76968D01*
X81299Y123228D01*
Y120869D01*
X80512D01*
X80357Y120857D01*
X80207Y120821D01*
X80064Y120762D01*
X79931Y120681D01*
X79814Y120580D01*
X78042Y118808D01*
X77941Y118691D01*
X77860Y118559D01*
X77801Y118415D01*
X77765Y118265D01*
X77753Y118110D01*
Y117323D01*
X73694Y117323D01*
X43307D01*
X40945Y114961D01*
X40945Y98425D01*
X42717Y96653D01*
X56102D01*
X60039Y92716D01*
X73434Y92716D01*
X74409Y91697D01*
X74410Y82284D01*
X73425Y81299D01*
X56263Y81299D01*
X50913Y86417D01*
X29921Y86417D01*
X25787Y90776D01*
Y216632D01*
X29590Y220434D01*
X47313D01*
X49608Y218138D01*
D02*
G37*
G36*
X101575Y76772D02*
X104331Y74015D01*
X104331Y58465D01*
X101575Y55709D01*
X79921D01*
X79271Y55058D01*
X78543Y55360D01*
X78543Y65748D01*
X76969Y67323D01*
X63247Y67323D01*
X63189Y67327D01*
X61221D01*
X61163Y67323D01*
X56160D01*
X56102Y67327D01*
X54134D01*
X54076Y67323D01*
X49861D01*
X49803Y67327D01*
X47835D01*
X47777Y67323D01*
X42775D01*
X42717Y67327D01*
X40748D01*
X40690Y67323D01*
X36672Y67323D01*
X36614Y67327D01*
X33465D01*
X33407Y67323D01*
X29384D01*
X29331Y67326D01*
X25787D01*
X25734Y67323D01*
X24409D01*
X18701Y61614D01*
X6299Y61614D01*
X5906Y62008D01*
X5906Y72638D01*
X6299Y73032D01*
X19488Y73032D01*
X23228Y76772D01*
X37159D01*
X37244Y76768D01*
X37330Y76772D01*
X45603Y76772D01*
X45669Y76768D01*
X48819D01*
X48885Y76772D01*
X53347D01*
X101575Y76772D01*
D02*
G37*
G36*
X152362Y73622D02*
X152362Y65354D01*
X152362Y51969D01*
X150984Y50590D01*
X142913Y50590D01*
X141339Y48701D01*
Y47253D01*
X139764D01*
Y49016D01*
X137795Y50984D01*
X137795Y74409D01*
X138976Y75590D01*
X150393Y75591D01*
X152362Y73622D01*
D02*
G37*
G36*
X16073Y59123D02*
X16054Y59044D01*
X16040Y58858D01*
Y56890D01*
X16054Y56704D01*
X16098Y56524D01*
X16142Y56417D01*
X16142Y56102D01*
X16535Y55709D01*
X16766Y55709D01*
X17178Y55709D01*
X17224Y55705D01*
X18012D01*
X18059Y55709D01*
X18077D01*
X18701Y55084D01*
Y51433D01*
X18697Y51378D01*
Y49409D01*
X18701Y49355D01*
X18701Y41339D01*
X18307Y40945D01*
X12239Y40945D01*
X11614Y41569D01*
X11614Y44488D01*
X11024Y45079D01*
X10380D01*
X10335Y45082D01*
X9547D01*
X9501Y45079D01*
X6530Y45079D01*
X5906Y45703D01*
X5906Y59449D01*
X6299Y59842D01*
X15354Y59842D01*
X16073Y59123D01*
D02*
G37*
G36*
X35827Y41142D02*
X35827Y35236D01*
X40551Y30512D01*
X40551Y18307D01*
X39370Y17126D01*
X29921Y17126D01*
X28740Y18307D01*
Y24213D01*
X25000Y27953D01*
X21063D01*
X6299Y27953D01*
X5906Y28346D01*
X5905Y40157D01*
X6496Y40748D01*
X8465D01*
X10039Y39173D01*
X20079Y39173D01*
X23031Y42126D01*
X34843D01*
X35827Y41142D01*
D02*
G37*
G36*
X136811Y26969D02*
X136811Y23031D01*
X135630Y21850D01*
X129724Y21850D01*
X127953Y20079D01*
X125163Y20079D01*
X124606Y20636D01*
X124606Y27950D01*
X135830D01*
X136811Y26969D01*
D02*
G37*
G36*
X115605Y90354D02*
X116929Y88898D01*
X116929Y8071D01*
X115748Y6890D01*
X106299Y6890D01*
X105315Y7874D01*
X105315Y79527D01*
X103543Y81299D01*
X90158Y81299D01*
X89373Y82083D01*
X89374Y82087D01*
X89374Y89567D01*
Y89567D01*
X89374Y89570D01*
X90158Y90354D01*
X115605Y90354D01*
D02*
G37*
%LPC*%
G36*
X72953Y204452D02*
X72682Y204439D01*
X72414Y204399D01*
X72152Y204333D01*
X71897Y204242D01*
X71652Y204126D01*
X71420Y203987D01*
X71202Y203826D01*
X71002Y203644D01*
X70820Y203443D01*
X70658Y203226D01*
X70519Y202993D01*
X70403Y202749D01*
X70312Y202494D01*
X70246Y202231D01*
X70207Y201963D01*
X70193Y201693D01*
X70207Y201422D01*
X70246Y201154D01*
X70312Y200892D01*
X70403Y200637D01*
X70519Y200392D01*
X70658Y200160D01*
X70820Y199942D01*
X71002Y199742D01*
X71202Y199560D01*
X71420Y199399D01*
X71652Y199259D01*
X71897Y199144D01*
X72152Y199052D01*
X72414Y198987D01*
X72682Y198947D01*
X72953Y198933D01*
X73223Y198947D01*
X73491Y198987D01*
X73754Y199052D01*
X74009Y199144D01*
X74253Y199259D01*
X74486Y199399D01*
X74703Y199560D01*
X74904Y199742D01*
X75086Y199942D01*
X75247Y200160D01*
X75386Y200392D01*
X75502Y200637D01*
X75593Y200892D01*
X75659Y201154D01*
X75699Y201422D01*
X75712Y201693D01*
X75699Y201963D01*
X75659Y202231D01*
X75593Y202494D01*
X75502Y202749D01*
X75386Y202993D01*
X75247Y203226D01*
X75086Y203443D01*
X74904Y203644D01*
X74703Y203826D01*
X74486Y203987D01*
X74253Y204126D01*
X74009Y204242D01*
X73754Y204333D01*
X73491Y204399D01*
X73223Y204439D01*
X72953Y204452D01*
D02*
G37*
G36*
X62953D02*
X62682Y204439D01*
X62414Y204399D01*
X62152Y204333D01*
X61897Y204242D01*
X61652Y204126D01*
X61420Y203987D01*
X61202Y203826D01*
X61002Y203644D01*
X60820Y203443D01*
X60658Y203226D01*
X60519Y202993D01*
X60403Y202749D01*
X60312Y202494D01*
X60246Y202231D01*
X60207Y201963D01*
X60193Y201693D01*
X60207Y201422D01*
X60246Y201154D01*
X60312Y200892D01*
X60403Y200637D01*
X60519Y200392D01*
X60630Y200016D01*
X60554Y199632D01*
X60377Y199426D01*
X60230Y199261D01*
X60102Y199080D01*
X59995Y198887D01*
X59911Y198683D01*
X59849Y198470D01*
X59812Y198252D01*
X59800Y198031D01*
Y194095D01*
X59812Y193874D01*
X59849Y193656D01*
X59911Y193443D01*
X59995Y193239D01*
X60102Y193045D01*
X60230Y192865D01*
X60377Y192700D01*
X60542Y192553D01*
X60723Y192425D01*
X60916Y192318D01*
X61120Y192234D01*
X61333Y192172D01*
X61551Y192135D01*
X61772Y192123D01*
X64134D01*
X64354Y192135D01*
X64572Y192172D01*
X64785Y192234D01*
X64989Y192318D01*
X65183Y192425D01*
X65363Y192553D01*
X65528Y192700D01*
X65675Y192865D01*
X65803Y193045D01*
X65910Y193239D01*
X65995Y193443D01*
X66056Y193656D01*
X66093Y193874D01*
X66105Y194095D01*
Y198031D01*
X66093Y198252D01*
X66056Y198470D01*
X65995Y198683D01*
X65910Y198887D01*
X65803Y199080D01*
X65675Y199261D01*
X65528Y199426D01*
X65351Y199632D01*
X65275Y200016D01*
X65386Y200392D01*
X65502Y200637D01*
X65593Y200892D01*
X65659Y201154D01*
X65699Y201422D01*
X65712Y201693D01*
X65699Y201963D01*
X65659Y202231D01*
X65593Y202494D01*
X65502Y202749D01*
X65386Y202993D01*
X65247Y203226D01*
X65086Y203443D01*
X64904Y203644D01*
X64703Y203826D01*
X64486Y203987D01*
X64253Y204126D01*
X64008Y204242D01*
X63754Y204333D01*
X63491Y204399D01*
X63223Y204439D01*
X62953Y204452D01*
D02*
G37*
G36*
X238504Y191342D02*
X235748D01*
X235505Y191328D01*
X235265Y191288D01*
X235032Y191220D01*
X234807Y191127D01*
X234594Y191010D01*
X234396Y190869D01*
X234214Y190707D01*
X234052Y190525D01*
X233912Y190327D01*
X233794Y190114D01*
X233701Y189890D01*
X233634Y189656D01*
X233593Y189416D01*
X233579Y189173D01*
Y184843D01*
X233593Y184600D01*
X233634Y184360D01*
X233701Y184126D01*
X233794Y183902D01*
X233912Y183689D01*
X234052Y183490D01*
X234214Y183309D01*
X234396Y183147D01*
X234594Y183006D01*
X234807Y182888D01*
X235032Y182796D01*
X235265Y182728D01*
X235505Y182687D01*
X235748Y182674D01*
X238504D01*
X238747Y182687D01*
X238986Y182728D01*
X239220Y182796D01*
X239445Y182888D01*
X239658Y183006D01*
X239856Y183147D01*
X240037Y183309D01*
X240199Y183490D01*
X240340Y183689D01*
X240458Y183902D01*
X240551Y184126D01*
X240618Y184360D01*
X240659Y184600D01*
X240673Y184843D01*
Y189173D01*
X240659Y189416D01*
X240618Y189656D01*
X240551Y189890D01*
X240458Y190114D01*
X240340Y190327D01*
X240199Y190525D01*
X240037Y190707D01*
X239856Y190869D01*
X239658Y191010D01*
X239445Y191127D01*
X239220Y191220D01*
X238986Y191288D01*
X238747Y191328D01*
X238504Y191342D01*
D02*
G37*
G36*
Y161814D02*
X235748D01*
X235505Y161801D01*
X235265Y161760D01*
X235032Y161693D01*
X234807Y161600D01*
X234594Y161482D01*
X234396Y161341D01*
X234214Y161179D01*
X234052Y160998D01*
X233912Y160800D01*
X233794Y160587D01*
X233701Y160362D01*
X233634Y160128D01*
X233593Y159889D01*
X233579Y159646D01*
Y155315D01*
X233593Y155072D01*
X233634Y154832D01*
X233701Y154599D01*
X233794Y154374D01*
X233912Y154161D01*
X234052Y153963D01*
X234214Y153781D01*
X234396Y153619D01*
X234594Y153479D01*
X234807Y153361D01*
X235032Y153268D01*
X235265Y153201D01*
X235505Y153160D01*
X235748Y153146D01*
X238504D01*
X238747Y153160D01*
X238986Y153201D01*
X239220Y153268D01*
X239445Y153361D01*
X239658Y153479D01*
X239856Y153619D01*
X240037Y153781D01*
X240199Y153963D01*
X240340Y154161D01*
X240458Y154374D01*
X240551Y154599D01*
X240618Y154832D01*
X240659Y155072D01*
X240673Y155315D01*
Y159646D01*
X240659Y159889D01*
X240618Y160128D01*
X240551Y160362D01*
X240458Y160587D01*
X240340Y160800D01*
X240199Y160998D01*
X240037Y161179D01*
X239856Y161341D01*
X239658Y161482D01*
X239445Y161600D01*
X239220Y161693D01*
X238986Y161760D01*
X238747Y161801D01*
X238504Y161814D01*
D02*
G37*
G36*
X246063Y38193D02*
X245692Y38178D01*
X245323Y38134D01*
X244959Y38062D01*
X244602Y37961D01*
X244254Y37833D01*
X243917Y37677D01*
X243593Y37496D01*
X243284Y37290D01*
X242992Y37060D01*
X242720Y36808D01*
X242468Y36535D01*
X242238Y36244D01*
X242032Y35935D01*
X241850Y35611D01*
X241695Y35274D01*
X241566Y34926D01*
X241466Y34568D01*
X241393Y34204D01*
X241350Y33836D01*
X241335Y33465D01*
X241350Y33094D01*
X241393Y32725D01*
X241466Y32361D01*
X241566Y32004D01*
X241695Y31655D01*
X241850Y31318D01*
X242032Y30994D01*
X242238Y30685D01*
X242468Y30394D01*
X242720Y30121D01*
X242992Y29869D01*
X243284Y29640D01*
X243593Y29433D01*
X243917Y29252D01*
X244254Y29096D01*
X244602Y28968D01*
X244959Y28867D01*
X245323Y28795D01*
X245692Y28751D01*
X246063Y28736D01*
X246434Y28751D01*
X246803Y28795D01*
X247167Y28867D01*
X247524Y28968D01*
X247872Y29096D01*
X248210Y29252D01*
X248533Y29433D01*
X248842Y29640D01*
X249134Y29869D01*
X249406Y30121D01*
X249658Y30394D01*
X249888Y30685D01*
X250094Y30994D01*
X250276Y31318D01*
X250431Y31655D01*
X250560Y32004D01*
X250660Y32361D01*
X250733Y32725D01*
X250777Y33094D01*
X250791Y33465D01*
X250777Y33836D01*
X250733Y34204D01*
X250660Y34568D01*
X250560Y34926D01*
X250431Y35274D01*
X250276Y35611D01*
X250094Y35935D01*
X249888Y36244D01*
X249658Y36535D01*
X249406Y36808D01*
X249134Y37060D01*
X248842Y37290D01*
X248533Y37496D01*
X248210Y37677D01*
X247872Y37833D01*
X247524Y37961D01*
X247167Y38062D01*
X246803Y38134D01*
X246434Y38178D01*
X246063Y38193D01*
D02*
G37*
G36*
X151201Y28546D02*
X150020D01*
X149839Y28534D01*
X149662Y28499D01*
X149491Y28441D01*
X149329Y28361D01*
X149179Y28261D01*
X149043Y28142D01*
X148924Y28006D01*
X148824Y27856D01*
X148744Y27694D01*
X148686Y27523D01*
X148651Y27346D01*
X148639Y27165D01*
Y22441D01*
X148651Y22261D01*
X148686Y22084D01*
X148744Y21913D01*
X148824Y21750D01*
X148924Y21600D01*
X149043Y21464D01*
X149179Y21345D01*
X149329Y21245D01*
X149491Y21165D01*
X149662Y21107D01*
X149839Y21072D01*
X150020Y21060D01*
X151201D01*
X151381Y21072D01*
X151558Y21107D01*
X151729Y21165D01*
X151891Y21245D01*
X152041Y21345D01*
X152177Y21464D01*
X152296Y21600D01*
X152397Y21750D01*
X152477Y21913D01*
X152535Y22084D01*
X152570Y22261D01*
X152582Y22441D01*
Y22831D01*
X154918D01*
Y22441D01*
X154933Y22209D01*
X154978Y21981D01*
X155053Y21761D01*
X155155Y21553D01*
X155284Y21360D01*
X155438Y21185D01*
X155612Y21032D01*
X155805Y20903D01*
X156014Y20801D01*
X156233Y20726D01*
X156461Y20681D01*
X156693Y20665D01*
X157107D01*
X157232Y20349D01*
X157250Y19878D01*
X157183Y19845D01*
X156990Y19716D01*
X156816Y19563D01*
X156662Y19388D01*
X156533Y19195D01*
X156431Y18987D01*
X156413Y18936D01*
X156063Y18858D01*
X155946Y18858D01*
X155594Y18936D01*
X155577Y18986D01*
X155475Y19195D01*
X155346Y19388D01*
X155192Y19563D01*
X155018Y19716D01*
X154825Y19845D01*
X154616Y19947D01*
X154396Y20022D01*
X154169Y20067D01*
X153937Y20083D01*
X150787D01*
X150556Y20067D01*
X150328Y20022D01*
X150108Y19947D01*
X149900Y19845D01*
X149707Y19716D01*
X149532Y19563D01*
X149379Y19388D01*
X149250Y19195D01*
X149147Y18986D01*
X149073Y18767D01*
X149027Y18539D01*
X149012Y18307D01*
Y16339D01*
X149027Y16107D01*
X149073Y15879D01*
X149147Y15659D01*
X149250Y15451D01*
X149379Y15258D01*
X149532Y15083D01*
X149707Y14930D01*
X149900Y14801D01*
X150108Y14698D01*
X150328Y14624D01*
X150556Y14578D01*
X150787Y14563D01*
X153937D01*
X154169Y14578D01*
X154396Y14624D01*
X154616Y14698D01*
X154825Y14801D01*
X155018Y14930D01*
X155192Y15083D01*
X155346Y15258D01*
X155475Y15451D01*
X155577Y15659D01*
X155594Y15710D01*
X155945Y15788D01*
X156062Y15788D01*
X156414Y15710D01*
X156431Y15660D01*
X156533Y15451D01*
X156662Y15258D01*
X156816Y15084D01*
X156990Y14930D01*
X157183Y14801D01*
X157392Y14699D01*
X157611Y14624D01*
X157839Y14579D01*
X158071Y14563D01*
X161614D01*
X161846Y14579D01*
X162074Y14624D01*
X162294Y14699D01*
X162502Y14801D01*
X162695Y14930D01*
X162870Y15084D01*
X163023Y15258D01*
X163152Y15451D01*
X163254Y15660D01*
X163329Y15879D01*
X163374Y16107D01*
X163390Y16339D01*
Y18307D01*
X163374Y18539D01*
X163329Y18767D01*
X163254Y18987D01*
X163152Y19195D01*
X163023Y19388D01*
X162870Y19563D01*
X162695Y19716D01*
X162502Y19845D01*
X162294Y19948D01*
X162074Y20022D01*
X161846Y20068D01*
X161614Y20083D01*
X161027D01*
Y21389D01*
X161013Y21575D01*
X160969Y21755D01*
X160898Y21927D01*
X160801Y22085D01*
X160680Y22227D01*
X160437Y22470D01*
Y25591D01*
X160422Y25822D01*
X160376Y26050D01*
X160302Y26270D01*
X160199Y26478D01*
X160070Y26671D01*
X159917Y26846D01*
X159742Y26999D01*
X159549Y27128D01*
X159341Y27231D01*
X159121Y27305D01*
X158893Y27351D01*
X158661Y27366D01*
X156693D01*
X156461Y27351D01*
X156233Y27305D01*
X156014Y27231D01*
X155805Y27128D01*
X155612Y26999D01*
X155438Y26846D01*
X155284Y26671D01*
X155155Y26478D01*
X155053Y26270D01*
X154978Y26050D01*
X154933Y25822D01*
X154918Y25591D01*
Y25201D01*
X152582D01*
Y27165D01*
X152570Y27346D01*
X152535Y27523D01*
X152477Y27694D01*
X152397Y27856D01*
X152296Y28006D01*
X152177Y28142D01*
X152041Y28261D01*
X151891Y28361D01*
X151729Y28441D01*
X151558Y28499D01*
X151381Y28534D01*
X151201Y28546D01*
D02*
G37*
G36*
X161614Y12996D02*
X158071D01*
X157839Y12981D01*
X157611Y12936D01*
X157392Y12861D01*
X157183Y12758D01*
X156990Y12629D01*
X156816Y12476D01*
X156662Y12302D01*
X156533Y12109D01*
X156431Y11900D01*
X156406Y11848D01*
X156063Y11772D01*
X155946Y11772D01*
X155594Y11850D01*
X155577Y11900D01*
X155475Y12108D01*
X155346Y12301D01*
X155192Y12476D01*
X155018Y12629D01*
X154825Y12758D01*
X154616Y12861D01*
X154396Y12935D01*
X154169Y12981D01*
X153937Y12996D01*
X150787D01*
X150556Y12981D01*
X150328Y12935D01*
X150108Y12861D01*
X149900Y12758D01*
X149707Y12629D01*
X149532Y12476D01*
X149379Y12301D01*
X149250Y12108D01*
X149147Y11900D01*
X149073Y11680D01*
X149027Y11452D01*
X149012Y11220D01*
Y9252D01*
X149027Y9020D01*
X149073Y8792D01*
X149147Y8573D01*
X149250Y8364D01*
X149379Y8171D01*
X149532Y7997D01*
X149707Y7843D01*
X149900Y7714D01*
X150108Y7612D01*
X150328Y7537D01*
X150556Y7492D01*
X150787Y7476D01*
X153176D01*
X153250Y7460D01*
X153934Y7087D01*
X153946Y6866D01*
X153983Y6648D01*
X154045Y6435D01*
X154129Y6231D01*
X154236Y6038D01*
X154364Y5857D01*
X154511Y5692D01*
X154676Y5545D01*
X154857Y5417D01*
X155050Y5310D01*
X155254Y5226D01*
X155467Y5164D01*
X155685Y5127D01*
X155905Y5115D01*
X156126Y5127D01*
X156344Y5164D01*
X156557Y5226D01*
X156761Y5310D01*
X156955Y5417D01*
X157135Y5545D01*
X157300Y5692D01*
X157447Y5857D01*
X157575Y6038D01*
X157682Y6231D01*
X157766Y6435D01*
X157828Y6648D01*
X157865Y6866D01*
X157953Y7128D01*
X158561Y7461D01*
X158635Y7477D01*
X161614D01*
X161846Y7492D01*
X162074Y7537D01*
X162294Y7612D01*
X162502Y7715D01*
X162695Y7844D01*
X162870Y7997D01*
X163023Y8172D01*
X163152Y8365D01*
X163254Y8573D01*
X163329Y8793D01*
X163374Y9021D01*
X163390Y9252D01*
Y11221D01*
X163374Y11452D01*
X163329Y11680D01*
X163254Y11900D01*
X163152Y12109D01*
X163023Y12302D01*
X162870Y12476D01*
X162695Y12629D01*
X162502Y12758D01*
X162294Y12861D01*
X162074Y12936D01*
X161846Y12981D01*
X161614Y12996D01*
D02*
G37*
G36*
X9843Y193704D02*
X9472Y193690D01*
X9103Y193646D01*
X8739Y193574D01*
X8382Y193473D01*
X8033Y193344D01*
X7696Y193189D01*
X7372Y193008D01*
X7063Y192801D01*
X6772Y192572D01*
X6499Y192320D01*
X6247Y192047D01*
X6017Y191755D01*
X5811Y191447D01*
X5630Y191123D01*
X5474Y190786D01*
X5346Y190437D01*
X5245Y190080D01*
X5173Y189716D01*
X5129Y189347D01*
X5114Y188976D01*
X5129Y188605D01*
X5173Y188237D01*
X5245Y187873D01*
X5346Y187515D01*
X5474Y187167D01*
X5630Y186830D01*
X5811Y186506D01*
X6017Y186197D01*
X6247Y185906D01*
X6499Y185633D01*
X6772Y185381D01*
X7063Y185151D01*
X7372Y184945D01*
X7696Y184764D01*
X8033Y184608D01*
X8382Y184480D01*
X8739Y184379D01*
X9103Y184307D01*
X9472Y184263D01*
X9843Y184248D01*
X10214Y184263D01*
X10582Y184307D01*
X10946Y184379D01*
X11304Y184480D01*
X11652Y184608D01*
X11989Y184764D01*
X12313Y184945D01*
X12622Y185151D01*
X12913Y185381D01*
X13186Y185633D01*
X13438Y185906D01*
X13668Y186197D01*
X13874Y186506D01*
X14055Y186830D01*
X14211Y187167D01*
X14339Y187515D01*
X14440Y187873D01*
X14512Y188237D01*
X14556Y188605D01*
X14571Y188976D01*
X14556Y189347D01*
X14512Y189716D01*
X14440Y190080D01*
X14339Y190437D01*
X14211Y190786D01*
X14055Y191123D01*
X13874Y191447D01*
X13668Y191755D01*
X13438Y192047D01*
X13186Y192320D01*
X12913Y192572D01*
X12622Y192801D01*
X12313Y193008D01*
X11989Y193189D01*
X11652Y193344D01*
X11304Y193473D01*
X10946Y193574D01*
X10582Y193646D01*
X10214Y193690D01*
X9843Y193704D01*
D02*
G37*
G36*
X8268Y180712D02*
X6693D01*
X6487Y180699D01*
X6284Y180659D01*
X6089Y180592D01*
X5904Y180501D01*
X5732Y180386D01*
X5577Y180250D01*
X5441Y180095D01*
X5326Y179923D01*
X5235Y179738D01*
X5169Y179543D01*
X5128Y179340D01*
X5115Y179134D01*
Y176772D01*
X5128Y176566D01*
X5169Y176364D01*
X5235Y176168D01*
X5326Y175983D01*
X5441Y175811D01*
X5577Y175656D01*
X5732Y175520D01*
X5904Y175405D01*
X6089Y175314D01*
X6284Y175248D01*
X6487Y175207D01*
X6693Y175194D01*
X8268D01*
X8474Y175207D01*
X8676Y175248D01*
X8872Y175314D01*
X9057Y175405D01*
X9228Y175520D01*
X9384Y175656D01*
X9520Y175811D01*
X9547Y175853D01*
X9708Y175972D01*
X9759Y175999D01*
X9794Y176012D01*
X10383Y176118D01*
X10427Y176114D01*
X10531Y176091D01*
X10657Y176039D01*
X10838Y175995D01*
X11024Y175981D01*
X11624D01*
X11626Y175949D01*
X11671Y175722D01*
X11745Y175502D01*
X11848Y175293D01*
X11977Y175100D01*
X12130Y174926D01*
X12305Y174773D01*
X12498Y174644D01*
X12706Y174541D01*
X12926Y174466D01*
X13154Y174421D01*
X13386Y174406D01*
X16535D01*
X16767Y174421D01*
X16995Y174466D01*
X17215Y174541D01*
X17423Y174644D01*
X17616Y174773D01*
X17791Y174926D01*
X17944Y175100D01*
X18073Y175293D01*
X18176Y175502D01*
X18250Y175722D01*
X18296Y175949D01*
X18311Y176181D01*
Y178150D01*
X18296Y178381D01*
X18250Y178609D01*
X18176Y178829D01*
X18073Y179037D01*
X17944Y179230D01*
X17791Y179405D01*
X17616Y179558D01*
X17423Y179687D01*
X17215Y179790D01*
X16995Y179865D01*
X16767Y179910D01*
X16535Y179925D01*
X13386D01*
X13154Y179910D01*
X12926Y179865D01*
X12706Y179790D01*
X12498Y179687D01*
X12305Y179558D01*
X12130Y179405D01*
X11977Y179230D01*
X11885Y179093D01*
X11795Y179021D01*
X11400Y178895D01*
X11262Y178875D01*
X10940Y178905D01*
X10932Y178912D01*
X10774Y179009D01*
X10602Y179080D01*
X10421Y179123D01*
X10236Y179138D01*
X9846D01*
X9832Y179340D01*
X9792Y179543D01*
X9726Y179738D01*
X9634Y179923D01*
X9520Y180095D01*
X9384Y180250D01*
X9228Y180386D01*
X9057Y180501D01*
X8872Y180592D01*
X8676Y180659D01*
X8474Y180699D01*
X8268Y180712D01*
D02*
G37*
G36*
X48819Y84649D02*
X48031D01*
Y81496D01*
X51185D01*
Y82284D01*
X51170Y82548D01*
X51126Y82810D01*
X51052Y83065D01*
X50950Y83310D01*
X50822Y83542D01*
X50669Y83759D01*
X50492Y83956D01*
X50294Y84133D01*
X50078Y84287D01*
X49845Y84415D01*
X49600Y84517D01*
X49345Y84590D01*
X49084Y84635D01*
X48819Y84649D01*
D02*
G37*
G36*
X46457D02*
X45669D01*
X45404Y84635D01*
X45143Y84590D01*
X44888Y84517D01*
X44643Y84415D01*
X44410Y84287D01*
X44194Y84133D01*
X43996Y83956D01*
X43819Y83759D01*
X43666Y83542D01*
X43538Y83310D01*
X43436Y83065D01*
X43363Y82810D01*
X43318Y82548D01*
X43303Y82284D01*
Y81496D01*
X46457D01*
Y84649D01*
D02*
G37*
G36*
X75708Y62480D02*
X72638D01*
Y59409D01*
X72870Y59461D01*
X73198Y59564D01*
X73516Y59696D01*
X73821Y59854D01*
X74111Y60039D01*
X74383Y60248D01*
X74637Y60481D01*
X74869Y60734D01*
X75078Y61007D01*
X75263Y61297D01*
X75422Y61602D01*
X75554Y61919D01*
X75657Y62247D01*
X75708Y62480D01*
D02*
G37*
G36*
X71063D02*
X67992D01*
X68044Y62247D01*
X68147Y61919D01*
X68279Y61602D01*
X68438Y61297D01*
X68622Y61007D01*
X68832Y60734D01*
X69064Y60481D01*
X69317Y60248D01*
X69590Y60039D01*
X69880Y59854D01*
X70185Y59696D01*
X70503Y59564D01*
X70830Y59461D01*
X71063Y59409D01*
Y62480D01*
D02*
G37*
G36*
X63976Y37209D02*
X60433D01*
X60421Y37209D01*
X52824Y37209D01*
X52821Y37209D01*
X52559D01*
X52327Y37194D01*
X52100Y37148D01*
X51880Y37074D01*
X51671Y36971D01*
X51478Y36842D01*
X51304Y36689D01*
X51151Y36514D01*
X51021Y36321D01*
X50919Y36113D01*
X50844Y35893D01*
X50799Y35665D01*
X50784Y35433D01*
Y33465D01*
X50799Y33233D01*
X50844Y33005D01*
X50919Y32785D01*
X51021Y32577D01*
X51151Y32384D01*
X51304Y32210D01*
X51478Y32056D01*
X51671Y31927D01*
X51880Y31825D01*
X52100Y31750D01*
X52327Y31705D01*
X52559Y31689D01*
X55785D01*
X56051Y31464D01*
X56293Y31112D01*
X56335Y30983D01*
X56337Y30902D01*
X56309Y30733D01*
X56296Y30512D01*
X56309Y30291D01*
X56346Y30073D01*
X56407Y29861D01*
X56491Y29656D01*
X56598Y29463D01*
X56726Y29283D01*
X56874Y29118D01*
X57038Y28970D01*
X57083Y28939D01*
Y20136D01*
X57015Y20026D01*
X56944Y19854D01*
X56901Y19673D01*
X56886Y19488D01*
X56901Y19303D01*
X56944Y19122D01*
X57015Y18950D01*
X57112Y18792D01*
X57233Y18650D01*
X64320Y11564D01*
X64461Y11443D01*
X64620Y11346D01*
X64791Y11275D01*
X64972Y11231D01*
X65158Y11217D01*
X69277D01*
X69328Y11054D01*
X69460Y10736D01*
X69619Y10431D01*
X69803Y10141D01*
X70013Y9868D01*
X70245Y9615D01*
X70498Y9383D01*
X70771Y9173D01*
X71061Y8989D01*
X71366Y8830D01*
X71684Y8698D01*
X72012Y8595D01*
X72347Y8521D01*
X72688Y8476D01*
X73032Y8461D01*
X73375Y8476D01*
X73716Y8521D01*
X74051Y8595D01*
X74379Y8698D01*
X74697Y8830D01*
X75002Y8989D01*
X75292Y9173D01*
X75565Y9383D01*
X75818Y9615D01*
X76050Y9868D01*
X76260Y10141D01*
X76444Y10431D01*
X76603Y10736D01*
X76735Y11054D01*
X76838Y11382D01*
X76912Y11717D01*
X76957Y12058D01*
X76972Y12402D01*
X76957Y12745D01*
X76912Y13086D01*
X76838Y13421D01*
X76735Y13749D01*
X76603Y14067D01*
X76444Y14372D01*
X76260Y14662D01*
X76050Y14935D01*
X75818Y15188D01*
X75565Y15420D01*
X75292Y15630D01*
X75002Y15814D01*
X74697Y15973D01*
X74379Y16105D01*
X74051Y16208D01*
X73716Y16283D01*
X73375Y16327D01*
X73032Y16342D01*
X72688Y16327D01*
X72347Y16283D01*
X72012Y16208D01*
X71684Y16105D01*
X71366Y15973D01*
X71061Y15814D01*
X70771Y15630D01*
X70498Y15420D01*
X70245Y15188D01*
X70013Y14935D01*
X69803Y14662D01*
X69619Y14372D01*
X69460Y14067D01*
X69328Y13749D01*
X69277Y13586D01*
X65648D01*
X59452Y19782D01*
Y28939D01*
X59497Y28970D01*
X59662Y29118D01*
X59809Y29283D01*
X59937Y29463D01*
X60044Y29656D01*
X60129Y29861D01*
X60190Y30073D01*
X60227Y30291D01*
X60239Y30512D01*
X60227Y30733D01*
X60198Y30902D01*
X60200Y30967D01*
X60521Y31495D01*
X60751Y31689D01*
X70275Y31689D01*
X70286Y31690D01*
X71260D01*
X71492Y31705D01*
X71719Y31750D01*
X71939Y31825D01*
X72148Y31928D01*
X72341Y32057D01*
X72515Y32210D01*
X72668Y32384D01*
X72797Y32577D01*
X72900Y32786D01*
X72975Y33006D01*
X73020Y33233D01*
X73022Y33265D01*
X77658D01*
X79327Y31596D01*
Y16339D01*
X79342Y16153D01*
X79385Y15972D01*
X79456Y15801D01*
X79553Y15642D01*
X79674Y15501D01*
X83611Y11564D01*
X83752Y11443D01*
X83911Y11346D01*
X84083Y11275D01*
X84263Y11231D01*
X84449Y11217D01*
X86993D01*
X87045Y11054D01*
X87177Y10736D01*
X87335Y10431D01*
X87520Y10141D01*
X87729Y9868D01*
X87962Y9615D01*
X88215Y9383D01*
X88488Y9173D01*
X88778Y8989D01*
X89083Y8830D01*
X89400Y8698D01*
X89728Y8595D01*
X90064Y8521D01*
X90404Y8476D01*
X90748Y8461D01*
X91092Y8476D01*
X91432Y8521D01*
X91768Y8595D01*
X92096Y8698D01*
X92413Y8830D01*
X92718Y8989D01*
X93008Y9173D01*
X93281Y9383D01*
X93534Y9615D01*
X93767Y9868D01*
X93976Y10141D01*
X94161Y10431D01*
X94319Y10736D01*
X94451Y11054D01*
X94555Y11382D01*
X94629Y11717D01*
X94674Y12058D01*
X94689Y12402D01*
X94674Y12745D01*
X94629Y13086D01*
X94555Y13421D01*
X94451Y13749D01*
X94319Y14067D01*
X94161Y14372D01*
X93976Y14662D01*
X93767Y14935D01*
X93534Y15188D01*
X93281Y15420D01*
X93008Y15630D01*
X92718Y15814D01*
X92413Y15973D01*
X92096Y16105D01*
X91768Y16208D01*
X91432Y16283D01*
X91092Y16327D01*
X90748Y16342D01*
X90404Y16327D01*
X90064Y16283D01*
X89728Y16208D01*
X89400Y16105D01*
X89083Y15973D01*
X88778Y15814D01*
X88488Y15630D01*
X88215Y15420D01*
X87962Y15188D01*
X87729Y14935D01*
X87520Y14662D01*
X87335Y14372D01*
X87177Y14067D01*
X87045Y13749D01*
X86993Y13586D01*
X84940D01*
X81697Y16829D01*
Y32087D01*
X81682Y32272D01*
X81639Y32453D01*
X81567Y32625D01*
X81470Y32783D01*
X81349Y32924D01*
X78987Y35287D01*
X78845Y35408D01*
X78687Y35505D01*
X78515Y35576D01*
X78334Y35620D01*
X78149Y35634D01*
X73022D01*
X73020Y35666D01*
X72975Y35893D01*
X72900Y36113D01*
X72797Y36321D01*
X72668Y36515D01*
X72515Y36689D01*
X72341Y36842D01*
X72148Y36971D01*
X71939Y37074D01*
X71719Y37149D01*
X71492Y37194D01*
X71260Y37209D01*
X68110D01*
X68099Y37208D01*
X63990Y37209D01*
X63976Y37209D01*
D02*
G37*
G36*
X49409Y29070D02*
Y24409D01*
X53350D01*
X53335Y24780D01*
X53292Y25149D01*
X53219Y25513D01*
X53119Y25870D01*
X52990Y26219D01*
X52835Y26556D01*
X52653Y26880D01*
X52447Y27189D01*
X52217Y27480D01*
X51965Y27753D01*
X51693Y28005D01*
X51401Y28234D01*
X51092Y28441D01*
X50769Y28622D01*
X50431Y28778D01*
X50083Y28906D01*
X49726Y29007D01*
X49409Y29070D01*
D02*
G37*
G36*
X47835D02*
X47518Y29007D01*
X47161Y28906D01*
X46813Y28778D01*
X46476Y28622D01*
X46152Y28441D01*
X45843Y28234D01*
X45551Y28005D01*
X45279Y27753D01*
X45027Y27480D01*
X44797Y27189D01*
X44591Y26880D01*
X44409Y26556D01*
X44254Y26219D01*
X44125Y25870D01*
X44025Y25513D01*
X43952Y25149D01*
X43909Y24780D01*
X43894Y24409D01*
X47835D01*
Y29070D01*
D02*
G37*
G36*
X53350Y22835D02*
X49409D01*
Y18174D01*
X49726Y18237D01*
X50083Y18338D01*
X50431Y18466D01*
X50769Y18622D01*
X51092Y18803D01*
X51401Y19010D01*
X51693Y19239D01*
X51965Y19491D01*
X52217Y19764D01*
X52447Y20056D01*
X52653Y20364D01*
X52835Y20688D01*
X52990Y21025D01*
X53119Y21374D01*
X53219Y21731D01*
X53292Y22095D01*
X53335Y22464D01*
X53350Y22835D01*
D02*
G37*
G36*
X47835D02*
X43894D01*
X43909Y22464D01*
X43952Y22095D01*
X44025Y21731D01*
X44125Y21374D01*
X44254Y21025D01*
X44409Y20688D01*
X44591Y20364D01*
X44797Y20056D01*
X45027Y19764D01*
X45279Y19491D01*
X45551Y19239D01*
X45843Y19010D01*
X46152Y18803D01*
X46476Y18622D01*
X46813Y18466D01*
X47161Y18338D01*
X47518Y18237D01*
X47835Y18174D01*
Y22835D01*
D02*
G37*
G36*
X97047Y27365D02*
X93504D01*
X93253Y27353D01*
X93004Y27316D01*
X92760Y27255D01*
X92523Y27170D01*
X92296Y27063D01*
X92080Y26934D01*
X91878Y26784D01*
X91692Y26615D01*
X91523Y26429D01*
X91374Y26227D01*
X91244Y26011D01*
X91137Y25784D01*
X91052Y25547D01*
X90991Y25303D01*
X90954Y25054D01*
X90942Y24803D01*
Y19685D01*
X90954Y19434D01*
X90991Y19185D01*
X91052Y18941D01*
X91137Y18704D01*
X91244Y18477D01*
X91374Y18262D01*
X91523Y18060D01*
X91692Y17873D01*
X91878Y17705D01*
X92080Y17555D01*
X92296Y17425D01*
X92523Y17318D01*
X92760Y17233D01*
X93004Y17172D01*
X93253Y17135D01*
X93504Y17123D01*
X97047D01*
X97298Y17135D01*
X97547Y17172D01*
X97791Y17233D01*
X98028Y17318D01*
X98255Y17425D01*
X98471Y17555D01*
X98673Y17705D01*
X98859Y17873D01*
X99028Y18060D01*
X99178Y18262D01*
X99307Y18477D01*
X99414Y18704D01*
X99499Y18941D01*
X99560Y19185D01*
X99597Y19434D01*
X99609Y19685D01*
Y24803D01*
X99597Y25054D01*
X99560Y25303D01*
X99499Y25547D01*
X99414Y25784D01*
X99307Y26011D01*
X99178Y26227D01*
X99028Y26429D01*
X98859Y26615D01*
X98673Y26784D01*
X98471Y26934D01*
X98255Y27063D01*
X98028Y27170D01*
X97791Y27255D01*
X97547Y27316D01*
X97298Y27353D01*
X97047Y27365D01*
D02*
G37*
G36*
X70276D02*
X66732D01*
X66481Y27353D01*
X66232Y27316D01*
X65988Y27255D01*
X65752Y27170D01*
X65525Y27063D01*
X65309Y26934D01*
X65107Y26784D01*
X64921Y26615D01*
X64752Y26429D01*
X64602Y26227D01*
X64473Y26011D01*
X64365Y25784D01*
X64280Y25547D01*
X64219Y25303D01*
X64183Y25054D01*
X64170Y24803D01*
Y19685D01*
X64183Y19434D01*
X64219Y19185D01*
X64280Y18941D01*
X64365Y18704D01*
X64473Y18477D01*
X64602Y18262D01*
X64752Y18060D01*
X64921Y17873D01*
X65107Y17705D01*
X65309Y17555D01*
X65525Y17425D01*
X65752Y17318D01*
X65988Y17233D01*
X66232Y17172D01*
X66481Y17135D01*
X66732Y17123D01*
X70276D01*
X70527Y17135D01*
X70775Y17172D01*
X71019Y17233D01*
X71256Y17318D01*
X71483Y17425D01*
X71699Y17555D01*
X71901Y17705D01*
X72087Y17873D01*
X72256Y18060D01*
X72406Y18262D01*
X72535Y18477D01*
X72643Y18704D01*
X72727Y18941D01*
X72789Y19185D01*
X72825Y19434D01*
X72838Y19685D01*
Y24803D01*
X72825Y25054D01*
X72789Y25303D01*
X72727Y25547D01*
X72643Y25784D01*
X72535Y26011D01*
X72406Y26227D01*
X72256Y26429D01*
X72087Y26615D01*
X71901Y26784D01*
X71699Y26934D01*
X71483Y27063D01*
X71256Y27170D01*
X71019Y27255D01*
X70775Y27316D01*
X70527Y27353D01*
X70276Y27365D01*
D02*
G37*
G36*
X33465Y14571D02*
X33094Y14556D01*
X32725Y14512D01*
X32361Y14440D01*
X32004Y14339D01*
X31655Y14211D01*
X31318Y14055D01*
X30994Y13874D01*
X30685Y13668D01*
X30394Y13438D01*
X30121Y13186D01*
X29869Y12913D01*
X29640Y12622D01*
X29433Y12313D01*
X29252Y11989D01*
X29096Y11652D01*
X28968Y11304D01*
X28867Y10946D01*
X28795Y10582D01*
X28751Y10214D01*
X28736Y9843D01*
X28751Y9472D01*
X28795Y9103D01*
X28867Y8739D01*
X28968Y8382D01*
X29096Y8033D01*
X29252Y7696D01*
X29433Y7372D01*
X29640Y7063D01*
X29869Y6772D01*
X30121Y6499D01*
X30394Y6247D01*
X30685Y6017D01*
X30994Y5811D01*
X31318Y5630D01*
X31655Y5474D01*
X32004Y5346D01*
X32361Y5245D01*
X32725Y5173D01*
X33094Y5129D01*
X33465Y5114D01*
X33836Y5129D01*
X34204Y5173D01*
X34568Y5245D01*
X34926Y5346D01*
X35274Y5474D01*
X35611Y5630D01*
X35935Y5811D01*
X36244Y6017D01*
X36535Y6247D01*
X36808Y6499D01*
X37060Y6772D01*
X37290Y7063D01*
X37496Y7372D01*
X37677Y7696D01*
X37833Y8033D01*
X37961Y8382D01*
X38062Y8739D01*
X38134Y9103D01*
X38178Y9472D01*
X38193Y9843D01*
X38178Y10214D01*
X38134Y10582D01*
X38062Y10946D01*
X37961Y11304D01*
X37833Y11652D01*
X37677Y11989D01*
X37496Y12313D01*
X37290Y12622D01*
X37060Y12913D01*
X36808Y13186D01*
X36535Y13438D01*
X36244Y13668D01*
X35935Y13874D01*
X35611Y14055D01*
X35274Y14211D01*
X34926Y14339D01*
X34568Y14440D01*
X34204Y14512D01*
X33836Y14556D01*
X33465Y14571D01*
D02*
G37*
G36*
X42953Y214452D02*
X42682Y214439D01*
X42414Y214399D01*
X42152Y214333D01*
X41897Y214242D01*
X41652Y214126D01*
X41420Y213987D01*
X41202Y213826D01*
X41002Y213644D01*
X40820Y213443D01*
X40658Y213226D01*
X40519Y212994D01*
X40403Y212749D01*
X40312Y212494D01*
X40246Y212231D01*
X40207Y211963D01*
X40193Y211693D01*
X40207Y211422D01*
X40246Y211155D01*
X40312Y210892D01*
X40403Y210637D01*
X40519Y210392D01*
X40658Y210160D01*
X40820Y209942D01*
X41002Y209742D01*
X41202Y209560D01*
X41420Y209399D01*
X41652Y209259D01*
X41897Y209144D01*
X42152Y209052D01*
X42414Y208987D01*
X42682Y208947D01*
X42953Y208934D01*
X43223Y208947D01*
X43491Y208987D01*
X43754Y209052D01*
X44008Y209144D01*
X44253Y209259D01*
X44486Y209399D01*
X44703Y209560D01*
X44904Y209742D01*
X45085Y209942D01*
X45247Y210160D01*
X45386Y210392D01*
X45502Y210637D01*
X45593Y210892D01*
X45659Y211155D01*
X45699Y211422D01*
X45712Y211693D01*
X45699Y211963D01*
X45659Y212231D01*
X45593Y212494D01*
X45502Y212749D01*
X45386Y212994D01*
X45247Y213226D01*
X45085Y213443D01*
X44904Y213644D01*
X44703Y213826D01*
X44486Y213987D01*
X44253Y214126D01*
X44008Y214242D01*
X43754Y214333D01*
X43491Y214399D01*
X43223Y214439D01*
X42953Y214452D01*
D02*
G37*
G36*
X32953D02*
X32682Y214439D01*
X32414Y214399D01*
X32152Y214333D01*
X31897Y214242D01*
X31652Y214126D01*
X31420Y213987D01*
X31202Y213826D01*
X31002Y213644D01*
X30820Y213443D01*
X30658Y213226D01*
X30519Y212994D01*
X30403Y212749D01*
X30312Y212494D01*
X30246Y212231D01*
X30207Y211963D01*
X30193Y211693D01*
X30207Y211422D01*
X30246Y211155D01*
X30312Y210892D01*
X30403Y210637D01*
X30519Y210392D01*
X30658Y210160D01*
X30820Y209942D01*
X31002Y209742D01*
X31202Y209560D01*
X31420Y209399D01*
X31652Y209259D01*
X31897Y209144D01*
X32152Y209052D01*
X32414Y208987D01*
X32682Y208947D01*
X32953Y208934D01*
X33223Y208947D01*
X33491Y208987D01*
X33754Y209052D01*
X34008Y209144D01*
X34253Y209259D01*
X34486Y209399D01*
X34703Y209560D01*
X34904Y209742D01*
X35085Y209942D01*
X35247Y210160D01*
X35386Y210392D01*
X35502Y210637D01*
X35593Y210892D01*
X35659Y211155D01*
X35699Y211422D01*
X35712Y211693D01*
X35699Y211963D01*
X35659Y212231D01*
X35593Y212494D01*
X35502Y212749D01*
X35386Y212994D01*
X35247Y213226D01*
X35085Y213443D01*
X34904Y213644D01*
X34703Y213826D01*
X34486Y213987D01*
X34253Y214126D01*
X34008Y214242D01*
X33754Y214333D01*
X33491Y214399D01*
X33223Y214439D01*
X32953Y214452D01*
D02*
G37*
G36*
X42953Y204452D02*
X42682Y204439D01*
X42414Y204399D01*
X42152Y204333D01*
X41897Y204242D01*
X41652Y204126D01*
X41420Y203987D01*
X41202Y203826D01*
X41002Y203644D01*
X40820Y203443D01*
X40658Y203226D01*
X40519Y202993D01*
X40403Y202749D01*
X40312Y202494D01*
X40246Y202231D01*
X40207Y201963D01*
X40193Y201693D01*
X40207Y201422D01*
X40246Y201154D01*
X40312Y200892D01*
X40403Y200637D01*
X40519Y200392D01*
X40630Y200016D01*
X40554Y199632D01*
X40377Y199426D01*
X40230Y199261D01*
X40102Y199080D01*
X39995Y198887D01*
X39911Y198683D01*
X39849Y198470D01*
X39812Y198252D01*
X39800Y198031D01*
Y194095D01*
X39812Y193874D01*
X39849Y193656D01*
X39911Y193443D01*
X39995Y193239D01*
X40102Y193045D01*
X40230Y192865D01*
X40377Y192700D01*
X40542Y192553D01*
X40723Y192425D01*
X40916Y192318D01*
X41120Y192234D01*
X41333Y192172D01*
X41551Y192135D01*
X41772Y192123D01*
X44134D01*
X44355Y192135D01*
X44572Y192172D01*
X44785Y192234D01*
X44989Y192318D01*
X45183Y192425D01*
X45363Y192553D01*
X45528Y192700D01*
X45675Y192865D01*
X45803Y193045D01*
X45910Y193239D01*
X45995Y193443D01*
X46056Y193656D01*
X46093Y193874D01*
X46105Y194095D01*
Y198031D01*
X46093Y198252D01*
X46056Y198470D01*
X45995Y198683D01*
X45910Y198887D01*
X45803Y199080D01*
X45675Y199261D01*
X45528Y199426D01*
X45351Y199632D01*
X45275Y200016D01*
X45386Y200392D01*
X45502Y200637D01*
X45593Y200892D01*
X45659Y201154D01*
X45699Y201422D01*
X45712Y201693D01*
X45699Y201963D01*
X45659Y202231D01*
X45593Y202494D01*
X45502Y202749D01*
X45386Y202993D01*
X45247Y203226D01*
X45085Y203443D01*
X44904Y203644D01*
X44703Y203826D01*
X44486Y203987D01*
X44253Y204126D01*
X44008Y204242D01*
X43754Y204333D01*
X43491Y204399D01*
X43223Y204439D01*
X42953Y204452D01*
D02*
G37*
G36*
X32953D02*
X32682Y204439D01*
X32414Y204399D01*
X32152Y204333D01*
X31897Y204242D01*
X31652Y204126D01*
X31420Y203987D01*
X31202Y203826D01*
X31002Y203644D01*
X30820Y203443D01*
X30658Y203226D01*
X30519Y202993D01*
X30403Y202749D01*
X30312Y202494D01*
X30246Y202231D01*
X30207Y201963D01*
X30193Y201693D01*
X30207Y201422D01*
X30246Y201154D01*
X30312Y200892D01*
X30403Y200637D01*
X30519Y200392D01*
X30630Y200016D01*
X30554Y199632D01*
X30377Y199426D01*
X30230Y199261D01*
X30102Y199080D01*
X29995Y198887D01*
X29911Y198683D01*
X29849Y198470D01*
X29812Y198252D01*
X29800Y198031D01*
Y194095D01*
X29812Y193874D01*
X29849Y193656D01*
X29911Y193443D01*
X29995Y193239D01*
X30102Y193045D01*
X30230Y192865D01*
X30377Y192700D01*
X30542Y192553D01*
X30723Y192425D01*
X30916Y192318D01*
X31120Y192234D01*
X31333Y192172D01*
X31551Y192135D01*
X31771Y192123D01*
X34134D01*
X34354Y192135D01*
X34572Y192172D01*
X34785Y192234D01*
X34989Y192318D01*
X35183Y192425D01*
X35363Y192553D01*
X35528Y192700D01*
X35675Y192865D01*
X35803Y193045D01*
X35910Y193239D01*
X35995Y193443D01*
X36056Y193656D01*
X36093Y193874D01*
X36105Y194095D01*
Y198031D01*
X36093Y198252D01*
X36056Y198470D01*
X35995Y198683D01*
X35910Y198887D01*
X35803Y199080D01*
X35675Y199261D01*
X35528Y199426D01*
X35351Y199632D01*
X35275Y200016D01*
X35386Y200392D01*
X35502Y200637D01*
X35593Y200892D01*
X35659Y201154D01*
X35699Y201422D01*
X35712Y201693D01*
X35699Y201963D01*
X35659Y202231D01*
X35593Y202494D01*
X35502Y202749D01*
X35386Y202993D01*
X35247Y203226D01*
X35085Y203443D01*
X34904Y203644D01*
X34703Y203826D01*
X34486Y203987D01*
X34253Y204126D01*
X34008Y204242D01*
X33754Y204333D01*
X33491Y204399D01*
X33223Y204439D01*
X32953Y204452D01*
D02*
G37*
G36*
X36811Y29137D02*
X35630D01*
Y24409D01*
X39570D01*
Y26378D01*
X39557Y26648D01*
X39517Y26916D01*
X39451Y27179D01*
X39360Y27434D01*
X39244Y27679D01*
X39105Y27911D01*
X38944Y28128D01*
X38762Y28329D01*
X38561Y28511D01*
X38344Y28672D01*
X38112Y28811D01*
X37867Y28927D01*
X37612Y29018D01*
X37349Y29084D01*
X37082Y29124D01*
X36811Y29137D01*
D02*
G37*
G36*
X34055D02*
X32874D01*
X32604Y29124D01*
X32336Y29084D01*
X32073Y29018D01*
X31818Y28927D01*
X31573Y28811D01*
X31341Y28672D01*
X31124Y28511D01*
X30923Y28329D01*
X30741Y28128D01*
X30580Y27911D01*
X30441Y27679D01*
X30325Y27434D01*
X30234Y27179D01*
X30168Y26916D01*
X30128Y26648D01*
X30115Y26378D01*
Y24409D01*
X34055D01*
Y29137D01*
D02*
G37*
G36*
X39570Y22835D02*
X35630D01*
Y18107D01*
X36811D01*
X37082Y18120D01*
X37349Y18160D01*
X37612Y18226D01*
X37867Y18317D01*
X38112Y18433D01*
X38344Y18572D01*
X38561Y18733D01*
X38762Y18915D01*
X38944Y19116D01*
X39105Y19333D01*
X39244Y19566D01*
X39360Y19810D01*
X39451Y20065D01*
X39517Y20328D01*
X39557Y20596D01*
X39570Y20866D01*
Y22835D01*
D02*
G37*
G36*
X34055D02*
X30115D01*
Y20866D01*
X30128Y20596D01*
X30168Y20328D01*
X30234Y20065D01*
X30325Y19810D01*
X30441Y19566D01*
X30580Y19333D01*
X30741Y19116D01*
X30923Y18915D01*
X31124Y18733D01*
X31341Y18572D01*
X31573Y18433D01*
X31818Y18317D01*
X32073Y18226D01*
X32336Y18160D01*
X32604Y18120D01*
X32874Y18107D01*
X34055D01*
Y22835D01*
D02*
G37*
%LPD*%
D10*
X14961Y160630D02*
X21949D01*
X58268Y19685D02*
Y30512D01*
X58071Y19488D02*
X58268Y19685D01*
X58071Y19488D02*
X65158Y12402D01*
X62205Y34450D02*
X69685D01*
X80512Y16339D02*
Y32087D01*
X78149Y34449D02*
X80512Y32087D01*
X69685Y34449D02*
X78149D01*
X78937Y43898D02*
Y55512D01*
X76575Y41536D02*
X78937Y43898D01*
X69685Y41536D02*
X76575D01*
X21457Y153543D02*
X21949D01*
X14961D02*
X21457D01*
X18504Y157087D02*
X18805Y156785D01*
Y156195D02*
Y156785D01*
Y156195D02*
X21457Y153543D01*
X59055Y187598D02*
X69685D01*
X57480Y189173D02*
X59055Y187598D01*
X52756Y189173D02*
X57480D01*
X50984Y187402D02*
X52756Y189173D01*
X50984Y182283D02*
Y187402D01*
X7480Y42913D02*
X9941D01*
X87869Y94291D02*
X121063D01*
X82874Y99286D02*
X87869Y94291D01*
X121063D02*
X125000Y98228D01*
X121457Y110040D02*
Y115152D01*
X118110Y106693D02*
X121457Y110040D01*
X114961Y106693D02*
X118110D01*
X129921Y111811D02*
Y122244D01*
X125000Y106890D02*
X129921Y111811D01*
X125000Y98228D02*
Y106890D01*
X107874Y191496D02*
X107953Y191417D01*
X240630Y193504D02*
X247126Y187008D01*
X235039Y193504D02*
X240630D01*
X228740Y199803D02*
X235039Y193504D01*
X63779Y164823D02*
X69685D01*
X63779D02*
X63839Y164764D01*
X107953Y191575D02*
Y204213D01*
X107874Y191496D02*
X107953Y191575D01*
X87874Y191339D02*
Y205455D01*
X50984Y182283D02*
X54921Y178346D01*
X47048Y156496D02*
Y171063D01*
Y178543D01*
X46260Y179331D02*
X47048Y178543D01*
X46260Y179331D02*
Y182087D01*
X50590Y152953D02*
X54921Y148622D01*
Y145866D02*
Y148622D01*
X47047Y145866D02*
X50590D01*
X46260Y146654D02*
X47047Y145866D01*
X46260Y146654D02*
Y149606D01*
X58661Y170866D02*
X59705Y169823D01*
X63779D01*
X58661Y170866D02*
Y182087D01*
X54921Y185827D02*
X58661Y182087D01*
X87795Y187598D02*
X91929Y183465D01*
X69685Y187598D02*
X87795D01*
X69685Y182677D02*
Y187598D01*
X91929Y182677D02*
Y183465D01*
X70866Y147244D02*
Y153543D01*
X67913Y156496D02*
X70866Y153543D01*
X54134Y156496D02*
X67913D01*
X102559Y186614D02*
X116929D01*
X98032Y191142D02*
X102559Y186614D01*
X116929D02*
X121063Y182480D01*
X104410Y157283D02*
X104449Y157323D01*
X81496Y157283D02*
X104410D01*
X77953Y160827D02*
X81496Y157283D01*
X77953Y160827D02*
Y171457D01*
X74587Y174823D02*
X77953Y171457D01*
X63779Y174823D02*
X74587D01*
X63779D02*
Y177559D01*
X62598Y178740D02*
X63779Y177559D01*
X62598Y178740D02*
Y182677D01*
X87874Y205455D02*
X90883Y208465D01*
X92126Y164823D02*
X97973D01*
X114450Y167323D02*
X121063Y173936D01*
Y182480D01*
X103494Y176367D02*
X104449Y177323D01*
X100197Y162205D02*
X109331D01*
X114450Y167323D01*
X97815Y159823D02*
X100197Y162205D01*
X92126Y159823D02*
X97815D01*
X92126Y169823D02*
X101477D01*
X103977Y167323D01*
X104449D01*
X11237Y165354D02*
X17913D01*
X247126Y157480D02*
Y187008D01*
X98032Y191142D02*
Y204134D01*
X121457Y115152D02*
Y152559D01*
X45079Y100197D02*
X45276Y100000D01*
X45079Y100197D02*
Y105905D01*
Y110236D01*
X45079Y110236D01*
X56299Y109843D02*
X77067D01*
X51575Y114567D02*
X56299Y109843D01*
X48819Y114567D02*
X51575D01*
X48819Y102953D02*
X50658Y101114D01*
X50855D01*
X48819Y102953D02*
Y114567D01*
X140748Y54331D02*
Y72441D01*
X41142Y64567D02*
X41732Y63976D01*
X35039Y64567D02*
X41142D01*
X35039Y64567D02*
X35039Y64567D01*
X27559Y64567D02*
X35039D01*
X23031Y61221D02*
X24847Y63036D01*
X24921D01*
X26452Y64567D01*
X27559D01*
X27559Y57480D02*
X35039D01*
X35039Y57480D01*
X35236Y57086D02*
X42322D01*
X48228Y53543D02*
X52165D01*
X42322Y57086D02*
X42323Y57087D01*
X46063Y53543D02*
X48228D01*
X42594Y57087D02*
X44445Y55236D01*
Y55162D02*
Y55236D01*
Y55162D02*
X46063Y53543D01*
X62008Y57087D02*
Y64173D01*
X54921Y59055D02*
Y64173D01*
X48622Y58268D02*
Y63976D01*
X48228Y57874D02*
X48622Y58268D01*
X21260Y46457D02*
Y50394D01*
X70276Y46654D02*
X71850Y48228D01*
X52824Y46654D02*
X70276D01*
X49016Y50461D02*
X52824Y46654D01*
X163331Y51397D02*
X165083Y53150D01*
X158268Y46063D02*
X158539D01*
X163331Y51126D02*
Y51397D01*
X165083Y53150D02*
X165354D01*
X160291Y48086D02*
X163331Y51126D01*
X160291Y47815D02*
Y48086D01*
X158539Y46063D02*
X160291Y47815D01*
X140610Y53150D02*
X158268D01*
X140551D02*
X140610D01*
X139763Y53937D02*
X140551Y53150D01*
X139763Y53937D02*
X140610D01*
X150610Y46063D02*
X158268D01*
X92520Y60039D02*
Y64961D01*
X91535Y59055D02*
X92520Y60039D01*
X82480Y59055D02*
X91535D01*
X78937Y55512D02*
X82480Y59055D01*
X28150Y50394D02*
X28150D01*
X21260D02*
X28150D01*
X71850Y48228D02*
Y53267D01*
X49016Y50461D02*
Y50591D01*
X48622Y50984D02*
X49016Y50591D01*
X48228Y50984D02*
X48622D01*
X61811Y34449D02*
X61811Y34449D01*
X54331Y34449D02*
X61811D01*
X65158Y12402D02*
X73032D01*
X84449D02*
X90748D01*
X80512Y16339D02*
X84449Y12402D01*
X20079Y57874D02*
X21260Y56693D01*
Y50394D02*
Y56693D01*
X17618Y57874D02*
X20079D01*
X58268Y53543D02*
X59886Y55162D01*
Y55236D01*
X61737Y57087D01*
X62008D01*
X56102Y53543D02*
X58268D01*
X56102Y56102D02*
Y57874D01*
X54921Y59055D02*
X56102Y57874D01*
X28150Y50394D02*
X28150Y50394D01*
X48228Y56102D02*
Y57874D01*
X35236Y50394D02*
X35630Y50000D01*
X42323D01*
X46850D01*
X47835Y50984D01*
X48228D01*
X163976Y6693D02*
Y22835D01*
X164173Y23031D01*
X161614Y4331D02*
X163976Y6693D01*
X160868Y4331D02*
X161614D01*
X155905Y10236D02*
X156102D01*
X152362D02*
X155905D01*
Y10433D01*
Y7087D02*
Y10236D01*
Y10433D02*
X156102Y10236D01*
X77854Y90847D02*
X78347D01*
X77864Y117717D02*
X77955Y117807D01*
Y118604D01*
X80018Y120667D01*
X80815D01*
X80905Y120758D01*
X77067Y117717D02*
X77864D01*
X80905Y120758D02*
Y121555D01*
X79528Y139173D02*
Y152165D01*
X140610Y54193D02*
X140748Y54331D01*
X99410Y106299D02*
X101377D01*
X95866Y109843D02*
X99410Y106299D01*
X92618Y109843D02*
X95866D01*
X101377Y106299D02*
X104527Y103149D01*
X98425Y99606D02*
X107874D01*
X95965Y102067D02*
X98425Y99606D01*
X88779Y102067D02*
X95965D01*
X86811Y99803D02*
X87205Y99410D01*
X87598Y99016D02*
X91732D01*
X87205Y99410D02*
X87598Y99016D01*
X77559Y91142D02*
Y93504D01*
Y91142D02*
X77854Y90847D01*
X97835Y111811D02*
X100000Y109646D01*
X92618Y105905D02*
X95669D01*
X125984Y18110D02*
Y23500D01*
X103543Y135827D02*
X107874D01*
X100197Y132480D02*
X103543Y135827D01*
X100197Y122047D02*
Y132480D01*
X95866Y117717D02*
X100197Y122047D01*
X114936Y128445D02*
X114961D01*
X104528Y121653D02*
X107874D01*
X98622Y115748D02*
X104528Y121653D01*
X92618Y115748D02*
X98622D01*
X92618Y117717D02*
X95866D01*
X103740Y128740D02*
X107874D01*
X140610Y20925D02*
Y24803D01*
X137008Y17323D02*
X140610Y20925D01*
X136221Y17323D02*
X137008D01*
X150610Y24788D02*
Y24803D01*
Y24788D02*
X151383Y24016D01*
X157677D01*
X159843Y17323D02*
Y21389D01*
X157677Y23554D02*
X159843Y21389D01*
X157677Y23554D02*
Y24016D01*
X159842Y17323D02*
X159843Y17323D01*
X152362Y17323D02*
X159842D01*
X156102Y10236D02*
X159842D01*
X159843Y10237D01*
X144488Y17323D02*
X145610Y18445D01*
Y24803D01*
X125984Y12524D02*
X128271Y10237D01*
X125984Y12524D02*
Y18110D01*
X128271Y10237D02*
X136221D01*
X121457Y115152D02*
X121457Y115152D01*
X121457Y152559D02*
X122047Y153150D01*
X7480Y169111D02*
X11237Y165354D01*
X74606Y107874D02*
X77067D01*
X107953Y204213D02*
X108661Y204921D01*
X84880Y99507D02*
X88521Y95866D01*
X84880Y99507D02*
Y102029D01*
X84842Y102067D02*
X84880Y102029D01*
X92618Y113779D02*
X107480D01*
X7480Y169111D02*
Y169292D01*
X88878Y121653D02*
X92716D01*
X75000Y101969D02*
X77067Y104035D01*
X73228Y101969D02*
X75000D01*
X88521Y95866D02*
X110236D01*
X86811Y99803D02*
Y102067D01*
X77067Y104035D02*
Y105905D01*
X82874Y99286D02*
Y102067D01*
X110236Y95866D02*
X111417Y97047D01*
Y117649D01*
X113208Y126717D02*
X114936Y128445D01*
X112937Y126717D02*
X113208D01*
X109897Y123677D02*
X112937Y126717D01*
X109626Y123677D02*
X109897D01*
X107874Y121924D02*
X109626Y123677D01*
X107874Y121192D02*
X111417Y117649D01*
X107874Y106693D02*
X107874Y106693D01*
Y99606D02*
Y106693D01*
X114961Y135827D02*
X119095D01*
X107874D02*
X107874Y135827D01*
Y142913D01*
X199213Y217323D02*
X202953D01*
X197953Y216063D02*
X199213Y217323D01*
X197953Y210551D02*
Y216063D01*
X195866Y208465D02*
X197953Y210551D01*
X90883Y208465D02*
X195866D01*
X219094Y217323D02*
X222953D01*
X217953Y216181D02*
X219094Y217323D01*
X217953Y209291D02*
Y216181D01*
X215354Y206693D02*
X217953Y209291D01*
X100591Y206693D02*
X215354D01*
X108661Y204921D02*
X226969D01*
X228740Y203150D01*
Y199803D02*
Y203150D01*
X79331Y133465D02*
X82874Y129921D01*
X79331Y133465D02*
Y138976D01*
X82874Y121653D02*
Y124508D01*
X8071Y149213D02*
X11024D01*
X7480Y149803D02*
X8071Y149213D01*
X7480Y149803D02*
Y152756D01*
X98032Y204134D02*
X100591Y206693D01*
X14961Y170079D02*
X32677D01*
X11024Y149213D02*
Y149213D01*
X88779Y121555D02*
X88878Y121653D01*
X92618Y111811D02*
X97835D01*
X72835Y113583D02*
X75000Y115748D01*
X68504Y113583D02*
X72835D01*
X75000Y115748D02*
X77067D01*
X10236Y177953D02*
X11024Y177165D01*
X14961D01*
X7480Y177953D02*
X10236D01*
X10433Y161418D02*
X11220Y160630D01*
X7480Y161418D02*
X10433D01*
X11220Y160630D02*
X14961D01*
X84842Y121555D02*
Y125129D01*
X85304Y125591D01*
X86811D01*
X90840Y129620D01*
X86811Y121555D02*
Y125591D01*
X90840Y129620D02*
Y137494D01*
X92323Y138976D01*
X77067Y111811D02*
X82677D01*
X79331Y138976D02*
X79528Y139173D01*
D13*
X69685Y34450D02*
X69685Y34449D01*
X147835Y37992D02*
X161023D01*
X68504Y99607D02*
Y105709D01*
X52559Y105905D02*
X56496D01*
X147441Y8029D02*
X151139Y4331D01*
X160868D01*
X85827Y92323D02*
X90354D01*
X91339Y91339D01*
Y85827D02*
Y91339D01*
X164764Y24016D02*
Y34252D01*
X161023Y37992D02*
X164764Y34252D01*
X147441Y8029D02*
Y8071D01*
X145276Y10236D02*
X147441Y8071D01*
X144488Y10236D02*
X145276D01*
X71850Y105709D02*
X74016Y107874D01*
X68504Y105709D02*
X71850D01*
X68504Y105709D02*
X68504Y105709D01*
X74016Y107874D02*
X74606D01*
X80905Y97244D02*
X85827Y92323D01*
X70866Y97244D02*
X80905D01*
X68504Y99607D02*
X70866Y97244D01*
X87795Y118110D02*
X87795Y118110D01*
D25*
X143111Y35433D02*
D03*
D56*
X58268Y30512D02*
D03*
X18504Y165354D02*
D03*
Y157087D02*
D03*
X119095Y142913D02*
D03*
X58074Y138582D02*
D03*
X60042Y136022D02*
D03*
X56104Y136023D02*
D03*
X54136Y138582D02*
D03*
X50198Y138582D02*
D03*
X52167Y136023D02*
D03*
X48229Y136023D02*
D03*
X44291Y136024D02*
D03*
X46260Y138583D02*
D03*
X7480Y42913D02*
D03*
X66142Y30512D02*
D03*
X62992Y190551D02*
D03*
X27362Y80709D02*
D03*
X102953Y78543D02*
D03*
X127953Y187795D02*
D03*
X69685Y164823D02*
D03*
Y177559D02*
D03*
Y172047D02*
D03*
X85236Y160630D02*
D03*
X100984Y139173D02*
D03*
X124213Y146850D02*
D03*
X80708Y182677D02*
D03*
X50590Y145866D02*
D03*
Y152953D02*
D03*
X118110Y189961D02*
D03*
X42913Y178347D02*
D03*
X50984Y178543D02*
D03*
X87874Y191339D02*
D03*
X97973Y164823D02*
D03*
X69685Y159843D02*
D03*
X107874Y191339D02*
D03*
X68504Y99607D02*
D03*
X45079Y110236D02*
D03*
X56496Y105905D02*
D03*
X57480Y113583D02*
D03*
X58071Y49016D02*
D03*
X58268Y38386D02*
D03*
X82677Y116142D02*
D03*
X87008Y107480D02*
D03*
X82677D02*
D03*
X87008Y111811D02*
D03*
X82677D02*
D03*
X87008Y116142D02*
D03*
X143110Y37992D02*
D03*
Y32874D02*
D03*
X147835D02*
D03*
X138386Y37992D02*
D03*
X147835D02*
D03*
X138386Y32874D02*
D03*
X84842Y39567D02*
D03*
Y42913D02*
D03*
X87598Y44488D02*
D03*
Y41142D02*
D03*
Y37992D02*
D03*
X84842Y46260D02*
D03*
X87598Y47835D02*
D03*
X144291Y69882D02*
D03*
X147047Y68307D02*
D03*
X144291Y60039D02*
D03*
Y63189D02*
D03*
Y66536D02*
D03*
X147047Y64961D02*
D03*
Y61614D02*
D03*
X97441Y69882D02*
D03*
X100197Y68307D02*
D03*
X97441Y60039D02*
D03*
Y63189D02*
D03*
Y66536D02*
D03*
X100197Y64961D02*
D03*
Y61614D02*
D03*
X23031Y61221D02*
D03*
X24409Y47441D02*
D03*
X21260Y46457D02*
D03*
X7480Y57874D02*
D03*
X52165Y53543D02*
D03*
X227165Y208268D02*
D03*
X242520Y180512D02*
D03*
Y150787D02*
D03*
X246063Y42913D02*
D03*
X234646Y91535D02*
D03*
X187795Y81102D02*
D03*
Y6299D02*
D03*
X23228Y197047D02*
D03*
X38780Y121653D02*
D03*
X155905Y7087D02*
D03*
X81890Y84842D02*
D03*
X128543Y35433D02*
D03*
X91732Y99016D02*
D03*
X77559Y93504D02*
D03*
X100000Y109646D02*
D03*
X104527Y103149D02*
D03*
X95669Y105905D02*
D03*
X103740Y128740D02*
D03*
X151772Y37993D02*
D03*
X126574Y32874D02*
D03*
X130511Y32874D02*
D03*
X151772Y32874D02*
D03*
X134449Y32874D02*
D03*
X130511Y37993D02*
D03*
X132480Y35433D02*
D03*
X126574Y37993D02*
D03*
X134449Y37992D02*
D03*
X57953Y211693D02*
D03*
X92716Y121653D02*
D03*
X80905Y97244D02*
D03*
X73228Y101969D02*
D03*
X119095Y99606D02*
D03*
X119095Y114173D02*
D03*
X119095Y121653D02*
D03*
Y135827D02*
D03*
X77953Y201693D02*
D03*
X197953Y201693D02*
D03*
X217952Y201693D02*
D03*
X187952Y211693D02*
D03*
X127953D02*
D03*
X147952Y201693D02*
D03*
X177953Y211693D02*
D03*
X97953D02*
D03*
X61417Y100788D02*
D03*
X14961Y148425D02*
D03*
D57*
X62205Y34450D02*
D03*
Y41536D02*
D03*
X54331Y41536D02*
D03*
Y34449D02*
D03*
X27559Y57480D02*
D03*
Y64567D02*
D03*
X159843Y10237D02*
D03*
Y17323D02*
D03*
X70079Y131890D02*
D03*
Y124803D02*
D03*
X144488Y10236D02*
D03*
Y17323D02*
D03*
X136221Y17323D02*
D03*
Y10237D02*
D03*
D58*
X7480Y152756D02*
D03*
Y161418D02*
D03*
Y169292D02*
D03*
Y177953D02*
D03*
D59*
X14961Y160630D02*
D03*
Y153543D02*
D03*
X21949D02*
D03*
Y160630D02*
D03*
X165354Y46063D02*
D03*
Y53150D02*
D03*
X158268Y46063D02*
D03*
Y53150D02*
D03*
X62008Y50000D02*
D03*
Y57087D02*
D03*
X42323Y57087D02*
D03*
Y50000D02*
D03*
X69685Y34449D02*
D03*
Y41536D02*
D03*
X35039Y57480D02*
D03*
Y64567D02*
D03*
X52362Y92913D02*
D03*
Y100000D02*
D03*
X45276Y92913D02*
D03*
Y100000D02*
D03*
X14961Y177165D02*
D03*
Y170079D02*
D03*
X152362Y10236D02*
D03*
Y17323D02*
D03*
D60*
X47047Y163583D02*
D03*
X54134D02*
D03*
X54134Y156496D02*
D03*
X47047D02*
D03*
X35236Y50394D02*
D03*
X28150D02*
D03*
X62205Y63976D02*
D03*
X55118D02*
D03*
X41732D02*
D03*
X48819D02*
D03*
X107874Y135827D02*
D03*
X114961D02*
D03*
X114961Y142913D02*
D03*
X107874D02*
D03*
X62598Y182677D02*
D03*
X69685D02*
D03*
X68504Y113583D02*
D03*
X61417D02*
D03*
X107874Y128740D02*
D03*
X114961D02*
D03*
X107874Y121653D02*
D03*
X114961D02*
D03*
X107874Y106693D02*
D03*
X114961D02*
D03*
X114961Y99606D02*
D03*
X107874D02*
D03*
X157677Y24016D02*
D03*
X164764D02*
D03*
D61*
X54134Y171063D02*
D03*
X47048D02*
D03*
X139763Y53937D02*
D03*
X132677D02*
D03*
X70866Y147244D02*
D03*
X63779D02*
D03*
X84842Y182677D02*
D03*
X91929D02*
D03*
X63779Y139370D02*
D03*
X70866D02*
D03*
X114961Y114173D02*
D03*
X107874D02*
D03*
X121654Y36614D02*
D03*
X114567D02*
D03*
X61417Y105709D02*
D03*
X68504D02*
D03*
D62*
X54921Y145866D02*
D03*
X46260Y142126D02*
D03*
Y149606D02*
D03*
X46260Y182087D02*
D03*
X54921Y185827D02*
D03*
Y178346D02*
D03*
D63*
X92126Y159823D02*
D03*
Y164823D02*
D03*
Y169823D02*
D03*
Y174823D02*
D03*
X63779Y159823D02*
D03*
Y164823D02*
D03*
Y169823D02*
D03*
Y174823D02*
D03*
D64*
X84842Y111811D02*
D03*
D65*
X80905Y121555D02*
D03*
X82874D02*
D03*
X84842D02*
D03*
X86811D02*
D03*
X88779D02*
D03*
Y102067D02*
D03*
X86811D02*
D03*
X84842D02*
D03*
X82874D02*
D03*
X80905D02*
D03*
D66*
X92618Y117717D02*
D03*
Y115748D02*
D03*
Y113779D02*
D03*
Y111811D02*
D03*
Y109843D02*
D03*
Y107874D02*
D03*
Y105905D02*
D03*
X77067D02*
D03*
Y107874D02*
D03*
Y109843D02*
D03*
Y111811D02*
D03*
Y113779D02*
D03*
Y115748D02*
D03*
Y117717D02*
D03*
D67*
X135610Y24803D02*
D03*
X140610D02*
D03*
X145610D02*
D03*
X150610D02*
D03*
X135610Y46063D02*
D03*
X140610D02*
D03*
X145610D02*
D03*
X150610D02*
D03*
D68*
X78347Y88287D02*
D03*
Y83169D02*
D03*
Y85728D02*
D03*
Y90847D02*
D03*
D69*
X66339Y83169D02*
D03*
Y88287D02*
D03*
Y90847D02*
D03*
Y85728D02*
D03*
D70*
X70669Y87008D02*
D03*
D71*
X48228Y53543D02*
D03*
Y50984D02*
D03*
Y56102D02*
D03*
X56102D02*
D03*
Y53543D02*
D03*
Y50984D02*
D03*
D72*
X21260Y50394D02*
D03*
X8661D02*
D03*
D73*
X13780Y65551D02*
D03*
X13780Y35236D02*
D03*
D74*
X12500Y69685D02*
D03*
X17618D02*
D03*
X15059D02*
D03*
X9941D02*
D03*
X17618Y57874D02*
D03*
X12500D02*
D03*
X9941D02*
D03*
X15059D02*
D03*
X15059Y31102D02*
D03*
X9941D02*
D03*
X12500D02*
D03*
X17618D02*
D03*
X9941Y42913D02*
D03*
X15059D02*
D03*
X17618D02*
D03*
X12500D02*
D03*
D75*
X29528Y37795D02*
D03*
X44488D02*
D03*
D76*
X47638Y132087D02*
D03*
Y120276D02*
D03*
X60236Y132087D02*
D03*
Y120276D02*
D03*
D77*
X121653Y60630D02*
D03*
X109843D02*
D03*
X121653Y47244D02*
D03*
X109843D02*
D03*
D78*
X139764Y72047D02*
D03*
X127953D02*
D03*
X139764Y62598D02*
D03*
X127953D02*
D03*
D79*
X125984Y18110D02*
D03*
X110236D02*
D03*
D80*
X92520Y64961D02*
D03*
Y42913D02*
D03*
D81*
X222953Y217323D02*
D03*
Y196063D02*
D03*
X212953Y217323D02*
D03*
Y196063D02*
D03*
X202953Y217323D02*
D03*
Y196063D02*
D03*
X192953Y217323D02*
D03*
Y196063D02*
D03*
X182953Y217323D02*
D03*
Y196063D02*
D03*
X172953Y217323D02*
D03*
Y196063D02*
D03*
X162953Y217323D02*
D03*
Y196063D02*
D03*
X152953Y217323D02*
D03*
Y196063D02*
D03*
X142953Y217323D02*
D03*
Y196063D02*
D03*
X132953Y217323D02*
D03*
Y196063D02*
D03*
X122953Y217323D02*
D03*
Y196063D02*
D03*
X112953Y217323D02*
D03*
Y196063D02*
D03*
X102953Y217323D02*
D03*
Y196063D02*
D03*
X92953Y217323D02*
D03*
Y196063D02*
D03*
X82953Y217323D02*
D03*
Y196063D02*
D03*
X72953Y217323D02*
D03*
Y196063D02*
D03*
X62953Y217323D02*
D03*
Y196063D02*
D03*
X52953Y217323D02*
D03*
Y196063D02*
D03*
X42953Y217323D02*
D03*
Y196063D02*
D03*
X32953Y217323D02*
D03*
Y196063D02*
D03*
D82*
X48819Y114567D02*
D03*
X52559Y105905D02*
D03*
X45079D02*
D03*
D83*
X92323Y138976D02*
D03*
X79331D02*
D03*
D84*
X91339Y85827D02*
D03*
X86614D02*
D03*
D85*
X246063Y33465D02*
D03*
X33465Y9843D02*
D03*
X9843Y188976D02*
D03*
D86*
X114961Y142913D02*
X119095D01*
X80708Y182677D02*
X84842D01*
X118110Y189961D02*
Y189961D01*
X112953Y195118D02*
X117717Y190354D01*
X118110Y189961D01*
X112953Y195118D02*
Y196063D01*
X145610Y37932D02*
Y46063D01*
X143111Y35433D02*
X145473Y37796D01*
X63779Y159843D02*
X69685D01*
X91929Y175020D02*
Y182677D01*
Y175020D02*
X92126Y174823D01*
X109095Y182677D02*
X114450Y177323D01*
X91929Y182677D02*
X109095D01*
X57480Y113583D02*
X61417D01*
X140610Y53937D02*
Y54193D01*
Y46063D02*
Y53150D01*
X125984Y27756D02*
X135610D01*
Y24803D02*
Y27756D01*
X57953Y211693D02*
Y215669D01*
X56299Y217323D02*
X57953Y215669D01*
X52953Y217323D02*
X56299D01*
X114961Y99606D02*
X119095D01*
X114961Y114173D02*
X119095D01*
X114961Y121653D02*
X119095D01*
X76299Y196063D02*
X77953Y197716D01*
X72953Y196063D02*
X76299D01*
X77953Y197716D02*
Y201693D01*
X147952Y197716D02*
X149606Y196063D01*
X147952Y197716D02*
Y201693D01*
X149606Y196063D02*
X152953D01*
X217952Y197716D02*
Y201693D01*
Y197716D02*
X219606Y196063D01*
X222953D01*
X187952Y211693D02*
Y215669D01*
X127953Y211693D02*
Y215669D01*
X189606Y217323D02*
X192953D01*
X187952Y215669D02*
X189606Y217323D01*
X177953Y211693D02*
Y215669D01*
X172953Y217323D02*
X176299D01*
X177953Y215669D01*
X122953Y217323D02*
X126299D01*
X127953Y215669D01*
X97953Y211693D02*
Y215669D01*
X92953Y217323D02*
X96299D01*
X97953Y215669D01*
X61417Y100788D02*
Y105709D01*
D87*
X100394Y150000D02*
X118898D01*
X97835Y152559D02*
X100394Y150000D01*
X82261Y152559D02*
X97835D01*
X122047Y153150D02*
Y166339D01*
X129528Y173819D01*
X118898Y150000D02*
X121457Y152559D01*
X129921Y122244D02*
Y154134D01*
X129528Y173819D02*
X129921D01*
D88*
X135610Y37796D02*
Y45866D01*
Y37796D02*
X138386D01*
D89*
X48622Y23622D02*
D03*
X34843D02*
D03*
D90*
X134547Y102559D02*
D03*
Y173819D02*
D03*
Y154134D02*
D03*
Y122244D02*
D03*
D91*
X114450Y177323D02*
D03*
X104449Y167323D02*
D03*
X114450D02*
D03*
Y157323D02*
D03*
X104449D02*
D03*
X90748Y12402D02*
D03*
X73032D02*
D03*
X71850Y63267D02*
D03*
X129921Y122244D02*
D03*
Y102559D02*
D03*
Y173819D02*
D03*
Y154134D02*
D03*
X37244Y80709D02*
D03*
D92*
X104449Y177323D02*
D03*
X71850Y53267D02*
D03*
X47244Y80709D02*
D03*
D93*
X95276Y22244D02*
D03*
X68504D02*
D03*
D94*
X237126Y157480D02*
D03*
Y187008D02*
D03*
D95*
X247126Y157480D02*
D03*
Y187008D02*
D03*
D96*
X48622Y23622D02*
D03*
D97*
X34843D02*
D03*
M02*
