G04*
G04 #@! TF.GenerationSoftware,Altium Limited,Altium Designer,19.1.8 (144)*
G04*
G04 Layer_Physical_Order=4*
G04 Layer_Color=11436288*
%FSLAX25Y25*%
%MOIN*%
G70*
G01*
G75*
%ADD10C,0.00787*%
%ADD56C,0.02362*%
%ADD86C,0.02362*%
%ADD91C,0.06299*%
G04:AMPARAMS|DCode=92|XSize=62.99mil|YSize=62.99mil|CornerRadius=15.75mil|HoleSize=0mil|Usage=FLASHONLY|Rotation=0.000|XOffset=0mil|YOffset=0mil|HoleType=Round|Shape=RoundedRectangle|*
%AMROUNDEDRECTD92*
21,1,0.06299,0.03150,0,0,0.0*
21,1,0.03150,0.06299,0,0,0.0*
1,1,0.03150,0.01575,-0.01575*
1,1,0.03150,-0.01575,-0.01575*
1,1,0.03150,-0.01575,0.01575*
1,1,0.03150,0.01575,0.01575*
%
%ADD92ROUNDEDRECTD92*%
G04:AMPARAMS|DCode=93|XSize=70.87mil|YSize=86.61mil|CornerRadius=17.72mil|HoleSize=0mil|Usage=FLASHONLY|Rotation=180.000|XOffset=0mil|YOffset=0mil|HoleType=Round|Shape=RoundedRectangle|*
%AMROUNDEDRECTD93*
21,1,0.07087,0.05118,0,0,180.0*
21,1,0.03543,0.08661,0,0,180.0*
1,1,0.03543,-0.01772,0.02559*
1,1,0.03543,0.01772,0.02559*
1,1,0.03543,0.01772,-0.02559*
1,1,0.03543,-0.01772,-0.02559*
%
%ADD93ROUNDEDRECTD93*%
G04:AMPARAMS|DCode=94|XSize=55.12mil|YSize=70.87mil|CornerRadius=13.78mil|HoleSize=0mil|Usage=FLASHONLY|Rotation=0.000|XOffset=0mil|YOffset=0mil|HoleType=Round|Shape=RoundedRectangle|*
%AMROUNDEDRECTD94*
21,1,0.05512,0.04331,0,0,0.0*
21,1,0.02756,0.07087,0,0,0.0*
1,1,0.02756,0.01378,-0.02165*
1,1,0.02756,-0.01378,-0.02165*
1,1,0.02756,-0.01378,0.02165*
1,1,0.02756,0.01378,0.02165*
%
%ADD94ROUNDEDRECTD94*%
%ADD95O,0.05512X0.07087*%
%ADD96O,0.07874X0.09449*%
G04:AMPARAMS|DCode=97|XSize=78.74mil|YSize=94.49mil|CornerRadius=19.68mil|HoleSize=0mil|Usage=FLASHONLY|Rotation=0.000|XOffset=0mil|YOffset=0mil|HoleType=Round|Shape=RoundedRectangle|*
%AMROUNDEDRECTD97*
21,1,0.07874,0.05512,0,0,0.0*
21,1,0.03937,0.09449,0,0,0.0*
1,1,0.03937,0.01968,-0.02756*
1,1,0.03937,-0.01968,-0.02756*
1,1,0.03937,-0.01968,0.02756*
1,1,0.03937,0.01968,0.02756*
%
%ADD97ROUNDEDRECTD97*%
G36*
X230311Y218013D02*
Y206693D01*
X230311Y206691D01*
X230326Y206113D01*
X230368Y205535D01*
X230439Y204959D01*
X230538Y204388D01*
X230665Y203822D01*
X230820Y203263D01*
X231002Y202713D01*
X231211Y202172D01*
X231446Y201642D01*
X231706Y201124D01*
X231992Y200619D01*
X232302Y200129D01*
X232636Y199655D01*
X232993Y199198D01*
X233372Y198759D01*
X233772Y198339D01*
X234192Y197939D01*
X234631Y197560D01*
X235088Y197203D01*
X235562Y196870D01*
X236052Y196559D01*
X236557Y196273D01*
X237075Y196013D01*
X237605Y195778D01*
X238146Y195569D01*
X238696Y195387D01*
X239255Y195232D01*
X239821Y195105D01*
X240392Y195006D01*
X240968Y194935D01*
X241546Y194893D01*
X242124Y194878D01*
X242126Y194878D01*
X249903D01*
X253899Y190883D01*
Y120137D01*
X253829Y120104D01*
X253563Y119945D01*
X253314Y119761D01*
X253085Y119553D01*
X252877Y119323D01*
X252693Y119075D01*
X252534Y118809D01*
X252402Y118530D01*
X252297Y118238D01*
X252222Y117938D01*
X252222Y117938D01*
X252177Y117632D01*
X252162Y117323D01*
X252162D01*
Y103150D01*
X252162Y103150D01*
X252177Y102840D01*
X252222Y102535D01*
X252222Y102534D01*
X252256Y102401D01*
X252256Y102401D01*
X252257Y102395D01*
X252297Y102234D01*
X252402Y101943D01*
X252534Y101663D01*
X252693Y101398D01*
X252877Y101149D01*
X253085Y100920D01*
X253314Y100712D01*
X253563Y100528D01*
X253829Y100368D01*
X253899Y100335D01*
Y29590D01*
X249903Y25594D01*
X242126D01*
X242124Y25594D01*
X241546Y25580D01*
X240968Y25537D01*
X240392Y25466D01*
X239821Y25367D01*
X239255Y25240D01*
X238696Y25085D01*
X238146Y24904D01*
X237605Y24695D01*
X237075Y24460D01*
X236557Y24199D01*
X236052Y23913D01*
X235562Y23603D01*
X235088Y23269D01*
X234631Y22912D01*
X234192Y22534D01*
X233772Y22134D01*
X233372Y21714D01*
X232993Y21275D01*
X232636Y20818D01*
X232302Y20343D01*
X231992Y19853D01*
X231706Y19349D01*
X231446Y18831D01*
X231211Y18301D01*
X231002Y17760D01*
X230820Y17209D01*
X230665Y16650D01*
X230538Y16084D01*
X230439Y15513D01*
X230368Y14938D01*
X230326Y14359D01*
X230311Y13781D01*
X230311Y13780D01*
Y6003D01*
X226316Y2007D01*
X114319D01*
X114236Y2146D01*
X114052Y2394D01*
X113844Y2624D01*
X113615Y2832D01*
X113366Y3016D01*
X113101Y3175D01*
X112821Y3307D01*
X112530Y3412D01*
X112229Y3487D01*
X112229Y3487D01*
X111923Y3532D01*
X111614Y3547D01*
Y3547D01*
X97441D01*
X97441Y3547D01*
X97132Y3532D01*
X96826Y3487D01*
X96826Y3487D01*
X96693Y3453D01*
X96692Y3453D01*
X96687Y3452D01*
X96526Y3412D01*
X96234Y3307D01*
X95954Y3175D01*
X95689Y3016D01*
X95440Y2832D01*
X95211Y2624D01*
X95003Y2394D01*
X94819Y2146D01*
X94736Y2007D01*
X29590D01*
X25594Y6002D01*
Y13780D01*
X25594Y13781D01*
X25580Y14359D01*
X25537Y14938D01*
X25466Y15513D01*
X25367Y16084D01*
X25240Y16650D01*
X25085Y17209D01*
X24904Y17760D01*
X24695Y18301D01*
X24460Y18831D01*
X24199Y19349D01*
X23913Y19853D01*
X23603Y20343D01*
X23269Y20818D01*
X22912Y21275D01*
X22534Y21714D01*
X22134Y22134D01*
X21714Y22534D01*
X21275Y22912D01*
X20818Y23269D01*
X20343Y23603D01*
X19853Y23913D01*
X19349Y24199D01*
X18831Y24460D01*
X18301Y24695D01*
X17760Y24904D01*
X17209Y25085D01*
X16650Y25240D01*
X16084Y25367D01*
X15513Y25466D01*
X14938Y25537D01*
X14359Y25580D01*
X13781Y25594D01*
X13780Y25594D01*
X6003D01*
X2007Y29590D01*
Y72835D01*
Y73025D01*
X2081Y73398D01*
X2227Y73749D01*
X2438Y74065D01*
X2707Y74334D01*
X3023Y74545D01*
X3374Y74691D01*
X3747Y74765D01*
X3937D01*
X15748D01*
X15797Y74774D01*
X15846Y74767D01*
X16232Y74786D01*
X16377Y74822D01*
X16525D01*
X17282Y74973D01*
X17465Y75048D01*
X17659Y75087D01*
X18372Y75382D01*
X18536Y75492D01*
X18719Y75568D01*
X19361Y75997D01*
X19500Y76136D01*
X19665Y76246D01*
X20211Y76792D01*
X20320Y76956D01*
X20460Y77096D01*
X20889Y77738D01*
X20965Y77920D01*
X21074Y78085D01*
X21370Y78798D01*
X21408Y78992D01*
X21484Y79174D01*
X21634Y79931D01*
Y80080D01*
X21671Y80224D01*
X21690Y80610D01*
X21682Y80660D01*
X21692Y80709D01*
Y100051D01*
X21831Y100134D01*
X22079Y100318D01*
X22309Y100526D01*
X22516Y100755D01*
X22701Y101004D01*
X22860Y101269D01*
X22992Y101549D01*
X23096Y101840D01*
X23172Y102141D01*
X23172Y102141D01*
X23217Y102447D01*
X23232Y102756D01*
X23232D01*
Y116929D01*
X23232Y116929D01*
X23217Y117238D01*
X23172Y117544D01*
X23172Y117544D01*
X23138Y117677D01*
X23138Y117678D01*
X23137Y117683D01*
X23096Y117844D01*
X22992Y118136D01*
X22860Y118416D01*
X22701Y118681D01*
X22516Y118930D01*
X22309Y119159D01*
X22079Y119367D01*
X21831Y119551D01*
X21692Y119634D01*
Y139764D01*
X21682Y139813D01*
X21690Y139862D01*
X21671Y140248D01*
X21634Y140392D01*
Y140541D01*
X21484Y141298D01*
X21408Y141481D01*
X21370Y141675D01*
X21074Y142388D01*
X20965Y142552D01*
X20889Y142735D01*
X20460Y143377D01*
X20320Y143516D01*
X20211Y143681D01*
X19665Y144226D01*
X19500Y144336D01*
X19361Y144476D01*
X18719Y144905D01*
X18536Y144980D01*
X18372Y145090D01*
X17659Y145386D01*
X17465Y145424D01*
X17282Y145500D01*
X16525Y145650D01*
X16377D01*
X16232Y145686D01*
X15846Y145705D01*
X15797Y145698D01*
X15748Y145708D01*
X3747D01*
X3374Y145782D01*
X3023Y145928D01*
X2707Y146139D01*
X2438Y146407D01*
X2227Y146724D01*
X2081Y147075D01*
X2007Y147448D01*
Y147638D01*
Y190883D01*
X6003Y194878D01*
X13780D01*
X13781Y194878D01*
X14359Y194893D01*
X14938Y194935D01*
X15513Y195006D01*
X16084Y195105D01*
X16650Y195232D01*
X17209Y195387D01*
X17760Y195569D01*
X18301Y195778D01*
X18831Y196013D01*
X19349Y196273D01*
X19853Y196559D01*
X20343Y196870D01*
X20818Y197203D01*
X21275Y197560D01*
X21714Y197939D01*
X22134Y198339D01*
X22534Y198759D01*
X22912Y199198D01*
X23269Y199655D01*
X23603Y200129D01*
X23913Y200619D01*
X24199Y201124D01*
X24460Y201642D01*
X24695Y202172D01*
X24904Y202713D01*
X25085Y203263D01*
X25240Y203822D01*
X25367Y204388D01*
X25466Y204959D01*
X25537Y205535D01*
X25580Y206113D01*
X25594Y206691D01*
X25594Y206693D01*
Y216438D01*
X29590Y220434D01*
X118434D01*
X118636Y220211D01*
X118866Y220003D01*
X119114Y219819D01*
X119380Y219660D01*
X119659Y219528D01*
X119951Y219423D01*
X120251Y219348D01*
X120252Y219348D01*
X120557Y219303D01*
X120866Y219287D01*
Y219288D01*
X135039D01*
X135039Y219287D01*
X135348Y219303D01*
X135654Y219348D01*
X135655Y219348D01*
X135788Y219381D01*
X135788Y219381D01*
X135794Y219383D01*
X135955Y219423D01*
X136246Y219528D01*
X136526Y219660D01*
X136791Y219819D01*
X137040Y220003D01*
X137269Y220211D01*
X137471Y220434D01*
X227891D01*
X230311Y218013D01*
D02*
G37*
%LPC*%
G36*
X222953Y214452D02*
X222682Y214439D01*
X222414Y214399D01*
X222152Y214333D01*
X221897Y214242D01*
X221652Y214126D01*
X221420Y213987D01*
X221202Y213826D01*
X221002Y213644D01*
X220820Y213443D01*
X220658Y213226D01*
X220519Y212994D01*
X220403Y212749D01*
X220312Y212494D01*
X220246Y212231D01*
X220207Y211963D01*
X220193Y211693D01*
X220207Y211422D01*
X220246Y211155D01*
X220312Y210892D01*
X220403Y210637D01*
X220519Y210392D01*
X220658Y210160D01*
X220820Y209942D01*
X221002Y209742D01*
X221202Y209560D01*
X221420Y209399D01*
X221652Y209259D01*
X221897Y209144D01*
X222152Y209052D01*
X222414Y208987D01*
X222682Y208947D01*
X222953Y208934D01*
X223223Y208947D01*
X223491Y208987D01*
X223754Y209052D01*
X224008Y209144D01*
X224253Y209259D01*
X224486Y209399D01*
X224703Y209560D01*
X224904Y209742D01*
X225085Y209942D01*
X225247Y210160D01*
X225386Y210392D01*
X225502Y210637D01*
X225593Y210892D01*
X225659Y211155D01*
X225698Y211422D01*
X225712Y211693D01*
X225698Y211963D01*
X225659Y212231D01*
X225593Y212494D01*
X225502Y212749D01*
X225386Y212994D01*
X225247Y213226D01*
X225085Y213443D01*
X224904Y213644D01*
X224703Y213826D01*
X224486Y213987D01*
X224253Y214126D01*
X224008Y214242D01*
X223754Y214333D01*
X223491Y214399D01*
X223223Y214439D01*
X222953Y214452D01*
D02*
G37*
G36*
X212953D02*
X212682Y214439D01*
X212414Y214399D01*
X212152Y214333D01*
X211897Y214242D01*
X211652Y214126D01*
X211420Y213987D01*
X211202Y213826D01*
X211002Y213644D01*
X210820Y213443D01*
X210658Y213226D01*
X210519Y212994D01*
X210403Y212749D01*
X210312Y212494D01*
X210246Y212231D01*
X210207Y211963D01*
X210193Y211693D01*
X210207Y211422D01*
X210246Y211155D01*
X210312Y210892D01*
X210403Y210637D01*
X210519Y210392D01*
X210658Y210160D01*
X210820Y209942D01*
X211002Y209742D01*
X211202Y209560D01*
X211420Y209399D01*
X211652Y209259D01*
X211897Y209144D01*
X212152Y209052D01*
X212414Y208987D01*
X212682Y208947D01*
X212953Y208934D01*
X213223Y208947D01*
X213491Y208987D01*
X213754Y209052D01*
X214008Y209144D01*
X214253Y209259D01*
X214486Y209399D01*
X214703Y209560D01*
X214904Y209742D01*
X215086Y209942D01*
X215247Y210160D01*
X215386Y210392D01*
X215502Y210637D01*
X215593Y210892D01*
X215659Y211155D01*
X215699Y211422D01*
X215712Y211693D01*
X215699Y211963D01*
X215659Y212231D01*
X215593Y212494D01*
X215502Y212749D01*
X215386Y212994D01*
X215247Y213226D01*
X215086Y213443D01*
X214904Y213644D01*
X214703Y213826D01*
X214486Y213987D01*
X214253Y214126D01*
X214008Y214242D01*
X213754Y214333D01*
X213491Y214399D01*
X213223Y214439D01*
X212953Y214452D01*
D02*
G37*
G36*
X202953D02*
X202682Y214439D01*
X202414Y214399D01*
X202152Y214333D01*
X201897Y214242D01*
X201652Y214126D01*
X201420Y213987D01*
X201202Y213826D01*
X201002Y213644D01*
X200820Y213443D01*
X200658Y213226D01*
X200519Y212994D01*
X200403Y212749D01*
X200312Y212494D01*
X200246Y212231D01*
X200207Y211963D01*
X200193Y211693D01*
X200207Y211422D01*
X200246Y211155D01*
X200312Y210892D01*
X200403Y210637D01*
X200519Y210392D01*
X200658Y210160D01*
X200820Y209942D01*
X201002Y209742D01*
X201202Y209560D01*
X201420Y209399D01*
X201652Y209259D01*
X201897Y209144D01*
X202152Y209052D01*
X202414Y208987D01*
X202682Y208947D01*
X202953Y208934D01*
X203223Y208947D01*
X203491Y208987D01*
X203754Y209052D01*
X204009Y209144D01*
X204253Y209259D01*
X204486Y209399D01*
X204703Y209560D01*
X204904Y209742D01*
X205085Y209942D01*
X205247Y210160D01*
X205386Y210392D01*
X205502Y210637D01*
X205593Y210892D01*
X205659Y211155D01*
X205698Y211422D01*
X205712Y211693D01*
X205698Y211963D01*
X205659Y212231D01*
X205593Y212494D01*
X205502Y212749D01*
X205386Y212994D01*
X205247Y213226D01*
X205085Y213443D01*
X204904Y213644D01*
X204703Y213826D01*
X204486Y213987D01*
X204253Y214126D01*
X204009Y214242D01*
X203754Y214333D01*
X203491Y214399D01*
X203223Y214439D01*
X202953Y214452D01*
D02*
G37*
G36*
X192953D02*
X192682Y214439D01*
X192414Y214399D01*
X192152Y214333D01*
X191897Y214242D01*
X191652Y214126D01*
X191420Y213987D01*
X191202Y213826D01*
X191002Y213644D01*
X190820Y213443D01*
X190658Y213226D01*
X190519Y212994D01*
X190403Y212749D01*
X190312Y212494D01*
X190246Y212231D01*
X190207Y211963D01*
X190193Y211693D01*
X190207Y211422D01*
X190246Y211155D01*
X190312Y210892D01*
X190403Y210637D01*
X190519Y210392D01*
X190658Y210160D01*
X190820Y209942D01*
X191002Y209742D01*
X191202Y209560D01*
X191420Y209399D01*
X191652Y209259D01*
X191897Y209144D01*
X192152Y209052D01*
X192414Y208987D01*
X192682Y208947D01*
X192953Y208934D01*
X193223Y208947D01*
X193491Y208987D01*
X193754Y209052D01*
X194009Y209144D01*
X194253Y209259D01*
X194486Y209399D01*
X194703Y209560D01*
X194904Y209742D01*
X195086Y209942D01*
X195247Y210160D01*
X195386Y210392D01*
X195502Y210637D01*
X195593Y210892D01*
X195659Y211155D01*
X195699Y211422D01*
X195712Y211693D01*
X195699Y211963D01*
X195659Y212231D01*
X195593Y212494D01*
X195502Y212749D01*
X195386Y212994D01*
X195247Y213226D01*
X195086Y213443D01*
X194904Y213644D01*
X194703Y213826D01*
X194486Y213987D01*
X194253Y214126D01*
X194009Y214242D01*
X193754Y214333D01*
X193491Y214399D01*
X193223Y214439D01*
X192953Y214452D01*
D02*
G37*
G36*
X182953D02*
X182682Y214439D01*
X182414Y214399D01*
X182152Y214333D01*
X181897Y214242D01*
X181652Y214126D01*
X181420Y213987D01*
X181202Y213826D01*
X181002Y213644D01*
X180820Y213443D01*
X180658Y213226D01*
X180519Y212994D01*
X180403Y212749D01*
X180312Y212494D01*
X180246Y212231D01*
X180207Y211963D01*
X180193Y211693D01*
X180207Y211422D01*
X180246Y211155D01*
X180312Y210892D01*
X180403Y210637D01*
X180519Y210392D01*
X180658Y210160D01*
X180820Y209942D01*
X181002Y209742D01*
X181202Y209560D01*
X181420Y209399D01*
X181652Y209259D01*
X181897Y209144D01*
X182152Y209052D01*
X182414Y208987D01*
X182682Y208947D01*
X182953Y208934D01*
X183223Y208947D01*
X183491Y208987D01*
X183754Y209052D01*
X184009Y209144D01*
X184253Y209259D01*
X184486Y209399D01*
X184703Y209560D01*
X184904Y209742D01*
X185085Y209942D01*
X185247Y210160D01*
X185386Y210392D01*
X185502Y210637D01*
X185593Y210892D01*
X185659Y211155D01*
X185699Y211422D01*
X185712Y211693D01*
X185699Y211963D01*
X185659Y212231D01*
X185593Y212494D01*
X185502Y212749D01*
X185386Y212994D01*
X185247Y213226D01*
X185085Y213443D01*
X184904Y213644D01*
X184703Y213826D01*
X184486Y213987D01*
X184253Y214126D01*
X184009Y214242D01*
X183754Y214333D01*
X183491Y214399D01*
X183223Y214439D01*
X182953Y214452D01*
D02*
G37*
G36*
X172953D02*
X172682Y214439D01*
X172414Y214399D01*
X172152Y214333D01*
X171897Y214242D01*
X171652Y214126D01*
X171420Y213987D01*
X171202Y213826D01*
X171002Y213644D01*
X170820Y213443D01*
X170658Y213226D01*
X170519Y212994D01*
X170403Y212749D01*
X170312Y212494D01*
X170246Y212231D01*
X170207Y211963D01*
X170193Y211693D01*
X170207Y211422D01*
X170246Y211155D01*
X170312Y210892D01*
X170403Y210637D01*
X170519Y210392D01*
X170658Y210160D01*
X170820Y209942D01*
X171002Y209742D01*
X171202Y209560D01*
X171420Y209399D01*
X171652Y209259D01*
X171897Y209144D01*
X172152Y209052D01*
X172414Y208987D01*
X172682Y208947D01*
X172953Y208934D01*
X173223Y208947D01*
X173491Y208987D01*
X173754Y209052D01*
X174009Y209144D01*
X174253Y209259D01*
X174486Y209399D01*
X174703Y209560D01*
X174904Y209742D01*
X175085Y209942D01*
X175247Y210160D01*
X175386Y210392D01*
X175502Y210637D01*
X175593Y210892D01*
X175659Y211155D01*
X175699Y211422D01*
X175712Y211693D01*
X175699Y211963D01*
X175659Y212231D01*
X175593Y212494D01*
X175502Y212749D01*
X175386Y212994D01*
X175247Y213226D01*
X175085Y213443D01*
X174904Y213644D01*
X174703Y213826D01*
X174486Y213987D01*
X174253Y214126D01*
X174009Y214242D01*
X173754Y214333D01*
X173491Y214399D01*
X173223Y214439D01*
X172953Y214452D01*
D02*
G37*
G36*
X162953D02*
X162682Y214439D01*
X162414Y214399D01*
X162152Y214333D01*
X161897Y214242D01*
X161652Y214126D01*
X161420Y213987D01*
X161202Y213826D01*
X161002Y213644D01*
X160820Y213443D01*
X160658Y213226D01*
X160519Y212994D01*
X160403Y212749D01*
X160312Y212494D01*
X160246Y212231D01*
X160207Y211963D01*
X160193Y211693D01*
X160207Y211422D01*
X160246Y211155D01*
X160312Y210892D01*
X160403Y210637D01*
X160519Y210392D01*
X160658Y210160D01*
X160820Y209942D01*
X161002Y209742D01*
X161202Y209560D01*
X161420Y209399D01*
X161652Y209259D01*
X161897Y209144D01*
X162152Y209052D01*
X162414Y208987D01*
X162682Y208947D01*
X162953Y208934D01*
X163223Y208947D01*
X163491Y208987D01*
X163754Y209052D01*
X164008Y209144D01*
X164253Y209259D01*
X164486Y209399D01*
X164703Y209560D01*
X164904Y209742D01*
X165085Y209942D01*
X165247Y210160D01*
X165386Y210392D01*
X165502Y210637D01*
X165593Y210892D01*
X165659Y211155D01*
X165699Y211422D01*
X165712Y211693D01*
X165699Y211963D01*
X165659Y212231D01*
X165593Y212494D01*
X165502Y212749D01*
X165386Y212994D01*
X165247Y213226D01*
X165085Y213443D01*
X164904Y213644D01*
X164703Y213826D01*
X164486Y213987D01*
X164253Y214126D01*
X164008Y214242D01*
X163754Y214333D01*
X163491Y214399D01*
X163223Y214439D01*
X162953Y214452D01*
D02*
G37*
G36*
X152953D02*
X152682Y214439D01*
X152414Y214399D01*
X152152Y214333D01*
X151897Y214242D01*
X151652Y214126D01*
X151420Y213987D01*
X151202Y213826D01*
X151002Y213644D01*
X150820Y213443D01*
X150658Y213226D01*
X150519Y212994D01*
X150403Y212749D01*
X150312Y212494D01*
X150246Y212231D01*
X150207Y211963D01*
X150193Y211693D01*
X150207Y211422D01*
X150246Y211155D01*
X150312Y210892D01*
X150403Y210637D01*
X150519Y210392D01*
X150658Y210160D01*
X150820Y209942D01*
X151002Y209742D01*
X151202Y209560D01*
X151420Y209399D01*
X151652Y209259D01*
X151897Y209144D01*
X152152Y209052D01*
X152414Y208987D01*
X152682Y208947D01*
X152953Y208934D01*
X153223Y208947D01*
X153491Y208987D01*
X153754Y209052D01*
X154008Y209144D01*
X154253Y209259D01*
X154486Y209399D01*
X154703Y209560D01*
X154904Y209742D01*
X155086Y209942D01*
X155247Y210160D01*
X155386Y210392D01*
X155502Y210637D01*
X155593Y210892D01*
X155659Y211155D01*
X155699Y211422D01*
X155712Y211693D01*
X155699Y211963D01*
X155659Y212231D01*
X155593Y212494D01*
X155502Y212749D01*
X155386Y212994D01*
X155247Y213226D01*
X155086Y213443D01*
X154904Y213644D01*
X154703Y213826D01*
X154486Y213987D01*
X154253Y214126D01*
X154008Y214242D01*
X153754Y214333D01*
X153491Y214399D01*
X153223Y214439D01*
X152953Y214452D01*
D02*
G37*
G36*
X142953D02*
X142682Y214439D01*
X142414Y214399D01*
X142152Y214333D01*
X141897Y214242D01*
X141652Y214126D01*
X141420Y213987D01*
X141202Y213826D01*
X141002Y213644D01*
X140820Y213443D01*
X140658Y213226D01*
X140519Y212994D01*
X140403Y212749D01*
X140312Y212494D01*
X140246Y212231D01*
X140207Y211963D01*
X140193Y211693D01*
X140207Y211422D01*
X140246Y211155D01*
X140312Y210892D01*
X140403Y210637D01*
X140519Y210392D01*
X140658Y210160D01*
X140820Y209942D01*
X141002Y209742D01*
X141202Y209560D01*
X141420Y209399D01*
X141652Y209259D01*
X141897Y209144D01*
X142152Y209052D01*
X142414Y208987D01*
X142682Y208947D01*
X142953Y208934D01*
X143223Y208947D01*
X143491Y208987D01*
X143754Y209052D01*
X144009Y209144D01*
X144253Y209259D01*
X144486Y209399D01*
X144703Y209560D01*
X144904Y209742D01*
X145086Y209942D01*
X145247Y210160D01*
X145386Y210392D01*
X145502Y210637D01*
X145593Y210892D01*
X145659Y211155D01*
X145699Y211422D01*
X145712Y211693D01*
X145699Y211963D01*
X145659Y212231D01*
X145593Y212494D01*
X145502Y212749D01*
X145386Y212994D01*
X145247Y213226D01*
X145086Y213443D01*
X144904Y213644D01*
X144703Y213826D01*
X144486Y213987D01*
X144253Y214126D01*
X144009Y214242D01*
X143754Y214333D01*
X143491Y214399D01*
X143223Y214439D01*
X142953Y214452D01*
D02*
G37*
G36*
X132953D02*
X132682Y214439D01*
X132414Y214399D01*
X132152Y214333D01*
X131897Y214242D01*
X131652Y214126D01*
X131420Y213987D01*
X131202Y213826D01*
X131002Y213644D01*
X130820Y213443D01*
X130658Y213226D01*
X130519Y212994D01*
X130403Y212749D01*
X130312Y212494D01*
X130246Y212231D01*
X130207Y211963D01*
X130193Y211693D01*
X130207Y211422D01*
X130246Y211155D01*
X130312Y210892D01*
X130403Y210637D01*
X130519Y210392D01*
X130658Y210160D01*
X130820Y209942D01*
X131002Y209742D01*
X131202Y209560D01*
X131420Y209399D01*
X131652Y209259D01*
X131897Y209144D01*
X132152Y209052D01*
X132414Y208987D01*
X132682Y208947D01*
X132953Y208934D01*
X133223Y208947D01*
X133491Y208987D01*
X133754Y209052D01*
X134009Y209144D01*
X134253Y209259D01*
X134486Y209399D01*
X134703Y209560D01*
X134904Y209742D01*
X135085Y209942D01*
X135247Y210160D01*
X135386Y210392D01*
X135502Y210637D01*
X135593Y210892D01*
X135659Y211155D01*
X135699Y211422D01*
X135712Y211693D01*
X135699Y211963D01*
X135659Y212231D01*
X135593Y212494D01*
X135502Y212749D01*
X135386Y212994D01*
X135247Y213226D01*
X135085Y213443D01*
X134904Y213644D01*
X134703Y213826D01*
X134486Y213987D01*
X134253Y214126D01*
X134009Y214242D01*
X133754Y214333D01*
X133491Y214399D01*
X133223Y214439D01*
X132953Y214452D01*
D02*
G37*
G36*
X122953D02*
X122682Y214439D01*
X122414Y214399D01*
X122152Y214333D01*
X121897Y214242D01*
X121652Y214126D01*
X121420Y213987D01*
X121202Y213826D01*
X121002Y213644D01*
X120820Y213443D01*
X120658Y213226D01*
X120519Y212994D01*
X120403Y212749D01*
X120312Y212494D01*
X120246Y212231D01*
X120207Y211963D01*
X120193Y211693D01*
X120207Y211422D01*
X120246Y211155D01*
X120312Y210892D01*
X120403Y210637D01*
X120519Y210392D01*
X120658Y210160D01*
X120820Y209942D01*
X121002Y209742D01*
X121202Y209560D01*
X121420Y209399D01*
X121652Y209259D01*
X121897Y209144D01*
X122152Y209052D01*
X122414Y208987D01*
X122682Y208947D01*
X122953Y208934D01*
X123223Y208947D01*
X123491Y208987D01*
X123754Y209052D01*
X124009Y209144D01*
X124253Y209259D01*
X124486Y209399D01*
X124703Y209560D01*
X124904Y209742D01*
X125085Y209942D01*
X125247Y210160D01*
X125386Y210392D01*
X125502Y210637D01*
X125593Y210892D01*
X125659Y211155D01*
X125699Y211422D01*
X125712Y211693D01*
X125699Y211963D01*
X125659Y212231D01*
X125593Y212494D01*
X125502Y212749D01*
X125386Y212994D01*
X125247Y213226D01*
X125085Y213443D01*
X124904Y213644D01*
X124703Y213826D01*
X124486Y213987D01*
X124253Y214126D01*
X124009Y214242D01*
X123754Y214333D01*
X123491Y214399D01*
X123223Y214439D01*
X122953Y214452D01*
D02*
G37*
G36*
X112953D02*
X112682Y214439D01*
X112414Y214399D01*
X112152Y214333D01*
X111897Y214242D01*
X111652Y214126D01*
X111420Y213987D01*
X111202Y213826D01*
X111002Y213644D01*
X110820Y213443D01*
X110658Y213226D01*
X110519Y212994D01*
X110403Y212749D01*
X110312Y212494D01*
X110246Y212231D01*
X110207Y211963D01*
X110193Y211693D01*
X110207Y211422D01*
X110246Y211155D01*
X110312Y210892D01*
X110403Y210637D01*
X110519Y210392D01*
X110658Y210160D01*
X110820Y209942D01*
X111002Y209742D01*
X111202Y209560D01*
X111420Y209399D01*
X111652Y209259D01*
X111897Y209144D01*
X112152Y209052D01*
X112414Y208987D01*
X112682Y208947D01*
X112953Y208934D01*
X113223Y208947D01*
X113491Y208987D01*
X113754Y209052D01*
X114008Y209144D01*
X114253Y209259D01*
X114486Y209399D01*
X114703Y209560D01*
X114904Y209742D01*
X115085Y209942D01*
X115247Y210160D01*
X115386Y210392D01*
X115502Y210637D01*
X115593Y210892D01*
X115659Y211155D01*
X115699Y211422D01*
X115712Y211693D01*
X115699Y211963D01*
X115659Y212231D01*
X115593Y212494D01*
X115502Y212749D01*
X115386Y212994D01*
X115247Y213226D01*
X115085Y213443D01*
X114904Y213644D01*
X114703Y213826D01*
X114486Y213987D01*
X114253Y214126D01*
X114008Y214242D01*
X113754Y214333D01*
X113491Y214399D01*
X113223Y214439D01*
X112953Y214452D01*
D02*
G37*
G36*
X102953D02*
X102682Y214439D01*
X102414Y214399D01*
X102152Y214333D01*
X101897Y214242D01*
X101652Y214126D01*
X101420Y213987D01*
X101202Y213826D01*
X101002Y213644D01*
X100820Y213443D01*
X100658Y213226D01*
X100519Y212994D01*
X100403Y212749D01*
X100312Y212494D01*
X100246Y212231D01*
X100207Y211963D01*
X100193Y211693D01*
X100207Y211422D01*
X100246Y211155D01*
X100312Y210892D01*
X100403Y210637D01*
X100519Y210392D01*
X100658Y210160D01*
X100820Y209942D01*
X101002Y209742D01*
X101202Y209560D01*
X101420Y209399D01*
X101652Y209259D01*
X101897Y209144D01*
X102152Y209052D01*
X102414Y208987D01*
X102682Y208947D01*
X102953Y208934D01*
X103223Y208947D01*
X103491Y208987D01*
X103754Y209052D01*
X104008Y209144D01*
X104253Y209259D01*
X104486Y209399D01*
X104703Y209560D01*
X104904Y209742D01*
X105086Y209942D01*
X105247Y210160D01*
X105386Y210392D01*
X105502Y210637D01*
X105593Y210892D01*
X105659Y211155D01*
X105699Y211422D01*
X105712Y211693D01*
X105699Y211963D01*
X105659Y212231D01*
X105593Y212494D01*
X105502Y212749D01*
X105386Y212994D01*
X105247Y213226D01*
X105086Y213443D01*
X104904Y213644D01*
X104703Y213826D01*
X104486Y213987D01*
X104253Y214126D01*
X104008Y214242D01*
X103754Y214333D01*
X103491Y214399D01*
X103223Y214439D01*
X102953Y214452D01*
D02*
G37*
G36*
X92953D02*
X92682Y214439D01*
X92414Y214399D01*
X92152Y214333D01*
X91897Y214242D01*
X91652Y214126D01*
X91420Y213987D01*
X91202Y213826D01*
X91002Y213644D01*
X90820Y213443D01*
X90658Y213226D01*
X90519Y212994D01*
X90403Y212749D01*
X90312Y212494D01*
X90246Y212231D01*
X90207Y211963D01*
X90193Y211693D01*
X90207Y211422D01*
X90246Y211155D01*
X90312Y210892D01*
X90403Y210637D01*
X90519Y210392D01*
X90658Y210160D01*
X90820Y209942D01*
X91002Y209742D01*
X91202Y209560D01*
X91420Y209399D01*
X91652Y209259D01*
X91897Y209144D01*
X92152Y209052D01*
X92414Y208987D01*
X92682Y208947D01*
X92953Y208934D01*
X93223Y208947D01*
X93491Y208987D01*
X93754Y209052D01*
X94008Y209144D01*
X94253Y209259D01*
X94486Y209399D01*
X94703Y209560D01*
X94904Y209742D01*
X95086Y209942D01*
X95247Y210160D01*
X95386Y210392D01*
X95502Y210637D01*
X95593Y210892D01*
X95659Y211155D01*
X95699Y211422D01*
X95712Y211693D01*
X95699Y211963D01*
X95659Y212231D01*
X95593Y212494D01*
X95502Y212749D01*
X95386Y212994D01*
X95247Y213226D01*
X95086Y213443D01*
X94904Y213644D01*
X94703Y213826D01*
X94486Y213987D01*
X94253Y214126D01*
X94008Y214242D01*
X93754Y214333D01*
X93491Y214399D01*
X93223Y214439D01*
X92953Y214452D01*
D02*
G37*
G36*
X82953D02*
X82682Y214439D01*
X82414Y214399D01*
X82152Y214333D01*
X81897Y214242D01*
X81652Y214126D01*
X81420Y213987D01*
X81202Y213826D01*
X81002Y213644D01*
X80820Y213443D01*
X80658Y213226D01*
X80519Y212994D01*
X80403Y212749D01*
X80312Y212494D01*
X80246Y212231D01*
X80207Y211963D01*
X80193Y211693D01*
X80207Y211422D01*
X80246Y211155D01*
X80312Y210892D01*
X80403Y210637D01*
X80519Y210392D01*
X80658Y210160D01*
X80820Y209942D01*
X81002Y209742D01*
X81202Y209560D01*
X81420Y209399D01*
X81652Y209259D01*
X81897Y209144D01*
X82152Y209052D01*
X82414Y208987D01*
X82682Y208947D01*
X82953Y208934D01*
X83223Y208947D01*
X83491Y208987D01*
X83754Y209052D01*
X84009Y209144D01*
X84253Y209259D01*
X84486Y209399D01*
X84703Y209560D01*
X84904Y209742D01*
X85085Y209942D01*
X85247Y210160D01*
X85386Y210392D01*
X85502Y210637D01*
X85593Y210892D01*
X85659Y211155D01*
X85699Y211422D01*
X85712Y211693D01*
X85699Y211963D01*
X85659Y212231D01*
X85593Y212494D01*
X85502Y212749D01*
X85386Y212994D01*
X85247Y213226D01*
X85085Y213443D01*
X84904Y213644D01*
X84703Y213826D01*
X84486Y213987D01*
X84253Y214126D01*
X84009Y214242D01*
X83754Y214333D01*
X83491Y214399D01*
X83223Y214439D01*
X82953Y214452D01*
D02*
G37*
G36*
X72953D02*
X72682Y214439D01*
X72414Y214399D01*
X72152Y214333D01*
X71897Y214242D01*
X71652Y214126D01*
X71420Y213987D01*
X71202Y213826D01*
X71002Y213644D01*
X70820Y213443D01*
X70658Y213226D01*
X70519Y212994D01*
X70403Y212749D01*
X70312Y212494D01*
X70246Y212231D01*
X70207Y211963D01*
X70193Y211693D01*
X70207Y211422D01*
X70246Y211155D01*
X70312Y210892D01*
X70403Y210637D01*
X70519Y210392D01*
X70658Y210160D01*
X70820Y209942D01*
X71002Y209742D01*
X71202Y209560D01*
X71420Y209399D01*
X71652Y209259D01*
X71897Y209144D01*
X72152Y209052D01*
X72414Y208987D01*
X72682Y208947D01*
X72953Y208934D01*
X73223Y208947D01*
X73491Y208987D01*
X73754Y209052D01*
X74009Y209144D01*
X74253Y209259D01*
X74486Y209399D01*
X74703Y209560D01*
X74904Y209742D01*
X75086Y209942D01*
X75247Y210160D01*
X75386Y210392D01*
X75502Y210637D01*
X75593Y210892D01*
X75659Y211155D01*
X75699Y211422D01*
X75712Y211693D01*
X75699Y211963D01*
X75659Y212231D01*
X75593Y212494D01*
X75502Y212749D01*
X75386Y212994D01*
X75247Y213226D01*
X75086Y213443D01*
X74904Y213644D01*
X74703Y213826D01*
X74486Y213987D01*
X74253Y214126D01*
X74009Y214242D01*
X73754Y214333D01*
X73491Y214399D01*
X73223Y214439D01*
X72953Y214452D01*
D02*
G37*
G36*
X62953D02*
X62682Y214439D01*
X62414Y214399D01*
X62152Y214333D01*
X61897Y214242D01*
X61652Y214126D01*
X61420Y213987D01*
X61202Y213826D01*
X61002Y213644D01*
X60820Y213443D01*
X60658Y213226D01*
X60519Y212994D01*
X60403Y212749D01*
X60312Y212494D01*
X60246Y212231D01*
X60207Y211963D01*
X60193Y211693D01*
X60207Y211422D01*
X60246Y211155D01*
X60312Y210892D01*
X60403Y210637D01*
X60519Y210392D01*
X60658Y210160D01*
X60820Y209942D01*
X61002Y209742D01*
X61202Y209560D01*
X61420Y209399D01*
X61652Y209259D01*
X61897Y209144D01*
X62152Y209052D01*
X62414Y208987D01*
X62682Y208947D01*
X62953Y208934D01*
X63223Y208947D01*
X63491Y208987D01*
X63754Y209052D01*
X64008Y209144D01*
X64253Y209259D01*
X64486Y209399D01*
X64703Y209560D01*
X64904Y209742D01*
X65086Y209942D01*
X65247Y210160D01*
X65386Y210392D01*
X65502Y210637D01*
X65593Y210892D01*
X65659Y211155D01*
X65699Y211422D01*
X65712Y211693D01*
X65699Y211963D01*
X65659Y212231D01*
X65593Y212494D01*
X65502Y212749D01*
X65386Y212994D01*
X65247Y213226D01*
X65086Y213443D01*
X64904Y213644D01*
X64703Y213826D01*
X64486Y213987D01*
X64253Y214126D01*
X64008Y214242D01*
X63754Y214333D01*
X63491Y214399D01*
X63223Y214439D01*
X62953Y214452D01*
D02*
G37*
G36*
X52953D02*
X52682Y214439D01*
X52414Y214399D01*
X52152Y214333D01*
X51897Y214242D01*
X51652Y214126D01*
X51420Y213987D01*
X51202Y213826D01*
X51002Y213644D01*
X50820Y213443D01*
X50658Y213226D01*
X50519Y212994D01*
X50403Y212749D01*
X50312Y212494D01*
X50246Y212231D01*
X50207Y211963D01*
X50193Y211693D01*
X50207Y211422D01*
X50246Y211155D01*
X50312Y210892D01*
X50403Y210637D01*
X50519Y210392D01*
X50658Y210160D01*
X50820Y209942D01*
X51002Y209742D01*
X51202Y209560D01*
X51420Y209399D01*
X51652Y209259D01*
X51897Y209144D01*
X52152Y209052D01*
X52414Y208987D01*
X52682Y208947D01*
X52953Y208934D01*
X53223Y208947D01*
X53491Y208987D01*
X53754Y209052D01*
X54009Y209144D01*
X54253Y209259D01*
X54486Y209399D01*
X54703Y209560D01*
X54904Y209742D01*
X55085Y209942D01*
X55247Y210160D01*
X55386Y210392D01*
X55502Y210637D01*
X55593Y210892D01*
X55659Y211155D01*
X55699Y211422D01*
X55712Y211693D01*
X55699Y211963D01*
X55659Y212231D01*
X55593Y212494D01*
X55502Y212749D01*
X55386Y212994D01*
X55247Y213226D01*
X55085Y213443D01*
X54904Y213644D01*
X54703Y213826D01*
X54486Y213987D01*
X54253Y214126D01*
X54009Y214242D01*
X53754Y214333D01*
X53491Y214399D01*
X53223Y214439D01*
X52953Y214452D01*
D02*
G37*
G36*
X42953D02*
X42682Y214439D01*
X42414Y214399D01*
X42152Y214333D01*
X41897Y214242D01*
X41652Y214126D01*
X41420Y213987D01*
X41202Y213826D01*
X41002Y213644D01*
X40820Y213443D01*
X40658Y213226D01*
X40519Y212994D01*
X40403Y212749D01*
X40312Y212494D01*
X40246Y212231D01*
X40207Y211963D01*
X40193Y211693D01*
X40207Y211422D01*
X40246Y211155D01*
X40312Y210892D01*
X40403Y210637D01*
X40519Y210392D01*
X40658Y210160D01*
X40820Y209942D01*
X41002Y209742D01*
X41202Y209560D01*
X41420Y209399D01*
X41652Y209259D01*
X41897Y209144D01*
X42152Y209052D01*
X42414Y208987D01*
X42682Y208947D01*
X42953Y208934D01*
X43223Y208947D01*
X43491Y208987D01*
X43754Y209052D01*
X44008Y209144D01*
X44253Y209259D01*
X44486Y209399D01*
X44703Y209560D01*
X44904Y209742D01*
X45085Y209942D01*
X45247Y210160D01*
X45386Y210392D01*
X45502Y210637D01*
X45593Y210892D01*
X45659Y211155D01*
X45699Y211422D01*
X45712Y211693D01*
X45699Y211963D01*
X45659Y212231D01*
X45593Y212494D01*
X45502Y212749D01*
X45386Y212994D01*
X45247Y213226D01*
X45085Y213443D01*
X44904Y213644D01*
X44703Y213826D01*
X44486Y213987D01*
X44253Y214126D01*
X44008Y214242D01*
X43754Y214333D01*
X43491Y214399D01*
X43223Y214439D01*
X42953Y214452D01*
D02*
G37*
G36*
X32953D02*
X32682Y214439D01*
X32414Y214399D01*
X32152Y214333D01*
X31897Y214242D01*
X31652Y214126D01*
X31420Y213987D01*
X31202Y213826D01*
X31002Y213644D01*
X30820Y213443D01*
X30658Y213226D01*
X30519Y212994D01*
X30403Y212749D01*
X30312Y212494D01*
X30246Y212231D01*
X30207Y211963D01*
X30193Y211693D01*
X30207Y211422D01*
X30246Y211155D01*
X30312Y210892D01*
X30403Y210637D01*
X30519Y210392D01*
X30658Y210160D01*
X30820Y209942D01*
X31002Y209742D01*
X31202Y209560D01*
X31420Y209399D01*
X31652Y209259D01*
X31897Y209144D01*
X32152Y209052D01*
X32414Y208987D01*
X32682Y208947D01*
X32953Y208934D01*
X33223Y208947D01*
X33491Y208987D01*
X33754Y209052D01*
X34008Y209144D01*
X34253Y209259D01*
X34486Y209399D01*
X34703Y209560D01*
X34904Y209742D01*
X35085Y209942D01*
X35247Y210160D01*
X35386Y210392D01*
X35502Y210637D01*
X35593Y210892D01*
X35659Y211155D01*
X35699Y211422D01*
X35712Y211693D01*
X35699Y211963D01*
X35659Y212231D01*
X35593Y212494D01*
X35502Y212749D01*
X35386Y212994D01*
X35247Y213226D01*
X35085Y213443D01*
X34904Y213644D01*
X34703Y213826D01*
X34486Y213987D01*
X34253Y214126D01*
X34008Y214242D01*
X33754Y214333D01*
X33491Y214399D01*
X33223Y214439D01*
X32953Y214452D01*
D02*
G37*
G36*
X222953Y204452D02*
X222682Y204439D01*
X222414Y204399D01*
X222152Y204333D01*
X221897Y204242D01*
X221652Y204126D01*
X221420Y203987D01*
X221202Y203826D01*
X221002Y203644D01*
X220820Y203443D01*
X220658Y203226D01*
X220519Y202993D01*
X220403Y202749D01*
X220312Y202494D01*
X220246Y202231D01*
X220207Y201963D01*
X220193Y201693D01*
X220207Y201422D01*
X220246Y201154D01*
X220312Y200892D01*
X220403Y200637D01*
X220519Y200392D01*
X220658Y200160D01*
X220820Y199942D01*
X221002Y199742D01*
X221202Y199560D01*
X221420Y199399D01*
X221652Y199259D01*
X221897Y199144D01*
X222152Y199052D01*
X222414Y198987D01*
X222682Y198947D01*
X222953Y198933D01*
X223223Y198947D01*
X223491Y198987D01*
X223754Y199052D01*
X224008Y199144D01*
X224253Y199259D01*
X224486Y199399D01*
X224703Y199560D01*
X224904Y199742D01*
X225085Y199942D01*
X225247Y200160D01*
X225386Y200392D01*
X225502Y200637D01*
X225593Y200892D01*
X225659Y201154D01*
X225698Y201422D01*
X225712Y201693D01*
X225698Y201963D01*
X225659Y202231D01*
X225593Y202494D01*
X225502Y202749D01*
X225386Y202993D01*
X225247Y203226D01*
X225085Y203443D01*
X224904Y203644D01*
X224703Y203826D01*
X224486Y203987D01*
X224253Y204126D01*
X224008Y204242D01*
X223754Y204333D01*
X223491Y204399D01*
X223223Y204439D01*
X222953Y204452D01*
D02*
G37*
G36*
X212953D02*
X212682Y204439D01*
X212414Y204399D01*
X212152Y204333D01*
X211897Y204242D01*
X211652Y204126D01*
X211420Y203987D01*
X211202Y203826D01*
X211002Y203644D01*
X210820Y203443D01*
X210658Y203226D01*
X210519Y202993D01*
X210403Y202749D01*
X210312Y202494D01*
X210246Y202231D01*
X210207Y201963D01*
X210193Y201693D01*
X210207Y201422D01*
X210246Y201154D01*
X210312Y200892D01*
X210403Y200637D01*
X210519Y200392D01*
X210658Y200160D01*
X210820Y199942D01*
X211002Y199742D01*
X211202Y199560D01*
X211420Y199399D01*
X211652Y199259D01*
X211897Y199144D01*
X212152Y199052D01*
X212414Y198987D01*
X212682Y198947D01*
X212953Y198933D01*
X213223Y198947D01*
X213491Y198987D01*
X213754Y199052D01*
X214008Y199144D01*
X214253Y199259D01*
X214486Y199399D01*
X214703Y199560D01*
X214904Y199742D01*
X215086Y199942D01*
X215247Y200160D01*
X215386Y200392D01*
X215502Y200637D01*
X215593Y200892D01*
X215659Y201154D01*
X215699Y201422D01*
X215712Y201693D01*
X215699Y201963D01*
X215659Y202231D01*
X215593Y202494D01*
X215502Y202749D01*
X215386Y202993D01*
X215247Y203226D01*
X215086Y203443D01*
X214904Y203644D01*
X214703Y203826D01*
X214486Y203987D01*
X214253Y204126D01*
X214008Y204242D01*
X213754Y204333D01*
X213491Y204399D01*
X213223Y204439D01*
X212953Y204452D01*
D02*
G37*
G36*
X202953D02*
X202682Y204439D01*
X202414Y204399D01*
X202152Y204333D01*
X201897Y204242D01*
X201652Y204126D01*
X201420Y203987D01*
X201202Y203826D01*
X201002Y203644D01*
X200820Y203443D01*
X200658Y203226D01*
X200519Y202993D01*
X200403Y202749D01*
X200312Y202494D01*
X200246Y202231D01*
X200207Y201963D01*
X200193Y201693D01*
X200207Y201422D01*
X200246Y201154D01*
X200312Y200892D01*
X200403Y200637D01*
X200519Y200392D01*
X200658Y200160D01*
X200820Y199942D01*
X201002Y199742D01*
X201202Y199560D01*
X201420Y199399D01*
X201652Y199259D01*
X201897Y199144D01*
X202152Y199052D01*
X202414Y198987D01*
X202682Y198947D01*
X202953Y198933D01*
X203223Y198947D01*
X203491Y198987D01*
X203754Y199052D01*
X204009Y199144D01*
X204253Y199259D01*
X204486Y199399D01*
X204703Y199560D01*
X204904Y199742D01*
X205085Y199942D01*
X205247Y200160D01*
X205386Y200392D01*
X205502Y200637D01*
X205593Y200892D01*
X205659Y201154D01*
X205698Y201422D01*
X205712Y201693D01*
X205698Y201963D01*
X205659Y202231D01*
X205593Y202494D01*
X205502Y202749D01*
X205386Y202993D01*
X205247Y203226D01*
X205085Y203443D01*
X204904Y203644D01*
X204703Y203826D01*
X204486Y203987D01*
X204253Y204126D01*
X204009Y204242D01*
X203754Y204333D01*
X203491Y204399D01*
X203223Y204439D01*
X202953Y204452D01*
D02*
G37*
G36*
X192953D02*
X192682Y204439D01*
X192414Y204399D01*
X192152Y204333D01*
X191897Y204242D01*
X191652Y204126D01*
X191420Y203987D01*
X191202Y203826D01*
X191002Y203644D01*
X190820Y203443D01*
X190658Y203226D01*
X190519Y202993D01*
X190403Y202749D01*
X190312Y202494D01*
X190246Y202231D01*
X190207Y201963D01*
X190193Y201693D01*
X190207Y201422D01*
X190246Y201154D01*
X190312Y200892D01*
X190403Y200637D01*
X190519Y200392D01*
X190658Y200160D01*
X190820Y199942D01*
X191002Y199742D01*
X191202Y199560D01*
X191420Y199399D01*
X191652Y199259D01*
X191897Y199144D01*
X192152Y199052D01*
X192414Y198987D01*
X192682Y198947D01*
X192953Y198933D01*
X193223Y198947D01*
X193491Y198987D01*
X193754Y199052D01*
X194009Y199144D01*
X194253Y199259D01*
X194486Y199399D01*
X194703Y199560D01*
X194904Y199742D01*
X195086Y199942D01*
X195247Y200160D01*
X195386Y200392D01*
X195502Y200637D01*
X195593Y200892D01*
X195659Y201154D01*
X195699Y201422D01*
X195712Y201693D01*
X195699Y201963D01*
X195659Y202231D01*
X195593Y202494D01*
X195502Y202749D01*
X195386Y202993D01*
X195247Y203226D01*
X195086Y203443D01*
X194904Y203644D01*
X194703Y203826D01*
X194486Y203987D01*
X194253Y204126D01*
X194009Y204242D01*
X193754Y204333D01*
X193491Y204399D01*
X193223Y204439D01*
X192953Y204452D01*
D02*
G37*
G36*
X182953D02*
X182682Y204439D01*
X182414Y204399D01*
X182152Y204333D01*
X181897Y204242D01*
X181652Y204126D01*
X181420Y203987D01*
X181202Y203826D01*
X181002Y203644D01*
X180820Y203443D01*
X180658Y203226D01*
X180519Y202993D01*
X180403Y202749D01*
X180312Y202494D01*
X180246Y202231D01*
X180207Y201963D01*
X180193Y201693D01*
X180207Y201422D01*
X180246Y201154D01*
X180312Y200892D01*
X180403Y200637D01*
X180519Y200392D01*
X180658Y200160D01*
X180820Y199942D01*
X181002Y199742D01*
X181202Y199560D01*
X181420Y199399D01*
X181652Y199259D01*
X181897Y199144D01*
X182152Y199052D01*
X182414Y198987D01*
X182682Y198947D01*
X182953Y198933D01*
X183223Y198947D01*
X183491Y198987D01*
X183754Y199052D01*
X184009Y199144D01*
X184253Y199259D01*
X184486Y199399D01*
X184703Y199560D01*
X184904Y199742D01*
X185085Y199942D01*
X185247Y200160D01*
X185386Y200392D01*
X185502Y200637D01*
X185593Y200892D01*
X185659Y201154D01*
X185699Y201422D01*
X185712Y201693D01*
X185699Y201963D01*
X185659Y202231D01*
X185593Y202494D01*
X185502Y202749D01*
X185386Y202993D01*
X185247Y203226D01*
X185085Y203443D01*
X184904Y203644D01*
X184703Y203826D01*
X184486Y203987D01*
X184253Y204126D01*
X184009Y204242D01*
X183754Y204333D01*
X183491Y204399D01*
X183223Y204439D01*
X182953Y204452D01*
D02*
G37*
G36*
X172953D02*
X172682Y204439D01*
X172414Y204399D01*
X172152Y204333D01*
X171897Y204242D01*
X171652Y204126D01*
X171420Y203987D01*
X171202Y203826D01*
X171002Y203644D01*
X170820Y203443D01*
X170658Y203226D01*
X170519Y202993D01*
X170403Y202749D01*
X170312Y202494D01*
X170246Y202231D01*
X170207Y201963D01*
X170193Y201693D01*
X170207Y201422D01*
X170246Y201154D01*
X170312Y200892D01*
X170403Y200637D01*
X170519Y200392D01*
X170658Y200160D01*
X170820Y199942D01*
X171002Y199742D01*
X171202Y199560D01*
X171420Y199399D01*
X171652Y199259D01*
X171897Y199144D01*
X172152Y199052D01*
X172414Y198987D01*
X172682Y198947D01*
X172953Y198933D01*
X173223Y198947D01*
X173491Y198987D01*
X173754Y199052D01*
X174009Y199144D01*
X174253Y199259D01*
X174486Y199399D01*
X174703Y199560D01*
X174904Y199742D01*
X175085Y199942D01*
X175247Y200160D01*
X175386Y200392D01*
X175502Y200637D01*
X175593Y200892D01*
X175659Y201154D01*
X175699Y201422D01*
X175712Y201693D01*
X175699Y201963D01*
X175659Y202231D01*
X175593Y202494D01*
X175502Y202749D01*
X175386Y202993D01*
X175247Y203226D01*
X175085Y203443D01*
X174904Y203644D01*
X174703Y203826D01*
X174486Y203987D01*
X174253Y204126D01*
X174009Y204242D01*
X173754Y204333D01*
X173491Y204399D01*
X173223Y204439D01*
X172953Y204452D01*
D02*
G37*
G36*
X162953D02*
X162682Y204439D01*
X162414Y204399D01*
X162152Y204333D01*
X161897Y204242D01*
X161652Y204126D01*
X161420Y203987D01*
X161202Y203826D01*
X161002Y203644D01*
X160820Y203443D01*
X160658Y203226D01*
X160519Y202993D01*
X160403Y202749D01*
X160312Y202494D01*
X160246Y202231D01*
X160207Y201963D01*
X160193Y201693D01*
X160207Y201422D01*
X160246Y201154D01*
X160312Y200892D01*
X160403Y200637D01*
X160519Y200392D01*
X160658Y200160D01*
X160820Y199942D01*
X161002Y199742D01*
X161202Y199560D01*
X161420Y199399D01*
X161652Y199259D01*
X161897Y199144D01*
X162152Y199052D01*
X162414Y198987D01*
X162682Y198947D01*
X162953Y198933D01*
X163223Y198947D01*
X163491Y198987D01*
X163754Y199052D01*
X164008Y199144D01*
X164253Y199259D01*
X164486Y199399D01*
X164703Y199560D01*
X164904Y199742D01*
X165085Y199942D01*
X165247Y200160D01*
X165386Y200392D01*
X165502Y200637D01*
X165593Y200892D01*
X165659Y201154D01*
X165699Y201422D01*
X165712Y201693D01*
X165699Y201963D01*
X165659Y202231D01*
X165593Y202494D01*
X165502Y202749D01*
X165386Y202993D01*
X165247Y203226D01*
X165085Y203443D01*
X164904Y203644D01*
X164703Y203826D01*
X164486Y203987D01*
X164253Y204126D01*
X164008Y204242D01*
X163754Y204333D01*
X163491Y204399D01*
X163223Y204439D01*
X162953Y204452D01*
D02*
G37*
G36*
X152953D02*
X152682Y204439D01*
X152414Y204399D01*
X152152Y204333D01*
X151897Y204242D01*
X151652Y204126D01*
X151420Y203987D01*
X151202Y203826D01*
X151002Y203644D01*
X150820Y203443D01*
X150658Y203226D01*
X150519Y202993D01*
X150403Y202749D01*
X150312Y202494D01*
X150246Y202231D01*
X150207Y201963D01*
X150193Y201693D01*
X150207Y201422D01*
X150246Y201154D01*
X150312Y200892D01*
X150403Y200637D01*
X150519Y200392D01*
X150658Y200160D01*
X150820Y199942D01*
X151002Y199742D01*
X151202Y199560D01*
X151420Y199399D01*
X151652Y199259D01*
X151897Y199144D01*
X152152Y199052D01*
X152414Y198987D01*
X152682Y198947D01*
X152953Y198933D01*
X153223Y198947D01*
X153491Y198987D01*
X153754Y199052D01*
X154008Y199144D01*
X154253Y199259D01*
X154486Y199399D01*
X154703Y199560D01*
X154904Y199742D01*
X155086Y199942D01*
X155247Y200160D01*
X155386Y200392D01*
X155502Y200637D01*
X155593Y200892D01*
X155659Y201154D01*
X155699Y201422D01*
X155712Y201693D01*
X155699Y201963D01*
X155659Y202231D01*
X155593Y202494D01*
X155502Y202749D01*
X155386Y202993D01*
X155247Y203226D01*
X155086Y203443D01*
X154904Y203644D01*
X154703Y203826D01*
X154486Y203987D01*
X154253Y204126D01*
X154008Y204242D01*
X153754Y204333D01*
X153491Y204399D01*
X153223Y204439D01*
X152953Y204452D01*
D02*
G37*
G36*
X142953D02*
X142682Y204439D01*
X142414Y204399D01*
X142152Y204333D01*
X141897Y204242D01*
X141652Y204126D01*
X141420Y203987D01*
X141202Y203826D01*
X141002Y203644D01*
X140820Y203443D01*
X140658Y203226D01*
X140519Y202993D01*
X140403Y202749D01*
X140312Y202494D01*
X140246Y202231D01*
X140207Y201963D01*
X140193Y201693D01*
X140207Y201422D01*
X140246Y201154D01*
X140312Y200892D01*
X140403Y200637D01*
X140519Y200392D01*
X140658Y200160D01*
X140820Y199942D01*
X141002Y199742D01*
X141202Y199560D01*
X141420Y199399D01*
X141652Y199259D01*
X141897Y199144D01*
X142152Y199052D01*
X142414Y198987D01*
X142682Y198947D01*
X142953Y198933D01*
X143223Y198947D01*
X143491Y198987D01*
X143754Y199052D01*
X144009Y199144D01*
X144253Y199259D01*
X144486Y199399D01*
X144703Y199560D01*
X144904Y199742D01*
X145086Y199942D01*
X145247Y200160D01*
X145386Y200392D01*
X145502Y200637D01*
X145593Y200892D01*
X145659Y201154D01*
X145699Y201422D01*
X145712Y201693D01*
X145699Y201963D01*
X145659Y202231D01*
X145593Y202494D01*
X145502Y202749D01*
X145386Y202993D01*
X145247Y203226D01*
X145086Y203443D01*
X144904Y203644D01*
X144703Y203826D01*
X144486Y203987D01*
X144253Y204126D01*
X144009Y204242D01*
X143754Y204333D01*
X143491Y204399D01*
X143223Y204439D01*
X142953Y204452D01*
D02*
G37*
G36*
X132953D02*
X132682Y204439D01*
X132414Y204399D01*
X132152Y204333D01*
X131897Y204242D01*
X131652Y204126D01*
X131420Y203987D01*
X131202Y203826D01*
X131002Y203644D01*
X130820Y203443D01*
X130658Y203226D01*
X130519Y202993D01*
X130403Y202749D01*
X130312Y202494D01*
X130246Y202231D01*
X130207Y201963D01*
X130193Y201693D01*
X130207Y201422D01*
X130246Y201154D01*
X130312Y200892D01*
X130403Y200637D01*
X130519Y200392D01*
X130658Y200160D01*
X130820Y199942D01*
X131002Y199742D01*
X131202Y199560D01*
X131420Y199399D01*
X131652Y199259D01*
X131897Y199144D01*
X132152Y199052D01*
X132414Y198987D01*
X132682Y198947D01*
X132953Y198933D01*
X133223Y198947D01*
X133491Y198987D01*
X133754Y199052D01*
X134009Y199144D01*
X134253Y199259D01*
X134486Y199399D01*
X134703Y199560D01*
X134904Y199742D01*
X135085Y199942D01*
X135247Y200160D01*
X135386Y200392D01*
X135502Y200637D01*
X135593Y200892D01*
X135659Y201154D01*
X135699Y201422D01*
X135712Y201693D01*
X135699Y201963D01*
X135659Y202231D01*
X135593Y202494D01*
X135502Y202749D01*
X135386Y202993D01*
X135247Y203226D01*
X135085Y203443D01*
X134904Y203644D01*
X134703Y203826D01*
X134486Y203987D01*
X134253Y204126D01*
X134009Y204242D01*
X133754Y204333D01*
X133491Y204399D01*
X133223Y204439D01*
X132953Y204452D01*
D02*
G37*
G36*
X122953D02*
X122682Y204439D01*
X122414Y204399D01*
X122152Y204333D01*
X121897Y204242D01*
X121652Y204126D01*
X121420Y203987D01*
X121202Y203826D01*
X121002Y203644D01*
X120820Y203443D01*
X120658Y203226D01*
X120519Y202993D01*
X120403Y202749D01*
X120312Y202494D01*
X120246Y202231D01*
X120207Y201963D01*
X120193Y201693D01*
X120207Y201422D01*
X120246Y201154D01*
X120312Y200892D01*
X120403Y200637D01*
X120519Y200392D01*
X120658Y200160D01*
X120820Y199942D01*
X121002Y199742D01*
X121202Y199560D01*
X121420Y199399D01*
X121652Y199259D01*
X121897Y199144D01*
X122152Y199052D01*
X122414Y198987D01*
X122682Y198947D01*
X122953Y198933D01*
X123223Y198947D01*
X123491Y198987D01*
X123754Y199052D01*
X124009Y199144D01*
X124253Y199259D01*
X124486Y199399D01*
X124703Y199560D01*
X124904Y199742D01*
X125085Y199942D01*
X125247Y200160D01*
X125386Y200392D01*
X125502Y200637D01*
X125593Y200892D01*
X125659Y201154D01*
X125699Y201422D01*
X125712Y201693D01*
X125699Y201963D01*
X125659Y202231D01*
X125593Y202494D01*
X125502Y202749D01*
X125386Y202993D01*
X125247Y203226D01*
X125085Y203443D01*
X124904Y203644D01*
X124703Y203826D01*
X124486Y203987D01*
X124253Y204126D01*
X124009Y204242D01*
X123754Y204333D01*
X123491Y204399D01*
X123223Y204439D01*
X122953Y204452D01*
D02*
G37*
G36*
X112953D02*
X112682Y204439D01*
X112414Y204399D01*
X112152Y204333D01*
X111897Y204242D01*
X111652Y204126D01*
X111420Y203987D01*
X111202Y203826D01*
X111002Y203644D01*
X110820Y203443D01*
X110658Y203226D01*
X110519Y202993D01*
X110403Y202749D01*
X110312Y202494D01*
X110246Y202231D01*
X110207Y201963D01*
X110193Y201693D01*
X110207Y201422D01*
X110246Y201154D01*
X110312Y200892D01*
X110403Y200637D01*
X110519Y200392D01*
X110658Y200160D01*
X110820Y199942D01*
X111002Y199742D01*
X111202Y199560D01*
X111420Y199399D01*
X111652Y199259D01*
X111897Y199144D01*
X112152Y199052D01*
X112414Y198987D01*
X112682Y198947D01*
X112953Y198933D01*
X113223Y198947D01*
X113491Y198987D01*
X113754Y199052D01*
X114008Y199144D01*
X114253Y199259D01*
X114486Y199399D01*
X114703Y199560D01*
X114904Y199742D01*
X115085Y199942D01*
X115247Y200160D01*
X115386Y200392D01*
X115502Y200637D01*
X115593Y200892D01*
X115659Y201154D01*
X115699Y201422D01*
X115712Y201693D01*
X115699Y201963D01*
X115659Y202231D01*
X115593Y202494D01*
X115502Y202749D01*
X115386Y202993D01*
X115247Y203226D01*
X115085Y203443D01*
X114904Y203644D01*
X114703Y203826D01*
X114486Y203987D01*
X114253Y204126D01*
X114008Y204242D01*
X113754Y204333D01*
X113491Y204399D01*
X113223Y204439D01*
X112953Y204452D01*
D02*
G37*
G36*
X102953D02*
X102682Y204439D01*
X102414Y204399D01*
X102152Y204333D01*
X101897Y204242D01*
X101652Y204126D01*
X101420Y203987D01*
X101202Y203826D01*
X101002Y203644D01*
X100820Y203443D01*
X100658Y203226D01*
X100519Y202993D01*
X100403Y202749D01*
X100312Y202494D01*
X100246Y202231D01*
X100207Y201963D01*
X100193Y201693D01*
X100207Y201422D01*
X100246Y201154D01*
X100312Y200892D01*
X100403Y200637D01*
X100519Y200392D01*
X100658Y200160D01*
X100820Y199942D01*
X101002Y199742D01*
X101202Y199560D01*
X101420Y199399D01*
X101652Y199259D01*
X101897Y199144D01*
X102152Y199052D01*
X102414Y198987D01*
X102682Y198947D01*
X102953Y198933D01*
X103223Y198947D01*
X103491Y198987D01*
X103754Y199052D01*
X104008Y199144D01*
X104253Y199259D01*
X104486Y199399D01*
X104703Y199560D01*
X104904Y199742D01*
X105086Y199942D01*
X105247Y200160D01*
X105386Y200392D01*
X105502Y200637D01*
X105593Y200892D01*
X105659Y201154D01*
X105699Y201422D01*
X105712Y201693D01*
X105699Y201963D01*
X105659Y202231D01*
X105593Y202494D01*
X105502Y202749D01*
X105386Y202993D01*
X105247Y203226D01*
X105086Y203443D01*
X104904Y203644D01*
X104703Y203826D01*
X104486Y203987D01*
X104253Y204126D01*
X104008Y204242D01*
X103754Y204333D01*
X103491Y204399D01*
X103223Y204439D01*
X102953Y204452D01*
D02*
G37*
G36*
X92953D02*
X92682Y204439D01*
X92414Y204399D01*
X92152Y204333D01*
X91897Y204242D01*
X91652Y204126D01*
X91420Y203987D01*
X91202Y203826D01*
X91002Y203644D01*
X90820Y203443D01*
X90658Y203226D01*
X90519Y202993D01*
X90403Y202749D01*
X90312Y202494D01*
X90246Y202231D01*
X90207Y201963D01*
X90193Y201693D01*
X90207Y201422D01*
X90246Y201154D01*
X90312Y200892D01*
X90403Y200637D01*
X90519Y200392D01*
X90658Y200160D01*
X90820Y199942D01*
X91002Y199742D01*
X91202Y199560D01*
X91420Y199399D01*
X91652Y199259D01*
X91897Y199144D01*
X92152Y199052D01*
X92414Y198987D01*
X92682Y198947D01*
X92953Y198933D01*
X93223Y198947D01*
X93491Y198987D01*
X93754Y199052D01*
X94008Y199144D01*
X94253Y199259D01*
X94486Y199399D01*
X94703Y199560D01*
X94904Y199742D01*
X95086Y199942D01*
X95247Y200160D01*
X95386Y200392D01*
X95502Y200637D01*
X95593Y200892D01*
X95659Y201154D01*
X95699Y201422D01*
X95712Y201693D01*
X95699Y201963D01*
X95659Y202231D01*
X95593Y202494D01*
X95502Y202749D01*
X95386Y202993D01*
X95247Y203226D01*
X95086Y203443D01*
X94904Y203644D01*
X94703Y203826D01*
X94486Y203987D01*
X94253Y204126D01*
X94008Y204242D01*
X93754Y204333D01*
X93491Y204399D01*
X93223Y204439D01*
X92953Y204452D01*
D02*
G37*
G36*
X82953D02*
X82682Y204439D01*
X82414Y204399D01*
X82152Y204333D01*
X81897Y204242D01*
X81652Y204126D01*
X81420Y203987D01*
X81202Y203826D01*
X81002Y203644D01*
X80820Y203443D01*
X80658Y203226D01*
X80519Y202993D01*
X80403Y202749D01*
X80312Y202494D01*
X80246Y202231D01*
X80207Y201963D01*
X80193Y201693D01*
X80207Y201422D01*
X80246Y201154D01*
X80312Y200892D01*
X80403Y200637D01*
X80519Y200392D01*
X80658Y200160D01*
X80820Y199942D01*
X81002Y199742D01*
X81202Y199560D01*
X81420Y199399D01*
X81652Y199259D01*
X81897Y199144D01*
X82152Y199052D01*
X82414Y198987D01*
X82682Y198947D01*
X82953Y198933D01*
X83223Y198947D01*
X83491Y198987D01*
X83754Y199052D01*
X84009Y199144D01*
X84253Y199259D01*
X84486Y199399D01*
X84703Y199560D01*
X84904Y199742D01*
X85085Y199942D01*
X85247Y200160D01*
X85386Y200392D01*
X85502Y200637D01*
X85593Y200892D01*
X85659Y201154D01*
X85699Y201422D01*
X85712Y201693D01*
X85699Y201963D01*
X85659Y202231D01*
X85593Y202494D01*
X85502Y202749D01*
X85386Y202993D01*
X85247Y203226D01*
X85085Y203443D01*
X84904Y203644D01*
X84703Y203826D01*
X84486Y203987D01*
X84253Y204126D01*
X84009Y204242D01*
X83754Y204333D01*
X83491Y204399D01*
X83223Y204439D01*
X82953Y204452D01*
D02*
G37*
G36*
X72953D02*
X72682Y204439D01*
X72414Y204399D01*
X72152Y204333D01*
X71897Y204242D01*
X71652Y204126D01*
X71420Y203987D01*
X71202Y203826D01*
X71002Y203644D01*
X70820Y203443D01*
X70658Y203226D01*
X70519Y202993D01*
X70403Y202749D01*
X70312Y202494D01*
X70246Y202231D01*
X70207Y201963D01*
X70193Y201693D01*
X70207Y201422D01*
X70246Y201154D01*
X70312Y200892D01*
X70403Y200637D01*
X70519Y200392D01*
X70658Y200160D01*
X70820Y199942D01*
X71002Y199742D01*
X71202Y199560D01*
X71420Y199399D01*
X71652Y199259D01*
X71897Y199144D01*
X72152Y199052D01*
X72414Y198987D01*
X72682Y198947D01*
X72953Y198933D01*
X73223Y198947D01*
X73491Y198987D01*
X73754Y199052D01*
X74009Y199144D01*
X74253Y199259D01*
X74486Y199399D01*
X74703Y199560D01*
X74904Y199742D01*
X75086Y199942D01*
X75247Y200160D01*
X75386Y200392D01*
X75502Y200637D01*
X75593Y200892D01*
X75659Y201154D01*
X75699Y201422D01*
X75712Y201693D01*
X75699Y201963D01*
X75659Y202231D01*
X75593Y202494D01*
X75502Y202749D01*
X75386Y202993D01*
X75247Y203226D01*
X75086Y203443D01*
X74904Y203644D01*
X74703Y203826D01*
X74486Y203987D01*
X74253Y204126D01*
X74009Y204242D01*
X73754Y204333D01*
X73491Y204399D01*
X73223Y204439D01*
X72953Y204452D01*
D02*
G37*
G36*
X62953D02*
X62682Y204439D01*
X62414Y204399D01*
X62152Y204333D01*
X61897Y204242D01*
X61652Y204126D01*
X61420Y203987D01*
X61202Y203826D01*
X61002Y203644D01*
X60820Y203443D01*
X60658Y203226D01*
X60519Y202993D01*
X60403Y202749D01*
X60312Y202494D01*
X60246Y202231D01*
X60207Y201963D01*
X60193Y201693D01*
X60207Y201422D01*
X60246Y201154D01*
X60312Y200892D01*
X60403Y200637D01*
X60519Y200392D01*
X60658Y200160D01*
X60820Y199942D01*
X61002Y199742D01*
X61202Y199560D01*
X61420Y199399D01*
X61652Y199259D01*
X61897Y199144D01*
X62152Y199052D01*
X62414Y198987D01*
X62682Y198947D01*
X62953Y198933D01*
X63223Y198947D01*
X63491Y198987D01*
X63754Y199052D01*
X64008Y199144D01*
X64253Y199259D01*
X64486Y199399D01*
X64703Y199560D01*
X64904Y199742D01*
X65086Y199942D01*
X65247Y200160D01*
X65386Y200392D01*
X65502Y200637D01*
X65593Y200892D01*
X65659Y201154D01*
X65699Y201422D01*
X65712Y201693D01*
X65699Y201963D01*
X65659Y202231D01*
X65593Y202494D01*
X65502Y202749D01*
X65386Y202993D01*
X65247Y203226D01*
X65086Y203443D01*
X64904Y203644D01*
X64703Y203826D01*
X64486Y203987D01*
X64253Y204126D01*
X64008Y204242D01*
X63754Y204333D01*
X63491Y204399D01*
X63223Y204439D01*
X62953Y204452D01*
D02*
G37*
G36*
X52953D02*
X52682Y204439D01*
X52414Y204399D01*
X52152Y204333D01*
X51897Y204242D01*
X51652Y204126D01*
X51420Y203987D01*
X51202Y203826D01*
X51002Y203644D01*
X50820Y203443D01*
X50658Y203226D01*
X50519Y202993D01*
X50403Y202749D01*
X50312Y202494D01*
X50246Y202231D01*
X50207Y201963D01*
X50193Y201693D01*
X50207Y201422D01*
X50246Y201154D01*
X50312Y200892D01*
X50403Y200637D01*
X50519Y200392D01*
X50658Y200160D01*
X50820Y199942D01*
X51002Y199742D01*
X51202Y199560D01*
X51420Y199399D01*
X51652Y199259D01*
X51897Y199144D01*
X52152Y199052D01*
X52414Y198987D01*
X52682Y198947D01*
X52953Y198933D01*
X53223Y198947D01*
X53491Y198987D01*
X53754Y199052D01*
X54009Y199144D01*
X54253Y199259D01*
X54486Y199399D01*
X54703Y199560D01*
X54904Y199742D01*
X55085Y199942D01*
X55247Y200160D01*
X55386Y200392D01*
X55502Y200637D01*
X55593Y200892D01*
X55659Y201154D01*
X55699Y201422D01*
X55712Y201693D01*
X55699Y201963D01*
X55659Y202231D01*
X55593Y202494D01*
X55502Y202749D01*
X55386Y202993D01*
X55247Y203226D01*
X55085Y203443D01*
X54904Y203644D01*
X54703Y203826D01*
X54486Y203987D01*
X54253Y204126D01*
X54009Y204242D01*
X53754Y204333D01*
X53491Y204399D01*
X53223Y204439D01*
X52953Y204452D01*
D02*
G37*
G36*
X42953D02*
X42682Y204439D01*
X42414Y204399D01*
X42152Y204333D01*
X41897Y204242D01*
X41652Y204126D01*
X41420Y203987D01*
X41202Y203826D01*
X41002Y203644D01*
X40820Y203443D01*
X40658Y203226D01*
X40519Y202993D01*
X40403Y202749D01*
X40312Y202494D01*
X40246Y202231D01*
X40207Y201963D01*
X40193Y201693D01*
X40207Y201422D01*
X40246Y201154D01*
X40312Y200892D01*
X40403Y200637D01*
X40519Y200392D01*
X40658Y200160D01*
X40820Y199942D01*
X41002Y199742D01*
X41202Y199560D01*
X41420Y199399D01*
X41652Y199259D01*
X41897Y199144D01*
X42152Y199052D01*
X42414Y198987D01*
X42682Y198947D01*
X42953Y198933D01*
X43223Y198947D01*
X43491Y198987D01*
X43754Y199052D01*
X44008Y199144D01*
X44253Y199259D01*
X44486Y199399D01*
X44703Y199560D01*
X44904Y199742D01*
X45085Y199942D01*
X45247Y200160D01*
X45386Y200392D01*
X45502Y200637D01*
X45593Y200892D01*
X45659Y201154D01*
X45699Y201422D01*
X45712Y201693D01*
X45699Y201963D01*
X45659Y202231D01*
X45593Y202494D01*
X45502Y202749D01*
X45386Y202993D01*
X45247Y203226D01*
X45085Y203443D01*
X44904Y203644D01*
X44703Y203826D01*
X44486Y203987D01*
X44253Y204126D01*
X44008Y204242D01*
X43754Y204333D01*
X43491Y204399D01*
X43223Y204439D01*
X42953Y204452D01*
D02*
G37*
G36*
X32953D02*
X32682Y204439D01*
X32414Y204399D01*
X32152Y204333D01*
X31897Y204242D01*
X31652Y204126D01*
X31420Y203987D01*
X31202Y203826D01*
X31002Y203644D01*
X30820Y203443D01*
X30658Y203226D01*
X30519Y202993D01*
X30403Y202749D01*
X30312Y202494D01*
X30246Y202231D01*
X30207Y201963D01*
X30193Y201693D01*
X30207Y201422D01*
X30246Y201154D01*
X30312Y200892D01*
X30403Y200637D01*
X30519Y200392D01*
X30658Y200160D01*
X30820Y199942D01*
X31002Y199742D01*
X31202Y199560D01*
X31420Y199399D01*
X31652Y199259D01*
X31897Y199144D01*
X32152Y199052D01*
X32414Y198987D01*
X32682Y198947D01*
X32953Y198933D01*
X33223Y198947D01*
X33491Y198987D01*
X33754Y199052D01*
X34008Y199144D01*
X34253Y199259D01*
X34486Y199399D01*
X34703Y199560D01*
X34904Y199742D01*
X35085Y199942D01*
X35247Y200160D01*
X35386Y200392D01*
X35502Y200637D01*
X35593Y200892D01*
X35659Y201154D01*
X35699Y201422D01*
X35712Y201693D01*
X35699Y201963D01*
X35659Y202231D01*
X35593Y202494D01*
X35502Y202749D01*
X35386Y202993D01*
X35247Y203226D01*
X35085Y203443D01*
X34904Y203644D01*
X34703Y203826D01*
X34486Y203987D01*
X34253Y204126D01*
X34008Y204242D01*
X33754Y204333D01*
X33491Y204399D01*
X33223Y204439D01*
X32953Y204452D01*
D02*
G37*
G36*
X247126Y191342D02*
X246817Y191328D01*
X246510Y191288D01*
X246208Y191221D01*
X245913Y191128D01*
X245627Y191010D01*
X245353Y190867D01*
X245092Y190700D01*
X244846Y190512D01*
X244618Y190303D01*
X244409Y190075D01*
X244221Y189830D01*
X244055Y189569D01*
X243912Y189294D01*
X243793Y189008D01*
X243700Y188713D01*
X243633Y188411D01*
X243593Y188104D01*
X243579Y187795D01*
Y186221D01*
X243593Y185911D01*
X243633Y185605D01*
X243700Y185302D01*
X243793Y185007D01*
X243912Y184722D01*
X244055Y184447D01*
X244221Y184186D01*
X244409Y183941D01*
X244618Y183713D01*
X244846Y183504D01*
X245092Y183315D01*
X245353Y183149D01*
X245627Y183006D01*
X245913Y182888D01*
X246208Y182795D01*
X246510Y182728D01*
X246817Y182687D01*
X247126Y182674D01*
X247435Y182687D01*
X247742Y182728D01*
X248044Y182795D01*
X248339Y182888D01*
X248625Y183006D01*
X248899Y183149D01*
X249160Y183315D01*
X249406Y183504D01*
X249634Y183713D01*
X249843Y183941D01*
X250031Y184186D01*
X250198Y184447D01*
X250340Y184722D01*
X250459Y185007D01*
X250552Y185302D01*
X250619Y185605D01*
X250659Y185911D01*
X250673Y186221D01*
Y187795D01*
X250659Y188104D01*
X250619Y188411D01*
X250552Y188713D01*
X250459Y189008D01*
X250340Y189294D01*
X250198Y189569D01*
X250031Y189830D01*
X249843Y190075D01*
X249634Y190303D01*
X249406Y190512D01*
X249160Y190700D01*
X248899Y190867D01*
X248625Y191010D01*
X248339Y191128D01*
X248044Y191221D01*
X247742Y191288D01*
X247435Y191328D01*
X247126Y191342D01*
D02*
G37*
G36*
X238504Y191342D02*
X235748D01*
X235505Y191328D01*
X235265Y191288D01*
X235032Y191220D01*
X234807Y191127D01*
X234594Y191010D01*
X234396Y190869D01*
X234214Y190707D01*
X234052Y190525D01*
X233912Y190327D01*
X233794Y190114D01*
X233701Y189890D01*
X233634Y189656D01*
X233593Y189416D01*
X233579Y189173D01*
Y184843D01*
X233593Y184600D01*
X233634Y184360D01*
X233701Y184126D01*
X233794Y183902D01*
X233912Y183689D01*
X234052Y183490D01*
X234214Y183309D01*
X234396Y183147D01*
X234594Y183006D01*
X234807Y182888D01*
X235032Y182796D01*
X235265Y182728D01*
X235505Y182687D01*
X235748Y182674D01*
X238504D01*
X238747Y182687D01*
X238986Y182728D01*
X239220Y182796D01*
X239445Y182888D01*
X239658Y183006D01*
X239856Y183147D01*
X240037Y183309D01*
X240199Y183490D01*
X240340Y183689D01*
X240458Y183902D01*
X240551Y184126D01*
X240618Y184360D01*
X240659Y184600D01*
X240673Y184843D01*
Y189173D01*
X240659Y189416D01*
X240618Y189656D01*
X240551Y189890D01*
X240458Y190114D01*
X240340Y190327D01*
X240199Y190525D01*
X240037Y190707D01*
X239856Y190869D01*
X239658Y191010D01*
X239445Y191127D01*
X239220Y191220D01*
X238986Y191288D01*
X238747Y191328D01*
X238504Y191342D01*
D02*
G37*
G36*
X103150Y197248D02*
X31299D01*
X31114Y197233D01*
X30933Y197190D01*
X30761Y197119D01*
X30603Y197021D01*
X30461Y196901D01*
X12745Y179184D01*
X12624Y179043D01*
X12527Y178884D01*
X12456Y178713D01*
X12412Y178532D01*
X12398Y178347D01*
Y155512D01*
X12412Y155326D01*
X12456Y155146D01*
X12527Y154974D01*
X12624Y154815D01*
X12745Y154674D01*
X27949Y139470D01*
Y104134D01*
X27964Y103948D01*
X28007Y103768D01*
X28078Y103596D01*
X28175Y103437D01*
X28296Y103296D01*
X36059Y95533D01*
Y84463D01*
X35896Y84412D01*
X35579Y84280D01*
X35274Y84122D01*
X34984Y83937D01*
X34711Y83727D01*
X34458Y83495D01*
X34225Y83242D01*
X34016Y82969D01*
X33831Y82679D01*
X33673Y82374D01*
X33541Y82056D01*
X33438Y81729D01*
X33363Y81393D01*
X33318Y81052D01*
X33303Y80709D01*
X33318Y80365D01*
X33363Y80024D01*
X33438Y79689D01*
X33541Y79361D01*
X33673Y79043D01*
X33831Y78738D01*
X34016Y78448D01*
X34225Y78176D01*
X34458Y77922D01*
X34711Y77690D01*
X34984Y77481D01*
X35274Y77296D01*
X35579Y77137D01*
X35896Y77006D01*
X36224Y76902D01*
X36560Y76828D01*
X36901Y76783D01*
X37244Y76768D01*
X37587Y76783D01*
X37928Y76828D01*
X38264Y76902D01*
X38592Y77006D01*
X38910Y77137D01*
X39215Y77296D01*
X39504Y77481D01*
X39777Y77690D01*
X40031Y77922D01*
X40263Y78176D01*
X40472Y78448D01*
X40657Y78738D01*
X40816Y79043D01*
X40947Y79361D01*
X41051Y79689D01*
X41125Y80024D01*
X41170Y80365D01*
X41185Y80709D01*
X41170Y81052D01*
X41125Y81393D01*
X41051Y81729D01*
X40947Y82056D01*
X40816Y82374D01*
X40657Y82679D01*
X40472Y82969D01*
X40263Y83242D01*
X40031Y83495D01*
X39777Y83727D01*
X39504Y83937D01*
X39215Y84122D01*
X38910Y84280D01*
X38592Y84412D01*
X38429Y84463D01*
Y96024D01*
X38414Y96209D01*
X38371Y96390D01*
X38300Y96561D01*
X38203Y96720D01*
X38082Y96861D01*
X30319Y104625D01*
Y139961D01*
X30304Y140146D01*
X30261Y140327D01*
X30189Y140498D01*
X30092Y140657D01*
X29972Y140798D01*
X14767Y156002D01*
Y177856D01*
X31790Y194878D01*
X102659D01*
X105924Y191613D01*
X105915Y191559D01*
X105902Y191339D01*
X105915Y191118D01*
X105952Y190900D01*
X106013Y190687D01*
X106098Y190483D01*
X106205Y190290D01*
X106333Y190109D01*
X106480Y189945D01*
X106645Y189797D01*
X106825Y189669D01*
X107019Y189562D01*
X107223Y189478D01*
X107435Y189416D01*
X107653Y189379D01*
X107874Y189367D01*
X108430Y188781D01*
X108461Y188726D01*
Y180898D01*
X107766Y180600D01*
X107674Y180592D01*
X107499Y180747D01*
X107283Y180901D01*
X107051Y181029D01*
X106806Y181131D01*
X106551Y181204D01*
X106289Y181249D01*
X106024Y181264D01*
X105634D01*
Y184330D01*
X105620Y184515D01*
X105576Y184696D01*
X105505Y184868D01*
X105408Y185026D01*
X105287Y185168D01*
X98279Y192176D01*
X98137Y192297D01*
X97979Y192394D01*
X97807Y192465D01*
X97626Y192509D01*
X97441Y192523D01*
X89447D01*
X89416Y192568D01*
X89268Y192733D01*
X89103Y192880D01*
X88923Y193008D01*
X88730Y193115D01*
X88525Y193200D01*
X88313Y193261D01*
X88095Y193298D01*
X87874Y193310D01*
X87653Y193298D01*
X87435Y193261D01*
X87223Y193200D01*
X87019Y193115D01*
X86825Y193008D01*
X86645Y192880D01*
X86480Y192733D01*
X86333Y192568D01*
X86205Y192387D01*
X86098Y192194D01*
X86013Y191990D01*
X85952Y191777D01*
X85915Y191559D01*
X85902Y191339D01*
X85915Y191118D01*
X85952Y190900D01*
X86013Y190687D01*
X86098Y190483D01*
X86205Y190290D01*
X86333Y190109D01*
X86480Y189945D01*
X86645Y189797D01*
X86825Y189669D01*
X87019Y189562D01*
X87223Y189478D01*
X87435Y189416D01*
X87653Y189379D01*
X87874Y189367D01*
X88095Y189379D01*
X88313Y189416D01*
X88525Y189478D01*
X88730Y189562D01*
X88923Y189669D01*
X89103Y189797D01*
X89268Y189945D01*
X89416Y190109D01*
X89447Y190154D01*
X96950D01*
X103265Y183839D01*
Y181264D01*
X102875D01*
X102610Y181249D01*
X102348Y181204D01*
X102093Y181131D01*
X101848Y181029D01*
X101616Y180901D01*
X101400Y180747D01*
X101202Y180571D01*
X101025Y180373D01*
X100871Y180156D01*
X100743Y179924D01*
X100642Y179679D01*
X100568Y179424D01*
X100524Y179163D01*
X100509Y178898D01*
Y175748D01*
X100524Y175483D01*
X100568Y175222D01*
X100592Y175140D01*
X97135Y171684D01*
X97014Y171542D01*
X96917Y171384D01*
X96846Y171212D01*
X96802Y171031D01*
X96788Y170846D01*
Y166396D01*
X96743Y166364D01*
X96578Y166217D01*
X96431Y166052D01*
X96303Y165872D01*
X96196Y165678D01*
X96112Y165474D01*
X96050Y165262D01*
X96013Y165044D01*
X96001Y164823D01*
X96013Y164602D01*
X96050Y164384D01*
X96112Y164172D01*
X96196Y163967D01*
X96303Y163774D01*
X96431Y163594D01*
X96578Y163429D01*
X96743Y163281D01*
X96924Y163153D01*
X97117Y163047D01*
X97321Y162962D01*
X97534Y162901D01*
X97752Y162864D01*
X97973Y162851D01*
X98193Y162864D01*
X98411Y162901D01*
X98624Y162962D01*
X98828Y163047D01*
X99021Y163153D01*
X99202Y163281D01*
X99367Y163429D01*
X99514Y163594D01*
X99642Y163774D01*
X99749Y163967D01*
X99833Y164172D01*
X99895Y164384D01*
X99932Y164602D01*
X99944Y164823D01*
X99932Y165044D01*
X99895Y165262D01*
X99833Y165474D01*
X99749Y165678D01*
X99642Y165872D01*
X99514Y166052D01*
X99367Y166217D01*
X99202Y166364D01*
X99157Y166396D01*
Y170355D01*
X102267Y173465D01*
X102348Y173441D01*
X102610Y173397D01*
X102875Y173382D01*
X106024D01*
X106289Y173397D01*
X106551Y173441D01*
X106806Y173515D01*
X107051Y173616D01*
X107283Y173745D01*
X107499Y173898D01*
X107674Y174054D01*
X107766Y174046D01*
X108461Y173748D01*
Y173010D01*
X106267Y170815D01*
X106115Y170894D01*
X105797Y171026D01*
X105469Y171129D01*
X105134Y171204D01*
X104793Y171249D01*
X104449Y171264D01*
X104106Y171249D01*
X103765Y171204D01*
X103429Y171129D01*
X103102Y171026D01*
X102784Y170894D01*
X102479Y170736D01*
X102189Y170551D01*
X101916Y170342D01*
X101663Y170109D01*
X101431Y169856D01*
X101221Y169583D01*
X101037Y169293D01*
X100878Y168988D01*
X100746Y168671D01*
X100643Y168343D01*
X100569Y168007D01*
X100524Y167666D01*
X100509Y167323D01*
X100524Y166979D01*
X100569Y166639D01*
X100643Y166303D01*
X100746Y165975D01*
X100878Y165657D01*
X101037Y165352D01*
X101221Y165062D01*
X101431Y164790D01*
X101663Y164536D01*
X101916Y164304D01*
X102189Y164095D01*
X102479Y163910D01*
X102784Y163751D01*
X103102Y163620D01*
X103429Y163516D01*
X103765Y163442D01*
X104106Y163397D01*
X104449Y163382D01*
X104793Y163397D01*
X105134Y163442D01*
X105469Y163516D01*
X105797Y163620D01*
X106115Y163751D01*
X106420Y163910D01*
X106710Y164095D01*
X106983Y164304D01*
X107236Y164536D01*
X107468Y164790D01*
X107677Y165062D01*
X107862Y165352D01*
X108021Y165657D01*
X108152Y165975D01*
X108256Y166303D01*
X108330Y166639D01*
X108375Y166979D01*
X108390Y167323D01*
X108375Y167666D01*
X108330Y168007D01*
X108256Y168343D01*
X108152Y168671D01*
X108021Y168988D01*
X107942Y169140D01*
X110483Y171681D01*
X110604Y171823D01*
X110701Y171981D01*
X110772Y172153D01*
X110816Y172334D01*
X110830Y172519D01*
Y174296D01*
X110863Y174323D01*
X111618Y174585D01*
X111663Y174536D01*
X111916Y174304D01*
X112189Y174095D01*
X112479Y173910D01*
X112784Y173751D01*
X113102Y173620D01*
X113429Y173516D01*
X113765Y173442D01*
X114106Y173397D01*
X114450Y173382D01*
X114793Y173397D01*
X115134Y173442D01*
X115469Y173516D01*
X115797Y173620D01*
X116115Y173751D01*
X116420Y173910D01*
X116710Y174095D01*
X116982Y174304D01*
X117236Y174536D01*
X117468Y174790D01*
X117677Y175063D01*
X117862Y175352D01*
X118021Y175657D01*
X118152Y175975D01*
X118256Y176303D01*
X118330Y176638D01*
X118375Y176979D01*
X118390Y177323D01*
X118375Y177666D01*
X118330Y178007D01*
X118256Y178341D01*
X119504Y179589D01*
X119652Y179754D01*
X119780Y179935D01*
X119887Y180128D01*
X119971Y180332D01*
X120032Y180545D01*
X120069Y180763D01*
X120082Y180984D01*
Y189961D01*
X120069Y190181D01*
X120032Y190399D01*
X119971Y190612D01*
X119887Y190816D01*
X119780Y191010D01*
X119652Y191190D01*
X119504Y191355D01*
X119340Y191502D01*
X119159Y191630D01*
X118966Y191737D01*
X118761Y191822D01*
X118549Y191883D01*
X118331Y191920D01*
X118110Y191932D01*
X117889Y191920D01*
X117672Y191883D01*
X117459Y191822D01*
X117255Y191737D01*
X117061Y191630D01*
X116881Y191502D01*
X116716Y191355D01*
X116569Y191190D01*
X116441Y191010D01*
X116334Y190816D01*
X116249Y190612D01*
X116188Y190399D01*
X116151Y190181D01*
X116139Y189961D01*
Y181800D01*
X115468Y181130D01*
X115134Y181204D01*
X114793Y181249D01*
X114450Y181264D01*
X114106Y181249D01*
X113765Y181204D01*
X113429Y181129D01*
X113102Y181026D01*
X112784Y180894D01*
X112479Y180736D01*
X112189Y180551D01*
X111916Y180342D01*
X111663Y180109D01*
X111618Y180060D01*
X110863Y180322D01*
X110830Y180349D01*
Y189567D01*
X110816Y189752D01*
X110772Y189933D01*
X110701Y190105D01*
X110604Y190263D01*
X110483Y190405D01*
X109824Y191064D01*
X109833Y191118D01*
X109846Y191339D01*
X109833Y191559D01*
X109796Y191777D01*
X109735Y191990D01*
X109650Y192194D01*
X109543Y192387D01*
X109415Y192568D01*
X109268Y192733D01*
X109103Y192880D01*
X108923Y193008D01*
X108730Y193115D01*
X108525Y193200D01*
X108313Y193261D01*
X108095Y193298D01*
X107874Y193310D01*
X107653Y193298D01*
X107599Y193289D01*
X103987Y196901D01*
X103846Y197021D01*
X103688Y197119D01*
X103516Y197190D01*
X103335Y197233D01*
X103150Y197248D01*
D02*
G37*
G36*
X129921Y177760D02*
X129578Y177745D01*
X129237Y177700D01*
X128901Y177625D01*
X128574Y177522D01*
X128256Y177390D01*
X127951Y177232D01*
X127661Y177047D01*
X127388Y176838D01*
X127135Y176605D01*
X126902Y176352D01*
X126693Y176079D01*
X126508Y175789D01*
X126350Y175484D01*
X126218Y175167D01*
X126115Y174839D01*
X126040Y174503D01*
X125996Y174162D01*
X125980Y173819D01*
X125996Y173475D01*
X126040Y173135D01*
X126115Y172799D01*
X126218Y172471D01*
X126350Y172153D01*
X126508Y171848D01*
X126693Y171559D01*
X126902Y171286D01*
X127135Y171032D01*
X127388Y170800D01*
X127661Y170591D01*
X127951Y170406D01*
X128256Y170247D01*
X128574Y170116D01*
X128901Y170012D01*
X129237Y169938D01*
X129578Y169893D01*
X129921Y169878D01*
X130265Y169893D01*
X130606Y169938D01*
X130941Y170012D01*
X131269Y170116D01*
X131587Y170247D01*
X131892Y170406D01*
X132182Y170591D01*
X132454Y170800D01*
X132708Y171032D01*
X132940Y171286D01*
X133149Y171559D01*
X133334Y171848D01*
X133493Y172153D01*
X133624Y172471D01*
X133728Y172799D01*
X133802Y173135D01*
X133847Y173475D01*
X133862Y173819D01*
X133847Y174162D01*
X133802Y174503D01*
X133728Y174839D01*
X133624Y175167D01*
X133493Y175484D01*
X133334Y175789D01*
X133149Y176079D01*
X132940Y176352D01*
X132708Y176605D01*
X132454Y176838D01*
X132182Y177047D01*
X131892Y177232D01*
X131587Y177390D01*
X131269Y177522D01*
X130941Y177625D01*
X130606Y177700D01*
X130265Y177745D01*
X129921Y177760D01*
D02*
G37*
G36*
X114450Y171264D02*
X114106Y171249D01*
X113765Y171204D01*
X113429Y171129D01*
X113102Y171026D01*
X112784Y170894D01*
X112479Y170736D01*
X112189Y170551D01*
X111916Y170342D01*
X111663Y170109D01*
X111431Y169856D01*
X111221Y169583D01*
X111037Y169293D01*
X110878Y168988D01*
X110746Y168671D01*
X110643Y168343D01*
X110569Y168007D01*
X110524Y167666D01*
X110509Y167323D01*
X110524Y166979D01*
X110569Y166639D01*
X110643Y166303D01*
X110746Y165975D01*
X110878Y165657D01*
X111037Y165352D01*
X111221Y165062D01*
X111431Y164790D01*
X111663Y164536D01*
X111916Y164304D01*
X112189Y164095D01*
X112479Y163910D01*
X112784Y163751D01*
X113102Y163620D01*
X113429Y163516D01*
X113765Y163442D01*
X114106Y163397D01*
X114450Y163382D01*
X114793Y163397D01*
X115134Y163442D01*
X115469Y163516D01*
X115797Y163620D01*
X116115Y163751D01*
X116420Y163910D01*
X116710Y164095D01*
X116982Y164304D01*
X117236Y164536D01*
X117468Y164790D01*
X117677Y165062D01*
X117862Y165352D01*
X118021Y165657D01*
X118152Y165975D01*
X118256Y166303D01*
X118330Y166639D01*
X118375Y166979D01*
X118390Y167323D01*
X118375Y167666D01*
X118330Y168007D01*
X118256Y168343D01*
X118152Y168671D01*
X118021Y168988D01*
X117862Y169293D01*
X117677Y169583D01*
X117468Y169856D01*
X117236Y170109D01*
X116982Y170342D01*
X116710Y170551D01*
X116420Y170736D01*
X116115Y170894D01*
X115797Y171026D01*
X115469Y171129D01*
X115134Y171204D01*
X114793Y171249D01*
X114450Y171264D01*
D02*
G37*
G36*
X69685Y166794D02*
X69464Y166782D01*
X69246Y166745D01*
X69034Y166684D01*
X68830Y166599D01*
X68636Y166492D01*
X68456Y166364D01*
X68291Y166217D01*
X68144Y166052D01*
X68112Y166008D01*
X53799D01*
X53614Y165993D01*
X53433Y165950D01*
X53261Y165878D01*
X53103Y165781D01*
X52961Y165661D01*
X49753Y162452D01*
X49632Y162311D01*
X49535Y162152D01*
X49464Y161980D01*
X49420Y161799D01*
X49406Y161614D01*
Y154526D01*
X49361Y154494D01*
X49196Y154347D01*
X49049Y154182D01*
X48921Y154002D01*
X48814Y153808D01*
X48730Y153604D01*
X48668Y153392D01*
X48631Y153173D01*
X48619Y152953D01*
X48631Y152732D01*
X48668Y152514D01*
X48730Y152302D01*
X48814Y152097D01*
X48921Y151904D01*
X49049Y151724D01*
X49196Y151559D01*
X49361Y151411D01*
X49542Y151283D01*
X49735Y151176D01*
X49939Y151092D01*
X50152Y151031D01*
X50370Y150994D01*
X50590Y150981D01*
X50811Y150994D01*
X51029Y151031D01*
X51242Y151092D01*
X51446Y151176D01*
X51639Y151283D01*
X51820Y151411D01*
X51985Y151559D01*
X52132Y151724D01*
X52260Y151904D01*
X52367Y152097D01*
X52451Y152302D01*
X52513Y152514D01*
X52550Y152732D01*
X52562Y152953D01*
X52550Y153173D01*
X52513Y153392D01*
X52451Y153604D01*
X52367Y153808D01*
X52260Y154002D01*
X52132Y154182D01*
X51985Y154347D01*
X51820Y154494D01*
X51775Y154526D01*
Y161123D01*
X54290Y163638D01*
X68112D01*
X68144Y163594D01*
X68291Y163429D01*
X68456Y163281D01*
X68636Y163153D01*
X68830Y163047D01*
X69034Y162962D01*
X69246Y162901D01*
X69464Y162864D01*
X69685Y162851D01*
X69906Y162864D01*
X70124Y162901D01*
X70336Y162962D01*
X70540Y163047D01*
X70734Y163153D01*
X70914Y163281D01*
X71079Y163429D01*
X71227Y163594D01*
X71354Y163774D01*
X71461Y163967D01*
X71546Y164172D01*
X71607Y164384D01*
X71644Y164602D01*
X71657Y164823D01*
X71644Y165044D01*
X71607Y165262D01*
X71546Y165474D01*
X71461Y165678D01*
X71354Y165872D01*
X71227Y166052D01*
X71079Y166217D01*
X70914Y166364D01*
X70734Y166492D01*
X70540Y166599D01*
X70336Y166684D01*
X70124Y166745D01*
X69906Y166782D01*
X69685Y166794D01*
D02*
G37*
G36*
X115237Y161181D02*
Y158110D01*
X118307D01*
X118256Y158343D01*
X118152Y158671D01*
X118021Y158988D01*
X117862Y159293D01*
X117677Y159583D01*
X117468Y159856D01*
X117236Y160109D01*
X116982Y160342D01*
X116710Y160551D01*
X116420Y160736D01*
X116115Y160894D01*
X115797Y161026D01*
X115469Y161129D01*
X115237Y161181D01*
D02*
G37*
G36*
X113662D02*
X113429Y161129D01*
X113102Y161026D01*
X112784Y160894D01*
X112479Y160736D01*
X112189Y160551D01*
X111916Y160342D01*
X111663Y160109D01*
X111431Y159856D01*
X111221Y159583D01*
X111037Y159293D01*
X110878Y158988D01*
X110746Y158671D01*
X110643Y158343D01*
X110591Y158110D01*
X113662D01*
Y161181D01*
D02*
G37*
G36*
X118307Y156535D02*
X115237D01*
Y153465D01*
X115469Y153516D01*
X115797Y153620D01*
X116115Y153751D01*
X116420Y153910D01*
X116710Y154095D01*
X116982Y154304D01*
X117236Y154536D01*
X117468Y154790D01*
X117677Y155062D01*
X117862Y155352D01*
X118021Y155657D01*
X118152Y155975D01*
X118256Y156303D01*
X118307Y156535D01*
D02*
G37*
G36*
X113662D02*
X110591D01*
X110643Y156303D01*
X110746Y155975D01*
X110878Y155657D01*
X111037Y155352D01*
X111221Y155062D01*
X111431Y154790D01*
X111663Y154536D01*
X111916Y154304D01*
X112189Y154095D01*
X112479Y153910D01*
X112784Y153751D01*
X113102Y153620D01*
X113429Y153516D01*
X113662Y153465D01*
Y156535D01*
D02*
G37*
G36*
X104449Y161264D02*
X104106Y161249D01*
X103765Y161204D01*
X103429Y161129D01*
X103102Y161026D01*
X102784Y160894D01*
X102479Y160736D01*
X102189Y160551D01*
X101916Y160342D01*
X101663Y160109D01*
X101431Y159856D01*
X101221Y159583D01*
X101037Y159293D01*
X100878Y158988D01*
X100746Y158671D01*
X100643Y158343D01*
X100569Y158007D01*
X100524Y157666D01*
X100509Y157323D01*
X100524Y156979D01*
X100569Y156639D01*
X100643Y156303D01*
X100746Y155975D01*
X100878Y155657D01*
X101037Y155352D01*
X101221Y155062D01*
X101431Y154790D01*
X101663Y154536D01*
X101916Y154304D01*
X102189Y154095D01*
X102479Y153910D01*
X102784Y153751D01*
X103102Y153620D01*
X103429Y153516D01*
X103765Y153442D01*
X104106Y153397D01*
X104449Y153382D01*
X104793Y153397D01*
X105134Y153442D01*
X105469Y153516D01*
X105797Y153620D01*
X106115Y153751D01*
X106420Y153910D01*
X106710Y154095D01*
X106983Y154304D01*
X107236Y154536D01*
X107468Y154790D01*
X107677Y155062D01*
X107862Y155352D01*
X108021Y155657D01*
X108152Y155975D01*
X108256Y156303D01*
X108330Y156639D01*
X108375Y156979D01*
X108390Y157323D01*
X108375Y157666D01*
X108330Y158007D01*
X108256Y158343D01*
X108152Y158671D01*
X108021Y158988D01*
X107862Y159293D01*
X107677Y159583D01*
X107468Y159856D01*
X107236Y160109D01*
X106983Y160342D01*
X106710Y160551D01*
X106420Y160736D01*
X106115Y160894D01*
X105797Y161026D01*
X105469Y161129D01*
X105134Y161204D01*
X104793Y161249D01*
X104449Y161264D01*
D02*
G37*
G36*
X247126Y161814D02*
X246817Y161801D01*
X246510Y161760D01*
X246208Y161694D01*
X245913Y161600D01*
X245627Y161482D01*
X245353Y161339D01*
X245092Y161173D01*
X244846Y160985D01*
X244618Y160776D01*
X244409Y160547D01*
X244221Y160302D01*
X244055Y160041D01*
X243912Y159767D01*
X243793Y159481D01*
X243700Y159186D01*
X243633Y158884D01*
X243593Y158577D01*
X243579Y158268D01*
Y156693D01*
X243593Y156384D01*
X243633Y156077D01*
X243700Y155775D01*
X243793Y155480D01*
X243912Y155194D01*
X244055Y154920D01*
X244221Y154659D01*
X244409Y154413D01*
X244618Y154185D01*
X244846Y153976D01*
X245092Y153788D01*
X245353Y153621D01*
X245627Y153479D01*
X245913Y153360D01*
X246208Y153267D01*
X246510Y153200D01*
X246817Y153160D01*
X247126Y153146D01*
X247435Y153160D01*
X247742Y153200D01*
X248044Y153267D01*
X248339Y153360D01*
X248625Y153479D01*
X248899Y153621D01*
X249160Y153788D01*
X249406Y153976D01*
X249634Y154185D01*
X249843Y154413D01*
X250031Y154659D01*
X250198Y154920D01*
X250340Y155194D01*
X250459Y155480D01*
X250552Y155775D01*
X250619Y156077D01*
X250659Y156384D01*
X250673Y156693D01*
Y158268D01*
X250659Y158577D01*
X250619Y158884D01*
X250552Y159186D01*
X250459Y159481D01*
X250340Y159767D01*
X250198Y160041D01*
X250031Y160302D01*
X249843Y160547D01*
X249634Y160776D01*
X249406Y160985D01*
X249160Y161173D01*
X248899Y161339D01*
X248625Y161482D01*
X248339Y161600D01*
X248044Y161694D01*
X247742Y161760D01*
X247435Y161801D01*
X247126Y161814D01*
D02*
G37*
G36*
X238504Y161814D02*
X235748D01*
X235505Y161801D01*
X235265Y161760D01*
X235032Y161693D01*
X234807Y161600D01*
X234594Y161482D01*
X234396Y161341D01*
X234214Y161179D01*
X234052Y160998D01*
X233912Y160800D01*
X233794Y160587D01*
X233701Y160362D01*
X233634Y160128D01*
X233593Y159889D01*
X233579Y159646D01*
Y155315D01*
X233593Y155072D01*
X233634Y154832D01*
X233701Y154599D01*
X233794Y154374D01*
X233912Y154161D01*
X234052Y153963D01*
X234214Y153781D01*
X234396Y153619D01*
X234594Y153479D01*
X234807Y153361D01*
X235032Y153268D01*
X235265Y153201D01*
X235505Y153160D01*
X235748Y153146D01*
X238504D01*
X238747Y153160D01*
X238986Y153201D01*
X239220Y153268D01*
X239445Y153361D01*
X239658Y153479D01*
X239856Y153619D01*
X240037Y153781D01*
X240199Y153963D01*
X240340Y154161D01*
X240458Y154374D01*
X240551Y154599D01*
X240618Y154832D01*
X240659Y155072D01*
X240673Y155315D01*
Y159646D01*
X240659Y159889D01*
X240618Y160128D01*
X240551Y160362D01*
X240458Y160587D01*
X240340Y160800D01*
X240199Y160998D01*
X240037Y161179D01*
X239856Y161341D01*
X239658Y161482D01*
X239445Y161600D01*
X239220Y161693D01*
X238986Y161760D01*
X238747Y161801D01*
X238504Y161814D01*
D02*
G37*
G36*
X129921Y158075D02*
X129578Y158060D01*
X129237Y158015D01*
X128901Y157940D01*
X128574Y157837D01*
X128256Y157705D01*
X127951Y157547D01*
X127661Y157362D01*
X127388Y157153D01*
X127135Y156920D01*
X126902Y156667D01*
X126693Y156394D01*
X126508Y156104D01*
X126350Y155799D01*
X126218Y155482D01*
X126115Y155154D01*
X126040Y154818D01*
X125996Y154477D01*
X125980Y154134D01*
X125996Y153790D01*
X126040Y153450D01*
X126115Y153114D01*
X126218Y152786D01*
X126350Y152468D01*
X126508Y152164D01*
X126693Y151874D01*
X126902Y151601D01*
X127135Y151347D01*
X127388Y151115D01*
X127661Y150906D01*
X127951Y150721D01*
X128256Y150562D01*
X128574Y150431D01*
X128901Y150327D01*
X129237Y150253D01*
X129578Y150208D01*
X129921Y150193D01*
X130265Y150208D01*
X130606Y150253D01*
X130941Y150327D01*
X131269Y150431D01*
X131587Y150562D01*
X131892Y150721D01*
X132182Y150906D01*
X132454Y151115D01*
X132708Y151347D01*
X132940Y151601D01*
X133149Y151874D01*
X133334Y152164D01*
X133493Y152468D01*
X133624Y152786D01*
X133728Y153114D01*
X133802Y153450D01*
X133847Y153790D01*
X133862Y154134D01*
X133847Y154477D01*
X133802Y154818D01*
X133728Y155154D01*
X133624Y155482D01*
X133493Y155799D01*
X133334Y156104D01*
X133149Y156394D01*
X132940Y156667D01*
X132708Y156920D01*
X132454Y157153D01*
X132182Y157362D01*
X131892Y157547D01*
X131587Y157705D01*
X131269Y157837D01*
X130941Y157940D01*
X130606Y158015D01*
X130265Y158060D01*
X129921Y158075D01*
D02*
G37*
G36*
X119095Y137798D02*
X118874Y137786D01*
X118656Y137749D01*
X118443Y137688D01*
X118239Y137603D01*
X118045Y137496D01*
X117865Y137368D01*
X117700Y137221D01*
X117553Y137056D01*
X117425Y136876D01*
X117318Y136682D01*
X117234Y136478D01*
X117172Y136266D01*
X117135Y136047D01*
X117123Y135827D01*
X117135Y135606D01*
X117144Y135552D01*
X113532Y131940D01*
X113412Y131799D01*
X113314Y131640D01*
X113243Y131468D01*
X113200Y131288D01*
X113185Y131102D01*
Y124506D01*
X100275Y111596D01*
X100221Y111605D01*
X100000Y111617D01*
X99779Y111605D01*
X99561Y111568D01*
X99349Y111507D01*
X99145Y111422D01*
X98951Y111315D01*
X98771Y111187D01*
X98606Y111040D01*
X98458Y110875D01*
X98331Y110695D01*
X98224Y110501D01*
X98139Y110297D01*
X98078Y110084D01*
X98041Y109866D01*
X98028Y109646D01*
X98041Y109425D01*
X98078Y109207D01*
X98139Y108994D01*
X98224Y108790D01*
X98331Y108597D01*
X98458Y108416D01*
X98606Y108252D01*
X98771Y108104D01*
X98815Y108073D01*
Y101475D01*
X93210Y95870D01*
X83955D01*
X82856Y96969D01*
X82865Y97023D01*
X82877Y97244D01*
X82865Y97465D01*
X82828Y97683D01*
X82766Y97895D01*
X82682Y98099D01*
X82575Y98293D01*
X82447Y98473D01*
X82300Y98638D01*
X82135Y98786D01*
X81954Y98914D01*
X81761Y99020D01*
X81557Y99105D01*
X81344Y99166D01*
X81126Y99203D01*
X80905Y99216D01*
X80685Y99203D01*
X80467Y99166D01*
X80254Y99105D01*
X80050Y99020D01*
X79857Y98914D01*
X79676Y98786D01*
X79511Y98638D01*
X79364Y98473D01*
X79236Y98293D01*
X79129Y98099D01*
X79045Y97895D01*
X78983Y97683D01*
X78946Y97465D01*
X78934Y97244D01*
X78946Y97023D01*
X78983Y96805D01*
X79045Y96593D01*
X79129Y96389D01*
X79236Y96195D01*
X79364Y96015D01*
X79511Y95850D01*
X79676Y95703D01*
X79857Y95575D01*
X80050Y95468D01*
X80254Y95383D01*
X80467Y95322D01*
X80685Y95285D01*
X80905Y95272D01*
X81126Y95285D01*
X81180Y95294D01*
X82627Y93847D01*
X82768Y93727D01*
X82927Y93629D01*
X83099Y93558D01*
X83279Y93515D01*
X83465Y93500D01*
X93701D01*
X93886Y93515D01*
X94067Y93558D01*
X94239Y93629D01*
X94397Y93727D01*
X94538Y93847D01*
X100838Y100146D01*
X100959Y100288D01*
X101056Y100446D01*
X101127Y100618D01*
X101170Y100799D01*
X101185Y100984D01*
Y108073D01*
X101229Y108104D01*
X101394Y108252D01*
X101541Y108416D01*
X101669Y108597D01*
X101776Y108790D01*
X101861Y108994D01*
X101922Y109207D01*
X101959Y109425D01*
X101972Y109646D01*
X101959Y109866D01*
X101950Y109920D01*
X115208Y123178D01*
X115329Y123319D01*
X115426Y123478D01*
X115497Y123650D01*
X115540Y123830D01*
X115555Y124016D01*
Y130612D01*
X118820Y133877D01*
X118874Y133868D01*
X119095Y133855D01*
X119315Y133868D01*
X119533Y133905D01*
X119746Y133966D01*
X119950Y134050D01*
X120143Y134157D01*
X120324Y134285D01*
X120489Y134433D01*
X120636Y134598D01*
X120764Y134778D01*
X120871Y134971D01*
X120955Y135176D01*
X121017Y135388D01*
X121054Y135606D01*
X121066Y135827D01*
X121054Y136047D01*
X121017Y136266D01*
X120955Y136478D01*
X120871Y136682D01*
X120764Y136876D01*
X120636Y137056D01*
X120489Y137221D01*
X120324Y137368D01*
X120143Y137496D01*
X119950Y137603D01*
X119746Y137688D01*
X119533Y137749D01*
X119315Y137786D01*
X119095Y137798D01*
D02*
G37*
G36*
X103740Y130712D02*
X103519Y130699D01*
X103301Y130662D01*
X103089Y130601D01*
X102885Y130517D01*
X102691Y130410D01*
X102511Y130282D01*
X102346Y130134D01*
X102199Y129969D01*
X102071Y129789D01*
X101964Y129596D01*
X101879Y129391D01*
X101818Y129179D01*
X101781Y128961D01*
X101769Y128740D01*
X101781Y128519D01*
X101818Y128301D01*
X101819Y128298D01*
X96360Y122838D01*
X94290D01*
X94258Y122883D01*
X94111Y123048D01*
X93946Y123195D01*
X93765Y123323D01*
X93572Y123430D01*
X93368Y123514D01*
X93155Y123576D01*
X92937Y123613D01*
X92716Y123625D01*
X92496Y123613D01*
X92278Y123576D01*
X92065Y123514D01*
X91861Y123430D01*
X91668Y123323D01*
X91487Y123195D01*
X91322Y123048D01*
X91175Y122883D01*
X91144Y122838D01*
X40353D01*
X40321Y122883D01*
X40174Y123048D01*
X40009Y123195D01*
X39829Y123323D01*
X39635Y123430D01*
X39431Y123514D01*
X39218Y123576D01*
X39000Y123613D01*
X38780Y123625D01*
X38559Y123613D01*
X38341Y123576D01*
X38128Y123514D01*
X37924Y123430D01*
X37731Y123323D01*
X37550Y123195D01*
X37385Y123048D01*
X37238Y122883D01*
X37110Y122703D01*
X37003Y122509D01*
X36919Y122305D01*
X36857Y122092D01*
X36820Y121874D01*
X36808Y121653D01*
X36820Y121433D01*
X36857Y121215D01*
X36919Y121002D01*
X37003Y120798D01*
X37110Y120605D01*
X37238Y120424D01*
X37385Y120259D01*
X37550Y120112D01*
X37731Y119984D01*
X37924Y119877D01*
X38128Y119793D01*
X38341Y119731D01*
X38559Y119694D01*
X38780Y119682D01*
X39000Y119694D01*
X39218Y119731D01*
X39431Y119793D01*
X39635Y119877D01*
X39829Y119984D01*
X40009Y120112D01*
X40174Y120259D01*
X40321Y120424D01*
X40353Y120469D01*
X91144D01*
X91175Y120424D01*
X91322Y120259D01*
X91487Y120112D01*
X91668Y119984D01*
X91861Y119877D01*
X92065Y119793D01*
X92278Y119731D01*
X92496Y119694D01*
X92716Y119682D01*
X92937Y119694D01*
X93155Y119731D01*
X93368Y119793D01*
X93572Y119877D01*
X93765Y119984D01*
X93946Y120112D01*
X94111Y120259D01*
X94258Y120424D01*
X94290Y120469D01*
X96850D01*
X97036Y120483D01*
X97216Y120527D01*
X97388Y120598D01*
X97547Y120695D01*
X97688Y120816D01*
X103646Y126774D01*
X103740Y126769D01*
X103961Y126781D01*
X104179Y126818D01*
X104391Y126879D01*
X104596Y126964D01*
X104789Y127071D01*
X104969Y127199D01*
X105134Y127346D01*
X105282Y127511D01*
X105410Y127691D01*
X105517Y127885D01*
X105601Y128089D01*
X105662Y128301D01*
X105699Y128519D01*
X105712Y128740D01*
X105699Y128961D01*
X105662Y129179D01*
X105601Y129391D01*
X105517Y129596D01*
X105410Y129789D01*
X105282Y129969D01*
X105134Y130134D01*
X104969Y130282D01*
X104789Y130410D01*
X104596Y130517D01*
X104391Y130601D01*
X104179Y130662D01*
X103961Y130699D01*
X103740Y130712D01*
D02*
G37*
G36*
X129921Y126185D02*
X129578Y126170D01*
X129237Y126125D01*
X128901Y126051D01*
X128574Y125947D01*
X128256Y125816D01*
X127951Y125657D01*
X127661Y125472D01*
X127388Y125263D01*
X127135Y125031D01*
X126902Y124777D01*
X126693Y124504D01*
X126508Y124214D01*
X126350Y123909D01*
X126218Y123592D01*
X126115Y123264D01*
X126040Y122928D01*
X125996Y122588D01*
X125980Y122244D01*
X125996Y121901D01*
X126040Y121560D01*
X126115Y121224D01*
X126218Y120896D01*
X126350Y120579D01*
X126508Y120274D01*
X126693Y119984D01*
X126902Y119711D01*
X127135Y119458D01*
X127388Y119225D01*
X127661Y119016D01*
X127951Y118831D01*
X128256Y118673D01*
X128574Y118541D01*
X128901Y118438D01*
X129237Y118363D01*
X129578Y118318D01*
X129921Y118303D01*
X130265Y118318D01*
X130606Y118363D01*
X130941Y118438D01*
X131269Y118541D01*
X131587Y118673D01*
X131892Y118831D01*
X132182Y119016D01*
X132454Y119225D01*
X132708Y119458D01*
X132940Y119711D01*
X133149Y119984D01*
X133334Y120274D01*
X133493Y120579D01*
X133624Y120896D01*
X133728Y121224D01*
X133802Y121560D01*
X133847Y121901D01*
X133862Y122244D01*
X133847Y122588D01*
X133802Y122928D01*
X133728Y123264D01*
X133624Y123592D01*
X133493Y123909D01*
X133334Y124214D01*
X133149Y124504D01*
X132940Y124777D01*
X132708Y125031D01*
X132454Y125263D01*
X132182Y125472D01*
X131892Y125657D01*
X131587Y125816D01*
X131269Y125947D01*
X130941Y126051D01*
X130606Y126125D01*
X130265Y126170D01*
X129921Y126185D01*
D02*
G37*
G36*
X18504Y167326D02*
X18283Y167314D01*
X18065Y167277D01*
X17853Y167215D01*
X17649Y167131D01*
X17455Y167024D01*
X17275Y166896D01*
X17110Y166748D01*
X16962Y166584D01*
X16835Y166403D01*
X16728Y166210D01*
X16643Y166006D01*
X16582Y165793D01*
X16545Y165575D01*
X16532Y165354D01*
X16545Y165134D01*
X16582Y164916D01*
X16643Y164703D01*
X16728Y164499D01*
X16835Y164305D01*
X16962Y164125D01*
X17110Y163960D01*
X17275Y163813D01*
X17455Y163685D01*
X17649Y163578D01*
X17853Y163493D01*
X18065Y163432D01*
X18283Y163395D01*
X18504Y163383D01*
X18725Y163395D01*
X18943Y163432D01*
X19155Y163493D01*
X19359Y163578D01*
X19553Y163685D01*
X19733Y163813D01*
X19898Y163960D01*
X20045Y164125D01*
X20077Y164170D01*
X30612D01*
X48640Y146141D01*
X48631Y146087D01*
X48619Y145866D01*
X48631Y145645D01*
X48668Y145428D01*
X48730Y145215D01*
X48814Y145011D01*
X48921Y144817D01*
X49049Y144637D01*
X49196Y144472D01*
X49361Y144325D01*
X49542Y144197D01*
X49735Y144090D01*
X49939Y144005D01*
X50152Y143944D01*
X50370Y143907D01*
X50590Y143895D01*
X50811Y143907D01*
X51029Y143944D01*
X51242Y144005D01*
X51446Y144090D01*
X51639Y144197D01*
X51820Y144325D01*
X51985Y144472D01*
X52132Y144637D01*
X52163Y144682D01*
X102265D01*
X106689Y140257D01*
Y125491D01*
X94832Y113633D01*
X94711Y113492D01*
X94614Y113333D01*
X94542Y113161D01*
X94499Y112981D01*
X94485Y112795D01*
Y107479D01*
X94440Y107447D01*
X94275Y107300D01*
X94128Y107135D01*
X94000Y106955D01*
X93893Y106761D01*
X93808Y106557D01*
X93747Y106344D01*
X93710Y106126D01*
X93698Y105905D01*
X93710Y105685D01*
X93747Y105467D01*
X93808Y105254D01*
X93893Y105050D01*
X94000Y104857D01*
X94128Y104676D01*
X94275Y104511D01*
X94440Y104364D01*
X94620Y104236D01*
X94814Y104129D01*
X95018Y104045D01*
X95231Y103983D01*
X95448Y103946D01*
X95669Y103934D01*
X95890Y103946D01*
X96108Y103983D01*
X96320Y104045D01*
X96525Y104129D01*
X96718Y104236D01*
X96899Y104364D01*
X97063Y104511D01*
X97211Y104676D01*
X97339Y104857D01*
X97446Y105050D01*
X97530Y105254D01*
X97592Y105467D01*
X97628Y105685D01*
X97641Y105905D01*
X97628Y106126D01*
X97592Y106344D01*
X97530Y106557D01*
X97446Y106761D01*
X97339Y106955D01*
X97211Y107135D01*
X97063Y107300D01*
X96899Y107447D01*
X96854Y107479D01*
Y112304D01*
X108712Y124162D01*
X108833Y124304D01*
X108930Y124462D01*
X109001Y124634D01*
X109044Y124815D01*
X109059Y125000D01*
Y140748D01*
X109044Y140933D01*
X109001Y141114D01*
X108930Y141286D01*
X108833Y141444D01*
X108712Y141586D01*
X103594Y146704D01*
X103452Y146825D01*
X103294Y146922D01*
X103122Y146993D01*
X102941Y147036D01*
X102756Y147051D01*
X52163D01*
X52132Y147096D01*
X51985Y147260D01*
X51820Y147408D01*
X51639Y147536D01*
X51446Y147643D01*
X51242Y147727D01*
X51029Y147789D01*
X50811Y147826D01*
X50590Y147838D01*
X50370Y147826D01*
X50316Y147816D01*
X31940Y166192D01*
X31799Y166313D01*
X31640Y166410D01*
X31468Y166481D01*
X31288Y166525D01*
X31102Y166539D01*
X20077D01*
X20045Y166584D01*
X19898Y166748D01*
X19733Y166896D01*
X19553Y167024D01*
X19359Y167131D01*
X19155Y167215D01*
X18943Y167277D01*
X18725Y167314D01*
X18504Y167326D01*
D02*
G37*
G36*
X130709Y106417D02*
Y103347D01*
X133779D01*
X133728Y103579D01*
X133624Y103907D01*
X133493Y104225D01*
X133334Y104529D01*
X133149Y104819D01*
X132940Y105092D01*
X132708Y105346D01*
X132454Y105578D01*
X132182Y105787D01*
X131892Y105972D01*
X131587Y106131D01*
X131269Y106262D01*
X130941Y106366D01*
X130709Y106417D01*
D02*
G37*
G36*
X129134D02*
X128901Y106366D01*
X128574Y106262D01*
X128256Y106131D01*
X127951Y105972D01*
X127661Y105787D01*
X127388Y105578D01*
X127135Y105346D01*
X126902Y105092D01*
X126693Y104819D01*
X126508Y104529D01*
X126350Y104225D01*
X126218Y103907D01*
X126115Y103579D01*
X126063Y103347D01*
X129134D01*
Y106417D01*
D02*
G37*
G36*
X133779Y101772D02*
X130709D01*
Y98701D01*
X130941Y98753D01*
X131269Y98856D01*
X131587Y98988D01*
X131892Y99146D01*
X132182Y99331D01*
X132454Y99540D01*
X132708Y99773D01*
X132940Y100026D01*
X133149Y100299D01*
X133334Y100589D01*
X133493Y100894D01*
X133624Y101211D01*
X133728Y101539D01*
X133779Y101772D01*
D02*
G37*
G36*
X129134D02*
X126063D01*
X126115Y101539D01*
X126218Y101211D01*
X126350Y100894D01*
X126508Y100589D01*
X126693Y100299D01*
X126902Y100026D01*
X127135Y99773D01*
X127388Y99540D01*
X127661Y99331D01*
X127951Y99146D01*
X128256Y98988D01*
X128574Y98856D01*
X128901Y98753D01*
X129134Y98701D01*
Y101772D01*
D02*
G37*
G36*
X18504Y159058D02*
X18283Y159046D01*
X18065Y159009D01*
X17853Y158948D01*
X17649Y158863D01*
X17455Y158756D01*
X17275Y158628D01*
X17110Y158481D01*
X16962Y158316D01*
X16835Y158136D01*
X16728Y157942D01*
X16643Y157738D01*
X16582Y157525D01*
X16545Y157307D01*
X16532Y157087D01*
X16545Y156866D01*
X16582Y156648D01*
X16643Y156435D01*
X16728Y156231D01*
X16835Y156038D01*
X16962Y155857D01*
X17110Y155693D01*
X17275Y155545D01*
X17455Y155417D01*
X17649Y155310D01*
X17853Y155226D01*
X18065Y155164D01*
X18283Y155127D01*
X18504Y155115D01*
X18725Y155127D01*
X18778Y155137D01*
X33067Y140848D01*
Y106496D01*
X33082Y106311D01*
X33125Y106130D01*
X33196Y105958D01*
X33294Y105800D01*
X33414Y105658D01*
X44241Y94832D01*
X44382Y94711D01*
X44541Y94614D01*
X44713Y94542D01*
X44893Y94499D01*
X45079Y94485D01*
X64566D01*
X64752Y94499D01*
X64932Y94542D01*
X65104Y94614D01*
X65263Y94711D01*
X65404Y94832D01*
X68229Y97657D01*
X68283Y97647D01*
X68504Y97635D01*
X68724Y97647D01*
X68942Y97685D01*
X69155Y97746D01*
X69359Y97830D01*
X69553Y97937D01*
X69733Y98065D01*
X69898Y98212D01*
X70045Y98377D01*
X70173Y98558D01*
X70280Y98751D01*
X70365Y98955D01*
X70426Y99168D01*
X70463Y99386D01*
X70475Y99607D01*
X70463Y99827D01*
X70426Y100045D01*
X70365Y100258D01*
X70280Y100462D01*
X70173Y100656D01*
X70045Y100836D01*
X69898Y101001D01*
X69733Y101148D01*
X69553Y101276D01*
X69359Y101383D01*
X69155Y101468D01*
X68942Y101529D01*
X68724Y101566D01*
X68504Y101578D01*
X68283Y101566D01*
X68065Y101529D01*
X67852Y101468D01*
X67648Y101383D01*
X67455Y101276D01*
X67274Y101148D01*
X67110Y101001D01*
X66962Y100836D01*
X66834Y100656D01*
X66727Y100462D01*
X66643Y100258D01*
X66581Y100045D01*
X66544Y99827D01*
X66532Y99607D01*
X66544Y99386D01*
X66554Y99332D01*
X64076Y96854D01*
X45570D01*
X35437Y106987D01*
Y141339D01*
X35422Y141524D01*
X35379Y141705D01*
X35308Y141876D01*
X35210Y142035D01*
X35090Y142176D01*
X20454Y156812D01*
X20463Y156866D01*
X20475Y157087D01*
X20463Y157307D01*
X20426Y157525D01*
X20365Y157738D01*
X20280Y157942D01*
X20173Y158136D01*
X20045Y158316D01*
X19898Y158481D01*
X19733Y158628D01*
X19553Y158756D01*
X19359Y158863D01*
X19155Y158948D01*
X18943Y159009D01*
X18725Y159046D01*
X18504Y159058D01*
D02*
G37*
G36*
X45079Y112208D02*
X44858Y112195D01*
X44640Y112158D01*
X44428Y112097D01*
X44223Y112013D01*
X44030Y111906D01*
X43850Y111778D01*
X43685Y111630D01*
X43537Y111466D01*
X43409Y111285D01*
X43302Y111092D01*
X43218Y110887D01*
X43157Y110675D01*
X43119Y110457D01*
X43107Y110236D01*
X43119Y110015D01*
X43157Y109798D01*
X43218Y109585D01*
X43302Y109381D01*
X43409Y109187D01*
X43537Y109007D01*
X43685Y108842D01*
X43850Y108695D01*
X43894Y108663D01*
Y105315D01*
X43909Y105130D01*
X43952Y104949D01*
X44023Y104777D01*
X44120Y104619D01*
X44241Y104477D01*
X46406Y102312D01*
X46548Y102191D01*
X46706Y102094D01*
X46878Y102023D01*
X47059Y101979D01*
X47244Y101965D01*
X58661D01*
X58847Y101979D01*
X59027Y102023D01*
X59199Y102094D01*
X59358Y102191D01*
X59499Y102312D01*
X62105Y104918D01*
X74903D01*
X79280Y100540D01*
X79422Y100419D01*
X79580Y100322D01*
X79752Y100251D01*
X79933Y100208D01*
X80118Y100193D01*
X88879D01*
X89782Y99290D01*
X89773Y99237D01*
X89761Y99016D01*
X89773Y98795D01*
X89810Y98577D01*
X89871Y98365D01*
X89956Y98160D01*
X90063Y97967D01*
X90191Y97786D01*
X90338Y97622D01*
X90503Y97474D01*
X90683Y97346D01*
X90877Y97239D01*
X91081Y97155D01*
X91294Y97094D01*
X91511Y97057D01*
X91732Y97044D01*
X91953Y97057D01*
X92171Y97094D01*
X92383Y97155D01*
X92588Y97239D01*
X92781Y97346D01*
X92962Y97474D01*
X93126Y97622D01*
X93274Y97786D01*
X93402Y97967D01*
X93509Y98160D01*
X93593Y98365D01*
X93654Y98577D01*
X93691Y98795D01*
X93704Y99016D01*
X93691Y99237D01*
X93654Y99454D01*
X93593Y99667D01*
X93509Y99871D01*
X93402Y100065D01*
X93274Y100245D01*
X93126Y100410D01*
X92962Y100557D01*
X92781Y100685D01*
X92588Y100792D01*
X92383Y100877D01*
X92171Y100938D01*
X91953Y100975D01*
X91732Y100987D01*
X91511Y100975D01*
X91458Y100966D01*
X90208Y102216D01*
X90066Y102336D01*
X89908Y102434D01*
X89736Y102505D01*
X89555Y102548D01*
X89370Y102563D01*
X80609D01*
X76231Y106940D01*
X76090Y107061D01*
X75932Y107158D01*
X75760Y107229D01*
X75579Y107273D01*
X75394Y107287D01*
X61614D01*
X61429Y107273D01*
X61248Y107229D01*
X61076Y107158D01*
X60918Y107061D01*
X60776Y106940D01*
X58171Y104334D01*
X47735D01*
X46264Y105806D01*
Y108663D01*
X46308Y108695D01*
X46473Y108842D01*
X46620Y109007D01*
X46748Y109187D01*
X46855Y109381D01*
X46940Y109585D01*
X47001Y109798D01*
X47038Y110015D01*
X47050Y110236D01*
X47038Y110457D01*
X47001Y110675D01*
X46940Y110887D01*
X46855Y111092D01*
X46748Y111285D01*
X46620Y111466D01*
X46473Y111630D01*
X46308Y111778D01*
X46128Y111906D01*
X45934Y112013D01*
X45730Y112097D01*
X45518Y112158D01*
X45300Y112195D01*
X45079Y112208D01*
D02*
G37*
G36*
X104527Y105121D02*
X104307Y105109D01*
X104089Y105072D01*
X103876Y105010D01*
X103672Y104926D01*
X103478Y104819D01*
X103298Y104691D01*
X103133Y104543D01*
X102986Y104379D01*
X102858Y104198D01*
X102751Y104005D01*
X102666Y103801D01*
X102605Y103588D01*
X102568Y103370D01*
X102556Y103149D01*
X102568Y102929D01*
X102605Y102711D01*
X102666Y102498D01*
X102751Y102294D01*
X102858Y102101D01*
X102986Y101920D01*
X103133Y101755D01*
X103298Y101608D01*
X103343Y101576D01*
Y100490D01*
X94785Y91933D01*
X80609D01*
X79480Y93062D01*
X79481Y93065D01*
X79518Y93283D01*
X79531Y93504D01*
X79518Y93725D01*
X79481Y93943D01*
X79420Y94155D01*
X79335Y94359D01*
X79229Y94553D01*
X79101Y94733D01*
X78953Y94898D01*
X78788Y95045D01*
X78608Y95173D01*
X78414Y95280D01*
X78210Y95365D01*
X77998Y95426D01*
X77780Y95463D01*
X77559Y95476D01*
X77338Y95463D01*
X77120Y95426D01*
X76908Y95365D01*
X76704Y95280D01*
X76510Y95173D01*
X76330Y95045D01*
X76165Y94898D01*
X76018Y94733D01*
X75890Y94553D01*
X75783Y94359D01*
X75698Y94155D01*
X75637Y93943D01*
X75600Y93725D01*
X75587Y93504D01*
X75600Y93283D01*
X75637Y93065D01*
X75698Y92853D01*
X75783Y92649D01*
X75890Y92455D01*
X76018Y92275D01*
X76165Y92110D01*
X76330Y91962D01*
X76510Y91834D01*
X76704Y91728D01*
X76908Y91643D01*
X77120Y91582D01*
X77338Y91545D01*
X77559Y91532D01*
X77653Y91538D01*
X79280Y89910D01*
X79422Y89789D01*
X79580Y89692D01*
X79752Y89621D01*
X79933Y89578D01*
X80118Y89563D01*
X95276D01*
X95461Y89578D01*
X95642Y89621D01*
X95814Y89692D01*
X95972Y89789D01*
X96113Y89910D01*
X105365Y99162D01*
X105486Y99303D01*
X105583Y99462D01*
X105654Y99634D01*
X105698Y99814D01*
X105712Y100000D01*
Y101576D01*
X105757Y101608D01*
X105921Y101755D01*
X106069Y101920D01*
X106197Y102101D01*
X106304Y102294D01*
X106388Y102498D01*
X106449Y102711D01*
X106487Y102929D01*
X106499Y103149D01*
X106487Y103370D01*
X106449Y103588D01*
X106388Y103801D01*
X106304Y104005D01*
X106197Y104198D01*
X106069Y104379D01*
X105921Y104543D01*
X105757Y104691D01*
X105576Y104819D01*
X105383Y104926D01*
X105178Y105010D01*
X104966Y105072D01*
X104748Y105109D01*
X104527Y105121D01*
D02*
G37*
G36*
X224797Y192129D02*
X224410D01*
X145669Y192129D01*
X145282D01*
X145199Y192124D01*
X145116Y192122D01*
X145088Y192118D01*
X145061Y192117D01*
X144979Y192103D01*
X144897Y192091D01*
X144136Y191940D01*
X144056Y191919D01*
X143975Y191901D01*
X143949Y191892D01*
X143922Y191885D01*
X143845Y191855D01*
X143766Y191828D01*
X143050Y191531D01*
X142975Y191495D01*
X142900Y191461D01*
X142876Y191447D01*
X142851Y191435D01*
X142780Y191391D01*
X142709Y191349D01*
X142064Y190918D01*
X141998Y190868D01*
X141930Y190820D01*
X141910Y190802D01*
X141888Y190785D01*
X141827Y190728D01*
X141765Y190673D01*
X141217Y190124D01*
X141162Y190062D01*
X141105Y190002D01*
X141088Y189980D01*
X141070Y189959D01*
X141022Y189892D01*
X140972Y189825D01*
X140541Y189181D01*
X140499Y189109D01*
X140455Y189039D01*
X140443Y189014D01*
X140429Y188990D01*
X140395Y188915D01*
X140359Y188840D01*
X140062Y188123D01*
X140035Y188045D01*
X140005Y187968D01*
X139998Y187941D01*
X139989Y187915D01*
X139971Y187834D01*
X139950Y187753D01*
X139799Y186993D01*
X139787Y186911D01*
X139773Y186829D01*
X139771Y186801D01*
X139768Y186774D01*
X139765Y186691D01*
X139761Y186608D01*
X139761Y186220D01*
Y90158D01*
X139761Y90158D01*
Y89770D01*
X139765Y89687D01*
X139768Y89604D01*
X139771Y89577D01*
X139773Y89549D01*
X139787Y89467D01*
X139799Y89385D01*
X139950Y88625D01*
X139971Y88544D01*
X139989Y88463D01*
X139998Y88437D01*
X140005Y88410D01*
X140035Y88333D01*
X140062Y88255D01*
X140359Y87538D01*
X140395Y87463D01*
X140429Y87388D01*
X140443Y87364D01*
X140455Y87339D01*
X140499Y87269D01*
X140541Y87197D01*
X140972Y86552D01*
X141022Y86486D01*
X141070Y86418D01*
X141088Y86398D01*
X141105Y86376D01*
X141162Y86315D01*
X141217Y86254D01*
X141765Y85705D01*
X141827Y85650D01*
X141888Y85593D01*
X141910Y85576D01*
X141930Y85558D01*
X141998Y85510D01*
X142064Y85460D01*
X142709Y85029D01*
X142780Y84987D01*
X142851Y84943D01*
X142876Y84931D01*
X142900Y84917D01*
X142975Y84883D01*
X143050Y84847D01*
X143766Y84550D01*
X143845Y84523D01*
X143922Y84493D01*
X143949Y84486D01*
X143975Y84477D01*
X144056Y84459D01*
X144136Y84438D01*
X144897Y84287D01*
X144979Y84275D01*
X145061Y84261D01*
X145088Y84260D01*
X145116Y84256D01*
X145199Y84254D01*
X145282Y84249D01*
X224797D01*
X224880Y84254D01*
X224963Y84256D01*
X224990Y84260D01*
X225018Y84261D01*
X225100Y84275D01*
X225182Y84287D01*
X225942Y84438D01*
X226023Y84459D01*
X226104Y84477D01*
X226130Y84486D01*
X226156Y84493D01*
X226234Y84523D01*
X226312Y84550D01*
X227029Y84847D01*
X227104Y84883D01*
X227179Y84917D01*
X227203Y84931D01*
X227228Y84943D01*
X227298Y84987D01*
X227370Y85029D01*
X228014Y85460D01*
X228081Y85510D01*
X228148Y85558D01*
X228169Y85576D01*
X228191Y85593D01*
X228252Y85650D01*
X228313Y85705D01*
X228862Y86254D01*
X228917Y86315D01*
X228974Y86376D01*
X228991Y86398D01*
X229009Y86418D01*
X229057Y86486D01*
X229107Y86552D01*
X229538Y87197D01*
X229580Y87269D01*
X229624Y87339D01*
X229636Y87364D01*
X229650Y87388D01*
X229684Y87463D01*
X229720Y87538D01*
X230017Y88255D01*
X230044Y88333D01*
X230074Y88410D01*
X230081Y88437D01*
X230090Y88463D01*
X230108Y88544D01*
X230129Y88624D01*
X230280Y89385D01*
X230292Y89467D01*
X230306Y89549D01*
X230307Y89577D01*
X230311Y89604D01*
X230313Y89687D01*
X230318Y89770D01*
Y90158D01*
Y186221D01*
Y186608D01*
X230313Y186691D01*
X230311Y186774D01*
X230307Y186801D01*
X230306Y186829D01*
X230292Y186911D01*
X230280Y186993D01*
X230129Y187753D01*
X230108Y187834D01*
X230090Y187915D01*
X230081Y187941D01*
X230074Y187968D01*
X230044Y188045D01*
X230017Y188123D01*
X229720Y188840D01*
X229684Y188915D01*
X229650Y188990D01*
X229636Y189014D01*
X229624Y189039D01*
X229580Y189109D01*
X229538Y189181D01*
X229107Y189825D01*
X229057Y189892D01*
X229009Y189959D01*
X228991Y189980D01*
X228974Y190002D01*
X228917Y190063D01*
X228862Y190124D01*
X228313Y190673D01*
X228252Y190728D01*
X228191Y190785D01*
X228169Y190802D01*
X228148Y190820D01*
X228081Y190868D01*
X228014Y190918D01*
X227370Y191349D01*
X227298Y191391D01*
X227228Y191435D01*
X227203Y191447D01*
X227179Y191461D01*
X227104Y191495D01*
X227029Y191531D01*
X226312Y191828D01*
X226234Y191855D01*
X226157Y191885D01*
X226130Y191892D01*
X226104Y191901D01*
X226023Y191919D01*
X225942Y191940D01*
X225182Y192091D01*
X225100Y192103D01*
X225018Y192117D01*
X224990Y192118D01*
X224963Y192122D01*
X224880Y192124D01*
X224797Y192129D01*
D02*
G37*
G36*
X48819Y84649D02*
X48031D01*
Y81496D01*
X51185D01*
Y82284D01*
X51170Y82548D01*
X51126Y82810D01*
X51052Y83065D01*
X50950Y83310D01*
X50822Y83542D01*
X50669Y83759D01*
X50492Y83956D01*
X50294Y84133D01*
X50078Y84287D01*
X49845Y84415D01*
X49600Y84517D01*
X49345Y84590D01*
X49084Y84635D01*
X48819Y84649D01*
D02*
G37*
G36*
X46457D02*
X45669D01*
X45404Y84635D01*
X45143Y84590D01*
X44888Y84517D01*
X44643Y84415D01*
X44410Y84287D01*
X44194Y84133D01*
X43996Y83956D01*
X43819Y83759D01*
X43666Y83542D01*
X43538Y83310D01*
X43436Y83065D01*
X43363Y82810D01*
X43318Y82548D01*
X43303Y82284D01*
Y81496D01*
X46457D01*
Y84649D01*
D02*
G37*
G36*
X177684Y80712D02*
X176647D01*
X176610Y80710D01*
X176573Y80710D01*
X176500Y80704D01*
X176426Y80699D01*
X176390Y80693D01*
X176353Y80690D01*
X176281Y80675D01*
X176208Y80662D01*
X176173Y80652D01*
X176137Y80645D01*
X175135Y80376D01*
X175100Y80365D01*
X175065Y80356D01*
X174995Y80330D01*
X174925Y80307D01*
X174892Y80292D01*
X174857Y80279D01*
X174792Y80246D01*
X174724Y80215D01*
X174693Y80196D01*
X174660Y80179D01*
X173762Y79661D01*
X173731Y79641D01*
X173699Y79623D01*
X173639Y79580D01*
X173577Y79540D01*
X173549Y79516D01*
X173519Y79495D01*
X173464Y79446D01*
X173407Y79399D01*
X173381Y79372D01*
X173354Y79348D01*
X172621Y78615D01*
X172596Y78587D01*
X172570Y78562D01*
X172523Y78505D01*
X172474Y78450D01*
X172452Y78420D01*
X172429Y78391D01*
X172388Y78330D01*
X172346Y78269D01*
X172328Y78237D01*
X172308Y78206D01*
X171789Y77309D01*
X171773Y77276D01*
X171754Y77244D01*
X171723Y77177D01*
X171689Y77111D01*
X171677Y77077D01*
X171661Y77043D01*
X171638Y76973D01*
X171613Y76904D01*
X171604Y76868D01*
X171592Y76833D01*
X171324Y75832D01*
X171316Y75796D01*
X171306Y75760D01*
X171294Y75687D01*
X171279Y75615D01*
X171275Y75578D01*
X171269Y75542D01*
X171265Y75469D01*
X171258Y75395D01*
X171259Y75358D01*
X171257Y75322D01*
Y74803D01*
Y15748D01*
Y15230D01*
X171259Y15193D01*
X171258Y15156D01*
X171265Y15082D01*
X171269Y15009D01*
X171275Y14973D01*
X171279Y14936D01*
X171294Y14864D01*
X171306Y14791D01*
X171316Y14755D01*
X171324Y14719D01*
X171592Y13718D01*
X171604Y13683D01*
X171613Y13647D01*
X171638Y13578D01*
X171661Y13508D01*
X171677Y13475D01*
X171689Y13440D01*
X171723Y13374D01*
X171754Y13307D01*
X171773Y13276D01*
X171789Y13243D01*
X172308Y12345D01*
X172328Y12314D01*
X172346Y12282D01*
X172388Y12222D01*
X172429Y12160D01*
X172452Y12132D01*
X172474Y12101D01*
X172523Y12046D01*
X172570Y11990D01*
X172596Y11964D01*
X172621Y11936D01*
X173354Y11203D01*
X173381Y11179D01*
X173407Y11152D01*
X173464Y11105D01*
X173519Y11056D01*
X173549Y11035D01*
X173577Y11011D01*
X173639Y10971D01*
X173699Y10928D01*
X173731Y10910D01*
X173762Y10890D01*
X174660Y10372D01*
X174693Y10355D01*
X174724Y10336D01*
X174792Y10305D01*
X174857Y10272D01*
X174892Y10259D01*
X174925Y10244D01*
X174996Y10221D01*
X175065Y10195D01*
X175100Y10186D01*
X175135Y10175D01*
X176137Y9907D01*
X176173Y9899D01*
X176208Y9889D01*
X176281Y9877D01*
X176353Y9861D01*
X176390Y9858D01*
X176426Y9852D01*
X176500Y9848D01*
X176573Y9841D01*
X176610Y9842D01*
X176647Y9839D01*
X177684D01*
X177720Y9842D01*
X177757Y9841D01*
X177831Y9848D01*
X177904Y9852D01*
X177941Y9858D01*
X177978Y9861D01*
X178050Y9877D01*
X178122Y9889D01*
X178158Y9899D01*
X178194Y9907D01*
X179195Y10175D01*
X179230Y10187D01*
X179266Y10195D01*
X179335Y10221D01*
X179405Y10244D01*
X179439Y10259D01*
X179473Y10272D01*
X179539Y10306D01*
X179606Y10336D01*
X179638Y10355D01*
X179671Y10372D01*
X180569Y10890D01*
X180599Y10910D01*
X180632Y10928D01*
X180692Y10971D01*
X180754Y11011D01*
X180782Y11035D01*
X180812Y11056D01*
X180867Y11105D01*
X180924Y11152D01*
X180949Y11179D01*
X180977Y11203D01*
X181710Y11936D01*
X181734Y11964D01*
X181761Y11990D01*
X181808Y12046D01*
X181857Y12101D01*
X181879Y12132D01*
X181902Y12160D01*
X181942Y12221D01*
X181985Y12282D01*
X182003Y12314D01*
X182023Y12345D01*
X182542Y13243D01*
X182558Y13275D01*
X182577Y13307D01*
X182608Y13374D01*
X182641Y13440D01*
X182654Y13475D01*
X182669Y13508D01*
X182692Y13578D01*
X182718Y13647D01*
X182727Y13683D01*
X182738Y13718D01*
X183007Y14719D01*
X183014Y14755D01*
X183025Y14791D01*
X183037Y14864D01*
X183052Y14936D01*
X183055Y14973D01*
X183062Y15009D01*
X183066Y15083D01*
X183073Y15156D01*
X183072Y15193D01*
X183074Y15230D01*
Y15748D01*
Y74803D01*
Y75322D01*
X183072Y75358D01*
X183073Y75395D01*
X183066Y75469D01*
X183062Y75542D01*
X183055Y75579D01*
X183052Y75615D01*
X183037Y75687D01*
X183025Y75760D01*
X183014Y75796D01*
X183007Y75832D01*
X182738Y76833D01*
X182727Y76868D01*
X182718Y76904D01*
X182692Y76973D01*
X182669Y77043D01*
X182654Y77077D01*
X182641Y77111D01*
X182608Y77177D01*
X182577Y77244D01*
X182558Y77276D01*
X182542Y77309D01*
X182023Y78206D01*
X182003Y78237D01*
X181985Y78269D01*
X181942Y78330D01*
X181902Y78391D01*
X181879Y78420D01*
X181857Y78450D01*
X181808Y78505D01*
X181761Y78562D01*
X181734Y78587D01*
X181710Y78615D01*
X180977Y79348D01*
X180949Y79372D01*
X180924Y79399D01*
X180867Y79446D01*
X180812Y79495D01*
X180782Y79516D01*
X180754Y79540D01*
X180692Y79580D01*
X180632Y79623D01*
X180599Y79641D01*
X180569Y79661D01*
X179671Y80179D01*
X179638Y80196D01*
X179606Y80215D01*
X179539Y80246D01*
X179473Y80279D01*
X179439Y80292D01*
X179405Y80307D01*
X179335Y80330D01*
X179266Y80356D01*
X179230Y80365D01*
X179195Y80376D01*
X178194Y80645D01*
X178158Y80652D01*
X178122Y80662D01*
X178050Y80675D01*
X177978Y80690D01*
X177941Y80693D01*
X177904Y80699D01*
X177831Y80704D01*
X177757Y80710D01*
X177720Y80710D01*
X177684Y80712D01*
D02*
G37*
G36*
X51185Y79921D02*
X48031D01*
Y76768D01*
X48819D01*
X49084Y76783D01*
X49345Y76827D01*
X49600Y76901D01*
X49845Y77002D01*
X50078Y77131D01*
X50294Y77284D01*
X50492Y77461D01*
X50669Y77659D01*
X50822Y77875D01*
X50950Y78107D01*
X51052Y78352D01*
X51126Y78607D01*
X51170Y78869D01*
X51185Y79134D01*
Y79921D01*
D02*
G37*
G36*
X46457D02*
X43303D01*
Y79134D01*
X43318Y78869D01*
X43363Y78607D01*
X43436Y78352D01*
X43538Y78107D01*
X43666Y77875D01*
X43819Y77659D01*
X43996Y77461D01*
X44194Y77284D01*
X44410Y77131D01*
X44643Y77002D01*
X44888Y76901D01*
X45143Y76827D01*
X45404Y76783D01*
X45669Y76768D01*
X46457D01*
Y79921D01*
D02*
G37*
G36*
X72638Y67125D02*
Y64055D01*
X75708D01*
X75657Y64287D01*
X75554Y64615D01*
X75422Y64933D01*
X75263Y65237D01*
X75078Y65527D01*
X74869Y65800D01*
X74637Y66054D01*
X74383Y66286D01*
X74111Y66495D01*
X73821Y66680D01*
X73516Y66839D01*
X73198Y66970D01*
X72870Y67074D01*
X72638Y67125D01*
D02*
G37*
G36*
X71063Y67125D02*
X70830Y67074D01*
X70503Y66970D01*
X70185Y66839D01*
X69880Y66680D01*
X69590Y66495D01*
X69317Y66286D01*
X69064Y66054D01*
X68832Y65800D01*
X68622Y65527D01*
X68438Y65237D01*
X68279Y64933D01*
X68147Y64615D01*
X68044Y64287D01*
X67992Y64055D01*
X71063D01*
Y67125D01*
D02*
G37*
G36*
X144291Y71854D02*
X144071Y71841D01*
X143853Y71804D01*
X143640Y71743D01*
X143436Y71658D01*
X143242Y71551D01*
X143062Y71423D01*
X142897Y71276D01*
X142750Y71111D01*
X142622Y70931D01*
X142515Y70737D01*
X142430Y70533D01*
X142369Y70321D01*
X142332Y70103D01*
X142320Y69882D01*
X142332Y69661D01*
X142369Y69443D01*
X142430Y69231D01*
X142515Y69026D01*
X142622Y68833D01*
X142712Y68706D01*
X142750Y68653D01*
X142750Y68653D01*
X142897Y68381D01*
Y68036D01*
X142750Y67765D01*
X142750Y67765D01*
X142712Y67711D01*
X142622Y67584D01*
X142515Y67391D01*
X142430Y67187D01*
X142369Y66974D01*
X142332Y66756D01*
X142320Y66536D01*
X142332Y66315D01*
X142369Y66097D01*
X142430Y65884D01*
X142515Y65680D01*
X142622Y65487D01*
X142712Y65360D01*
X142750Y65306D01*
X142750Y65306D01*
X142897Y65035D01*
Y64690D01*
X142750Y64418D01*
X142750Y64418D01*
X142712Y64365D01*
X142622Y64238D01*
X142515Y64044D01*
X142430Y63840D01*
X142369Y63628D01*
X142332Y63410D01*
X142320Y63189D01*
X142332Y62968D01*
X142369Y62750D01*
X142430Y62538D01*
X142515Y62334D01*
X142622Y62140D01*
X142750Y61960D01*
X142897Y61781D01*
Y61448D01*
X142750Y61269D01*
X142622Y61088D01*
X142515Y60895D01*
X142430Y60691D01*
X142369Y60478D01*
X142332Y60260D01*
X142320Y60039D01*
X142332Y59819D01*
X142369Y59601D01*
X142430Y59388D01*
X142515Y59184D01*
X142622Y58990D01*
X142750Y58810D01*
X142897Y58645D01*
X143062Y58498D01*
X143242Y58370D01*
X143436Y58263D01*
X143640Y58178D01*
X143853Y58117D01*
X144071Y58080D01*
X144291Y58068D01*
X144512Y58080D01*
X144730Y58117D01*
X144942Y58178D01*
X145147Y58263D01*
X145340Y58370D01*
X145521Y58498D01*
X145685Y58645D01*
X145833Y58810D01*
X145961Y58990D01*
X146068Y59184D01*
X146152Y59388D01*
X146299Y59608D01*
X146827Y59655D01*
X147047Y59643D01*
X147268Y59655D01*
X147486Y59692D01*
X147698Y59753D01*
X147903Y59838D01*
X148096Y59945D01*
X148276Y60073D01*
X148441Y60220D01*
X148589Y60385D01*
X148717Y60565D01*
X148824Y60759D01*
X148908Y60963D01*
X148969Y61176D01*
X149006Y61393D01*
X149019Y61614D01*
X149006Y61835D01*
X148969Y62053D01*
X148908Y62265D01*
X148824Y62470D01*
X148717Y62663D01*
X148627Y62790D01*
X148589Y62843D01*
X148589Y62844D01*
X148441Y63115D01*
Y63460D01*
X148589Y63731D01*
X148589Y63731D01*
X148627Y63785D01*
X148717Y63912D01*
X148824Y64105D01*
X148908Y64310D01*
X148969Y64522D01*
X149006Y64740D01*
X149019Y64961D01*
X149006Y65181D01*
X148969Y65399D01*
X148908Y65612D01*
X148824Y65816D01*
X148717Y66010D01*
X148627Y66136D01*
X148589Y66190D01*
X148589Y66190D01*
X148441Y66462D01*
Y66806D01*
X148589Y67078D01*
X148589Y67078D01*
X148627Y67132D01*
X148717Y67258D01*
X148824Y67452D01*
X148908Y67656D01*
X148969Y67868D01*
X149006Y68086D01*
X149019Y68307D01*
X149006Y68528D01*
X148969Y68746D01*
X148908Y68958D01*
X148824Y69162D01*
X148717Y69356D01*
X148589Y69536D01*
X148441Y69701D01*
X148276Y69849D01*
X148096Y69977D01*
X147903Y70083D01*
X147698Y70168D01*
X147486Y70229D01*
X147268Y70266D01*
X147047Y70279D01*
X146827Y70266D01*
X146313Y70312D01*
X146068Y70737D01*
X145961Y70931D01*
X145833Y71111D01*
X145685Y71276D01*
X145521Y71423D01*
X145340Y71551D01*
X145147Y71658D01*
X144942Y71743D01*
X144730Y71804D01*
X144512Y71841D01*
X144291Y71854D01*
D02*
G37*
G36*
X97441D02*
X97220Y71841D01*
X97002Y71804D01*
X96790Y71743D01*
X96586Y71658D01*
X96392Y71551D01*
X96212Y71423D01*
X96047Y71276D01*
X95899Y71111D01*
X95771Y70931D01*
X95665Y70737D01*
X95580Y70533D01*
X95519Y70321D01*
X95482Y70103D01*
X95469Y69882D01*
X95482Y69661D01*
X95519Y69443D01*
X95580Y69231D01*
X95665Y69026D01*
X95771Y68833D01*
X95861Y68706D01*
X95899Y68653D01*
X95899Y68653D01*
X96047Y68381D01*
Y68036D01*
X95899Y67765D01*
X95899Y67765D01*
X95861Y67711D01*
X95771Y67584D01*
X95665Y67391D01*
X95580Y67187D01*
X95519Y66974D01*
X95482Y66756D01*
X95469Y66536D01*
X95482Y66315D01*
X95519Y66097D01*
X95580Y65884D01*
X95665Y65680D01*
X95771Y65487D01*
X95861Y65360D01*
X95899Y65306D01*
X95899Y65306D01*
X96047Y65035D01*
Y64690D01*
X95899Y64418D01*
X95899Y64418D01*
X95861Y64365D01*
X95771Y64238D01*
X95665Y64044D01*
X95580Y63840D01*
X95519Y63628D01*
X95482Y63410D01*
X95469Y63189D01*
X95482Y62968D01*
X95519Y62750D01*
X95580Y62538D01*
X95665Y62334D01*
X95771Y62140D01*
X95899Y61960D01*
X96047Y61781D01*
Y61448D01*
X95899Y61269D01*
X95771Y61088D01*
X95665Y60895D01*
X95580Y60691D01*
X95519Y60478D01*
X95482Y60260D01*
X95469Y60039D01*
X95482Y59819D01*
X95519Y59601D01*
X95580Y59388D01*
X95665Y59184D01*
X95771Y58990D01*
X95899Y58810D01*
X96047Y58645D01*
X96212Y58498D01*
X96392Y58370D01*
X96586Y58263D01*
X96790Y58178D01*
X97002Y58117D01*
X97220Y58080D01*
X97441Y58068D01*
X97662Y58080D01*
X97880Y58117D01*
X98092Y58178D01*
X98296Y58263D01*
X98490Y58370D01*
X98670Y58498D01*
X98835Y58645D01*
X98982Y58810D01*
X99110Y58990D01*
X99217Y59184D01*
X99302Y59388D01*
X99449Y59608D01*
X99976Y59655D01*
X100197Y59643D01*
X100418Y59655D01*
X100636Y59692D01*
X100848Y59753D01*
X101052Y59838D01*
X101246Y59945D01*
X101426Y60073D01*
X101591Y60220D01*
X101738Y60385D01*
X101866Y60565D01*
X101973Y60759D01*
X102058Y60963D01*
X102119Y61176D01*
X102156Y61393D01*
X102168Y61614D01*
X102156Y61835D01*
X102119Y62053D01*
X102058Y62265D01*
X101973Y62470D01*
X101866Y62663D01*
X101776Y62790D01*
X101738Y62843D01*
X101738Y62844D01*
X101591Y63115D01*
Y63460D01*
X101738Y63731D01*
X101738Y63731D01*
X101776Y63785D01*
X101866Y63912D01*
X101973Y64105D01*
X102058Y64310D01*
X102119Y64522D01*
X102156Y64740D01*
X102168Y64961D01*
X102156Y65181D01*
X102119Y65399D01*
X102058Y65612D01*
X101973Y65816D01*
X101866Y66010D01*
X101776Y66136D01*
X101738Y66190D01*
X101738Y66190D01*
X101591Y66462D01*
Y66806D01*
X101738Y67078D01*
X101738Y67078D01*
X101776Y67132D01*
X101866Y67258D01*
X101973Y67452D01*
X102058Y67656D01*
X102119Y67868D01*
X102156Y68086D01*
X102168Y68307D01*
X102156Y68528D01*
X102119Y68746D01*
X102058Y68958D01*
X101973Y69162D01*
X101866Y69356D01*
X101738Y69536D01*
X101591Y69701D01*
X101426Y69849D01*
X101246Y69977D01*
X101052Y70083D01*
X100848Y70168D01*
X100636Y70229D01*
X100418Y70266D01*
X100197Y70279D01*
X99976Y70266D01*
X99463Y70312D01*
X99217Y70737D01*
X99110Y70931D01*
X98982Y71111D01*
X98835Y71276D01*
X98670Y71423D01*
X98490Y71551D01*
X98296Y71658D01*
X98092Y71743D01*
X97880Y71804D01*
X97662Y71841D01*
X97441Y71854D01*
D02*
G37*
G36*
X75708Y62480D02*
X72638D01*
Y59409D01*
X72870Y59461D01*
X73198Y59564D01*
X73516Y59696D01*
X73821Y59854D01*
X74111Y60039D01*
X74383Y60248D01*
X74637Y60481D01*
X74869Y60734D01*
X75078Y61007D01*
X75263Y61297D01*
X75422Y61602D01*
X75554Y61919D01*
X75657Y62247D01*
X75708Y62480D01*
D02*
G37*
G36*
X71063D02*
X67992D01*
X68044Y62247D01*
X68147Y61919D01*
X68279Y61602D01*
X68438Y61297D01*
X68622Y61007D01*
X68832Y60734D01*
X69064Y60481D01*
X69317Y60248D01*
X69590Y60039D01*
X69880Y59854D01*
X70185Y59696D01*
X70503Y59564D01*
X70830Y59461D01*
X71063Y59409D01*
Y62480D01*
D02*
G37*
G36*
X23031Y63192D02*
X22811Y63180D01*
X22593Y63143D01*
X22380Y63081D01*
X22176Y62997D01*
X21983Y62890D01*
X21802Y62762D01*
X21637Y62615D01*
X21490Y62450D01*
X21458Y62405D01*
X10630D01*
X10445Y62391D01*
X10264Y62347D01*
X10092Y62276D01*
X9933Y62179D01*
X9792Y62058D01*
X7574Y59840D01*
X7480Y59846D01*
X7260Y59833D01*
X7042Y59796D01*
X6829Y59735D01*
X6625Y59650D01*
X6431Y59543D01*
X6251Y59416D01*
X6086Y59268D01*
X5939Y59103D01*
X5811Y58923D01*
X5704Y58729D01*
X5619Y58525D01*
X5558Y58313D01*
X5521Y58095D01*
X5509Y57874D01*
X5521Y57653D01*
X5558Y57435D01*
X5619Y57223D01*
X5704Y57019D01*
X5811Y56825D01*
X5939Y56645D01*
X6086Y56480D01*
X6251Y56333D01*
X6431Y56205D01*
X6625Y56098D01*
X6829Y56013D01*
X7042Y55952D01*
X7260Y55915D01*
X7480Y55902D01*
X7701Y55915D01*
X7919Y55952D01*
X8132Y56013D01*
X8336Y56098D01*
X8529Y56205D01*
X8710Y56333D01*
X8874Y56480D01*
X9022Y56645D01*
X9150Y56825D01*
X9257Y57019D01*
X9341Y57223D01*
X9403Y57435D01*
X9439Y57653D01*
X9452Y57874D01*
X9439Y58095D01*
X9403Y58313D01*
X9401Y58316D01*
X11121Y60036D01*
X21458D01*
X21490Y59991D01*
X21637Y59826D01*
X21802Y59679D01*
X21983Y59551D01*
X22176Y59444D01*
X22380Y59360D01*
X22593Y59298D01*
X22811Y59261D01*
X23031Y59249D01*
X23252Y59261D01*
X23470Y59298D01*
X23683Y59360D01*
X23887Y59444D01*
X24080Y59551D01*
X24261Y59679D01*
X24426Y59826D01*
X24573Y59991D01*
X24701Y60172D01*
X24808Y60365D01*
X24893Y60569D01*
X24954Y60782D01*
X24991Y61000D01*
X25003Y61221D01*
X24991Y61441D01*
X24954Y61659D01*
X24893Y61872D01*
X24808Y62076D01*
X24701Y62269D01*
X24573Y62450D01*
X24426Y62615D01*
X24261Y62762D01*
X24080Y62890D01*
X23887Y62997D01*
X23683Y63081D01*
X23470Y63143D01*
X23252Y63180D01*
X23031Y63192D01*
D02*
G37*
G36*
X73425Y57208D02*
X70276D01*
X70011Y57193D01*
X69749Y57148D01*
X69494Y57075D01*
X69249Y56973D01*
X69017Y56845D01*
X68800Y56692D01*
X68603Y56515D01*
X68426Y56317D01*
X68272Y56101D01*
X68144Y55868D01*
X68042Y55623D01*
X67969Y55368D01*
X67924Y55107D01*
X67910Y54842D01*
Y51692D01*
X67924Y51427D01*
X67969Y51166D01*
X68042Y50911D01*
X68144Y50666D01*
X68272Y50433D01*
X68426Y50217D01*
X68603Y50019D01*
X68800Y49843D01*
X69017Y49689D01*
X69249Y49561D01*
X69494Y49459D01*
X69749Y49386D01*
X70011Y49341D01*
X70276Y49326D01*
X73425D01*
X73690Y49341D01*
X73952Y49386D01*
X74207Y49459D01*
X74452Y49561D01*
X74684Y49689D01*
X74900Y49843D01*
X75098Y50019D01*
X75275Y50217D01*
X75428Y50433D01*
X75557Y50666D01*
X75658Y50911D01*
X75732Y51166D01*
X75776Y51427D01*
X75791Y51692D01*
Y54842D01*
X75776Y55107D01*
X75732Y55368D01*
X75658Y55623D01*
X75557Y55868D01*
X75428Y56101D01*
X75275Y56317D01*
X75098Y56515D01*
X74900Y56692D01*
X74684Y56845D01*
X74452Y56973D01*
X74207Y57075D01*
X73952Y57148D01*
X73690Y57193D01*
X73425Y57208D01*
D02*
G37*
G36*
X21260Y48428D02*
X21039Y48416D01*
X20821Y48379D01*
X20609Y48318D01*
X20404Y48233D01*
X20211Y48126D01*
X20031Y47998D01*
X19866Y47851D01*
X19718Y47686D01*
X19687Y47641D01*
X11024D01*
X10838Y47627D01*
X10657Y47583D01*
X10486Y47512D01*
X10327Y47415D01*
X10186Y47294D01*
X7755Y44863D01*
X7701Y44873D01*
X7480Y44885D01*
X7260Y44873D01*
X7042Y44836D01*
X6829Y44774D01*
X6625Y44690D01*
X6431Y44583D01*
X6251Y44455D01*
X6086Y44308D01*
X5939Y44143D01*
X5811Y43962D01*
X5704Y43769D01*
X5619Y43565D01*
X5558Y43352D01*
X5521Y43134D01*
X5509Y42913D01*
X5521Y42693D01*
X5558Y42475D01*
X5619Y42262D01*
X5704Y42058D01*
X5811Y41864D01*
X5939Y41684D01*
X6086Y41519D01*
X6251Y41372D01*
X6431Y41244D01*
X6625Y41137D01*
X6829Y41052D01*
X7042Y40991D01*
X7260Y40954D01*
X7480Y40942D01*
X7701Y40954D01*
X7919Y40991D01*
X8132Y41052D01*
X8336Y41137D01*
X8529Y41244D01*
X8710Y41372D01*
X8874Y41519D01*
X9022Y41684D01*
X9150Y41864D01*
X9257Y42058D01*
X9341Y42262D01*
X9403Y42475D01*
X9439Y42693D01*
X9452Y42913D01*
X9439Y43134D01*
X9430Y43188D01*
X11514Y45272D01*
X19687D01*
X19718Y45227D01*
X19866Y45063D01*
X20031Y44915D01*
X20211Y44787D01*
X20404Y44680D01*
X20609Y44596D01*
X20821Y44535D01*
X21039Y44497D01*
X21260Y44485D01*
X21481Y44497D01*
X21699Y44535D01*
X21911Y44596D01*
X22115Y44680D01*
X22309Y44787D01*
X22489Y44915D01*
X22654Y45063D01*
X22801Y45227D01*
X22929Y45408D01*
X23036Y45601D01*
X23121Y45805D01*
X23182Y46018D01*
X23219Y46236D01*
X23231Y46457D01*
X23219Y46677D01*
X23182Y46895D01*
X23121Y47108D01*
X23036Y47312D01*
X22929Y47506D01*
X22801Y47686D01*
X22654Y47851D01*
X22489Y47998D01*
X22309Y48126D01*
X22115Y48233D01*
X21911Y48318D01*
X21699Y48379D01*
X21481Y48416D01*
X21260Y48428D01*
D02*
G37*
G36*
X52165Y55515D02*
X51945Y55502D01*
X51727Y55466D01*
X51514Y55404D01*
X51310Y55320D01*
X51116Y55213D01*
X50936Y55085D01*
X50771Y54937D01*
X50624Y54773D01*
X50496Y54592D01*
X50389Y54399D01*
X50304Y54194D01*
X50243Y53982D01*
X50206Y53764D01*
X50194Y53543D01*
X50206Y53323D01*
X50243Y53105D01*
X50304Y52892D01*
X50389Y52688D01*
X50496Y52494D01*
X50624Y52314D01*
X50771Y52149D01*
X50936Y52002D01*
X50981Y51970D01*
Y36811D01*
X50995Y36626D01*
X51039Y36445D01*
X51110Y36273D01*
X51207Y36115D01*
X51328Y35973D01*
X56347Y30954D01*
X56346Y30950D01*
X56309Y30733D01*
X56296Y30512D01*
X56309Y30291D01*
X56346Y30073D01*
X56407Y29861D01*
X56491Y29656D01*
X56598Y29463D01*
X56726Y29283D01*
X56874Y29118D01*
X57038Y28970D01*
X57219Y28842D01*
X57412Y28736D01*
X57617Y28651D01*
X57829Y28590D01*
X58047Y28553D01*
X58268Y28540D01*
X58489Y28553D01*
X58706Y28590D01*
X58919Y28651D01*
X59123Y28736D01*
X59317Y28842D01*
X59497Y28970D01*
X59662Y29118D01*
X59809Y29283D01*
X59937Y29463D01*
X60044Y29656D01*
X60129Y29861D01*
X60190Y30073D01*
X60227Y30291D01*
X60239Y30512D01*
X60227Y30733D01*
X60190Y30950D01*
X60129Y31163D01*
X60044Y31367D01*
X59937Y31561D01*
X59809Y31741D01*
X59662Y31906D01*
X59497Y32053D01*
X59317Y32181D01*
X59123Y32288D01*
X58919Y32373D01*
X58706Y32434D01*
X58489Y32471D01*
X58268Y32483D01*
X58174Y32478D01*
X53350Y37302D01*
Y51970D01*
X53395Y52002D01*
X53559Y52149D01*
X53707Y52314D01*
X53835Y52494D01*
X53942Y52688D01*
X54026Y52892D01*
X54088Y53105D01*
X54124Y53323D01*
X54137Y53543D01*
X54124Y53764D01*
X54088Y53982D01*
X54026Y54194D01*
X53942Y54399D01*
X53835Y54592D01*
X53707Y54773D01*
X53559Y54937D01*
X53395Y55085D01*
X53214Y55213D01*
X53021Y55320D01*
X52816Y55404D01*
X52604Y55466D01*
X52386Y55502D01*
X52165Y55515D01*
D02*
G37*
G36*
X49409Y29070D02*
Y24409D01*
X53350D01*
X53335Y24780D01*
X53292Y25149D01*
X53219Y25513D01*
X53119Y25870D01*
X52990Y26219D01*
X52835Y26556D01*
X52653Y26880D01*
X52447Y27189D01*
X52217Y27480D01*
X51965Y27753D01*
X51693Y28005D01*
X51401Y28234D01*
X51092Y28441D01*
X50769Y28622D01*
X50431Y28778D01*
X50083Y28906D01*
X49726Y29007D01*
X49409Y29070D01*
D02*
G37*
G36*
X47835D02*
X47518Y29007D01*
X47161Y28906D01*
X46813Y28778D01*
X46476Y28622D01*
X46152Y28441D01*
X45843Y28234D01*
X45551Y28005D01*
X45279Y27753D01*
X45027Y27480D01*
X44797Y27189D01*
X44591Y26880D01*
X44409Y26556D01*
X44254Y26219D01*
X44125Y25870D01*
X44025Y25513D01*
X43952Y25149D01*
X43909Y24780D01*
X43894Y24409D01*
X47835D01*
Y29070D01*
D02*
G37*
G36*
X53350Y22835D02*
X49409D01*
Y18174D01*
X49726Y18237D01*
X50083Y18338D01*
X50431Y18466D01*
X50769Y18622D01*
X51092Y18803D01*
X51401Y19010D01*
X51693Y19239D01*
X51965Y19491D01*
X52217Y19764D01*
X52447Y20056D01*
X52653Y20364D01*
X52835Y20688D01*
X52990Y21025D01*
X53119Y21374D01*
X53219Y21731D01*
X53292Y22095D01*
X53335Y22464D01*
X53350Y22835D01*
D02*
G37*
G36*
X47835D02*
X43894D01*
X43909Y22464D01*
X43952Y22095D01*
X44025Y21731D01*
X44125Y21374D01*
X44254Y21025D01*
X44409Y20688D01*
X44591Y20364D01*
X44797Y20056D01*
X45027Y19764D01*
X45279Y19491D01*
X45551Y19239D01*
X45843Y19010D01*
X46152Y18803D01*
X46476Y18622D01*
X46813Y18466D01*
X47161Y18338D01*
X47518Y18237D01*
X47835Y18174D01*
Y22835D01*
D02*
G37*
G36*
X36811Y29137D02*
X32874D01*
X32604Y29124D01*
X32336Y29084D01*
X32073Y29018D01*
X31818Y28927D01*
X31573Y28811D01*
X31341Y28672D01*
X31124Y28511D01*
X30923Y28329D01*
X30741Y28128D01*
X30580Y27911D01*
X30441Y27679D01*
X30325Y27434D01*
X30234Y27179D01*
X30168Y26916D01*
X30128Y26648D01*
X30115Y26378D01*
Y20866D01*
X30128Y20596D01*
X30168Y20328D01*
X30234Y20065D01*
X30325Y19810D01*
X30441Y19566D01*
X30580Y19333D01*
X30741Y19116D01*
X30923Y18915D01*
X31124Y18733D01*
X31341Y18572D01*
X31573Y18433D01*
X31818Y18317D01*
X32073Y18226D01*
X32336Y18160D01*
X32604Y18120D01*
X32874Y18107D01*
X36811D01*
X37082Y18120D01*
X37349Y18160D01*
X37612Y18226D01*
X37867Y18317D01*
X38112Y18433D01*
X38344Y18572D01*
X38561Y18733D01*
X38762Y18915D01*
X38944Y19116D01*
X39105Y19333D01*
X39244Y19566D01*
X39360Y19810D01*
X39451Y20065D01*
X39517Y20328D01*
X39557Y20596D01*
X39570Y20866D01*
Y26378D01*
X39557Y26648D01*
X39517Y26916D01*
X39451Y27179D01*
X39360Y27434D01*
X39244Y27679D01*
X39105Y27911D01*
X38944Y28128D01*
X38762Y28329D01*
X38561Y28511D01*
X38344Y28672D01*
X38112Y28811D01*
X37867Y28927D01*
X37612Y29018D01*
X37349Y29084D01*
X37082Y29124D01*
X36811Y29137D01*
D02*
G37*
G36*
X97047Y27365D02*
X93504D01*
X93253Y27353D01*
X93004Y27316D01*
X92760Y27255D01*
X92523Y27170D01*
X92296Y27063D01*
X92080Y26934D01*
X91878Y26784D01*
X91692Y26615D01*
X91523Y26429D01*
X91374Y26227D01*
X91244Y26011D01*
X91137Y25784D01*
X91052Y25547D01*
X90991Y25303D01*
X90954Y25054D01*
X90942Y24803D01*
Y19685D01*
X90954Y19434D01*
X90991Y19185D01*
X91052Y18941D01*
X91137Y18704D01*
X91244Y18477D01*
X91374Y18262D01*
X91523Y18060D01*
X91692Y17873D01*
X91878Y17705D01*
X92080Y17555D01*
X92296Y17425D01*
X92523Y17318D01*
X92760Y17233D01*
X93004Y17172D01*
X93253Y17135D01*
X93504Y17123D01*
X97047D01*
X97298Y17135D01*
X97547Y17172D01*
X97791Y17233D01*
X98028Y17318D01*
X98255Y17425D01*
X98471Y17555D01*
X98673Y17705D01*
X98859Y17873D01*
X99028Y18060D01*
X99178Y18262D01*
X99307Y18477D01*
X99414Y18704D01*
X99499Y18941D01*
X99560Y19185D01*
X99597Y19434D01*
X99609Y19685D01*
Y24803D01*
X99597Y25054D01*
X99560Y25303D01*
X99499Y25547D01*
X99414Y25784D01*
X99307Y26011D01*
X99178Y26227D01*
X99028Y26429D01*
X98859Y26615D01*
X98673Y26784D01*
X98471Y26934D01*
X98255Y27063D01*
X98028Y27170D01*
X97791Y27255D01*
X97547Y27316D01*
X97298Y27353D01*
X97047Y27365D01*
D02*
G37*
G36*
X70276D02*
X66732D01*
X66481Y27353D01*
X66232Y27316D01*
X65988Y27255D01*
X65752Y27170D01*
X65525Y27063D01*
X65309Y26934D01*
X65107Y26784D01*
X64921Y26615D01*
X64752Y26429D01*
X64602Y26227D01*
X64473Y26011D01*
X64365Y25784D01*
X64280Y25547D01*
X64219Y25303D01*
X64183Y25054D01*
X64170Y24803D01*
Y19685D01*
X64183Y19434D01*
X64219Y19185D01*
X64280Y18941D01*
X64365Y18704D01*
X64473Y18477D01*
X64602Y18262D01*
X64752Y18060D01*
X64921Y17873D01*
X65107Y17705D01*
X65309Y17555D01*
X65525Y17425D01*
X65752Y17318D01*
X65988Y17233D01*
X66232Y17172D01*
X66481Y17135D01*
X66732Y17123D01*
X70276D01*
X70527Y17135D01*
X70775Y17172D01*
X71019Y17233D01*
X71256Y17318D01*
X71483Y17425D01*
X71699Y17555D01*
X71901Y17705D01*
X72087Y17873D01*
X72256Y18060D01*
X72406Y18262D01*
X72535Y18477D01*
X72643Y18704D01*
X72727Y18941D01*
X72789Y19185D01*
X72825Y19434D01*
X72838Y19685D01*
Y24803D01*
X72825Y25054D01*
X72789Y25303D01*
X72727Y25547D01*
X72643Y25784D01*
X72535Y26011D01*
X72406Y26227D01*
X72256Y26429D01*
X72087Y26615D01*
X71901Y26784D01*
X71699Y26934D01*
X71483Y27063D01*
X71256Y27170D01*
X71019Y27255D01*
X70775Y27316D01*
X70527Y27353D01*
X70276Y27365D01*
D02*
G37*
G36*
X90748Y16342D02*
X90404Y16327D01*
X90064Y16283D01*
X89728Y16208D01*
X89400Y16105D01*
X89083Y15973D01*
X88778Y15814D01*
X88488Y15630D01*
X88215Y15420D01*
X87962Y15188D01*
X87729Y14935D01*
X87520Y14662D01*
X87335Y14372D01*
X87177Y14067D01*
X87045Y13749D01*
X86941Y13421D01*
X86867Y13086D01*
X86822Y12745D01*
X86807Y12402D01*
X86822Y12058D01*
X86867Y11717D01*
X86941Y11382D01*
X87045Y11054D01*
X87177Y10736D01*
X87335Y10431D01*
X87520Y10141D01*
X87729Y9868D01*
X87962Y9615D01*
X88215Y9383D01*
X88488Y9173D01*
X88778Y8989D01*
X89083Y8830D01*
X89400Y8698D01*
X89728Y8595D01*
X90064Y8521D01*
X90404Y8476D01*
X90748Y8461D01*
X91092Y8476D01*
X91432Y8521D01*
X91768Y8595D01*
X92096Y8698D01*
X92413Y8830D01*
X92718Y8989D01*
X93008Y9173D01*
X93281Y9383D01*
X93534Y9615D01*
X93767Y9868D01*
X93976Y10141D01*
X94161Y10431D01*
X94319Y10736D01*
X94451Y11054D01*
X94555Y11382D01*
X94629Y11717D01*
X94674Y12058D01*
X94689Y12402D01*
X94674Y12745D01*
X94629Y13086D01*
X94555Y13421D01*
X94451Y13749D01*
X94319Y14067D01*
X94161Y14372D01*
X93976Y14662D01*
X93767Y14935D01*
X93534Y15188D01*
X93281Y15420D01*
X93008Y15630D01*
X92718Y15814D01*
X92413Y15973D01*
X92096Y16105D01*
X91768Y16208D01*
X91432Y16283D01*
X91092Y16327D01*
X90748Y16342D01*
D02*
G37*
G36*
X73032D02*
X72688Y16327D01*
X72347Y16283D01*
X72012Y16208D01*
X71684Y16105D01*
X71366Y15973D01*
X71061Y15814D01*
X70771Y15630D01*
X70498Y15420D01*
X70245Y15188D01*
X70013Y14935D01*
X69803Y14662D01*
X69619Y14372D01*
X69460Y14067D01*
X69328Y13749D01*
X69225Y13421D01*
X69151Y13086D01*
X69106Y12745D01*
X69091Y12402D01*
X69106Y12058D01*
X69151Y11717D01*
X69225Y11382D01*
X69328Y11054D01*
X69460Y10736D01*
X69619Y10431D01*
X69803Y10141D01*
X70013Y9868D01*
X70245Y9615D01*
X70498Y9383D01*
X70771Y9173D01*
X71061Y8989D01*
X71366Y8830D01*
X71684Y8698D01*
X72012Y8595D01*
X72347Y8521D01*
X72688Y8476D01*
X73032Y8461D01*
X73375Y8476D01*
X73716Y8521D01*
X74051Y8595D01*
X74379Y8698D01*
X74697Y8830D01*
X75002Y8989D01*
X75292Y9173D01*
X75565Y9383D01*
X75818Y9615D01*
X76050Y9868D01*
X76260Y10141D01*
X76444Y10431D01*
X76603Y10736D01*
X76735Y11054D01*
X76838Y11382D01*
X76912Y11717D01*
X76957Y12058D01*
X76972Y12402D01*
X76957Y12745D01*
X76912Y13086D01*
X76838Y13421D01*
X76735Y13749D01*
X76603Y14067D01*
X76444Y14372D01*
X76260Y14662D01*
X76050Y14935D01*
X75818Y15188D01*
X75565Y15420D01*
X75292Y15630D01*
X75002Y15814D01*
X74697Y15973D01*
X74379Y16105D01*
X74051Y16208D01*
X73716Y16283D01*
X73375Y16327D01*
X73032Y16342D01*
D02*
G37*
G36*
X73228Y103940D02*
X73008Y103928D01*
X72790Y103891D01*
X72577Y103830D01*
X72373Y103745D01*
X72179Y103638D01*
X71999Y103510D01*
X71834Y103363D01*
X71687Y103198D01*
X71559Y103017D01*
X71452Y102824D01*
X71367Y102620D01*
X71306Y102407D01*
X71269Y102189D01*
X71257Y101969D01*
X71269Y101748D01*
X71306Y101530D01*
X71367Y101317D01*
X71452Y101113D01*
X71559Y100920D01*
X71687Y100739D01*
X71834Y100574D01*
X71999Y100427D01*
X72044Y100396D01*
Y90748D01*
X72058Y90563D01*
X72102Y90382D01*
X72173Y90210D01*
X72270Y90052D01*
X72391Y89910D01*
X78296Y84005D01*
X78438Y83884D01*
X78596Y83787D01*
X78768Y83716D01*
X78948Y83672D01*
X79134Y83658D01*
X80317D01*
X80348Y83613D01*
X80496Y83448D01*
X80660Y83301D01*
X80841Y83173D01*
X81034Y83066D01*
X81239Y82982D01*
X81451Y82920D01*
X81669Y82883D01*
X81890Y82871D01*
X82111Y82883D01*
X82328Y82920D01*
X82541Y82982D01*
X82745Y83066D01*
X82939Y83173D01*
X83119Y83301D01*
X83284Y83448D01*
X83431Y83613D01*
X83463Y83658D01*
X128446D01*
X135186Y76918D01*
X135327Y76797D01*
X135486Y76700D01*
X135658Y76629D01*
X135838Y76586D01*
X136024Y76571D01*
X158761D01*
X164366Y70966D01*
Y9940D01*
X162698Y8271D01*
X157479D01*
X157447Y8316D01*
X157300Y8481D01*
X157135Y8628D01*
X156955Y8756D01*
X156761Y8863D01*
X156557Y8948D01*
X156344Y9009D01*
X156126Y9046D01*
X155905Y9058D01*
X155685Y9046D01*
X155467Y9009D01*
X155254Y8948D01*
X155050Y8863D01*
X154857Y8756D01*
X154676Y8628D01*
X154511Y8481D01*
X154364Y8316D01*
X154236Y8136D01*
X154129Y7942D01*
X154045Y7738D01*
X153983Y7525D01*
X153946Y7307D01*
X153934Y7087D01*
X153946Y6866D01*
X153983Y6648D01*
X154045Y6435D01*
X154129Y6231D01*
X154236Y6038D01*
X154364Y5857D01*
X154511Y5692D01*
X154676Y5545D01*
X154857Y5417D01*
X155050Y5310D01*
X155254Y5226D01*
X155467Y5164D01*
X155685Y5127D01*
X155905Y5115D01*
X156126Y5127D01*
X156344Y5164D01*
X156557Y5226D01*
X156761Y5310D01*
X156955Y5417D01*
X157135Y5545D01*
X157300Y5692D01*
X157447Y5857D01*
X157479Y5902D01*
X163189D01*
X163374Y5916D01*
X163555Y5960D01*
X163727Y6031D01*
X163885Y6128D01*
X164027Y6249D01*
X166389Y8611D01*
X166510Y8752D01*
X166607Y8911D01*
X166678Y9083D01*
X166721Y9263D01*
X166736Y9449D01*
Y71457D01*
X166721Y71642D01*
X166678Y71823D01*
X166607Y71995D01*
X166510Y72153D01*
X166389Y72294D01*
X160090Y78594D01*
X159948Y78714D01*
X159790Y78812D01*
X159618Y78883D01*
X159437Y78926D01*
X159252Y78941D01*
X136514D01*
X129775Y85680D01*
X129633Y85801D01*
X129475Y85898D01*
X129303Y85969D01*
X129122Y86013D01*
X128937Y86027D01*
X83463D01*
X83431Y86072D01*
X83284Y86237D01*
X83119Y86384D01*
X82939Y86512D01*
X82745Y86619D01*
X82541Y86703D01*
X82328Y86765D01*
X82111Y86802D01*
X81890Y86814D01*
X81669Y86802D01*
X81451Y86765D01*
X81239Y86703D01*
X81034Y86619D01*
X80841Y86512D01*
X80660Y86384D01*
X80496Y86237D01*
X80379Y86106D01*
X79578Y86074D01*
X74413Y91239D01*
Y100396D01*
X74458Y100427D01*
X74622Y100574D01*
X74770Y100739D01*
X74898Y100920D01*
X75005Y101113D01*
X75089Y101317D01*
X75151Y101530D01*
X75187Y101748D01*
X75200Y101969D01*
X75187Y102189D01*
X75151Y102407D01*
X75089Y102620D01*
X75005Y102824D01*
X74898Y103017D01*
X74770Y103198D01*
X74622Y103363D01*
X74458Y103510D01*
X74277Y103638D01*
X74084Y103745D01*
X73879Y103830D01*
X73667Y103891D01*
X73449Y103928D01*
X73228Y103940D01*
D02*
G37*
%LPD*%
D10*
X52165Y36811D02*
X58268Y30709D01*
Y30512D02*
Y30709D01*
X34252Y106496D02*
Y141339D01*
X18504Y157087D02*
X34252Y141339D01*
X31102Y165354D02*
X50590Y145866D01*
X18504Y165354D02*
X31102D01*
X34252Y106496D02*
X45079Y95669D01*
X50590Y145866D02*
X102756D01*
X114370Y124016D02*
Y131102D01*
X100000Y109646D02*
X114370Y124016D01*
Y131102D02*
X119095Y135827D01*
X11024Y46457D02*
X21260D01*
X7480Y42913D02*
X11024Y46457D01*
X69626Y164823D02*
X69685Y164764D01*
X53799Y164823D02*
X69626D01*
X50590Y161614D02*
X53799Y164823D01*
X31299Y196063D02*
X103150D01*
X107874Y191339D01*
X109646Y172519D02*
Y189567D01*
X107874Y191339D02*
X109646Y189567D01*
X97441Y191339D02*
X104449Y184330D01*
X87874Y191339D02*
X97441D01*
X93701Y94685D02*
X100000Y100984D01*
Y109646D01*
X80118Y101378D02*
X89370D01*
X91732Y99016D01*
X13583Y178347D02*
X31299Y196063D01*
X13583Y155512D02*
Y178347D01*
X102756Y145866D02*
X107874Y140748D01*
Y125000D02*
Y140748D01*
X13583Y155512D02*
X29134Y139961D01*
Y104134D02*
Y139961D01*
Y104134D02*
X37244Y96024D01*
X50590Y152953D02*
Y161614D01*
X97973Y170846D02*
X104449Y177323D01*
X97973Y164823D02*
Y170846D01*
X104449Y167323D02*
X109646Y172519D01*
X104449Y177323D02*
Y184330D01*
X37244Y80709D02*
Y96024D01*
X95669Y112795D02*
X107874Y125000D01*
X64566Y95669D02*
X68504Y99607D01*
X45079Y95669D02*
X64566D01*
X58661Y103150D02*
X61614Y106102D01*
X47244Y103150D02*
X58661D01*
X61614Y106102D02*
X75394D01*
X45079Y105315D02*
X47244Y103150D01*
X45079Y105315D02*
Y110236D01*
X7283Y57874D02*
X10630Y61221D01*
X23031D01*
X52165Y36811D02*
Y53543D01*
X92716Y121653D02*
X96850D01*
X38780D02*
X92716D01*
X159252Y77756D02*
X165551Y71457D01*
Y9449D02*
Y71457D01*
X163189Y7087D02*
X165551Y9449D01*
X136024Y77756D02*
X159252D01*
X155905Y7087D02*
X163189D01*
X128937Y84842D02*
X136024Y77756D01*
X81890Y84842D02*
X128937D01*
X73228Y90748D02*
Y101969D01*
Y90748D02*
X79134Y84842D01*
X81890D01*
X103740Y128543D02*
Y128740D01*
X96850Y121653D02*
X103740Y128543D01*
X104527Y100000D02*
Y103149D01*
X95276Y90748D02*
X104527Y100000D01*
X80118Y90748D02*
X95276D01*
X77559Y93307D02*
X80118Y90748D01*
X83465Y94685D02*
X93701D01*
X80905Y97244D02*
X83465Y94685D01*
X77559Y93307D02*
Y93504D01*
X95669Y105905D02*
Y112795D01*
X75394Y106102D02*
X80118Y101378D01*
D56*
X58268Y30512D02*
D03*
X18504Y165354D02*
D03*
Y157087D02*
D03*
X119095Y142913D02*
D03*
X58074Y138582D02*
D03*
X60042Y136022D02*
D03*
X56104Y136023D02*
D03*
X54136Y138582D02*
D03*
X50198Y138582D02*
D03*
X52167Y136023D02*
D03*
X48229Y136023D02*
D03*
X44291Y136024D02*
D03*
X46260Y138583D02*
D03*
X7480Y42913D02*
D03*
X66142Y30512D02*
D03*
X62992Y190551D02*
D03*
X27362Y80709D02*
D03*
X102953Y78543D02*
D03*
X127953Y187795D02*
D03*
X69685Y164823D02*
D03*
Y177559D02*
D03*
Y172047D02*
D03*
X85236Y160630D02*
D03*
X100984Y139173D02*
D03*
X124213Y146850D02*
D03*
X80708Y182677D02*
D03*
X50590Y145866D02*
D03*
Y152953D02*
D03*
X118110Y189961D02*
D03*
X42913Y178347D02*
D03*
X50984Y178543D02*
D03*
X87874Y191339D02*
D03*
X97973Y164823D02*
D03*
X69685Y159843D02*
D03*
X107874Y191339D02*
D03*
X68504Y99607D02*
D03*
X45079Y110236D02*
D03*
X56496Y105905D02*
D03*
X57480Y113583D02*
D03*
X58071Y49016D02*
D03*
X58268Y38386D02*
D03*
X82677Y116142D02*
D03*
X87008Y107480D02*
D03*
X82677D02*
D03*
X87008Y111811D02*
D03*
X82677D02*
D03*
X87008Y116142D02*
D03*
X143110Y37992D02*
D03*
Y32874D02*
D03*
X147835D02*
D03*
X138386Y37992D02*
D03*
X147835D02*
D03*
X138386Y32874D02*
D03*
X84842Y39567D02*
D03*
Y42913D02*
D03*
X87598Y44488D02*
D03*
Y41142D02*
D03*
Y37992D02*
D03*
X84842Y46260D02*
D03*
X87598Y47835D02*
D03*
X144291Y69882D02*
D03*
X147047Y68307D02*
D03*
X144291Y60039D02*
D03*
Y63189D02*
D03*
Y66536D02*
D03*
X147047Y64961D02*
D03*
Y61614D02*
D03*
X97441Y69882D02*
D03*
X100197Y68307D02*
D03*
X97441Y60039D02*
D03*
Y63189D02*
D03*
Y66536D02*
D03*
X100197Y64961D02*
D03*
Y61614D02*
D03*
X23031Y61221D02*
D03*
X24409Y47441D02*
D03*
X21260Y46457D02*
D03*
X7480Y57874D02*
D03*
X52165Y53543D02*
D03*
X227165Y208268D02*
D03*
X242520Y180512D02*
D03*
Y150787D02*
D03*
X246063Y42913D02*
D03*
X234646Y91535D02*
D03*
X187795Y81102D02*
D03*
Y6299D02*
D03*
X23228Y197047D02*
D03*
X38780Y121653D02*
D03*
X155905Y7087D02*
D03*
X81890Y84842D02*
D03*
X128543Y35433D02*
D03*
X91732Y99016D02*
D03*
X77559Y93504D02*
D03*
X100000Y109646D02*
D03*
X104527Y103149D02*
D03*
X95669Y105905D02*
D03*
X103740Y128740D02*
D03*
X151772Y37993D02*
D03*
X126574Y32874D02*
D03*
X130511Y32874D02*
D03*
X151772Y32874D02*
D03*
X134449Y32874D02*
D03*
X130511Y37993D02*
D03*
X132480Y35433D02*
D03*
X126574Y37993D02*
D03*
X134449Y37992D02*
D03*
X57953Y211693D02*
D03*
X92716Y121653D02*
D03*
X80905Y97244D02*
D03*
X73228Y101969D02*
D03*
X119095Y99606D02*
D03*
X119095Y114173D02*
D03*
X119095Y121653D02*
D03*
Y135827D02*
D03*
X77953Y201693D02*
D03*
X197953Y201693D02*
D03*
X217952Y201693D02*
D03*
X187952Y211693D02*
D03*
X127953D02*
D03*
X147952Y201693D02*
D03*
X177953Y211693D02*
D03*
X97953D02*
D03*
X61417Y100788D02*
D03*
X14961Y148425D02*
D03*
D86*
X118110Y180984D02*
Y189961D01*
X114450Y177323D02*
X118110Y180984D01*
D91*
X114450Y177323D02*
D03*
X104449Y167323D02*
D03*
X114450D02*
D03*
Y157323D02*
D03*
X104449D02*
D03*
X90748Y12402D02*
D03*
X73032D02*
D03*
X71850Y63267D02*
D03*
X129921Y122244D02*
D03*
Y102559D02*
D03*
Y173819D02*
D03*
Y154134D02*
D03*
X37244Y80709D02*
D03*
D92*
X104449Y177323D02*
D03*
X71850Y53267D02*
D03*
X47244Y80709D02*
D03*
D93*
X95276Y22244D02*
D03*
X68504D02*
D03*
D94*
X237126Y157480D02*
D03*
Y187008D02*
D03*
D95*
X247126Y157480D02*
D03*
Y187008D02*
D03*
D96*
X48622Y23622D02*
D03*
D97*
X34843D02*
D03*
M02*
