G04*
G04 #@! TF.GenerationSoftware,Altium Limited,Altium Designer,19.1.8 (144)*
G04*
G04 Layer_Color=15132400*
%FSLAX25Y25*%
%MOIN*%
G70*
G01*
G75*
%ADD10C,0.00787*%
%ADD11C,0.00591*%
%ADD12C,0.01181*%
%ADD13C,0.01575*%
G36*
X205213Y21494D02*
X205243D01*
Y21463D01*
X205366D01*
Y21433D01*
X205458D01*
Y21402D01*
Y21372D01*
X205549D01*
Y21341D01*
X205580D01*
Y21310D01*
X205610D01*
Y21280D01*
X205672D01*
Y21249D01*
X205702D01*
Y21219D01*
X205733D01*
Y21188D01*
X205764D01*
Y21158D01*
X205794D01*
Y21127D01*
X205825D01*
Y21096D01*
Y21066D01*
Y21035D01*
X205886D01*
Y21004D01*
X205917D01*
Y20974D01*
Y20943D01*
Y20913D01*
X205947D01*
Y20882D01*
Y20852D01*
Y20821D01*
Y20790D01*
X206008D01*
Y20760D01*
Y20729D01*
Y20699D01*
Y20668D01*
Y20637D01*
Y20607D01*
X206039D01*
Y20576D01*
Y20546D01*
Y20515D01*
Y20484D01*
Y20454D01*
Y20423D01*
Y20393D01*
Y20362D01*
Y20332D01*
Y20301D01*
Y20270D01*
X206008D01*
Y20240D01*
Y20209D01*
Y20178D01*
Y20148D01*
Y20117D01*
Y20087D01*
X205947D01*
Y20056D01*
Y20026D01*
X205917D01*
Y19995D01*
Y19964D01*
Y19934D01*
X205855D01*
Y19903D01*
Y19873D01*
Y19842D01*
X205825D01*
Y19811D01*
X205794D01*
Y19781D01*
Y19750D01*
X205764D01*
Y19720D01*
X205702D01*
Y19689D01*
Y19658D01*
X205672D01*
Y19628D01*
X205610D01*
Y19597D01*
X205580D01*
Y19567D01*
Y19536D01*
X205488D01*
Y19505D01*
X205396D01*
Y19475D01*
Y19444D01*
X205274D01*
Y19414D01*
X205121D01*
Y19383D01*
X204846D01*
Y19414D01*
X204632D01*
Y19444D01*
X204540D01*
Y19475D01*
Y19505D01*
X204448D01*
Y19536D01*
X204356D01*
Y19567D01*
Y19597D01*
X204326D01*
Y19628D01*
X204081D01*
Y19597D01*
X203959D01*
Y19567D01*
Y19536D01*
X203867D01*
Y19505D01*
X203744D01*
Y19475D01*
X203714D01*
Y19444D01*
X203653D01*
Y19414D01*
X203561D01*
Y19383D01*
X203500D01*
Y19353D01*
X203469D01*
Y19322D01*
X203408D01*
Y19291D01*
X203316D01*
Y19261D01*
X203286D01*
Y19230D01*
X203224D01*
Y19200D01*
X203133D01*
Y19169D01*
X203071D01*
Y19138D01*
X203041D01*
Y19108D01*
X203010D01*
Y19077D01*
X202918D01*
Y19047D01*
Y19016D01*
X202827D01*
Y18985D01*
X202765D01*
Y18955D01*
X202735D01*
Y18924D01*
X202704D01*
Y18894D01*
X202612D01*
Y18863D01*
X202551D01*
Y18832D01*
X202521D01*
Y18802D01*
X202490D01*
Y18771D01*
X202398D01*
Y18741D01*
Y18710D01*
Y18679D01*
Y18649D01*
Y18618D01*
Y18588D01*
Y18557D01*
X202429D01*
Y18527D01*
Y18496D01*
Y18465D01*
Y18435D01*
Y18404D01*
X202490D01*
Y18374D01*
Y18343D01*
Y18312D01*
Y18282D01*
X202521D01*
Y18251D01*
Y18221D01*
Y18190D01*
X202582D01*
Y18159D01*
X202612D01*
Y18129D01*
X202704D01*
Y18098D01*
Y18068D01*
X202827D01*
Y18037D01*
X202949D01*
Y18006D01*
X202979D01*
Y17976D01*
X203102D01*
Y17945D01*
X203224D01*
Y17915D01*
X203377D01*
Y17884D01*
X203408D01*
Y17853D01*
X203530D01*
Y17823D01*
X203683D01*
Y17792D01*
Y17762D01*
X203867D01*
Y17731D01*
X204020D01*
Y17700D01*
X204081D01*
Y17670D01*
X204203D01*
Y17639D01*
X204417D01*
Y17609D01*
X204570D01*
Y17578D01*
X204601D01*
Y17548D01*
X204815D01*
Y17517D01*
X204968D01*
Y17486D01*
X204999D01*
Y17456D01*
X205182D01*
Y17425D01*
X205458D01*
Y17395D01*
X205641D01*
Y17364D01*
X205672D01*
Y17333D01*
X205917D01*
Y17303D01*
X206131D01*
Y17272D01*
X206161D01*
Y17242D01*
X206406D01*
Y17211D01*
X206651D01*
Y17180D01*
X206895D01*
Y17150D01*
Y17119D01*
X207201D01*
Y17089D01*
X207446D01*
Y17058D01*
X207477D01*
Y17027D01*
X207752D01*
Y16997D01*
X208058D01*
Y16966D01*
X208425D01*
Y16997D01*
X208517D01*
Y17027D01*
Y17058D01*
Y17089D01*
X208578D01*
Y17119D01*
Y17150D01*
Y17180D01*
X208609D01*
Y17211D01*
X208639D01*
Y17242D01*
X208700D01*
Y17272D01*
Y17303D01*
Y17333D01*
X208731D01*
Y17364D01*
Y17395D01*
X208792D01*
Y17425D01*
X208853D01*
Y17456D01*
X208884D01*
Y17486D01*
X208915D01*
Y17517D01*
X208945D01*
Y17548D01*
X209037D01*
Y17578D01*
Y17609D01*
X209129D01*
Y17639D01*
X209190D01*
Y17670D01*
X209312D01*
Y17700D01*
X209343D01*
Y17731D01*
X209557D01*
Y17762D01*
X209894D01*
Y17731D01*
X210108D01*
Y17700D01*
X210138D01*
Y17670D01*
X210261D01*
Y17639D01*
X210383D01*
Y17609D01*
X210444D01*
Y17578D01*
X210475D01*
Y17548D01*
X210505D01*
Y17517D01*
X210597D01*
Y17486D01*
Y17456D01*
X210628D01*
Y17425D01*
X210658D01*
Y17395D01*
X210719D01*
Y17364D01*
Y17333D01*
X210750D01*
Y17303D01*
X210811D01*
Y17272D01*
Y17242D01*
X210842D01*
Y17211D01*
X210873D01*
Y17180D01*
Y17150D01*
Y17119D01*
X210934D01*
Y17089D01*
X210964D01*
Y17058D01*
Y17027D01*
Y16997D01*
X211026D01*
Y16966D01*
X210995D01*
Y16936D01*
Y16905D01*
X211056D01*
Y16874D01*
Y16844D01*
Y16813D01*
Y16783D01*
X211087D01*
Y16752D01*
Y16722D01*
Y16691D01*
Y16660D01*
Y16630D01*
Y16599D01*
X211148D01*
Y16569D01*
Y16538D01*
Y16507D01*
Y16477D01*
Y16446D01*
Y16416D01*
Y16385D01*
Y16354D01*
Y16324D01*
Y16293D01*
Y16263D01*
Y16232D01*
Y16201D01*
Y16171D01*
Y16140D01*
X211087D01*
Y16110D01*
Y16079D01*
Y16048D01*
Y16018D01*
Y15987D01*
X211056D01*
Y15957D01*
Y15926D01*
Y15895D01*
Y15865D01*
Y15834D01*
X210995D01*
Y15804D01*
Y15773D01*
X210964D01*
Y15743D01*
Y15712D01*
Y15681D01*
X210934D01*
Y15651D01*
Y15620D01*
Y15590D01*
X210903D01*
Y15559D01*
X210842D01*
Y15528D01*
Y15498D01*
X210781D01*
Y15467D01*
Y15437D01*
Y15406D01*
X210750D01*
Y15375D01*
X210719D01*
Y15345D01*
X210658D01*
Y15314D01*
X210628D01*
Y15284D01*
X210597D01*
Y15253D01*
X210536D01*
Y15223D01*
Y15192D01*
X210444D01*
Y15161D01*
X210383D01*
Y15131D01*
X210291D01*
Y15100D01*
Y15069D01*
X210169D01*
Y15039D01*
X209985D01*
Y15008D01*
Y14978D01*
X209526D01*
Y15008D01*
X209496D01*
Y15039D01*
X209343D01*
Y15069D01*
X209221D01*
Y15100D01*
X209190D01*
Y15131D01*
X209129D01*
Y15161D01*
X209037D01*
Y15192D01*
X209006D01*
Y15223D01*
X208976D01*
Y15253D01*
X208915D01*
Y15284D01*
X208853D01*
Y15314D01*
Y15345D01*
X208823D01*
Y15375D01*
X208792D01*
Y15406D01*
X208731D01*
Y15437D01*
Y15467D01*
X208700D01*
Y15498D01*
X208639D01*
Y15528D01*
Y15559D01*
X208609D01*
Y15590D01*
Y15620D01*
X208578D01*
Y15651D01*
X208547D01*
Y15681D01*
X208517D01*
Y15712D01*
Y15743D01*
Y15773D01*
X208486D01*
Y15804D01*
Y15834D01*
X208456D01*
Y15865D01*
Y15895D01*
Y15926D01*
Y15957D01*
Y15987D01*
Y16018D01*
X208395D01*
Y16048D01*
Y16079D01*
Y16110D01*
Y16140D01*
X208364D01*
Y16171D01*
X208333D01*
Y16201D01*
X208303D01*
Y16232D01*
X208272D01*
Y16263D01*
X208150D01*
Y16293D01*
X208119D01*
Y16324D01*
X207997D01*
Y16354D01*
X207874D01*
Y16385D01*
Y16416D01*
X207691D01*
Y16446D01*
X207538D01*
Y16477D01*
X207385D01*
Y16507D01*
X207354D01*
Y16538D01*
X207201D01*
Y16569D01*
X206987D01*
Y16599D01*
Y16630D01*
X206773D01*
Y16660D01*
X206559D01*
Y16691D01*
X206528D01*
Y16722D01*
X206345D01*
Y16752D01*
X206131D01*
Y16783D01*
X205886D01*
Y16813D01*
X205855D01*
Y16844D01*
X205610D01*
Y16874D01*
X205396D01*
Y16905D01*
X205366D01*
Y16936D01*
X205121D01*
Y16966D01*
X204846D01*
Y16997D01*
X204601D01*
Y17027D01*
X204570D01*
Y17058D01*
X204264D01*
Y17089D01*
X203989D01*
Y17119D01*
X203959D01*
Y17150D01*
X203591D01*
Y17180D01*
X202490D01*
Y17150D01*
X202429D01*
Y17119D01*
X202398D01*
Y17089D01*
X202368D01*
Y17058D01*
Y17027D01*
Y16997D01*
X202307D01*
Y16966D01*
Y16936D01*
X202276D01*
Y16905D01*
Y16874D01*
Y16844D01*
X202215D01*
Y16813D01*
Y16783D01*
X202245D01*
Y16752D01*
X202184D01*
Y16722D01*
X202153D01*
Y16691D01*
Y16660D01*
Y16630D01*
X202123D01*
Y16599D01*
X202092D01*
Y16569D01*
X202062D01*
Y16538D01*
X202031D01*
Y16507D01*
X202001D01*
Y16477D01*
X201970D01*
Y16446D01*
X201939D01*
Y16416D01*
X201909D01*
Y16385D01*
X201878D01*
Y16354D01*
X201848D01*
Y16324D01*
X201817D01*
Y16293D01*
X201786D01*
Y16263D01*
X201756D01*
Y16232D01*
X201725D01*
Y16201D01*
X201695D01*
Y16171D01*
X201664D01*
Y16140D01*
X201603D01*
Y16110D01*
X201542D01*
Y16079D01*
Y16048D01*
X201450D01*
Y16018D01*
X201389D01*
Y15987D01*
X201297D01*
Y15957D01*
Y15926D01*
X201205D01*
Y15895D01*
X201083D01*
Y15865D01*
Y15834D01*
X200960D01*
Y15804D01*
X200746D01*
Y15773D01*
X200043D01*
Y15804D01*
X199829D01*
Y15834D01*
X199706D01*
Y15865D01*
Y15895D01*
X199584D01*
Y15926D01*
X199492D01*
Y15957D01*
X199461D01*
Y15987D01*
X199400D01*
Y16018D01*
X199308D01*
Y16048D01*
X199186D01*
Y16018D01*
X199064D01*
Y15987D01*
X199033D01*
Y15957D01*
Y15926D01*
X198941D01*
Y15895D01*
X198911D01*
Y15865D01*
X198880D01*
Y15834D01*
X198819D01*
Y15804D01*
X198758D01*
Y15773D01*
X198696D01*
Y15743D01*
X198666D01*
Y15712D01*
X198635D01*
Y15681D01*
X198544D01*
Y15651D01*
Y15620D01*
X198513D01*
Y15590D01*
X198421D01*
Y15559D01*
X198391D01*
Y15528D01*
Y15498D01*
X198299D01*
Y15467D01*
X198268D01*
Y15437D01*
X198238D01*
Y15406D01*
X198176D01*
Y15375D01*
X198115D01*
Y15345D01*
X198085D01*
Y15314D01*
Y15284D01*
X197993D01*
Y15253D01*
X197962D01*
Y15223D01*
X197932D01*
Y15192D01*
X197871D01*
Y15161D01*
X197840D01*
Y15131D01*
X197809D01*
Y15100D01*
X197779D01*
Y15069D01*
X197687D01*
Y15039D01*
X197656D01*
Y15008D01*
Y14978D01*
X197595D01*
Y14947D01*
X197565D01*
Y14917D01*
X197503D01*
Y14886D01*
X197473D01*
Y14855D01*
X197442D01*
Y14825D01*
X197412D01*
Y14794D01*
X197381D01*
Y14764D01*
X197350D01*
Y14733D01*
X197320D01*
Y14702D01*
X197289D01*
Y14672D01*
X197259D01*
Y14641D01*
X197197D01*
Y14611D01*
X197136D01*
Y14580D01*
Y14549D01*
X197106D01*
Y14519D01*
X197045D01*
Y14488D01*
Y14458D01*
X197014D01*
Y14427D01*
X196922D01*
Y14397D01*
X196892D01*
Y14366D01*
Y14335D01*
X196830D01*
Y14305D01*
X196800D01*
Y14274D01*
Y14243D01*
X196739D01*
Y14213D01*
X196677D01*
Y14182D01*
X196647D01*
Y14152D01*
X196616D01*
Y14121D01*
X196586D01*
Y14090D01*
X196555D01*
Y14060D01*
X196524D01*
Y14029D01*
X196494D01*
Y13999D01*
X196402D01*
Y13968D01*
X196371D01*
Y13938D01*
Y13907D01*
X196341D01*
Y13876D01*
X196280D01*
Y13846D01*
Y13815D01*
X196188D01*
Y13785D01*
X196157D01*
Y13754D01*
X196127D01*
Y13723D01*
X196096D01*
Y13693D01*
X196065D01*
Y13662D01*
X196035D01*
Y13632D01*
X196004D01*
Y13601D01*
X195974D01*
Y13570D01*
X195913D01*
Y13540D01*
X195882D01*
Y13509D01*
X195851D01*
Y13479D01*
X195821D01*
Y13448D01*
X195760D01*
Y13418D01*
Y13387D01*
X195729D01*
Y13356D01*
X195698D01*
Y13326D01*
X195668D01*
Y13295D01*
X195637D01*
Y13264D01*
X195545D01*
Y13234D01*
X195515D01*
Y13203D01*
Y13173D01*
X195454D01*
Y13142D01*
X195423D01*
Y13112D01*
X195393D01*
Y13081D01*
Y13050D01*
X195331D01*
Y13020D01*
Y12989D01*
Y12959D01*
X195301D01*
Y12928D01*
X195239D01*
Y12897D01*
Y12867D01*
Y12836D01*
Y12806D01*
Y12775D01*
Y12744D01*
Y12714D01*
X195301D01*
Y12683D01*
Y12653D01*
Y12622D01*
X195331D01*
Y12592D01*
Y12561D01*
Y12530D01*
Y12500D01*
X195362D01*
Y12469D01*
Y12438D01*
Y12408D01*
Y12377D01*
Y12347D01*
Y12316D01*
X195423D01*
Y12286D01*
Y12255D01*
Y12224D01*
Y12194D01*
Y12163D01*
Y12133D01*
Y12102D01*
Y12071D01*
Y12041D01*
Y12010D01*
Y11980D01*
X195362D01*
Y11949D01*
Y11918D01*
Y11888D01*
Y11857D01*
Y11827D01*
Y11796D01*
X195393D01*
Y11766D01*
X195331D01*
Y11735D01*
Y11704D01*
Y11674D01*
Y11643D01*
X195301D01*
Y11613D01*
Y11582D01*
Y11551D01*
X195239D01*
Y11521D01*
Y11490D01*
Y11460D01*
X195209D01*
Y11429D01*
X195148D01*
Y11398D01*
Y11368D01*
X195178D01*
Y11337D01*
X195117D01*
Y11307D01*
Y11276D01*
X195087D01*
Y11245D01*
X195056D01*
Y11215D01*
X194995D01*
Y11184D01*
Y11154D01*
X194964D01*
Y11123D01*
X194903D01*
Y11092D01*
Y11062D01*
X194811D01*
Y11031D01*
X194750D01*
Y11001D01*
X194658D01*
Y10970D01*
Y10939D01*
X194567D01*
Y10909D01*
X194444D01*
Y10878D01*
Y10848D01*
X193832D01*
Y10878D01*
Y10909D01*
X193710D01*
Y10939D01*
X193588D01*
Y10970D01*
X193557D01*
Y11001D01*
X193496D01*
Y11031D01*
X193435D01*
Y11062D01*
X193373D01*
Y11092D01*
X193343D01*
Y11123D01*
X193312D01*
Y11154D01*
X193282D01*
Y11184D01*
Y11215D01*
X193220D01*
Y11245D01*
X193190D01*
Y11276D01*
X193159D01*
Y11307D01*
X193129D01*
Y11337D01*
X193098D01*
Y11368D01*
X193067D01*
Y11398D01*
Y11429D01*
Y11460D01*
X193006D01*
Y11490D01*
Y11521D01*
X192976D01*
Y11551D01*
Y11582D01*
X192945D01*
Y11613D01*
Y11643D01*
Y11674D01*
Y11704D01*
Y11735D01*
X192884D01*
Y11766D01*
Y11796D01*
Y11827D01*
Y11857D01*
X192853D01*
Y11888D01*
Y11918D01*
Y11949D01*
Y11980D01*
Y12010D01*
Y12041D01*
Y12071D01*
Y12102D01*
Y12133D01*
Y12163D01*
Y12194D01*
Y12224D01*
Y12255D01*
Y12286D01*
Y12316D01*
Y12347D01*
Y12377D01*
Y12408D01*
X192884D01*
Y12438D01*
Y12469D01*
Y12500D01*
Y12530D01*
Y12561D01*
X192945D01*
Y12592D01*
Y12622D01*
Y12653D01*
X192976D01*
Y12683D01*
Y12714D01*
Y12744D01*
X193037D01*
Y12775D01*
Y12806D01*
Y12836D01*
X193067D01*
Y12867D01*
X193098D01*
Y12897D01*
Y12928D01*
Y12959D01*
X193129D01*
Y12989D01*
X193190D01*
Y13020D01*
Y13050D01*
X193220D01*
Y13081D01*
X193282D01*
Y13112D01*
Y13142D01*
X193312D01*
Y13173D01*
X193404D01*
Y13203D01*
X193435D01*
Y13234D01*
Y13264D01*
X193526D01*
Y13295D01*
X193618D01*
Y13326D01*
Y13356D01*
X193740D01*
Y13387D01*
X193955D01*
Y13418D01*
X194322D01*
Y13387D01*
X194475D01*
Y13356D01*
X194597D01*
Y13326D01*
X194628D01*
Y13295D01*
X194781D01*
Y13326D01*
Y13356D01*
X194872D01*
Y13387D01*
X194903D01*
Y13418D01*
X194964D01*
Y13448D01*
X194995D01*
Y13479D01*
X195025D01*
Y13509D01*
X195056D01*
Y13540D01*
X195087D01*
Y13570D01*
X195117D01*
Y13601D01*
X195148D01*
Y13632D01*
X195178D01*
Y13662D01*
X195209D01*
Y13693D01*
X195239D01*
Y13723D01*
X195331D01*
Y13754D01*
Y13785D01*
X195362D01*
Y13815D01*
X195423D01*
Y13846D01*
Y13876D01*
X195454D01*
Y13907D01*
X195484D01*
Y13938D01*
X195545D01*
Y13968D01*
Y13999D01*
X195576D01*
Y14029D01*
X195637D01*
Y14060D01*
X195668D01*
Y14090D01*
X195729D01*
Y14121D01*
X195760D01*
Y14152D01*
X195790D01*
Y14182D01*
X195821D01*
Y14213D01*
X195851D01*
Y14243D01*
X195882D01*
Y14274D01*
Y14305D01*
X195943D01*
Y14335D01*
X195974D01*
Y14366D01*
X196004D01*
Y14397D01*
X196035D01*
Y14427D01*
X196065D01*
Y14458D01*
X196096D01*
Y14488D01*
Y14519D01*
X196188D01*
Y14549D01*
X196219D01*
Y14580D01*
X196249D01*
Y14611D01*
X196280D01*
Y14641D01*
X196310D01*
Y14672D01*
X196341D01*
Y14702D01*
X196371D01*
Y14733D01*
X196402D01*
Y14764D01*
X196433D01*
Y14794D01*
X196463D01*
Y14825D01*
X196494D01*
Y14855D01*
X196524D01*
Y14886D01*
X196555D01*
Y14917D01*
X196586D01*
Y14947D01*
X196616D01*
Y14978D01*
X196647D01*
Y15008D01*
X196677D01*
Y15039D01*
X196708D01*
Y15069D01*
X196739D01*
Y15100D01*
X196769D01*
Y15131D01*
X196800D01*
Y15161D01*
X196830D01*
Y15192D01*
X196861D01*
Y15223D01*
X196892D01*
Y15253D01*
X196922D01*
Y15284D01*
X196953D01*
Y15314D01*
X196983D01*
Y15345D01*
X197014D01*
Y15375D01*
X197075D01*
Y15406D01*
X197136D01*
Y15437D01*
X197167D01*
Y15467D01*
Y15498D01*
X197197D01*
Y15528D01*
X197259D01*
Y15559D01*
Y15590D01*
X197289D01*
Y15620D01*
X197350D01*
Y15651D01*
Y15681D01*
X197381D01*
Y15712D01*
X197412D01*
Y15743D01*
X197473D01*
Y15773D01*
Y15804D01*
Y15834D01*
X197503D01*
Y15865D01*
X197534D01*
Y15895D01*
X197565D01*
Y15926D01*
X197595D01*
Y15957D01*
X197626D01*
Y15987D01*
X197656D01*
Y16018D01*
X197687D01*
Y16048D01*
X197718D01*
Y16079D01*
X197748D01*
Y16110D01*
X197779D01*
Y16140D01*
X197809D01*
Y16171D01*
X197840D01*
Y16201D01*
X197871D01*
Y16232D01*
X197901D01*
Y16263D01*
X197932D01*
Y16293D01*
X197962D01*
Y16324D01*
X197993D01*
Y16354D01*
X198023D01*
Y16385D01*
X198085D01*
Y16416D01*
Y16446D01*
Y16477D01*
X198115D01*
Y16507D01*
Y16538D01*
X198146D01*
Y16569D01*
X198207D01*
Y16599D01*
X198238D01*
Y16630D01*
Y16660D01*
Y16691D01*
X198268D01*
Y16722D01*
X198299D01*
Y16752D01*
X198329D01*
Y16783D01*
Y16813D01*
X198360D01*
Y16844D01*
Y16874D01*
X198421D01*
Y16905D01*
Y16936D01*
Y16966D01*
Y16997D01*
Y17027D01*
Y17058D01*
Y17089D01*
Y17119D01*
Y17150D01*
X198391D01*
Y17180D01*
Y17211D01*
Y17242D01*
Y17272D01*
X198329D01*
Y17303D01*
X198238D01*
Y17333D01*
Y17364D01*
X198115D01*
Y17395D01*
X196616D01*
Y17364D01*
X195698D01*
Y17333D01*
X195668D01*
Y17303D01*
X194872D01*
Y17272D01*
X194138D01*
Y17242D01*
Y17211D01*
X193465D01*
Y17180D01*
X192945D01*
Y17150D01*
X192456D01*
Y17119D01*
X192425D01*
Y17089D01*
X191966D01*
Y17058D01*
X191477D01*
Y17027D01*
Y16997D01*
X191048D01*
Y16966D01*
X190620D01*
Y16936D01*
X190253D01*
Y16905D01*
Y16874D01*
X189916D01*
Y16844D01*
X189610D01*
Y16813D01*
X189580D01*
Y16783D01*
X189396D01*
Y16752D01*
X189274D01*
Y16722D01*
X189213D01*
Y16691D01*
X189182D01*
Y16660D01*
X189121D01*
Y16630D01*
Y16599D01*
Y16569D01*
X189090D01*
Y16538D01*
Y16507D01*
Y16477D01*
X189029D01*
Y16446D01*
Y16416D01*
X188999D01*
Y16385D01*
Y16354D01*
Y16324D01*
X188937D01*
Y16293D01*
Y16263D01*
Y16232D01*
X188907D01*
Y16201D01*
Y16171D01*
Y16140D01*
X188876D01*
Y16110D01*
X188846D01*
Y16079D01*
X188815D01*
Y16048D01*
X188784D01*
Y16018D01*
X188754D01*
Y15987D01*
X188723D01*
Y15957D01*
X188693D01*
Y15926D01*
X188662D01*
Y15895D01*
X188631D01*
Y15865D01*
X188601D01*
Y15834D01*
X188570D01*
Y15804D01*
X188540D01*
Y15773D01*
X188448D01*
Y15743D01*
Y15712D01*
X188356D01*
Y15681D01*
X188264D01*
Y15651D01*
Y15620D01*
X188173D01*
Y15590D01*
X188050D01*
Y15559D01*
X187897D01*
Y15528D01*
Y15498D01*
X187285D01*
Y15528D01*
X187255D01*
Y15559D01*
X187102D01*
Y15590D01*
X187010D01*
Y15620D01*
X186888D01*
Y15651D01*
Y15681D01*
X186796D01*
Y15712D01*
X186765D01*
Y15743D01*
Y15773D01*
X186673D01*
Y15804D01*
X186643D01*
Y15834D01*
X186612D01*
Y15865D01*
X186582D01*
Y15895D01*
X186521D01*
Y15926D01*
X186459D01*
Y15957D01*
Y15987D01*
X186429D01*
Y16018D01*
Y16048D01*
X186398D01*
Y16079D01*
X186368D01*
Y16110D01*
X186337D01*
Y16140D01*
X186306D01*
Y16171D01*
Y16201D01*
Y16232D01*
X186245D01*
Y16263D01*
X186215D01*
Y16293D01*
Y16324D01*
Y16354D01*
X186184D01*
Y16385D01*
Y16416D01*
Y16446D01*
X186123D01*
Y16477D01*
Y16507D01*
Y16538D01*
Y16569D01*
X186092D01*
Y16599D01*
Y16630D01*
Y16660D01*
Y16691D01*
X186062D01*
Y16722D01*
X186031D01*
Y16752D01*
Y16783D01*
Y16813D01*
Y16844D01*
Y16874D01*
Y16905D01*
Y16936D01*
Y16966D01*
Y16997D01*
Y17027D01*
Y17058D01*
Y17089D01*
Y17119D01*
Y17150D01*
Y17180D01*
Y17211D01*
Y17242D01*
Y17272D01*
Y17303D01*
Y17333D01*
Y17364D01*
Y17395D01*
Y17425D01*
X186092D01*
Y17456D01*
Y17486D01*
Y17517D01*
Y17548D01*
Y17578D01*
Y17609D01*
X186123D01*
Y17639D01*
Y17670D01*
X186153D01*
Y17700D01*
X186184D01*
Y17731D01*
Y17762D01*
X186215D01*
Y17792D01*
Y17823D01*
Y17853D01*
X186245D01*
Y17884D01*
Y17915D01*
Y17945D01*
X186276D01*
Y17976D01*
X186337D01*
Y18006D01*
Y18037D01*
Y18068D01*
X186368D01*
Y18098D01*
X186398D01*
Y18129D01*
X186429D01*
Y18159D01*
X186459D01*
Y18190D01*
X186490D01*
Y18221D01*
X186521D01*
Y18251D01*
X186551D01*
Y18282D01*
X186582D01*
Y18312D01*
X186612D01*
Y18343D01*
X186673D01*
Y18374D01*
X186704D01*
Y18404D01*
X186796D01*
Y18435D01*
Y18465D01*
X186857D01*
Y18496D01*
X186979D01*
Y18527D01*
Y18557D01*
X187071D01*
Y18588D01*
X187194D01*
Y18618D01*
X187469D01*
Y18649D01*
X187499D01*
Y18679D01*
X187714D01*
Y18649D01*
Y18618D01*
X187989D01*
Y18588D01*
X188111D01*
Y18557D01*
X188234D01*
Y18527D01*
Y18496D01*
X188326D01*
Y18465D01*
X188387D01*
Y18435D01*
X188417D01*
Y18404D01*
X188479D01*
Y18374D01*
X188540D01*
Y18343D01*
X188570D01*
Y18312D01*
Y18282D01*
X188662D01*
Y18251D01*
X188693D01*
Y18221D01*
X188723D01*
Y18190D01*
X188754D01*
Y18159D01*
X188784D01*
Y18129D01*
Y18098D01*
Y18068D01*
X188815D01*
Y18037D01*
X188876D01*
Y18006D01*
Y17976D01*
X188907D01*
Y17945D01*
Y17915D01*
X188937D01*
Y17884D01*
X188968D01*
Y17853D01*
X188999D01*
Y17823D01*
Y17792D01*
Y17762D01*
X189029D01*
Y17731D01*
Y17700D01*
X189060D01*
Y17670D01*
X189090D01*
Y17639D01*
Y17609D01*
X189121D01*
Y17578D01*
Y17548D01*
X189182D01*
Y17517D01*
X189304D01*
Y17486D01*
X189335D01*
Y17456D01*
X190559D01*
Y17486D01*
X190589D01*
Y17517D01*
X191354D01*
Y17548D01*
X191936D01*
Y17578D01*
X191966D01*
Y17609D01*
X192456D01*
Y17639D01*
X192914D01*
Y17670D01*
X193312D01*
Y17700D01*
X193373D01*
Y17731D01*
X193771D01*
Y17762D01*
X194199D01*
Y17792D01*
X194230D01*
Y17823D01*
X194597D01*
Y17853D01*
X195025D01*
Y17884D01*
Y17915D01*
X195423D01*
Y17945D01*
X195790D01*
Y17976D01*
X196127D01*
Y18006D01*
X196157D01*
Y18037D01*
X196494D01*
Y18068D01*
X196830D01*
Y18098D01*
Y18129D01*
X197167D01*
Y18159D01*
X197473D01*
Y18190D01*
X197748D01*
Y18221D01*
X197779D01*
Y18251D01*
X197993D01*
Y18282D01*
X198115D01*
Y18312D01*
Y18343D01*
X198207D01*
Y18374D01*
X198268D01*
Y18404D01*
X198329D01*
Y18435D01*
Y18465D01*
Y18496D01*
Y18527D01*
Y18557D01*
X198238D01*
Y18588D01*
X198207D01*
Y18618D01*
Y18649D01*
X198115D01*
Y18679D01*
X198023D01*
Y18710D01*
Y18741D01*
X197932D01*
Y18771D01*
X197809D01*
Y18802D01*
X197748D01*
Y18832D01*
X197718D01*
Y18863D01*
X197626D01*
Y18894D01*
X197565D01*
Y18924D01*
X197534D01*
Y18955D01*
X197473D01*
Y18985D01*
X197381D01*
Y19016D01*
X197259D01*
Y19047D01*
Y19077D01*
X197167D01*
Y19108D01*
X197075D01*
Y19138D01*
Y19169D01*
X196983D01*
Y19200D01*
X196861D01*
Y19230D01*
X196800D01*
Y19261D01*
X196769D01*
Y19291D01*
X196708D01*
Y19322D01*
X196586D01*
Y19353D01*
X196555D01*
Y19383D01*
X196494D01*
Y19414D01*
X196341D01*
Y19383D01*
X196280D01*
Y19353D01*
Y19322D01*
X196188D01*
Y19291D01*
X196127D01*
Y19261D01*
X196096D01*
Y19230D01*
X195668D01*
Y19261D01*
Y19291D01*
X195576D01*
Y19322D01*
X195515D01*
Y19353D01*
X195484D01*
Y19383D01*
X195454D01*
Y19414D01*
X195362D01*
Y19444D01*
X195393D01*
Y19475D01*
Y19505D01*
X195331D01*
Y19536D01*
X195301D01*
Y19567D01*
X195270D01*
Y19597D01*
X195239D01*
Y19628D01*
Y19658D01*
Y19689D01*
Y19720D01*
X195209D01*
Y19750D01*
Y19781D01*
Y19811D01*
Y19842D01*
Y19873D01*
Y19903D01*
Y19934D01*
Y19964D01*
Y19995D01*
Y20026D01*
Y20056D01*
Y20087D01*
Y20117D01*
Y20148D01*
Y20178D01*
X195239D01*
Y20209D01*
Y20240D01*
Y20270D01*
X195301D01*
Y20301D01*
Y20332D01*
Y20362D01*
X195331D01*
Y20393D01*
X195362D01*
Y20423D01*
X195393D01*
Y20454D01*
X195423D01*
Y20484D01*
X195454D01*
Y20515D01*
X195545D01*
Y20546D01*
Y20576D01*
X195637D01*
Y20607D01*
X195790D01*
Y20637D01*
X195943D01*
Y20607D01*
X196157D01*
Y20576D01*
X196219D01*
Y20546D01*
X196249D01*
Y20515D01*
X196280D01*
Y20484D01*
X196371D01*
Y20454D01*
Y20423D01*
X196402D01*
Y20393D01*
X196463D01*
Y20362D01*
X196433D01*
Y20332D01*
Y20301D01*
X196494D01*
Y20270D01*
X196524D01*
Y20240D01*
Y20209D01*
Y20178D01*
Y20148D01*
X196586D01*
Y20117D01*
Y20087D01*
Y20056D01*
Y20026D01*
Y19995D01*
Y19964D01*
Y19934D01*
Y19903D01*
Y19873D01*
Y19842D01*
Y19811D01*
Y19781D01*
X196616D01*
Y19750D01*
X196708D01*
Y19720D01*
X196800D01*
Y19689D01*
Y19658D01*
X196922D01*
Y19628D01*
X197045D01*
Y19597D01*
Y19567D01*
X197136D01*
Y19536D01*
X197259D01*
Y19505D01*
X197289D01*
Y19475D01*
X197412D01*
Y19444D01*
X197534D01*
Y19414D01*
X197656D01*
Y19383D01*
Y19353D01*
X197779D01*
Y19322D01*
X197901D01*
Y19291D01*
X197932D01*
Y19261D01*
X198085D01*
Y19230D01*
X198207D01*
Y19200D01*
X198360D01*
Y19169D01*
X198391D01*
Y19138D01*
X198544D01*
Y19108D01*
X198635D01*
Y19138D01*
X198666D01*
Y19169D01*
Y19200D01*
X198727D01*
Y19230D01*
X198758D01*
Y19261D01*
X198788D01*
Y19291D01*
X198819D01*
Y19322D01*
Y19353D01*
X198849D01*
Y19383D01*
Y19414D01*
X198880D01*
Y19444D01*
X198911D01*
Y19475D01*
X198972D01*
Y19505D01*
X199003D01*
Y19536D01*
X199064D01*
Y19567D01*
X199094D01*
Y19597D01*
Y19628D01*
X199155D01*
Y19658D01*
X199217D01*
Y19689D01*
X199247D01*
Y19720D01*
X199278D01*
Y19750D01*
X199339D01*
Y19781D01*
X199431D01*
Y19811D01*
Y19842D01*
X199522D01*
Y19873D01*
X199645D01*
Y19903D01*
X199676D01*
Y19934D01*
X199798D01*
Y19964D01*
X199951D01*
Y19995D01*
X200287D01*
Y20026D01*
Y20056D01*
X200471D01*
Y20026D01*
X200501D01*
Y19995D01*
X200838D01*
Y19964D01*
X200991D01*
Y19934D01*
X201113D01*
Y19903D01*
Y19873D01*
X201236D01*
Y19842D01*
X201327D01*
Y19811D01*
Y19781D01*
X201419D01*
Y19750D01*
X201511D01*
Y19720D01*
X201542D01*
Y19689D01*
Y19658D01*
X201633D01*
Y19628D01*
X201664D01*
Y19597D01*
X201695D01*
Y19567D01*
X201725D01*
Y19536D01*
X201817D01*
Y19505D01*
X201848D01*
Y19475D01*
Y19444D01*
X201878D01*
Y19414D01*
X201939D01*
Y19383D01*
Y19353D01*
X201970D01*
Y19322D01*
X202031D01*
Y19291D01*
Y19261D01*
X202153D01*
Y19291D01*
X202184D01*
Y19322D01*
X202276D01*
Y19353D01*
X202398D01*
Y19383D01*
Y19414D01*
X202490D01*
Y19444D01*
X202612D01*
Y19475D01*
X202674D01*
Y19505D01*
X202704D01*
Y19536D01*
X202765D01*
Y19567D01*
X202918D01*
Y19597D01*
Y19628D01*
X203010D01*
Y19658D01*
X203071D01*
Y19689D01*
X203102D01*
Y19720D01*
X203224D01*
Y19750D01*
X203286D01*
Y19781D01*
X203377D01*
Y19811D01*
Y19842D01*
X203469D01*
Y19873D01*
X203561D01*
Y19903D01*
Y19934D01*
X203653D01*
Y19964D01*
X203714D01*
Y19995D01*
X203805D01*
Y20026D01*
Y20056D01*
X203867D01*
Y20087D01*
X203897D01*
Y20117D01*
Y20148D01*
Y20178D01*
Y20209D01*
Y20240D01*
Y20270D01*
Y20301D01*
Y20332D01*
Y20362D01*
Y20393D01*
Y20423D01*
Y20454D01*
Y20484D01*
Y20515D01*
Y20546D01*
Y20576D01*
Y20607D01*
Y20637D01*
Y20668D01*
Y20699D01*
X203959D01*
Y20729D01*
Y20760D01*
Y20790D01*
X203928D01*
Y20821D01*
X203989D01*
Y20852D01*
Y20882D01*
Y20913D01*
X204020D01*
Y20943D01*
Y20974D01*
Y21004D01*
X204081D01*
Y21035D01*
Y21066D01*
Y21096D01*
X204112D01*
Y21127D01*
X204142D01*
Y21158D01*
X204203D01*
Y21188D01*
Y21219D01*
X204234D01*
Y21249D01*
X204264D01*
Y21280D01*
X204295D01*
Y21310D01*
X204326D01*
Y21341D01*
X204417D01*
Y21372D01*
X204448D01*
Y21402D01*
Y21433D01*
X204570D01*
Y21463D01*
X204693D01*
Y21494D01*
X204723D01*
Y21525D01*
X205213D01*
Y21494D01*
D02*
G37*
G36*
X225312Y11551D02*
X225557D01*
Y11521D01*
X225588D01*
Y11490D01*
X225741D01*
Y11460D01*
X225924D01*
Y11429D01*
Y11398D01*
X226016D01*
Y11368D01*
X226138D01*
Y11337D01*
X226200D01*
Y11307D01*
X226230D01*
Y11276D01*
X226322D01*
Y11245D01*
X226383D01*
Y11215D01*
X226414D01*
Y11184D01*
X226475D01*
Y11154D01*
X226567D01*
Y11123D01*
X226597D01*
Y11092D01*
Y11062D01*
X226659D01*
Y11031D01*
X226720D01*
Y11001D01*
X226750D01*
Y10970D01*
X226781D01*
Y10939D01*
X226811D01*
Y10909D01*
X226842D01*
Y10878D01*
X226873D01*
Y10848D01*
X226903D01*
Y10817D01*
X226934D01*
Y10786D01*
X226964D01*
Y10756D01*
X226995D01*
Y10725D01*
X227026D01*
Y10695D01*
X227056D01*
Y10664D01*
X227087D01*
Y10633D01*
X227117D01*
Y10603D01*
X227148D01*
Y10572D01*
X227179D01*
Y10542D01*
X227209D01*
Y10511D01*
Y10481D01*
Y10450D01*
X227240D01*
Y10419D01*
X227301D01*
Y10389D01*
X227240D01*
Y10358D01*
X227209D01*
Y10328D01*
Y10297D01*
X227117D01*
Y10266D01*
X227087D01*
Y10236D01*
X227056D01*
Y10205D01*
X226995D01*
Y10175D01*
X226903D01*
Y10144D01*
X226873D01*
Y10114D01*
Y10083D01*
X226781D01*
Y10052D01*
X226720D01*
Y10083D01*
Y10114D01*
Y10144D01*
X226689D01*
Y10175D01*
X226628D01*
Y10205D01*
X226597D01*
Y10236D01*
Y10266D01*
X226567D01*
Y10297D01*
X226505D01*
Y10328D01*
Y10358D01*
X226475D01*
Y10389D01*
X226414D01*
Y10419D01*
X226383D01*
Y10450D01*
Y10481D01*
X226353D01*
Y10511D01*
X226261D01*
Y10542D01*
X226230D01*
Y10572D01*
X226200D01*
Y10603D01*
X226138D01*
Y10633D01*
X226077D01*
Y10664D01*
Y10695D01*
X225985D01*
Y10725D01*
X225924D01*
Y10756D01*
X225894D01*
Y10786D01*
X225771D01*
Y10817D01*
X225710D01*
Y10848D01*
X225526D01*
Y10878D01*
Y10909D01*
X225312D01*
Y10939D01*
X224456D01*
Y10909D01*
X224242D01*
Y10878D01*
Y10848D01*
X224119D01*
Y10817D01*
X223997D01*
Y10786D01*
X223905D01*
Y10756D01*
Y10725D01*
X223813D01*
Y10695D01*
X223752D01*
Y10664D01*
X223722D01*
Y10633D01*
X223660D01*
Y10603D01*
X223599D01*
Y10572D01*
X223538D01*
Y10542D01*
X223507D01*
Y10511D01*
X223477D01*
Y10481D01*
X223446D01*
Y10450D01*
X223416D01*
Y10419D01*
X223385D01*
Y10389D01*
X223354D01*
Y10358D01*
X223324D01*
Y10328D01*
X223293D01*
Y10297D01*
X223263D01*
Y10266D01*
X223232D01*
Y10236D01*
X223201D01*
Y10205D01*
X223171D01*
Y10175D01*
X223140D01*
Y10144D01*
X223110D01*
Y10114D01*
X223079D01*
Y10083D01*
X223048D01*
Y10052D01*
Y10022D01*
Y9991D01*
X223018D01*
Y9961D01*
X222957D01*
Y9930D01*
Y9899D01*
Y9869D01*
X222926D01*
Y9838D01*
Y9808D01*
Y9777D01*
X222865D01*
Y9746D01*
Y9716D01*
X222834D01*
Y9685D01*
Y9655D01*
Y9624D01*
Y9593D01*
Y9563D01*
X222773D01*
Y9532D01*
Y9502D01*
Y9471D01*
X222804D01*
Y9440D01*
X222743D01*
Y9410D01*
Y9379D01*
Y9349D01*
Y9318D01*
Y9287D01*
Y9257D01*
X222712D01*
Y9226D01*
Y9196D01*
Y9165D01*
Y9134D01*
Y9104D01*
Y9073D01*
Y9043D01*
Y9012D01*
Y8981D01*
Y8951D01*
Y8920D01*
Y8890D01*
Y8859D01*
Y8828D01*
Y8798D01*
Y8767D01*
Y8737D01*
Y8706D01*
Y8676D01*
Y8645D01*
Y8614D01*
Y8584D01*
Y8553D01*
Y8523D01*
Y8492D01*
Y8461D01*
Y8431D01*
X222743D01*
Y8400D01*
Y8370D01*
Y8339D01*
Y8309D01*
Y8278D01*
X222804D01*
Y8247D01*
X222773D01*
Y8217D01*
Y8186D01*
Y8156D01*
X222834D01*
Y8125D01*
Y8094D01*
Y8064D01*
Y8033D01*
Y8003D01*
X222865D01*
Y7972D01*
Y7941D01*
X222926D01*
Y7911D01*
Y7880D01*
Y7850D01*
X222957D01*
Y7819D01*
Y7788D01*
Y7758D01*
X223018D01*
Y7727D01*
X222987D01*
Y7697D01*
Y7666D01*
X223048D01*
Y7635D01*
X223079D01*
Y7605D01*
X223110D01*
Y7574D01*
X223140D01*
Y7544D01*
Y7513D01*
X223171D01*
Y7482D01*
Y7452D01*
X223232D01*
Y7421D01*
X223263D01*
Y7391D01*
Y7360D01*
X223324D01*
Y7329D01*
X223354D01*
Y7299D01*
X223385D01*
Y7268D01*
Y7238D01*
X223446D01*
Y7207D01*
X223477D01*
Y7176D01*
Y7146D01*
X223569D01*
Y7115D01*
X223599D01*
Y7085D01*
X223630D01*
Y7054D01*
X223660D01*
Y7024D01*
X223722D01*
Y6993D01*
X223813D01*
Y6962D01*
Y6932D01*
X223905D01*
Y6901D01*
X223997D01*
Y6871D01*
X224027D01*
Y6840D01*
X224089D01*
Y6809D01*
X224211D01*
Y6779D01*
X224425D01*
Y6748D01*
Y6718D01*
X224762D01*
Y6687D01*
X225007D01*
Y6718D01*
X225404D01*
Y6748D01*
Y6779D01*
X225557D01*
Y6809D01*
X225679D01*
Y6840D01*
X225802D01*
Y6871D01*
X225833D01*
Y6901D01*
X225894D01*
Y6932D01*
X225985D01*
Y6962D01*
X226016D01*
Y6993D01*
X226077D01*
Y7024D01*
X226108D01*
Y7054D01*
X226138D01*
Y7085D01*
X226200D01*
Y7115D01*
X226261D01*
Y7146D01*
X226322D01*
Y7176D01*
X226353D01*
Y7207D01*
X226383D01*
Y7238D01*
X226414D01*
Y7268D01*
X226444D01*
Y7299D01*
X226475D01*
Y7329D01*
X226505D01*
Y7360D01*
X226536D01*
Y7391D01*
X226567D01*
Y7421D01*
X226597D01*
Y7452D01*
X226628D01*
Y7482D01*
X226659D01*
Y7513D01*
X226689D01*
Y7544D01*
X226720D01*
Y7574D01*
X226750D01*
Y7605D01*
X226781D01*
Y7574D01*
X226811D01*
Y7544D01*
X226903D01*
Y7513D01*
X226934D01*
Y7482D01*
X226964D01*
Y7452D01*
X227026D01*
Y7421D01*
X227087D01*
Y7391D01*
Y7360D01*
X227179D01*
Y7329D01*
X227209D01*
Y7299D01*
X227270D01*
Y7268D01*
Y7238D01*
X227240D01*
Y7207D01*
Y7176D01*
X227209D01*
Y7146D01*
Y7115D01*
X227179D01*
Y7085D01*
X227117D01*
Y7054D01*
Y7024D01*
X227087D01*
Y6993D01*
X227026D01*
Y6962D01*
X226995D01*
Y6932D01*
Y6901D01*
X226964D01*
Y6871D01*
X226903D01*
Y6840D01*
Y6809D01*
X226873D01*
Y6779D01*
X226811D01*
Y6748D01*
X226781D01*
Y6718D01*
Y6687D01*
X226689D01*
Y6656D01*
X226659D01*
Y6626D01*
X226628D01*
Y6595D01*
X226567D01*
Y6565D01*
X226536D01*
Y6534D01*
X226444D01*
Y6504D01*
Y6473D01*
X226353D01*
Y6442D01*
X226261D01*
Y6412D01*
Y6381D01*
X226169D01*
Y6351D01*
X226108D01*
Y6320D01*
X225985D01*
Y6289D01*
X225955D01*
Y6259D01*
X225833D01*
Y6228D01*
X225679D01*
Y6198D01*
X225649D01*
Y6167D01*
X225496D01*
Y6136D01*
X225190D01*
Y6106D01*
X224456D01*
Y6136D01*
X224211D01*
Y6167D01*
X223997D01*
Y6198D01*
X223966D01*
Y6228D01*
X223844D01*
Y6259D01*
X223722D01*
Y6289D01*
Y6320D01*
X223630D01*
Y6351D01*
X223569D01*
Y6381D01*
X223477D01*
Y6412D01*
Y6442D01*
X223385D01*
Y6473D01*
X223293D01*
Y6504D01*
Y6534D01*
X223263D01*
Y6565D01*
X223171D01*
Y6595D01*
X223140D01*
Y6626D01*
X223110D01*
Y6656D01*
X223048D01*
Y6687D01*
X222987D01*
Y6718D01*
Y6748D01*
X222957D01*
Y6779D01*
X222926D01*
Y6809D01*
X222865D01*
Y6840D01*
Y6871D01*
X222834D01*
Y6901D01*
X222773D01*
Y6932D01*
Y6962D01*
X222743D01*
Y6993D01*
X222712D01*
Y7024D01*
X222651D01*
Y7054D01*
Y7085D01*
X222620D01*
Y7115D01*
X222590D01*
Y7146D01*
Y7176D01*
Y7207D01*
X222528D01*
Y7238D01*
X222498D01*
Y7268D01*
X222467D01*
Y7299D01*
X222437D01*
Y7329D01*
Y7360D01*
Y7391D01*
X222406D01*
Y7421D01*
X222375D01*
Y7452D01*
Y7482D01*
Y7513D01*
X222314D01*
Y7544D01*
Y7574D01*
Y7605D01*
X222284D01*
Y7635D01*
Y7666D01*
X222253D01*
Y7697D01*
X222222D01*
Y7727D01*
Y7758D01*
X222192D01*
Y7788D01*
Y7819D01*
Y7850D01*
Y7880D01*
Y7911D01*
X222161D01*
Y7941D01*
Y7972D01*
Y8003D01*
Y8033D01*
X222100D01*
Y8064D01*
Y8094D01*
Y8125D01*
Y8156D01*
Y8186D01*
X222070D01*
Y8217D01*
Y8247D01*
Y8278D01*
Y8309D01*
Y8339D01*
Y8370D01*
Y8400D01*
Y8431D01*
Y8461D01*
X222008D01*
Y8492D01*
Y8523D01*
Y8553D01*
Y8584D01*
Y8614D01*
Y8645D01*
Y8676D01*
Y8706D01*
Y8737D01*
Y8767D01*
Y8798D01*
Y8828D01*
Y8859D01*
Y8890D01*
Y8920D01*
Y8951D01*
Y8981D01*
Y9012D01*
Y9043D01*
Y9073D01*
Y9104D01*
Y9134D01*
Y9165D01*
X222070D01*
Y9196D01*
Y9226D01*
Y9257D01*
Y9287D01*
Y9318D01*
Y9349D01*
Y9379D01*
Y9410D01*
Y9440D01*
X222100D01*
Y9471D01*
Y9502D01*
Y9532D01*
Y9563D01*
Y9593D01*
X222161D01*
Y9624D01*
Y9655D01*
Y9685D01*
Y9716D01*
Y9746D01*
X222192D01*
Y9777D01*
Y9808D01*
Y9838D01*
Y9869D01*
X222222D01*
Y9899D01*
Y9930D01*
Y9961D01*
X222284D01*
Y9991D01*
Y10022D01*
X222314D01*
Y10052D01*
Y10083D01*
Y10114D01*
X222375D01*
Y10144D01*
Y10175D01*
Y10205D01*
X222406D01*
Y10236D01*
X222437D01*
Y10266D01*
Y10297D01*
Y10328D01*
X222467D01*
Y10358D01*
X222498D01*
Y10389D01*
X222528D01*
Y10419D01*
Y10450D01*
Y10481D01*
X222559D01*
Y10511D01*
X222620D01*
Y10542D01*
X222651D01*
Y10572D01*
Y10603D01*
X222712D01*
Y10633D01*
Y10664D01*
Y10695D01*
X222743D01*
Y10725D01*
X222773D01*
Y10756D01*
X222834D01*
Y10786D01*
Y10817D01*
X222865D01*
Y10848D01*
X222957D01*
Y10878D01*
Y10909D01*
X222987D01*
Y10939D01*
X223048D01*
Y10970D01*
X223079D01*
Y11001D01*
Y11031D01*
X223140D01*
Y11062D01*
X223201D01*
Y11092D01*
X223232D01*
Y11123D01*
X223263D01*
Y11154D01*
X223324D01*
Y11184D01*
X223416D01*
Y11215D01*
Y11245D01*
X223477D01*
Y11276D01*
X223538D01*
Y11307D01*
X223569D01*
Y11337D01*
X223691D01*
Y11368D01*
X223752D01*
Y11398D01*
X223874D01*
Y11429D01*
X223905D01*
Y11460D01*
X224027D01*
Y11490D01*
X224242D01*
Y11521D01*
Y11551D01*
X224486D01*
Y11582D01*
X225312D01*
Y11551D01*
D02*
G37*
G36*
X221580Y11429D02*
Y11398D01*
Y11368D01*
Y11337D01*
Y11307D01*
Y11276D01*
Y11245D01*
Y11215D01*
Y11184D01*
Y11154D01*
Y11123D01*
Y11092D01*
Y11062D01*
Y11031D01*
Y11001D01*
Y10970D01*
Y10939D01*
Y10909D01*
Y10878D01*
Y10848D01*
Y10817D01*
Y10786D01*
Y10756D01*
Y10725D01*
Y10695D01*
Y10664D01*
Y10633D01*
Y10603D01*
Y10572D01*
Y10542D01*
Y10511D01*
Y10481D01*
Y10450D01*
Y10419D01*
Y10389D01*
Y10358D01*
Y10328D01*
Y10297D01*
Y10266D01*
Y10236D01*
Y10205D01*
Y10175D01*
Y10144D01*
Y10114D01*
Y10083D01*
Y10052D01*
Y10022D01*
Y9991D01*
Y9961D01*
Y9930D01*
Y9899D01*
Y9869D01*
Y9838D01*
Y9808D01*
Y9777D01*
Y9746D01*
Y9716D01*
Y9685D01*
Y9655D01*
Y9624D01*
Y9593D01*
Y9563D01*
Y9532D01*
Y9502D01*
Y9471D01*
Y9440D01*
Y9410D01*
Y9379D01*
Y9349D01*
Y9318D01*
Y9287D01*
Y9257D01*
Y9226D01*
Y9196D01*
Y9165D01*
Y9134D01*
Y9104D01*
Y9073D01*
Y9043D01*
Y9012D01*
Y8981D01*
Y8951D01*
Y8920D01*
Y8890D01*
Y8859D01*
Y8828D01*
Y8798D01*
Y8767D01*
Y8737D01*
Y8706D01*
Y8676D01*
Y8645D01*
Y8614D01*
Y8584D01*
Y8553D01*
Y8523D01*
Y8492D01*
Y8461D01*
Y8431D01*
Y8400D01*
Y8370D01*
Y8339D01*
Y8309D01*
Y8278D01*
Y8247D01*
Y8217D01*
Y8186D01*
Y8156D01*
Y8125D01*
Y8094D01*
Y8064D01*
Y8033D01*
Y8003D01*
Y7972D01*
Y7941D01*
Y7911D01*
Y7880D01*
Y7850D01*
Y7819D01*
Y7788D01*
Y7758D01*
Y7727D01*
Y7697D01*
Y7666D01*
Y7635D01*
Y7605D01*
Y7574D01*
Y7544D01*
Y7513D01*
Y7482D01*
Y7452D01*
Y7421D01*
Y7391D01*
Y7360D01*
Y7329D01*
Y7299D01*
Y7268D01*
Y7238D01*
Y7207D01*
Y7176D01*
Y7146D01*
Y7115D01*
Y7085D01*
Y7054D01*
Y7024D01*
Y6993D01*
Y6962D01*
Y6932D01*
Y6901D01*
Y6871D01*
Y6840D01*
Y6809D01*
Y6779D01*
Y6748D01*
Y6718D01*
Y6687D01*
Y6656D01*
Y6626D01*
Y6595D01*
Y6565D01*
Y6534D01*
Y6504D01*
Y6473D01*
Y6442D01*
Y6412D01*
Y6381D01*
Y6351D01*
Y6320D01*
Y6289D01*
Y6259D01*
X220907D01*
Y6289D01*
Y6320D01*
Y6351D01*
Y6381D01*
Y6412D01*
Y6442D01*
Y6473D01*
Y6504D01*
Y6534D01*
Y6565D01*
Y6595D01*
Y6626D01*
Y6656D01*
Y6687D01*
Y6718D01*
Y6748D01*
Y6779D01*
Y6809D01*
Y6840D01*
Y6871D01*
Y6901D01*
Y6932D01*
Y6962D01*
Y6993D01*
Y7024D01*
Y7054D01*
Y7085D01*
Y7115D01*
Y7146D01*
Y7176D01*
Y7207D01*
Y7238D01*
Y7268D01*
Y7299D01*
Y7329D01*
Y7360D01*
Y7391D01*
Y7421D01*
Y7452D01*
Y7482D01*
Y7513D01*
Y7544D01*
Y7574D01*
Y7605D01*
Y7635D01*
Y7666D01*
Y7697D01*
Y7727D01*
Y7758D01*
Y7788D01*
Y7819D01*
Y7850D01*
Y7880D01*
Y7911D01*
Y7941D01*
Y7972D01*
Y8003D01*
Y8033D01*
Y8064D01*
Y8094D01*
Y8125D01*
Y8156D01*
Y8186D01*
Y8217D01*
Y8247D01*
Y8278D01*
Y8309D01*
Y8339D01*
Y8370D01*
Y8400D01*
Y8431D01*
Y8461D01*
Y8492D01*
Y8523D01*
Y8553D01*
Y8584D01*
Y8614D01*
Y8645D01*
Y8676D01*
Y8706D01*
Y8737D01*
Y8767D01*
Y8798D01*
Y8828D01*
Y8859D01*
Y8890D01*
Y8920D01*
Y8951D01*
Y8981D01*
Y9012D01*
Y9043D01*
Y9073D01*
Y9104D01*
Y9134D01*
Y9165D01*
Y9196D01*
Y9226D01*
Y9257D01*
Y9287D01*
Y9318D01*
Y9349D01*
Y9379D01*
Y9410D01*
Y9440D01*
Y9471D01*
Y9502D01*
Y9532D01*
Y9563D01*
Y9593D01*
Y9624D01*
Y9655D01*
Y9685D01*
Y9716D01*
Y9746D01*
Y9777D01*
Y9808D01*
Y9838D01*
Y9869D01*
Y9899D01*
Y9930D01*
Y9961D01*
Y9991D01*
Y10022D01*
Y10052D01*
Y10083D01*
Y10114D01*
Y10144D01*
Y10175D01*
Y10205D01*
Y10236D01*
Y10266D01*
Y10297D01*
Y10328D01*
Y10358D01*
Y10389D01*
Y10419D01*
Y10450D01*
Y10481D01*
Y10511D01*
Y10542D01*
Y10572D01*
Y10603D01*
Y10633D01*
Y10664D01*
Y10695D01*
Y10725D01*
Y10756D01*
Y10786D01*
Y10817D01*
Y10848D01*
Y10878D01*
Y10909D01*
Y10939D01*
Y10970D01*
Y11001D01*
Y11031D01*
Y11062D01*
Y11092D01*
Y11123D01*
Y11154D01*
Y11184D01*
Y11215D01*
Y11245D01*
Y11276D01*
Y11307D01*
Y11337D01*
Y11368D01*
Y11398D01*
Y11429D01*
Y11460D01*
X221580D01*
Y11429D01*
D02*
G37*
G36*
X206681Y12714D02*
Y12683D01*
Y12653D01*
Y12622D01*
Y12592D01*
Y12561D01*
Y12530D01*
Y12500D01*
Y12469D01*
Y12438D01*
Y12408D01*
Y12377D01*
Y12347D01*
Y12316D01*
Y12286D01*
Y12255D01*
Y12224D01*
Y12194D01*
Y12163D01*
Y12133D01*
Y12102D01*
Y12071D01*
Y12041D01*
Y12010D01*
Y11980D01*
Y11949D01*
Y11918D01*
Y11888D01*
Y11857D01*
Y11827D01*
Y11796D01*
Y11766D01*
Y11735D01*
Y11704D01*
Y11674D01*
Y11643D01*
Y11613D01*
Y11582D01*
Y11551D01*
Y11521D01*
Y11490D01*
Y11460D01*
Y11429D01*
X204938D01*
Y11398D01*
Y11368D01*
Y11337D01*
Y11307D01*
Y11276D01*
Y11245D01*
Y11215D01*
Y11184D01*
Y11154D01*
Y11123D01*
Y11092D01*
Y11062D01*
Y11031D01*
Y11001D01*
Y10970D01*
Y10939D01*
Y10909D01*
Y10878D01*
Y10848D01*
Y10817D01*
Y10786D01*
Y10756D01*
Y10725D01*
Y10695D01*
Y10664D01*
Y10633D01*
Y10603D01*
Y10572D01*
Y10542D01*
Y10511D01*
Y10481D01*
Y10450D01*
Y10419D01*
Y10389D01*
Y10358D01*
Y10328D01*
Y10297D01*
Y10266D01*
Y10236D01*
Y10205D01*
Y10175D01*
Y10144D01*
Y10114D01*
Y10083D01*
Y10052D01*
Y10022D01*
Y9991D01*
Y9961D01*
Y9930D01*
Y9899D01*
Y9869D01*
Y9838D01*
Y9808D01*
Y9777D01*
Y9746D01*
Y9716D01*
Y9685D01*
Y9655D01*
Y9624D01*
Y9593D01*
Y9563D01*
Y9532D01*
Y9502D01*
Y9471D01*
Y9440D01*
Y9410D01*
Y9379D01*
Y9349D01*
Y9318D01*
Y9287D01*
Y9257D01*
Y9226D01*
Y9196D01*
Y9165D01*
Y9134D01*
Y9104D01*
Y9073D01*
Y9043D01*
Y9012D01*
Y8981D01*
Y8951D01*
Y8920D01*
Y8890D01*
Y8859D01*
Y8828D01*
Y8798D01*
Y8767D01*
Y8737D01*
Y8706D01*
Y8676D01*
Y8645D01*
Y8614D01*
Y8584D01*
Y8553D01*
Y8523D01*
Y8492D01*
Y8461D01*
Y8431D01*
Y8400D01*
Y8370D01*
Y8339D01*
Y8309D01*
Y8278D01*
Y8247D01*
Y8217D01*
Y8186D01*
Y8156D01*
Y8125D01*
Y8094D01*
Y8064D01*
Y8033D01*
Y8003D01*
Y7972D01*
Y7941D01*
Y7911D01*
Y7880D01*
Y7850D01*
Y7819D01*
Y7788D01*
Y7758D01*
Y7727D01*
Y7697D01*
Y7666D01*
Y7635D01*
Y7605D01*
Y7574D01*
Y7544D01*
Y7513D01*
Y7482D01*
Y7452D01*
Y7421D01*
Y7391D01*
Y7360D01*
Y7329D01*
Y7299D01*
Y7268D01*
Y7238D01*
Y7207D01*
Y7176D01*
Y7146D01*
Y7115D01*
Y7085D01*
Y7054D01*
Y7024D01*
Y6993D01*
Y6962D01*
Y6932D01*
Y6901D01*
Y6871D01*
Y6840D01*
Y6809D01*
Y6779D01*
Y6748D01*
Y6718D01*
Y6687D01*
Y6656D01*
Y6626D01*
Y6595D01*
Y6565D01*
Y6534D01*
Y6504D01*
Y6473D01*
Y6442D01*
Y6412D01*
Y6381D01*
Y6351D01*
Y6320D01*
Y6289D01*
Y6259D01*
X203347D01*
Y6289D01*
Y6320D01*
Y6351D01*
Y6381D01*
Y6412D01*
Y6442D01*
Y6473D01*
Y6504D01*
Y6534D01*
Y6565D01*
Y6595D01*
Y6626D01*
Y6656D01*
Y6687D01*
Y6718D01*
Y6748D01*
Y6779D01*
Y6809D01*
Y6840D01*
Y6871D01*
Y6901D01*
Y6932D01*
Y6962D01*
Y6993D01*
Y7024D01*
Y7054D01*
Y7085D01*
Y7115D01*
Y7146D01*
Y7176D01*
Y7207D01*
Y7238D01*
Y7268D01*
Y7299D01*
Y7329D01*
Y7360D01*
Y7391D01*
Y7421D01*
Y7452D01*
Y7482D01*
Y7513D01*
Y7544D01*
Y7574D01*
Y7605D01*
Y7635D01*
Y7666D01*
Y7697D01*
Y7727D01*
Y7758D01*
Y7788D01*
Y7819D01*
Y7850D01*
Y7880D01*
Y7911D01*
Y7941D01*
Y7972D01*
Y8003D01*
Y8033D01*
Y8064D01*
Y8094D01*
Y8125D01*
Y8156D01*
Y8186D01*
Y8217D01*
Y8247D01*
Y8278D01*
Y8309D01*
Y8339D01*
Y8370D01*
Y8400D01*
Y8431D01*
Y8461D01*
Y8492D01*
Y8523D01*
Y8553D01*
Y8584D01*
Y8614D01*
Y8645D01*
Y8676D01*
Y8706D01*
Y8737D01*
Y8767D01*
Y8798D01*
Y8828D01*
Y8859D01*
Y8890D01*
Y8920D01*
Y8951D01*
Y8981D01*
Y9012D01*
Y9043D01*
Y9073D01*
Y9104D01*
Y9134D01*
Y9165D01*
Y9196D01*
Y9226D01*
Y9257D01*
Y9287D01*
Y9318D01*
Y9349D01*
Y9379D01*
Y9410D01*
Y9440D01*
Y9471D01*
Y9502D01*
Y9532D01*
Y9563D01*
Y9593D01*
Y9624D01*
Y9655D01*
Y9685D01*
Y9716D01*
Y9746D01*
Y9777D01*
Y9808D01*
Y9838D01*
Y9869D01*
Y9899D01*
Y9930D01*
Y9961D01*
Y9991D01*
Y10022D01*
Y10052D01*
Y10083D01*
Y10114D01*
Y10144D01*
Y10175D01*
Y10205D01*
Y10236D01*
Y10266D01*
Y10297D01*
Y10328D01*
Y10358D01*
Y10389D01*
Y10419D01*
Y10450D01*
Y10481D01*
Y10511D01*
Y10542D01*
Y10572D01*
Y10603D01*
Y10633D01*
Y10664D01*
Y10695D01*
Y10725D01*
Y10756D01*
Y10786D01*
Y10817D01*
Y10848D01*
Y10878D01*
Y10909D01*
Y10939D01*
Y10970D01*
Y11001D01*
Y11031D01*
Y11062D01*
Y11092D01*
Y11123D01*
Y11154D01*
Y11184D01*
Y11215D01*
Y11245D01*
Y11276D01*
Y11307D01*
Y11337D01*
Y11368D01*
Y11398D01*
Y11429D01*
X201603D01*
Y11460D01*
Y11490D01*
Y11521D01*
Y11551D01*
Y11582D01*
Y11613D01*
Y11643D01*
Y11674D01*
Y11704D01*
Y11735D01*
Y11766D01*
Y11796D01*
Y11827D01*
Y11857D01*
Y11888D01*
Y11918D01*
Y11949D01*
Y11980D01*
Y12010D01*
Y12041D01*
Y12071D01*
Y12102D01*
Y12133D01*
Y12163D01*
Y12194D01*
Y12224D01*
Y12255D01*
Y12286D01*
Y12316D01*
Y12347D01*
Y12377D01*
Y12408D01*
Y12438D01*
Y12469D01*
Y12500D01*
Y12530D01*
Y12561D01*
Y12592D01*
Y12622D01*
Y12653D01*
Y12683D01*
Y12714D01*
X201572D01*
Y12744D01*
X206681D01*
Y12714D01*
D02*
G37*
G36*
X201174D02*
X201144D01*
Y12683D01*
Y12653D01*
Y12622D01*
Y12592D01*
Y12561D01*
Y12530D01*
Y12500D01*
Y12469D01*
Y12438D01*
Y12408D01*
Y12377D01*
Y12347D01*
Y12316D01*
Y12286D01*
Y12255D01*
Y12224D01*
Y12194D01*
Y12163D01*
Y12133D01*
Y12102D01*
Y12071D01*
Y12041D01*
Y12010D01*
Y11980D01*
Y11949D01*
Y11918D01*
Y11888D01*
Y11857D01*
Y11827D01*
Y11796D01*
Y11766D01*
Y11735D01*
Y11704D01*
Y11674D01*
Y11643D01*
Y11613D01*
Y11582D01*
Y11551D01*
Y11521D01*
Y11490D01*
Y11460D01*
Y11429D01*
Y11398D01*
Y11368D01*
Y11337D01*
Y11307D01*
Y11276D01*
Y11245D01*
Y11215D01*
Y11184D01*
Y11154D01*
Y11123D01*
Y11092D01*
Y11062D01*
Y11031D01*
Y11001D01*
Y10970D01*
Y10939D01*
Y10909D01*
Y10878D01*
Y10848D01*
Y10817D01*
Y10786D01*
Y10756D01*
Y10725D01*
Y10695D01*
Y10664D01*
Y10633D01*
Y10603D01*
Y10572D01*
Y10542D01*
Y10511D01*
Y10481D01*
Y10450D01*
Y10419D01*
Y10389D01*
Y10358D01*
Y10328D01*
Y10297D01*
Y10266D01*
Y10236D01*
Y10205D01*
Y10175D01*
Y10144D01*
Y10114D01*
Y10083D01*
Y10052D01*
Y10022D01*
Y9991D01*
Y9961D01*
Y9930D01*
Y9899D01*
Y9869D01*
Y9838D01*
Y9808D01*
Y9777D01*
Y9746D01*
Y9716D01*
Y9685D01*
Y9655D01*
Y9624D01*
Y9593D01*
Y9563D01*
Y9532D01*
Y9502D01*
Y9471D01*
Y9440D01*
Y9410D01*
Y9379D01*
Y9349D01*
Y9318D01*
Y9287D01*
Y9257D01*
Y9226D01*
Y9196D01*
Y9165D01*
Y9134D01*
Y9104D01*
Y9073D01*
Y9043D01*
Y9012D01*
Y8981D01*
Y8951D01*
Y8920D01*
Y8890D01*
Y8859D01*
Y8828D01*
Y8798D01*
Y8767D01*
Y8737D01*
Y8706D01*
Y8676D01*
Y8645D01*
Y8614D01*
Y8584D01*
Y8553D01*
Y8523D01*
Y8492D01*
Y8461D01*
Y8431D01*
Y8400D01*
Y8370D01*
Y8339D01*
Y8309D01*
Y8278D01*
Y8247D01*
Y8217D01*
Y8186D01*
Y8156D01*
Y8125D01*
Y8094D01*
Y8064D01*
Y8033D01*
Y8003D01*
Y7972D01*
Y7941D01*
Y7911D01*
Y7880D01*
Y7850D01*
Y7819D01*
Y7788D01*
Y7758D01*
Y7727D01*
Y7697D01*
Y7666D01*
Y7635D01*
Y7605D01*
Y7574D01*
Y7544D01*
Y7513D01*
Y7482D01*
Y7452D01*
Y7421D01*
Y7391D01*
Y7360D01*
Y7329D01*
Y7299D01*
Y7268D01*
Y7238D01*
Y7207D01*
Y7176D01*
Y7146D01*
Y7115D01*
Y7085D01*
Y7054D01*
Y7024D01*
Y6993D01*
Y6962D01*
Y6932D01*
Y6901D01*
Y6871D01*
Y6840D01*
Y6809D01*
Y6779D01*
Y6748D01*
Y6718D01*
Y6687D01*
Y6656D01*
Y6626D01*
Y6595D01*
Y6565D01*
Y6534D01*
Y6504D01*
Y6473D01*
Y6442D01*
Y6412D01*
Y6381D01*
Y6351D01*
Y6320D01*
Y6289D01*
X201174D01*
Y6259D01*
X199614D01*
Y6289D01*
Y6320D01*
Y6351D01*
Y6381D01*
Y6412D01*
Y6442D01*
Y6473D01*
Y6504D01*
Y6534D01*
Y6565D01*
Y6595D01*
Y6626D01*
Y6656D01*
Y6687D01*
Y6718D01*
Y6748D01*
Y6779D01*
Y6809D01*
Y6840D01*
Y6871D01*
Y6901D01*
Y6932D01*
Y6962D01*
Y6993D01*
Y7024D01*
Y7054D01*
Y7085D01*
Y7115D01*
Y7146D01*
Y7176D01*
Y7207D01*
Y7238D01*
Y7268D01*
Y7299D01*
Y7329D01*
Y7360D01*
Y7391D01*
Y7421D01*
Y7452D01*
Y7482D01*
Y7513D01*
Y7544D01*
Y7574D01*
Y7605D01*
Y7635D01*
Y7666D01*
Y7697D01*
Y7727D01*
Y7758D01*
Y7788D01*
Y7819D01*
Y7850D01*
Y7880D01*
Y7911D01*
Y7941D01*
Y7972D01*
Y8003D01*
Y8033D01*
Y8064D01*
Y8094D01*
Y8125D01*
Y8156D01*
Y8186D01*
Y8217D01*
Y8247D01*
Y8278D01*
Y8309D01*
Y8339D01*
Y8370D01*
Y8400D01*
Y8431D01*
Y8461D01*
Y8492D01*
Y8523D01*
Y8553D01*
Y8584D01*
Y8614D01*
Y8645D01*
Y8676D01*
Y8706D01*
Y8737D01*
Y8767D01*
Y8798D01*
Y8828D01*
Y8859D01*
Y8890D01*
Y8920D01*
Y8951D01*
Y8981D01*
Y9012D01*
Y9043D01*
Y9073D01*
Y9104D01*
Y9134D01*
Y9165D01*
Y9196D01*
Y9226D01*
Y9257D01*
Y9287D01*
Y9318D01*
Y9349D01*
Y9379D01*
Y9410D01*
Y9440D01*
Y9471D01*
Y9502D01*
Y9532D01*
Y9563D01*
Y9593D01*
Y9624D01*
Y9655D01*
Y9685D01*
Y9716D01*
Y9746D01*
Y9777D01*
Y9808D01*
Y9838D01*
Y9869D01*
Y9899D01*
Y9930D01*
Y9961D01*
Y9991D01*
Y10022D01*
Y10052D01*
Y10083D01*
Y10114D01*
Y10144D01*
Y10175D01*
Y10205D01*
Y10236D01*
Y10266D01*
Y10297D01*
Y10328D01*
Y10358D01*
Y10389D01*
Y10419D01*
Y10450D01*
Y10481D01*
Y10511D01*
Y10542D01*
Y10572D01*
Y10603D01*
Y10633D01*
Y10664D01*
Y10695D01*
Y10725D01*
Y10756D01*
Y10786D01*
Y10817D01*
Y10848D01*
Y10878D01*
Y10909D01*
Y10939D01*
Y10970D01*
Y11001D01*
Y11031D01*
Y11062D01*
Y11092D01*
Y11123D01*
Y11154D01*
Y11184D01*
Y11215D01*
Y11245D01*
Y11276D01*
Y11307D01*
Y11337D01*
Y11368D01*
Y11398D01*
Y11429D01*
Y11460D01*
Y11490D01*
Y11521D01*
Y11551D01*
Y11582D01*
Y11613D01*
Y11643D01*
Y11674D01*
Y11704D01*
Y11735D01*
Y11766D01*
Y11796D01*
Y11827D01*
Y11857D01*
Y11888D01*
Y11918D01*
Y11949D01*
Y11980D01*
Y12010D01*
Y12041D01*
Y12071D01*
Y12102D01*
Y12133D01*
Y12163D01*
Y12194D01*
Y12224D01*
Y12255D01*
Y12286D01*
Y12316D01*
Y12347D01*
Y12377D01*
Y12408D01*
Y12438D01*
Y12469D01*
Y12500D01*
Y12530D01*
Y12561D01*
Y12592D01*
Y12622D01*
Y12653D01*
Y12683D01*
Y12714D01*
Y12744D01*
X201174D01*
Y12714D01*
D02*
G37*
G36*
X208272D02*
Y12683D01*
Y12653D01*
Y12622D01*
Y12592D01*
Y12561D01*
Y12530D01*
Y12500D01*
Y12469D01*
Y12438D01*
Y12408D01*
Y12377D01*
Y12347D01*
Y12316D01*
Y12286D01*
Y12255D01*
Y12224D01*
Y12194D01*
Y12163D01*
Y12133D01*
Y12102D01*
Y12071D01*
Y12041D01*
Y12010D01*
Y11980D01*
Y11949D01*
Y11918D01*
Y11888D01*
Y11857D01*
Y11827D01*
Y11796D01*
Y11766D01*
Y11735D01*
Y11704D01*
Y11674D01*
Y11643D01*
Y11613D01*
Y11582D01*
Y11551D01*
Y11521D01*
Y11490D01*
Y11460D01*
Y11429D01*
Y11398D01*
Y11368D01*
Y11337D01*
Y11307D01*
Y11276D01*
Y11245D01*
Y11215D01*
Y11184D01*
Y11154D01*
Y11123D01*
Y11092D01*
Y11062D01*
Y11031D01*
Y11001D01*
Y10970D01*
Y10939D01*
Y10909D01*
Y10878D01*
Y10848D01*
Y10817D01*
Y10786D01*
Y10756D01*
Y10725D01*
Y10695D01*
Y10664D01*
Y10633D01*
Y10603D01*
Y10572D01*
Y10542D01*
Y10511D01*
Y10481D01*
Y10450D01*
Y10419D01*
Y10389D01*
Y10358D01*
Y10328D01*
Y10297D01*
Y10266D01*
Y10236D01*
Y10205D01*
Y10175D01*
Y10144D01*
Y10114D01*
Y10083D01*
Y10052D01*
Y10022D01*
Y9991D01*
Y9961D01*
Y9930D01*
Y9899D01*
Y9869D01*
Y9838D01*
Y9808D01*
Y9777D01*
Y9746D01*
Y9716D01*
Y9685D01*
Y9655D01*
Y9624D01*
Y9593D01*
Y9563D01*
Y9532D01*
Y9502D01*
Y9471D01*
Y9440D01*
Y9410D01*
Y9379D01*
Y9349D01*
Y9318D01*
Y9287D01*
Y9257D01*
Y9226D01*
Y9196D01*
Y9165D01*
Y9134D01*
Y9104D01*
Y9073D01*
Y9043D01*
Y9012D01*
Y8981D01*
Y8951D01*
Y8920D01*
Y8890D01*
Y8859D01*
Y8828D01*
Y8798D01*
Y8767D01*
Y8737D01*
Y8706D01*
Y8676D01*
Y8645D01*
Y8614D01*
Y8584D01*
Y8553D01*
Y8523D01*
Y8492D01*
Y8461D01*
Y8431D01*
Y8400D01*
Y8370D01*
Y8339D01*
Y8309D01*
Y8278D01*
Y8247D01*
Y8217D01*
Y8186D01*
Y8156D01*
Y8125D01*
Y8094D01*
Y8064D01*
Y8033D01*
Y8003D01*
Y7972D01*
Y7941D01*
Y7911D01*
Y7880D01*
Y7850D01*
Y7819D01*
Y7788D01*
Y7758D01*
Y7727D01*
Y7697D01*
Y7666D01*
Y7635D01*
Y7605D01*
Y7574D01*
Y7544D01*
Y7513D01*
Y7482D01*
Y7452D01*
Y7421D01*
Y7391D01*
Y7360D01*
Y7329D01*
Y7299D01*
Y7268D01*
Y7238D01*
Y7207D01*
Y7176D01*
Y7146D01*
Y7115D01*
Y7085D01*
Y7054D01*
Y7024D01*
Y6993D01*
Y6962D01*
Y6932D01*
X210873D01*
Y6962D01*
Y6993D01*
Y7024D01*
X210842D01*
Y7054D01*
Y7085D01*
X210781D01*
Y7115D01*
X210750D01*
Y7146D01*
Y7176D01*
Y7207D01*
X210719D01*
Y7238D01*
X210658D01*
Y7268D01*
Y7299D01*
X210628D01*
Y7329D01*
Y7360D01*
Y7391D01*
X210597D01*
Y7421D01*
Y7452D01*
X210536D01*
Y7482D01*
Y7513D01*
X210505D01*
Y7544D01*
Y7574D01*
Y7605D01*
X210444D01*
Y7635D01*
Y7666D01*
Y7697D01*
X210414D01*
Y7727D01*
Y7758D01*
Y7788D01*
Y7819D01*
X210383D01*
Y7850D01*
Y7880D01*
X210352D01*
Y7911D01*
X210322D01*
Y7941D01*
Y7972D01*
Y8003D01*
Y8033D01*
Y8064D01*
X210291D01*
Y8094D01*
Y8125D01*
Y8156D01*
Y8186D01*
Y8217D01*
Y8247D01*
X210230D01*
Y8278D01*
Y8309D01*
Y8339D01*
Y8370D01*
Y8400D01*
Y8431D01*
Y8461D01*
Y8492D01*
X210199D01*
Y8523D01*
Y8553D01*
Y8584D01*
Y8614D01*
Y8645D01*
Y8676D01*
Y8706D01*
Y8737D01*
Y8767D01*
Y8798D01*
Y8828D01*
Y8859D01*
Y8890D01*
Y8920D01*
Y8951D01*
Y8981D01*
Y9012D01*
Y9043D01*
Y9073D01*
Y9104D01*
Y9134D01*
Y9165D01*
X210230D01*
Y9196D01*
Y9226D01*
Y9257D01*
Y9287D01*
Y9318D01*
Y9349D01*
Y9379D01*
Y9410D01*
Y9440D01*
X210291D01*
Y9471D01*
Y9502D01*
Y9532D01*
Y9563D01*
Y9593D01*
X210322D01*
Y9624D01*
Y9655D01*
Y9685D01*
Y9716D01*
Y9746D01*
X210383D01*
Y9777D01*
Y9808D01*
Y9838D01*
Y9869D01*
X210414D01*
Y9899D01*
Y9930D01*
Y9961D01*
Y9991D01*
X210444D01*
Y10022D01*
Y10052D01*
Y10083D01*
X210505D01*
Y10114D01*
Y10144D01*
Y10175D01*
X210536D01*
Y10205D01*
X210597D01*
Y10236D01*
Y10266D01*
Y10297D01*
X210628D01*
Y10328D01*
Y10358D01*
Y10389D01*
X210658D01*
Y10419D01*
X210689D01*
Y10450D01*
X210750D01*
Y10481D01*
Y10511D01*
Y10542D01*
X210781D01*
Y10572D01*
X210811D01*
Y10603D01*
X210842D01*
Y10633D01*
X210873D01*
Y10664D01*
Y10695D01*
X210934D01*
Y10725D01*
X210964D01*
Y10756D01*
X210995D01*
Y10786D01*
X211026D01*
Y10817D01*
X211056D01*
Y10848D01*
X211087D01*
Y10878D01*
Y10909D01*
X211148D01*
Y10939D01*
X211178D01*
Y10970D01*
X211209D01*
Y11001D01*
Y11031D01*
X211270D01*
Y11062D01*
X211331D01*
Y11092D01*
X211362D01*
Y11123D01*
X211393D01*
Y11154D01*
X211423D01*
Y11184D01*
X211515D01*
Y11215D01*
Y11245D01*
X211607D01*
Y11276D01*
X211699D01*
Y11307D01*
Y11337D01*
X211790D01*
Y11368D01*
X211852D01*
Y11398D01*
X211943D01*
Y11429D01*
Y11460D01*
X212066D01*
Y11490D01*
X212249D01*
Y11521D01*
Y11551D01*
X212494D01*
Y11582D01*
X213289D01*
Y11551D01*
X213534D01*
Y11521D01*
Y11490D01*
X213687D01*
Y11460D01*
X213809D01*
Y11429D01*
Y11398D01*
X213932D01*
Y11368D01*
X214024D01*
Y11337D01*
X214085D01*
Y11307D01*
X214115D01*
Y11276D01*
X214177D01*
Y11245D01*
X214268D01*
Y11215D01*
Y11184D01*
X214330D01*
Y11154D01*
X214391D01*
Y11123D01*
X214421D01*
Y11092D01*
X214452D01*
Y11062D01*
X214544D01*
Y11031D01*
X214574D01*
Y11001D01*
Y10970D01*
X214605D01*
Y10939D01*
X214666D01*
Y10909D01*
X214697D01*
Y10878D01*
Y10848D01*
X214727D01*
Y10817D01*
X214788D01*
Y10786D01*
Y10756D01*
X214819D01*
Y10725D01*
X214880D01*
Y10695D01*
X214911D01*
Y10664D01*
Y10633D01*
X214941D01*
Y10603D01*
X215003D01*
Y10572D01*
Y10542D01*
Y10511D01*
X215033D01*
Y10481D01*
X215064D01*
Y10450D01*
X215094D01*
Y10419D01*
X215125D01*
Y10389D01*
Y10358D01*
Y10328D01*
X215186D01*
Y10297D01*
X215217D01*
Y10266D01*
Y10236D01*
Y10205D01*
X215278D01*
Y10236D01*
X215339D01*
Y10266D01*
Y10297D01*
Y10328D01*
X215370D01*
Y10358D01*
Y10389D01*
X215431D01*
Y10419D01*
Y10450D01*
Y10481D01*
X215461D01*
Y10511D01*
X215492D01*
Y10542D01*
X215553D01*
Y10572D01*
Y10603D01*
Y10633D01*
X215584D01*
Y10664D01*
Y10695D01*
X215645D01*
Y10725D01*
X215676D01*
Y10756D01*
X215706D01*
Y10786D01*
X215737D01*
Y10817D01*
X215767D01*
Y10848D01*
X215798D01*
Y10878D01*
Y10909D01*
X215859D01*
Y10939D01*
X215890D01*
Y10970D01*
X215951D01*
Y11001D01*
X215982D01*
Y11031D01*
X216012D01*
Y11062D01*
X216043D01*
Y11092D01*
X216073D01*
Y11123D01*
X216135D01*
Y11154D01*
X216196D01*
Y11184D01*
X216257D01*
Y11215D01*
X216287D01*
Y11245D01*
X216318D01*
Y11276D01*
X216410D01*
Y11307D01*
Y11337D01*
X216502D01*
Y11368D01*
X216563D01*
Y11398D01*
X216685D01*
Y11429D01*
X216716D01*
Y11460D01*
X216838D01*
Y11490D01*
X216991D01*
Y11521D01*
X217022D01*
Y11551D01*
X217205D01*
Y11582D01*
X218031D01*
Y11551D01*
X218245D01*
Y11521D01*
Y11490D01*
X218429D01*
Y11460D01*
X218551D01*
Y11429D01*
Y11398D01*
X218674D01*
Y11368D01*
X218765D01*
Y11337D01*
X218857D01*
Y11307D01*
Y11276D01*
X218949D01*
Y11245D01*
X218980D01*
Y11215D01*
Y11184D01*
X219071D01*
Y11154D01*
X219102D01*
Y11123D01*
X219194D01*
Y11092D01*
Y11062D01*
X219255D01*
Y11031D01*
X219286D01*
Y11001D01*
Y10970D01*
X219377D01*
Y10939D01*
X219408D01*
Y10909D01*
X219439D01*
Y10878D01*
X219469D01*
Y10848D01*
X219500D01*
Y10817D01*
X219530D01*
Y10786D01*
X219561D01*
Y10756D01*
X219591D01*
Y10725D01*
X219622D01*
Y10695D01*
X219714D01*
Y10725D01*
Y10756D01*
Y10786D01*
Y10817D01*
Y10848D01*
Y10878D01*
Y10909D01*
Y10939D01*
Y10970D01*
Y11001D01*
Y11031D01*
Y11062D01*
Y11092D01*
Y11123D01*
Y11154D01*
Y11184D01*
Y11215D01*
Y11245D01*
Y11276D01*
Y11307D01*
Y11337D01*
Y11368D01*
Y11398D01*
Y11429D01*
Y11460D01*
X220387D01*
Y11429D01*
Y11398D01*
Y11368D01*
Y11337D01*
Y11307D01*
Y11276D01*
Y11245D01*
Y11215D01*
Y11184D01*
Y11154D01*
Y11123D01*
Y11092D01*
Y11062D01*
Y11031D01*
Y11001D01*
Y10970D01*
Y10939D01*
Y10909D01*
Y10878D01*
Y10848D01*
Y10817D01*
Y10786D01*
Y10756D01*
Y10725D01*
Y10695D01*
Y10664D01*
Y10633D01*
Y10603D01*
Y10572D01*
Y10542D01*
Y10511D01*
Y10481D01*
Y10450D01*
Y10419D01*
Y10389D01*
Y10358D01*
Y10328D01*
Y10297D01*
Y10266D01*
Y10236D01*
Y10205D01*
Y10175D01*
Y10144D01*
Y10114D01*
Y10083D01*
Y10052D01*
Y10022D01*
Y9991D01*
Y9961D01*
Y9930D01*
Y9899D01*
Y9869D01*
Y9838D01*
Y9808D01*
Y9777D01*
Y9746D01*
Y9716D01*
Y9685D01*
Y9655D01*
Y9624D01*
Y9593D01*
Y9563D01*
Y9532D01*
Y9502D01*
Y9471D01*
Y9440D01*
Y9410D01*
Y9379D01*
Y9349D01*
Y9318D01*
Y9287D01*
Y9257D01*
Y9226D01*
Y9196D01*
Y9165D01*
Y9134D01*
Y9104D01*
Y9073D01*
Y9043D01*
Y9012D01*
Y8981D01*
Y8951D01*
Y8920D01*
Y8890D01*
Y8859D01*
Y8828D01*
Y8798D01*
Y8767D01*
Y8737D01*
Y8706D01*
Y8676D01*
Y8645D01*
Y8614D01*
Y8584D01*
Y8553D01*
Y8523D01*
Y8492D01*
Y8461D01*
Y8431D01*
Y8400D01*
Y8370D01*
Y8339D01*
Y8309D01*
Y8278D01*
Y8247D01*
Y8217D01*
Y8186D01*
Y8156D01*
Y8125D01*
Y8094D01*
Y8064D01*
Y8033D01*
Y8003D01*
Y7972D01*
Y7941D01*
Y7911D01*
Y7880D01*
Y7850D01*
Y7819D01*
Y7788D01*
Y7758D01*
Y7727D01*
Y7697D01*
Y7666D01*
Y7635D01*
Y7605D01*
Y7574D01*
Y7544D01*
Y7513D01*
Y7482D01*
Y7452D01*
Y7421D01*
Y7391D01*
Y7360D01*
Y7329D01*
Y7299D01*
Y7268D01*
Y7238D01*
Y7207D01*
Y7176D01*
Y7146D01*
Y7115D01*
Y7085D01*
Y7054D01*
Y7024D01*
Y6993D01*
Y6962D01*
Y6932D01*
Y6901D01*
Y6871D01*
Y6840D01*
Y6809D01*
Y6779D01*
Y6748D01*
X220356D01*
Y6718D01*
Y6687D01*
Y6656D01*
Y6626D01*
Y6595D01*
Y6565D01*
Y6534D01*
Y6504D01*
Y6473D01*
Y6442D01*
Y6412D01*
Y6381D01*
Y6351D01*
X220295D01*
Y6320D01*
Y6289D01*
Y6259D01*
Y6228D01*
Y6198D01*
Y6167D01*
Y6136D01*
X220265D01*
Y6106D01*
Y6075D01*
Y6045D01*
Y6014D01*
X220203D01*
Y5983D01*
Y5953D01*
Y5922D01*
Y5892D01*
X220173D01*
Y5861D01*
Y5830D01*
Y5800D01*
Y5769D01*
Y5739D01*
X220142D01*
Y5708D01*
Y5677D01*
Y5647D01*
X220081D01*
Y5616D01*
Y5586D01*
X220050D01*
Y5555D01*
Y5525D01*
Y5494D01*
X220020D01*
Y5463D01*
X219989D01*
Y5433D01*
X219959D01*
Y5402D01*
Y5372D01*
X219928D01*
Y5341D01*
Y5310D01*
X219897D01*
Y5280D01*
X219836D01*
Y5249D01*
Y5219D01*
Y5188D01*
X219806D01*
Y5157D01*
X219775D01*
Y5127D01*
X219744D01*
Y5096D01*
X219714D01*
Y5066D01*
X219683D01*
Y5035D01*
X219653D01*
Y5004D01*
X219622D01*
Y4974D01*
X219530D01*
Y4943D01*
X219500D01*
Y4913D01*
Y4882D01*
X219469D01*
Y4851D01*
X219377D01*
Y4821D01*
X219347D01*
Y4790D01*
X219316D01*
Y4760D01*
X219255D01*
Y4729D01*
X219163D01*
Y4699D01*
Y4668D01*
X219071D01*
Y4637D01*
X218980D01*
Y4607D01*
Y4576D01*
X218857D01*
Y4546D01*
X218735D01*
Y4515D01*
X218613D01*
Y4484D01*
X218582D01*
Y4454D01*
X218398D01*
Y4423D01*
X218092D01*
Y4393D01*
X218062D01*
Y4362D01*
X217389D01*
Y4393D01*
Y4423D01*
X217052D01*
Y4454D01*
X216838D01*
Y4484D01*
X216808D01*
Y4515D01*
X216655D01*
Y4546D01*
X216532D01*
Y4576D01*
X216410D01*
Y4607D01*
Y4637D01*
X216318D01*
Y4668D01*
X216226D01*
Y4699D01*
Y4729D01*
X216135D01*
Y4760D01*
X216073D01*
Y4790D01*
X215982D01*
Y4821D01*
Y4851D01*
X215920D01*
Y4882D01*
X215890D01*
Y4913D01*
Y4943D01*
X215798D01*
Y4974D01*
X215767D01*
Y5004D01*
X215737D01*
Y5035D01*
X215706D01*
Y5066D01*
X215676D01*
Y5096D01*
X215645D01*
Y5127D01*
X215614D01*
Y5157D01*
X215584D01*
Y5188D01*
X215553D01*
Y5219D01*
X215523D01*
Y5249D01*
X215492D01*
Y5280D01*
X215461D01*
Y5310D01*
X215431D01*
Y5341D01*
Y5372D01*
Y5402D01*
X215370D01*
Y5433D01*
X215339D01*
Y5463D01*
Y5494D01*
Y5525D01*
X215308D01*
Y5555D01*
X215278D01*
Y5586D01*
X215247D01*
Y5616D01*
Y5647D01*
X215217D01*
Y5677D01*
Y5708D01*
Y5739D01*
X215156D01*
Y5769D01*
Y5800D01*
Y5830D01*
X215125D01*
Y5861D01*
Y5892D01*
Y5922D01*
X215064D01*
Y5953D01*
X215094D01*
Y5983D01*
X215798D01*
Y5953D01*
Y5922D01*
X215859D01*
Y5892D01*
Y5861D01*
X215890D01*
Y5830D01*
Y5800D01*
Y5769D01*
X215951D01*
Y5739D01*
X215982D01*
Y5708D01*
X216012D01*
Y5677D01*
X216043D01*
Y5647D01*
X216073D01*
Y5616D01*
Y5586D01*
Y5555D01*
X216104D01*
Y5525D01*
X216165D01*
Y5494D01*
X216226D01*
Y5463D01*
X216257D01*
Y5433D01*
X216287D01*
Y5402D01*
X216318D01*
Y5372D01*
X216349D01*
Y5341D01*
X216410D01*
Y5310D01*
X216440D01*
Y5280D01*
X216532D01*
Y5249D01*
Y5219D01*
X216624D01*
Y5188D01*
X216716D01*
Y5157D01*
Y5127D01*
X216838D01*
Y5096D01*
X216961D01*
Y5066D01*
X216991D01*
Y5035D01*
X217144D01*
Y5004D01*
X217450D01*
Y4974D01*
X217939D01*
Y5004D01*
X218245D01*
Y5035D01*
X218429D01*
Y5066D01*
X218460D01*
Y5096D01*
X218582D01*
Y5127D01*
X218674D01*
Y5157D01*
Y5188D01*
X218765D01*
Y5219D01*
X218827D01*
Y5249D01*
X218857D01*
Y5280D01*
X218918D01*
Y5310D01*
X219010D01*
Y5341D01*
X219041D01*
Y5372D01*
X219071D01*
Y5402D01*
X219133D01*
Y5433D01*
X219194D01*
Y5463D01*
Y5494D01*
X219224D01*
Y5525D01*
X219255D01*
Y5555D01*
X219316D01*
Y5586D01*
Y5616D01*
X219347D01*
Y5647D01*
X219408D01*
Y5677D01*
Y5708D01*
Y5739D01*
X219439D01*
Y5769D01*
X219500D01*
Y5800D01*
Y5830D01*
Y5861D01*
X219530D01*
Y5892D01*
Y5922D01*
Y5953D01*
X219591D01*
Y5983D01*
Y6014D01*
Y6045D01*
Y6075D01*
X219622D01*
Y6106D01*
Y6136D01*
Y6167D01*
Y6198D01*
X219653D01*
Y6228D01*
Y6259D01*
Y6289D01*
Y6320D01*
Y6351D01*
Y6381D01*
Y6412D01*
Y6442D01*
Y6473D01*
X219714D01*
Y6504D01*
Y6534D01*
Y6565D01*
Y6595D01*
Y6626D01*
Y6656D01*
Y6687D01*
Y6718D01*
Y6748D01*
Y6779D01*
Y6809D01*
Y6840D01*
Y6871D01*
Y6901D01*
Y6932D01*
Y6962D01*
Y6993D01*
X219622D01*
Y6962D01*
X219591D01*
Y6932D01*
Y6901D01*
X219530D01*
Y6871D01*
X219500D01*
Y6840D01*
Y6809D01*
X219439D01*
Y6779D01*
X219408D01*
Y6748D01*
X219377D01*
Y6718D01*
Y6687D01*
X219286D01*
Y6656D01*
X219255D01*
Y6626D01*
X219224D01*
Y6595D01*
X219194D01*
Y6565D01*
X219102D01*
Y6534D01*
X219071D01*
Y6504D01*
Y6473D01*
X218980D01*
Y6442D01*
X218888D01*
Y6412D01*
Y6381D01*
X218857D01*
Y6351D01*
X218735D01*
Y6320D01*
X218643D01*
Y6289D01*
Y6259D01*
X218521D01*
Y6228D01*
X218398D01*
Y6198D01*
X218368D01*
Y6167D01*
X218215D01*
Y6136D01*
X217909D01*
Y6106D01*
X217328D01*
Y6136D01*
X217052D01*
Y6167D01*
X216869D01*
Y6198D01*
Y6228D01*
X216746D01*
Y6259D01*
X216624D01*
Y6289D01*
X216593D01*
Y6320D01*
X216532D01*
Y6351D01*
X216440D01*
Y6381D01*
X216379D01*
Y6412D01*
X216349D01*
Y6442D01*
X216287D01*
Y6473D01*
X216196D01*
Y6504D01*
X216165D01*
Y6534D01*
X216135D01*
Y6565D01*
X216073D01*
Y6595D01*
X216012D01*
Y6626D01*
Y6656D01*
X215982D01*
Y6687D01*
X215920D01*
Y6718D01*
Y6748D01*
X215829D01*
Y6779D01*
X215798D01*
Y6809D01*
X215767D01*
Y6840D01*
Y6871D01*
X215706D01*
Y6901D01*
X215676D01*
Y6932D01*
Y6962D01*
X215614D01*
Y6993D01*
X215584D01*
Y7024D01*
Y7054D01*
Y7085D01*
X215553D01*
Y7115D01*
X215492D01*
Y7146D01*
Y7176D01*
X215461D01*
Y7207D01*
X215431D01*
Y7238D01*
Y7268D01*
Y7299D01*
X215370D01*
Y7329D01*
X215339D01*
Y7360D01*
Y7391D01*
Y7421D01*
X215278D01*
Y7452D01*
X215217D01*
Y7421D01*
Y7391D01*
X215186D01*
Y7360D01*
X215156D01*
Y7329D01*
X215125D01*
Y7299D01*
Y7268D01*
Y7238D01*
X215094D01*
Y7207D01*
X215033D01*
Y7176D01*
X215003D01*
Y7146D01*
Y7115D01*
Y7085D01*
X214972D01*
Y7054D01*
X214941D01*
Y7024D01*
X214911D01*
Y6993D01*
X214880D01*
Y6962D01*
X214850D01*
Y6932D01*
X214819D01*
Y6901D01*
X214788D01*
Y6871D01*
X214758D01*
Y6840D01*
X214727D01*
Y6809D01*
X214697D01*
Y6779D01*
X214666D01*
Y6748D01*
X214635D01*
Y6718D01*
X214605D01*
Y6687D01*
X214574D01*
Y6656D01*
X214544D01*
Y6626D01*
X214513D01*
Y6595D01*
X214452D01*
Y6565D01*
X214391D01*
Y6534D01*
X214330D01*
Y6504D01*
X214299D01*
Y6473D01*
X214268D01*
Y6442D01*
X214177D01*
Y6412D01*
Y6381D01*
X214085D01*
Y6351D01*
X214024D01*
Y6320D01*
X213932D01*
Y6289D01*
Y6259D01*
X213809D01*
Y6228D01*
X213687D01*
Y6198D01*
X213656D01*
Y6167D01*
X213442D01*
Y6136D01*
X213198D01*
Y6106D01*
X212586D01*
Y6136D01*
X212341D01*
Y6167D01*
X212127D01*
Y6198D01*
Y6228D01*
X211974D01*
Y6259D01*
X211852D01*
Y6289D01*
Y6320D01*
X211760D01*
Y6351D01*
X211699D01*
Y6381D01*
X211607D01*
Y6412D01*
Y6442D01*
X211515D01*
Y6473D01*
X211484D01*
Y6504D01*
X211454D01*
Y6534D01*
X211393D01*
Y6565D01*
X211362D01*
Y6595D01*
X211270D01*
Y6626D01*
Y6656D01*
X211209D01*
Y6687D01*
X211178D01*
Y6718D01*
Y6748D01*
X211117D01*
Y6779D01*
X211087D01*
Y6809D01*
X211056D01*
Y6840D01*
Y6871D01*
X210964D01*
Y6840D01*
Y6809D01*
Y6779D01*
Y6748D01*
Y6718D01*
Y6687D01*
Y6656D01*
Y6626D01*
Y6595D01*
Y6565D01*
Y6534D01*
Y6504D01*
Y6473D01*
Y6442D01*
Y6412D01*
Y6381D01*
Y6351D01*
Y6320D01*
Y6289D01*
Y6259D01*
X207599D01*
Y6289D01*
Y6320D01*
Y6351D01*
Y6381D01*
Y6412D01*
Y6442D01*
Y6473D01*
Y6504D01*
Y6534D01*
Y6565D01*
Y6595D01*
Y6626D01*
Y6656D01*
Y6687D01*
Y6718D01*
Y6748D01*
Y6779D01*
Y6809D01*
Y6840D01*
Y6871D01*
Y6901D01*
Y6932D01*
Y6962D01*
Y6993D01*
Y7024D01*
Y7054D01*
Y7085D01*
Y7115D01*
Y7146D01*
Y7176D01*
Y7207D01*
Y7238D01*
Y7268D01*
Y7299D01*
Y7329D01*
Y7360D01*
Y7391D01*
Y7421D01*
Y7452D01*
Y7482D01*
Y7513D01*
Y7544D01*
Y7574D01*
Y7605D01*
Y7635D01*
Y7666D01*
Y7697D01*
Y7727D01*
Y7758D01*
Y7788D01*
Y7819D01*
Y7850D01*
Y7880D01*
Y7911D01*
Y7941D01*
Y7972D01*
Y8003D01*
Y8033D01*
Y8064D01*
Y8094D01*
Y8125D01*
Y8156D01*
Y8186D01*
Y8217D01*
Y8247D01*
Y8278D01*
Y8309D01*
Y8339D01*
Y8370D01*
Y8400D01*
Y8431D01*
Y8461D01*
Y8492D01*
Y8523D01*
Y8553D01*
Y8584D01*
Y8614D01*
Y8645D01*
Y8676D01*
Y8706D01*
Y8737D01*
Y8767D01*
Y8798D01*
Y8828D01*
Y8859D01*
Y8890D01*
Y8920D01*
Y8951D01*
Y8981D01*
Y9012D01*
Y9043D01*
Y9073D01*
Y9104D01*
Y9134D01*
Y9165D01*
Y9196D01*
Y9226D01*
Y9257D01*
Y9287D01*
Y9318D01*
Y9349D01*
Y9379D01*
Y9410D01*
Y9440D01*
Y9471D01*
Y9502D01*
Y9532D01*
Y9563D01*
Y9593D01*
Y9624D01*
Y9655D01*
Y9685D01*
Y9716D01*
Y9746D01*
Y9777D01*
Y9808D01*
Y9838D01*
Y9869D01*
Y9899D01*
Y9930D01*
Y9961D01*
Y9991D01*
Y10022D01*
Y10052D01*
Y10083D01*
Y10114D01*
Y10144D01*
Y10175D01*
Y10205D01*
Y10236D01*
Y10266D01*
Y10297D01*
Y10328D01*
Y10358D01*
Y10389D01*
Y10419D01*
Y10450D01*
Y10481D01*
Y10511D01*
Y10542D01*
Y10572D01*
Y10603D01*
Y10633D01*
Y10664D01*
Y10695D01*
Y10725D01*
Y10756D01*
Y10786D01*
Y10817D01*
Y10848D01*
Y10878D01*
Y10909D01*
Y10939D01*
Y10970D01*
Y11001D01*
Y11031D01*
Y11062D01*
Y11092D01*
Y11123D01*
Y11154D01*
Y11184D01*
Y11215D01*
Y11245D01*
Y11276D01*
Y11307D01*
Y11337D01*
Y11368D01*
Y11398D01*
Y11429D01*
Y11460D01*
Y11490D01*
Y11521D01*
Y11551D01*
Y11582D01*
Y11613D01*
Y11643D01*
Y11674D01*
Y11704D01*
Y11735D01*
Y11766D01*
Y11796D01*
Y11827D01*
Y11857D01*
Y11888D01*
Y11918D01*
Y11949D01*
Y11980D01*
Y12010D01*
Y12041D01*
Y12071D01*
Y12102D01*
Y12133D01*
Y12163D01*
Y12194D01*
Y12224D01*
Y12255D01*
Y12286D01*
Y12316D01*
Y12347D01*
Y12377D01*
Y12408D01*
Y12438D01*
Y12469D01*
Y12500D01*
Y12530D01*
Y12561D01*
Y12592D01*
Y12622D01*
Y12653D01*
Y12683D01*
Y12714D01*
X207569D01*
Y12744D01*
X208272D01*
Y12714D01*
D02*
G37*
%LPC*%
G36*
X217909Y10939D02*
X217358D01*
Y10909D01*
X217144D01*
Y10878D01*
Y10848D01*
X217022D01*
Y10817D01*
X216899D01*
Y10786D01*
X216808D01*
Y10756D01*
Y10725D01*
X216716D01*
Y10695D01*
X216624D01*
Y10664D01*
Y10633D01*
X216593D01*
Y10603D01*
X216502D01*
Y10572D01*
X216471D01*
Y10542D01*
X216440D01*
Y10511D01*
X216410D01*
Y10481D01*
X216379D01*
Y10450D01*
X216349D01*
Y10419D01*
X216318D01*
Y10389D01*
X216287D01*
Y10358D01*
X216257D01*
Y10328D01*
X216226D01*
Y10297D01*
X216196D01*
Y10266D01*
X216165D01*
Y10236D01*
X216135D01*
Y10205D01*
X216104D01*
Y10175D01*
X216073D01*
Y10144D01*
X216012D01*
Y10114D01*
Y10083D01*
Y10052D01*
X215982D01*
Y10022D01*
Y9991D01*
X215920D01*
Y9961D01*
Y9930D01*
Y9899D01*
X215890D01*
Y9869D01*
X215859D01*
Y9838D01*
Y9808D01*
Y9777D01*
X215798D01*
Y9746D01*
Y9716D01*
Y9685D01*
Y9655D01*
X215767D01*
Y9624D01*
Y9593D01*
Y9563D01*
X215706D01*
Y9532D01*
Y9502D01*
Y9471D01*
X215737D01*
Y9440D01*
X215676D01*
Y9410D01*
Y9379D01*
Y9349D01*
Y9318D01*
Y9287D01*
Y9257D01*
X215645D01*
Y9226D01*
Y9196D01*
Y9165D01*
Y9134D01*
Y9104D01*
Y9073D01*
Y9043D01*
Y9012D01*
Y8981D01*
Y8951D01*
Y8920D01*
Y8890D01*
Y8859D01*
Y8828D01*
Y8798D01*
Y8767D01*
Y8737D01*
Y8706D01*
Y8676D01*
Y8645D01*
Y8614D01*
Y8584D01*
Y8553D01*
Y8523D01*
Y8492D01*
Y8461D01*
Y8431D01*
Y8400D01*
Y8370D01*
X215676D01*
Y8339D01*
Y8309D01*
Y8278D01*
Y8247D01*
Y8217D01*
Y8186D01*
X215737D01*
Y8156D01*
X215706D01*
Y8125D01*
Y8094D01*
Y8064D01*
X215767D01*
Y8033D01*
Y8003D01*
Y7972D01*
Y7941D01*
X215798D01*
Y7911D01*
Y7880D01*
Y7850D01*
X215859D01*
Y7819D01*
Y7788D01*
Y7758D01*
X215890D01*
Y7727D01*
Y7697D01*
Y7666D01*
X215951D01*
Y7635D01*
X215982D01*
Y7605D01*
Y7574D01*
Y7544D01*
X216012D01*
Y7513D01*
X216073D01*
Y7482D01*
Y7452D01*
X216104D01*
Y7421D01*
X216165D01*
Y7391D01*
Y7360D01*
X216196D01*
Y7329D01*
Y7299D01*
X216226D01*
Y7268D01*
X216257D01*
Y7238D01*
X216318D01*
Y7207D01*
X216379D01*
Y7176D01*
Y7146D01*
X216410D01*
Y7115D01*
X216440D01*
Y7085D01*
X216532D01*
Y7054D01*
Y7024D01*
X216593D01*
Y6993D01*
X216655D01*
Y6962D01*
X216685D01*
Y6932D01*
X216746D01*
Y6901D01*
X216838D01*
Y6871D01*
X216869D01*
Y6840D01*
X216930D01*
Y6809D01*
X217083D01*
Y6779D01*
X217297D01*
Y6748D01*
X217328D01*
Y6718D01*
X217939D01*
Y6748D01*
Y6779D01*
X218154D01*
Y6809D01*
X218276D01*
Y6840D01*
X218398D01*
Y6871D01*
X218429D01*
Y6901D01*
X218490D01*
Y6932D01*
X218582D01*
Y6962D01*
Y6993D01*
X218643D01*
Y7024D01*
X218704D01*
Y7054D01*
X218735D01*
Y7085D01*
X218765D01*
Y7115D01*
X218827D01*
Y7146D01*
X218888D01*
Y7176D01*
Y7207D01*
X218918D01*
Y7238D01*
X218980D01*
Y7268D01*
Y7299D01*
X219010D01*
Y7329D01*
X219041D01*
Y7360D01*
X219102D01*
Y7391D01*
Y7421D01*
X219133D01*
Y7452D01*
X219194D01*
Y7482D01*
Y7513D01*
X219224D01*
Y7544D01*
Y7574D01*
X219255D01*
Y7605D01*
X219286D01*
Y7635D01*
X219316D01*
Y7666D01*
Y7697D01*
Y7727D01*
X219347D01*
Y7758D01*
X219408D01*
Y7788D01*
Y7819D01*
Y7850D01*
X219439D01*
Y7880D01*
Y7911D01*
Y7941D01*
X219500D01*
Y7972D01*
Y8003D01*
Y8033D01*
Y8064D01*
X219530D01*
Y8094D01*
Y8125D01*
Y8156D01*
Y8186D01*
X219591D01*
Y8217D01*
Y8247D01*
Y8278D01*
Y8309D01*
Y8339D01*
Y8370D01*
X219622D01*
Y8400D01*
Y8431D01*
Y8461D01*
Y8492D01*
Y8523D01*
Y8553D01*
Y8584D01*
Y8614D01*
Y8645D01*
X219653D01*
Y8676D01*
Y8706D01*
Y8737D01*
Y8767D01*
Y8798D01*
Y8828D01*
Y8859D01*
Y8890D01*
Y8920D01*
Y8951D01*
Y8981D01*
X219622D01*
Y9012D01*
Y9043D01*
Y9073D01*
Y9104D01*
Y9134D01*
Y9165D01*
Y9196D01*
Y9226D01*
Y9257D01*
X219591D01*
Y9287D01*
Y9318D01*
Y9349D01*
Y9379D01*
Y9410D01*
Y9440D01*
X219530D01*
Y9471D01*
Y9502D01*
Y9532D01*
Y9563D01*
X219500D01*
Y9593D01*
Y9624D01*
Y9655D01*
Y9685D01*
Y9716D01*
X219439D01*
Y9746D01*
Y9777D01*
X219408D01*
Y9808D01*
Y9838D01*
Y9869D01*
X219347D01*
Y9899D01*
Y9930D01*
X219316D01*
Y9961D01*
Y9991D01*
X219286D01*
Y10022D01*
X219255D01*
Y10052D01*
X219224D01*
Y10083D01*
Y10114D01*
Y10144D01*
X219194D01*
Y10175D01*
X219133D01*
Y10205D01*
X219102D01*
Y10236D01*
Y10266D01*
X219071D01*
Y10297D01*
X219010D01*
Y10328D01*
Y10358D01*
X218980D01*
Y10389D01*
X218918D01*
Y10419D01*
X218888D01*
Y10450D01*
Y10481D01*
X218857D01*
Y10511D01*
X218796D01*
Y10542D01*
Y10572D01*
X218765D01*
Y10603D01*
X218674D01*
Y10633D01*
X218643D01*
Y10664D01*
X218613D01*
Y10695D01*
X218551D01*
Y10725D01*
X218460D01*
Y10756D01*
Y10786D01*
X218368D01*
Y10817D01*
X218245D01*
Y10848D01*
X218123D01*
Y10878D01*
Y10909D01*
X217909D01*
Y10939D01*
D02*
G37*
G36*
X213136D02*
X212647D01*
Y10909D01*
X212402D01*
Y10878D01*
X212372D01*
Y10848D01*
X212249D01*
Y10817D01*
X212188D01*
Y10786D01*
X212066D01*
Y10756D01*
X212035D01*
Y10725D01*
X212004D01*
Y10695D01*
X211913D01*
Y10664D01*
Y10633D01*
X211821D01*
Y10603D01*
X211790D01*
Y10572D01*
X211760D01*
Y10542D01*
X211729D01*
Y10511D01*
X211668D01*
Y10481D01*
X211607D01*
Y10450D01*
Y10419D01*
X211576D01*
Y10389D01*
X211546D01*
Y10358D01*
X211484D01*
Y10328D01*
Y10297D01*
X211454D01*
Y10266D01*
X211393D01*
Y10236D01*
Y10205D01*
X211362D01*
Y10175D01*
Y10144D01*
X211331D01*
Y10114D01*
X211301D01*
Y10083D01*
X211270D01*
Y10052D01*
X211209D01*
Y10022D01*
Y9991D01*
X211240D01*
Y9961D01*
X211178D01*
Y9930D01*
X211148D01*
Y9899D01*
Y9869D01*
Y9838D01*
X211087D01*
Y9808D01*
Y9777D01*
Y9746D01*
X211056D01*
Y9716D01*
Y9685D01*
Y9655D01*
Y9624D01*
X210995D01*
Y9593D01*
Y9563D01*
X211026D01*
Y9532D01*
X210964D01*
Y9502D01*
Y9471D01*
Y9440D01*
Y9410D01*
Y9379D01*
Y9349D01*
X210934D01*
Y9318D01*
Y9287D01*
Y9257D01*
Y9226D01*
Y9196D01*
Y9165D01*
Y9134D01*
X210873D01*
Y9104D01*
Y9073D01*
Y9043D01*
Y9012D01*
Y8981D01*
Y8951D01*
Y8920D01*
Y8890D01*
Y8859D01*
Y8828D01*
Y8798D01*
Y8767D01*
Y8737D01*
Y8706D01*
Y8676D01*
Y8645D01*
Y8614D01*
Y8584D01*
Y8553D01*
Y8523D01*
Y8492D01*
X210934D01*
Y8461D01*
Y8431D01*
Y8400D01*
Y8370D01*
Y8339D01*
Y8309D01*
Y8278D01*
Y8247D01*
Y8217D01*
X210964D01*
Y8186D01*
Y8156D01*
Y8125D01*
Y8094D01*
X211026D01*
Y8064D01*
X210995D01*
Y8033D01*
Y8003D01*
Y7972D01*
X211056D01*
Y7941D01*
Y7911D01*
Y7880D01*
X211087D01*
Y7850D01*
Y7819D01*
Y7788D01*
X211148D01*
Y7758D01*
Y7727D01*
X211178D01*
Y7697D01*
Y7666D01*
Y7635D01*
X211240D01*
Y7605D01*
Y7574D01*
X211270D01*
Y7544D01*
X211301D01*
Y7513D01*
Y7482D01*
Y7452D01*
X211362D01*
Y7421D01*
X211393D01*
Y7391D01*
X211423D01*
Y7360D01*
X211454D01*
Y7329D01*
X211484D01*
Y7299D01*
X211515D01*
Y7268D01*
X211546D01*
Y7238D01*
X211576D01*
Y7207D01*
X211607D01*
Y7176D01*
X211637D01*
Y7146D01*
X211668D01*
Y7115D01*
X211729D01*
Y7085D01*
X211790D01*
Y7054D01*
Y7024D01*
X211882D01*
Y6993D01*
X211913D01*
Y6962D01*
Y6932D01*
X212004D01*
Y6901D01*
X212096D01*
Y6871D01*
X212127D01*
Y6840D01*
X212219D01*
Y6809D01*
X212341D01*
Y6779D01*
X212555D01*
Y6748D01*
Y6718D01*
X213198D01*
Y6748D01*
Y6779D01*
X213412D01*
Y6809D01*
X213534D01*
Y6840D01*
X213626D01*
Y6871D01*
X213656D01*
Y6901D01*
X213748D01*
Y6932D01*
X213840D01*
Y6962D01*
Y6993D01*
X213932D01*
Y7024D01*
X213962D01*
Y7054D01*
Y7085D01*
X214054D01*
Y7115D01*
X214085D01*
Y7146D01*
X214115D01*
Y7176D01*
X214146D01*
Y7207D01*
X214207D01*
Y7238D01*
X214268D01*
Y7268D01*
Y7299D01*
X214299D01*
Y7329D01*
X214330D01*
Y7360D01*
X214391D01*
Y7391D01*
Y7421D01*
Y7452D01*
X214421D01*
Y7482D01*
X214452D01*
Y7513D01*
X214482D01*
Y7544D01*
X214513D01*
Y7574D01*
X214574D01*
Y7605D01*
Y7635D01*
Y7666D01*
X214605D01*
Y7697D01*
Y7727D01*
Y7758D01*
X214635D01*
Y7788D01*
X214697D01*
Y7819D01*
Y7850D01*
Y7880D01*
X214727D01*
Y7911D01*
Y7941D01*
Y7972D01*
Y8003D01*
X214788D01*
Y8033D01*
Y8064D01*
Y8094D01*
X214819D01*
Y8125D01*
Y8156D01*
Y8186D01*
Y8217D01*
Y8247D01*
Y8278D01*
X214880D01*
Y8309D01*
Y8339D01*
Y8370D01*
Y8400D01*
Y8431D01*
Y8461D01*
Y8492D01*
X214911D01*
Y8523D01*
Y8553D01*
Y8584D01*
Y8614D01*
Y8645D01*
Y8676D01*
Y8706D01*
Y8737D01*
Y8767D01*
Y8798D01*
Y8828D01*
Y8859D01*
Y8890D01*
Y8920D01*
Y8951D01*
Y8981D01*
Y9012D01*
Y9043D01*
Y9073D01*
Y9104D01*
Y9134D01*
X214880D01*
Y9165D01*
Y9196D01*
Y9226D01*
Y9257D01*
Y9287D01*
Y9318D01*
Y9349D01*
X214819D01*
Y9379D01*
Y9410D01*
Y9440D01*
Y9471D01*
Y9502D01*
Y9532D01*
X214788D01*
Y9563D01*
Y9593D01*
Y9624D01*
X214727D01*
Y9655D01*
Y9685D01*
Y9716D01*
Y9746D01*
X214697D01*
Y9777D01*
Y9808D01*
Y9838D01*
X214635D01*
Y9869D01*
X214605D01*
Y9899D01*
Y9930D01*
Y9961D01*
X214574D01*
Y9991D01*
Y10022D01*
Y10052D01*
X214513D01*
Y10083D01*
X214482D01*
Y10114D01*
X214452D01*
Y10144D01*
Y10175D01*
Y10205D01*
X214391D01*
Y10236D01*
Y10266D01*
X214360D01*
Y10297D01*
X214299D01*
Y10328D01*
Y10358D01*
X214268D01*
Y10389D01*
X214207D01*
Y10419D01*
X214177D01*
Y10450D01*
Y10481D01*
X214146D01*
Y10511D01*
X214054D01*
Y10542D01*
X214024D01*
Y10572D01*
X213993D01*
Y10603D01*
X213962D01*
Y10633D01*
X213871D01*
Y10664D01*
Y10695D01*
X213779D01*
Y10725D01*
X213718D01*
Y10756D01*
X213687D01*
Y10786D01*
X213626D01*
Y10817D01*
X213534D01*
Y10848D01*
X213381D01*
Y10878D01*
X213351D01*
Y10909D01*
X213136D01*
Y10939D01*
D02*
G37*
%LPD*%
D10*
X102180Y40945D02*
G03*
X105512Y44277I0J3332D01*
G01*
X79528Y44277D02*
G03*
X82860Y40945I3332J0D01*
G01*
X64666Y37599D02*
Y38387D01*
X59744Y37599D02*
Y38387D01*
X5561Y149213D02*
X9498D01*
X5118Y155905D02*
Y157874D01*
X9843Y155905D02*
Y157874D01*
X17422Y156693D02*
Y157480D01*
X12500Y156693D02*
Y157480D01*
X50197Y161122D02*
X50984D01*
X50197Y166043D02*
X50984D01*
X50197Y158957D02*
X50984D01*
X50197Y154036D02*
X50984D01*
X50197Y173523D02*
X50985D01*
X50197Y168602D02*
X50985D01*
X19488Y156693D02*
Y157480D01*
X24410Y156693D02*
Y157480D01*
X99449Y182283D02*
X119449D01*
Y152362D02*
Y182283D01*
X99449Y152362D02*
Y182283D01*
Y152362D02*
X119449D01*
X53346Y139961D02*
Y143110D01*
X49409Y139961D02*
X53346D01*
Y148622D02*
Y151772D01*
X49409D02*
X53346D01*
X45079Y152362D02*
X47441D01*
X47835Y184842D02*
Y187992D01*
X51772D01*
X47835Y176181D02*
Y179331D01*
Y176181D02*
X51772D01*
X53740Y175591D02*
X56102D01*
X5561Y165748D02*
X9498D01*
X5118Y172441D02*
Y174409D01*
X9843Y172441D02*
Y174409D01*
X61811Y177165D02*
X65748D01*
X68898Y156890D02*
X87008D01*
X68898Y177756D02*
X87008D01*
Y156890D02*
Y177756D01*
X68898Y156890D02*
Y177756D01*
X162893Y49213D02*
Y50000D01*
X167815Y49213D02*
Y50000D01*
X155807Y49213D02*
Y50000D01*
X160728Y49213D02*
Y50000D01*
X59547Y53150D02*
Y53937D01*
X64468Y53150D02*
Y53937D01*
X50591Y49213D02*
Y57874D01*
X53740Y49213D02*
Y57874D01*
X50591D02*
X53740D01*
X50591Y49213D02*
X53740D01*
X54921Y48819D02*
X57284D01*
X44784Y53150D02*
Y53937D01*
X39862Y53150D02*
Y53937D01*
X31299Y47933D02*
X32087D01*
X31299Y52854D02*
X32087D01*
X51870Y37599D02*
Y38386D01*
X56792Y37599D02*
Y38386D01*
X67224Y37599D02*
Y38386D01*
X72145Y37599D02*
Y38386D01*
X11961Y47394D02*
X17961D01*
X11961Y53394D02*
X17961D01*
X7874Y53937D02*
X9449D01*
X7284Y70276D02*
X7874D01*
X19685Y70275D02*
X20276D01*
X19685Y57284D02*
X20276D01*
X7284D02*
X7874D01*
X20276Y57284D02*
Y70275D01*
X7284Y57284D02*
Y70276D01*
X19685Y30511D02*
X20276D01*
X7283Y30512D02*
X7874D01*
X7283Y43504D02*
X7874D01*
X19685D02*
X20276D01*
X7283Y30512D02*
Y43503D01*
X20276Y30511D02*
Y43503D01*
X100394Y2205D02*
Y28155D01*
X63386D02*
X100394D01*
X63386Y2205D02*
Y28155D01*
Y2205D02*
X100394D01*
X76772Y48267D02*
Y68267D01*
X66929D02*
X76772D01*
X66929Y48267D02*
Y68267D01*
Y48267D02*
X76772D01*
X58268Y61515D02*
X59055D01*
X58268Y66437D02*
X59055D01*
X44882Y66437D02*
X45669D01*
X44882Y61516D02*
X45669D01*
X32579Y60630D02*
Y61417D01*
X37500Y60630D02*
Y61417D01*
X30019Y60630D02*
Y61417D01*
X25098Y60630D02*
Y61417D01*
X129921Y126969D02*
Y130905D01*
X127953Y128937D02*
X131890D01*
X127953Y95866D02*
X131890D01*
X129921Y178543D02*
Y182480D01*
X127953Y180512D02*
X131890D01*
X127953Y147441D02*
X131890D01*
X31220Y75959D02*
Y85459D01*
X28150Y42520D02*
Y43307D01*
X45866Y42520D02*
Y43307D01*
X28150Y32283D02*
Y33071D01*
X45866Y32283D02*
Y33071D01*
X28150Y43307D02*
X45866D01*
X28150Y32283D02*
X45866D01*
X135826Y56398D02*
X136614D01*
X135826Y51477D02*
X136614D01*
X76772Y101772D02*
X78839D01*
X76772D02*
Y103839D01*
X90847Y101772D02*
X92913D01*
Y103839D01*
Y119783D02*
Y121890D01*
X90847D02*
X92913D01*
X76772Y121850D02*
X78839D01*
X76772Y119783D02*
Y121850D01*
X76732Y123031D02*
X78839D01*
X42520Y123425D02*
Y128937D01*
X52756Y123425D02*
Y128937D01*
X55118Y123425D02*
Y128937D01*
X65354Y123425D02*
Y128937D01*
X162303Y13386D02*
Y14174D01*
X157382Y13386D02*
Y14174D01*
X112992Y65748D02*
X118504D01*
X112992Y55512D02*
X118504D01*
X112992Y52362D02*
X118504D01*
X112992Y42126D02*
X118504D01*
X131102Y68898D02*
X136614D01*
X131102Y75197D02*
X136614D01*
X131102Y59449D02*
X136614D01*
X131102Y65748D02*
X136614D01*
X31220Y85459D02*
X53268D01*
Y75959D02*
Y85459D01*
X31220Y75959D02*
X53268D01*
X231102Y191759D02*
X253150D01*
Y182259D02*
Y191759D01*
X231102Y182259D02*
X253150D01*
X231102D02*
Y191759D01*
Y152731D02*
Y162231D01*
Y152731D02*
X253150D01*
Y162231D01*
X231102D02*
X253150D01*
X26378Y2362D02*
Y25039D01*
X30866Y29528D01*
X57678D01*
X231102Y162231D02*
X253150D01*
X231102Y152731D02*
Y162231D01*
Y152731D02*
X253150D01*
Y162231D01*
X133268Y22834D02*
Y26771D01*
X133426Y29433D02*
X152796D01*
X133426Y41433D02*
X152796D01*
X133426Y29433D02*
Y41433D01*
X152796Y29433D02*
Y41433D01*
X105118Y4724D02*
Y9843D01*
X131102Y26378D02*
Y31102D01*
X105118D02*
X131102D01*
Y4724D02*
Y9843D01*
X105118Y4724D02*
X131102D01*
X105118Y26378D02*
Y31102D01*
X111024Y138288D02*
X111811D01*
X111024Y133366D02*
X111811D01*
X111024Y140453D02*
X111811D01*
X111024Y145374D02*
X111811D01*
X65944Y80512D02*
Y81102D01*
X65945Y92914D02*
Y93504D01*
X78937Y92914D02*
Y93504D01*
Y80512D02*
Y81102D01*
X65945Y93504D02*
X78936D01*
X65944Y80512D02*
X78936D01*
X105512Y44277D02*
Y61417D01*
X97835Y40945D02*
X102180D01*
X82860Y40945D02*
X87205D01*
X79528Y44277D02*
Y61417D01*
X97638Y66929D02*
X100000D01*
X105512Y61417D01*
X79528Y61417D02*
X85039Y66929D01*
X87205D01*
X227953Y196693D02*
Y216693D01*
X27953Y196693D02*
Y216693D01*
X226772D02*
X227953D01*
X226772Y196693D02*
X227953D01*
X27953Y216693D02*
X29291D01*
X27953Y196693D02*
X29134D01*
X51575Y112992D02*
X54724D01*
Y109055D02*
Y112992D01*
X42913D02*
X46063D01*
X42913Y109055D02*
Y112992D01*
X42323Y104724D02*
Y107087D01*
X57678Y2362D02*
Y29528D01*
X26378Y2362D02*
X57678D01*
X66929Y149705D02*
X67716D01*
X66929Y144784D02*
X67716D01*
X96614Y147244D02*
Y150157D01*
Y127559D02*
Y130709D01*
X75039Y150157D02*
X96614D01*
X75039Y147244D02*
Y150157D01*
Y127559D02*
X96614D01*
X75039D02*
Y130709D01*
X94488Y80315D02*
Y91339D01*
X83465D02*
X94488D01*
X83465Y80315D02*
X94488D01*
X83465D02*
Y91339D01*
X87992Y180217D02*
X88779D01*
X87992Y185138D02*
X88779D01*
X66929Y136910D02*
X67716D01*
X66929Y141831D02*
X67716D01*
X49902Y96063D02*
Y96850D01*
X54823Y96063D02*
Y96850D01*
X42815Y96063D02*
Y96850D01*
X47736Y96063D02*
Y96850D01*
X67618Y127953D02*
Y128741D01*
X72540Y127953D02*
Y128741D01*
X65748Y185138D02*
X66535D01*
X65748Y180216D02*
X66535D01*
X17421Y173228D02*
Y174016D01*
X12500Y173228D02*
Y174016D01*
X64567Y111122D02*
X65354D01*
X64567Y116043D02*
X65354D01*
X111024Y131201D02*
X111811D01*
X111024Y126279D02*
X111811D01*
X111024Y124114D02*
X111811D01*
X111024Y119193D02*
X111811D01*
X111024Y116634D02*
X111811D01*
X111024Y111712D02*
X111811D01*
X111024Y104233D02*
X111811D01*
X111024Y109154D02*
X111811D01*
X111024Y102067D02*
X111811D01*
X111024Y97145D02*
X111811D01*
X117717Y39075D02*
X118504D01*
X117717Y34153D02*
X118504D01*
X64567Y103248D02*
X65354D01*
X64567Y108170D02*
X65354D01*
X160827Y26476D02*
X161614D01*
X160827Y21555D02*
X161614D01*
X149902Y13386D02*
Y14173D01*
X154823Y13386D02*
Y14173D01*
X146949Y13386D02*
Y14173D01*
X142027Y13386D02*
Y14173D01*
X133760Y13386D02*
Y14174D01*
X138681Y13386D02*
Y14174D01*
D11*
X96575Y175354D02*
X97887D01*
X97231D01*
Y179290D01*
X96575Y178634D01*
X11614Y146850D02*
Y149999D01*
X13189D01*
X13713Y149474D01*
Y148425D01*
X13189Y147900D01*
X11614D01*
X14763Y149999D02*
Y146850D01*
X15812Y147900D01*
X16862Y146850D01*
Y149999D01*
X17911Y146850D02*
Y149999D01*
X19486D01*
X20010Y149474D01*
Y148425D01*
X19486Y147900D01*
X17911D01*
X18961D02*
X20010Y146850D01*
X13713Y183333D02*
X13189Y183857D01*
X12139D01*
X11614Y183333D01*
Y181233D01*
X12139Y180709D01*
X13189D01*
X13713Y181233D01*
X14763Y183857D02*
Y180709D01*
Y182283D01*
X16862D01*
Y183857D01*
Y180709D01*
X20010Y183333D02*
X19486Y183857D01*
X18436D01*
X17911Y183333D01*
Y181233D01*
X18436Y180709D01*
X19486D01*
X20010Y181233D01*
Y182283D01*
X18961D01*
X61745Y77952D02*
X59646D01*
Y76377D01*
X60695D01*
X59646D01*
Y74803D01*
X63319D02*
X64369D01*
X64893Y75328D01*
Y76377D01*
X64369Y76902D01*
X63319D01*
X62794Y76377D01*
Y75328D01*
X63319Y74803D01*
X65943Y76902D02*
Y74803D01*
Y75853D01*
X66468Y76377D01*
X66992Y76902D01*
X67517D01*
X71191D02*
X69616D01*
X69091Y76377D01*
Y75328D01*
X69616Y74803D01*
X71191D01*
X73814D02*
X72765D01*
X72240Y75328D01*
Y76377D01*
X72765Y76902D01*
X73814D01*
X74339Y76377D01*
Y75853D01*
X72240D01*
X80111Y77952D02*
X79062D01*
X78537Y77427D01*
Y75328D01*
X79062Y74803D01*
X80111D01*
X80636Y75328D01*
Y77427D01*
X80111Y77952D01*
X81686Y74803D02*
Y77952D01*
X83785Y74803D01*
Y77952D01*
X34186Y89763D02*
X33136D01*
X33661D01*
Y87139D01*
X33136Y86614D01*
X32611D01*
X32087Y87139D01*
X36810Y86614D02*
Y89763D01*
X35235Y88188D01*
X37334D01*
X38384D02*
X40483D01*
X41532Y86614D02*
Y89763D01*
X43107D01*
X43631Y89238D01*
Y88188D01*
X43107Y87664D01*
X41532D01*
X44681Y86614D02*
X45731D01*
X45206D01*
Y88713D01*
X44681D01*
X48879Y86614D02*
Y89763D01*
X47305Y88188D01*
X49404D01*
X50453Y89763D02*
Y86614D01*
X52028D01*
X52552Y87139D01*
Y87664D01*
X52028Y88188D01*
X50453D01*
X52028D01*
X52552Y88713D01*
Y89238D01*
X52028Y89763D01*
X50453D01*
X232414Y151180D02*
X231364D01*
X231889D01*
Y148556D01*
X231364Y148031D01*
X230840D01*
X230315Y148556D01*
X235038Y148031D02*
Y151180D01*
X233464Y149606D01*
X235563D01*
X236612D02*
X238711D01*
X239761Y148031D02*
Y151180D01*
X241335D01*
X241860Y150655D01*
Y149606D01*
X241335Y149081D01*
X239761D01*
X242909Y148031D02*
X243959D01*
X243434D01*
Y150131D01*
X242909D01*
X245533Y150655D02*
X246058Y151180D01*
X247108D01*
X247632Y150655D01*
Y150131D01*
X247108Y149606D01*
X246583D01*
X247108D01*
X247632Y149081D01*
Y148556D01*
X247108Y148031D01*
X246058D01*
X245533Y148556D01*
X248682Y151180D02*
Y148031D01*
X250256D01*
X250781Y148556D01*
Y149081D01*
X250256Y149606D01*
X248682D01*
X250256D01*
X250781Y150131D01*
Y150655D01*
X250256Y151180D01*
X248682D01*
X251830Y149606D02*
X253929D01*
X252880Y150655D02*
Y148556D01*
X233792Y180904D02*
X232742D01*
X233267D01*
Y178281D01*
X232742Y177756D01*
X232218D01*
X231693Y178281D01*
X236416Y177756D02*
Y180904D01*
X234841Y179330D01*
X236941D01*
X237990D02*
X240089D01*
X241139Y177756D02*
Y180904D01*
X242713D01*
X243238Y180380D01*
Y179330D01*
X242713Y178805D01*
X241139D01*
X244287Y177756D02*
X245337D01*
X244812D01*
Y179855D01*
X244287D01*
X246911Y180380D02*
X247436Y180904D01*
X248485D01*
X249010Y180380D01*
Y179855D01*
X248485Y179330D01*
X247961D01*
X248485D01*
X249010Y178805D01*
Y178281D01*
X248485Y177756D01*
X247436D01*
X246911Y178281D01*
X250060Y180904D02*
Y177756D01*
X251634D01*
X252159Y178281D01*
Y178805D01*
X251634Y179330D01*
X250060D01*
X251634D01*
X252159Y179855D01*
Y180380D01*
X251634Y180904D01*
X250060D01*
X35039Y189370D02*
Y190682D01*
Y190026D01*
X31104D01*
X31760Y189370D01*
X79069Y35367D02*
X78544Y34842D01*
Y33792D01*
X79069Y33268D01*
X81168D01*
X81693Y33792D01*
Y34842D01*
X81168Y35367D01*
X79069Y36416D02*
X78544Y36941D01*
Y37991D01*
X79069Y38515D01*
X79594D01*
X80119Y37991D01*
X80643Y38515D01*
X81168D01*
X81693Y37991D01*
Y36941D01*
X81168Y36416D01*
X80643D01*
X80119Y36941D01*
X79594Y36416D01*
X79069D01*
X80119Y36941D02*
Y37991D01*
X26576Y153347D02*
X29724D01*
Y155446D01*
X26576Y156495D02*
X29724D01*
Y158069D01*
X29200Y158594D01*
X27101D01*
X26576Y158069D01*
Y156495D01*
X29724Y159644D02*
Y160693D01*
Y160168D01*
X26576D01*
X27101Y159644D01*
X34843Y153150D02*
X31694D01*
Y154724D01*
X32219Y155249D01*
X33268D01*
X33793Y154724D01*
Y153150D01*
Y154199D02*
X34843Y155249D01*
Y156298D02*
Y157348D01*
Y156823D01*
X31694D01*
X32219Y156298D01*
X34843Y161021D02*
Y158922D01*
X32743Y161021D01*
X32219D01*
X31694Y160496D01*
Y159447D01*
X32219Y158922D01*
X34055Y170472D02*
Y173621D01*
X35629D01*
X36154Y173096D01*
Y172047D01*
X35629Y171522D01*
X34055D01*
X35105D02*
X36154Y170472D01*
X39303D02*
X37204D01*
X39303Y172572D01*
Y173096D01*
X38778Y173621D01*
X37729D01*
X37204Y173096D01*
X41927Y170472D02*
Y173621D01*
X40352Y172047D01*
X42451D01*
X34055Y165551D02*
Y168700D01*
X35629D01*
X36154Y168175D01*
Y167125D01*
X35629Y166601D01*
X34055D01*
X35105D02*
X36154Y165551D01*
X39303D02*
X37204D01*
X39303Y167650D01*
Y168175D01*
X38778Y168700D01*
X37729D01*
X37204Y168175D01*
X42451Y168700D02*
X41402Y168175D01*
X40352Y167125D01*
Y166076D01*
X40877Y165551D01*
X41927D01*
X42451Y166076D01*
Y166601D01*
X41927Y167125D01*
X40352D01*
X36154Y178017D02*
X35629Y178542D01*
X34580D01*
X34055Y178017D01*
Y175918D01*
X34580Y175394D01*
X35629D01*
X36154Y175918D01*
X39303Y175394D02*
X37204D01*
X39303Y177493D01*
Y178017D01*
X38778Y178542D01*
X37729D01*
X37204Y178017D01*
X41927Y175394D02*
Y178542D01*
X40352Y176968D01*
X42451D01*
X39961Y152953D02*
X36812D01*
Y154527D01*
X37337Y155052D01*
X38386D01*
X38911Y154527D01*
Y152953D01*
Y154002D02*
X39961Y155052D01*
Y156101D02*
Y157151D01*
Y156626D01*
X36812D01*
X37337Y156101D01*
Y158725D02*
X36812Y159250D01*
Y160300D01*
X37337Y160824D01*
X37862D01*
X38386Y160300D01*
Y159775D01*
Y160300D01*
X38911Y160824D01*
X39436D01*
X39961Y160300D01*
Y159250D01*
X39436Y158725D01*
X42847Y185761D02*
Y187860D01*
X42322Y188385D01*
X41273D01*
X40748Y187860D01*
Y185761D01*
X41273Y185236D01*
X42322D01*
X41798Y186286D02*
X42847Y185236D01*
X42322D02*
X42847Y185761D01*
X45996Y188385D02*
X44946Y187860D01*
X43897Y186811D01*
Y185761D01*
X44421Y185236D01*
X45471D01*
X45996Y185761D01*
Y186286D01*
X45471Y186811D01*
X43897D01*
X59776Y152100D02*
Y154199D01*
X59251Y154723D01*
X58202D01*
X57677Y154199D01*
Y152100D01*
X58202Y151575D01*
X59251D01*
X58727Y152624D02*
X59776Y151575D01*
X59251D02*
X59776Y152100D01*
X62400Y151575D02*
Y154723D01*
X60826Y153149D01*
X62925D01*
X75394Y182479D02*
Y179856D01*
X75919Y179331D01*
X76968D01*
X77493Y179856D01*
Y182479D01*
X80117Y179331D02*
Y182479D01*
X78542Y180905D01*
X80641D01*
X94422Y155904D02*
X93372D01*
X93897D01*
Y153281D01*
X93372Y152756D01*
X92848D01*
X92323Y153281D01*
X97046Y152756D02*
Y155904D01*
X95471Y154330D01*
X97571D01*
X105315Y184449D02*
Y187597D01*
X106889D01*
X107414Y187073D01*
Y186023D01*
X106889Y185498D01*
X105315D01*
X108464Y184449D02*
Y187597D01*
X110038D01*
X110563Y187073D01*
Y186023D01*
X110038Y185498D01*
X108464D01*
X109513D02*
X110563Y184449D01*
X113711Y187073D02*
X113186Y187597D01*
X112137D01*
X111612Y187073D01*
Y184974D01*
X112137Y184449D01*
X113186D01*
X113711Y184974D01*
Y186023D01*
X112662D01*
X46654Y47834D02*
Y45210D01*
X47178Y44685D01*
X48228D01*
X48753Y45210D01*
Y47834D01*
X49802Y44685D02*
X50852D01*
X50327D01*
Y47834D01*
X49802Y47309D01*
X63779Y68504D02*
X60631D01*
Y70078D01*
X61156Y70603D01*
X62205D01*
X62730Y70078D01*
Y68504D01*
Y69554D02*
X63779Y70603D01*
X61156Y71653D02*
X60631Y72177D01*
Y73227D01*
X61156Y73752D01*
X61681D01*
X62205Y73227D01*
Y72702D01*
Y73227D01*
X62730Y73752D01*
X63255D01*
X63779Y73227D01*
Y72177D01*
X63255Y71653D01*
X53740Y68504D02*
Y71653D01*
X55314D01*
X55839Y71128D01*
Y70078D01*
X55314Y69554D01*
X53740D01*
X54790D02*
X55839Y68504D01*
X58988D02*
X56889D01*
X58988Y70603D01*
Y71128D01*
X58463Y71653D01*
X57414D01*
X56889Y71128D01*
X27559Y68504D02*
Y71653D01*
X29133D01*
X29658Y71128D01*
Y70078D01*
X29133Y69554D01*
X27559D01*
X28609D02*
X29658Y68504D01*
X30708Y71128D02*
X31232Y71653D01*
X32282D01*
X32807Y71128D01*
Y70603D01*
X32282Y70078D01*
X32807Y69554D01*
Y69029D01*
X32282Y68504D01*
X31232D01*
X30708Y69029D01*
Y69554D01*
X31232Y70078D01*
X30708Y70603D01*
Y71128D01*
X31232Y70078D02*
X32282D01*
X43504Y68504D02*
X40355D01*
Y70078D01*
X40880Y70603D01*
X41930D01*
X42454Y70078D01*
Y68504D01*
Y69554D02*
X43504Y70603D01*
X40355Y73752D02*
Y71653D01*
X41930D01*
X41405Y72702D01*
Y73227D01*
X41930Y73752D01*
X42979D01*
X43504Y73227D01*
Y72177D01*
X42979Y71653D01*
X44882Y68504D02*
Y71653D01*
X46456D01*
X46981Y71128D01*
Y70078D01*
X46456Y69554D01*
X44882D01*
X45931D02*
X46981Y68504D01*
X48030D02*
X49080D01*
X48555D01*
Y71653D01*
X48030Y71128D01*
X37795Y68504D02*
X34647D01*
Y70078D01*
X35171Y70603D01*
X36221D01*
X36746Y70078D01*
Y68504D01*
Y69554D02*
X37795Y70603D01*
Y73227D02*
X34647D01*
X36221Y71653D01*
Y73752D01*
X86614Y33268D02*
X83466D01*
Y34842D01*
X83990Y35367D01*
X85040D01*
X85565Y34842D01*
Y33268D01*
Y34317D02*
X86614Y35367D01*
X86089Y36416D02*
X86614Y36941D01*
Y37991D01*
X86089Y38515D01*
X83990D01*
X83466Y37991D01*
Y36941D01*
X83990Y36416D01*
X84515D01*
X85040Y36941D01*
Y38515D01*
X166732Y56890D02*
X163584D01*
Y58464D01*
X164108Y58989D01*
X165158D01*
X165683Y58464D01*
Y56890D01*
Y57939D02*
X166732Y58989D01*
X163584Y60038D02*
Y62137D01*
X164108D01*
X166208Y60038D01*
X166732D01*
X159646Y56890D02*
X156497D01*
Y58464D01*
X157022Y58989D01*
X158071D01*
X158596Y58464D01*
Y56890D01*
Y57939D02*
X159646Y58989D01*
X156497Y62137D02*
X157022Y61088D01*
X158071Y60038D01*
X159121D01*
X159646Y60563D01*
Y61613D01*
X159121Y62137D01*
X158596D01*
X158071Y61613D01*
Y60038D01*
X4790Y62532D02*
X2691D01*
X2166Y62007D01*
Y60958D01*
X2691Y60433D01*
X4790D01*
X5315Y60958D01*
Y62007D01*
X4265Y61483D02*
X5315Y62532D01*
Y62007D02*
X4790Y62532D01*
X5315Y65681D02*
Y63582D01*
X3216Y65681D01*
X2691D01*
X2166Y65156D01*
Y64106D01*
X2691Y63582D01*
X4790Y35170D02*
X2691D01*
X2166Y34645D01*
Y33596D01*
X2691Y33071D01*
X4790D01*
X5315Y33596D01*
Y34645D01*
X4265Y34120D02*
X5315Y35170D01*
Y34645D02*
X4790Y35170D01*
X5315Y36219D02*
Y37269D01*
Y36744D01*
X2166D01*
X2691Y36219D01*
X65354Y4331D02*
Y7479D01*
X66929D01*
X67453Y6955D01*
Y5905D01*
X66929Y5380D01*
X65354D01*
X68503Y7479D02*
Y4331D01*
X70077D01*
X70602Y4856D01*
Y5380D01*
X70077Y5905D01*
X68503D01*
X70077D01*
X70602Y6430D01*
Y6955D01*
X70077Y7479D01*
X68503D01*
X71652Y4331D02*
X72701D01*
X72176D01*
Y7479D01*
X71652Y6955D01*
X70209Y72834D02*
X69160D01*
X69684D01*
Y70210D01*
X69160Y69685D01*
X68635D01*
X68110Y70210D01*
X71259Y69685D02*
Y72834D01*
X72833D01*
X73358Y72309D01*
Y71259D01*
X72833Y70735D01*
X71259D01*
X74407Y69685D02*
X75457D01*
X74932D01*
Y72834D01*
X74407Y72309D01*
X2166Y46260D02*
X5315D01*
Y47834D01*
X4790Y48359D01*
X2691D01*
X2166Y47834D01*
Y46260D01*
Y49408D02*
Y51508D01*
X2691D01*
X4790Y49408D01*
X5315D01*
Y51508D01*
Y52557D02*
Y53607D01*
Y53082D01*
X2166D01*
X2691Y52557D01*
X23360Y70603D02*
X22836Y70078D01*
Y69029D01*
X23360Y68504D01*
X25460D01*
X25984Y69029D01*
Y70078D01*
X25460Y70603D01*
X22836Y73752D02*
Y71653D01*
X24410D01*
X23885Y72702D01*
Y73227D01*
X24410Y73752D01*
X25460D01*
X25984Y73227D01*
Y72177D01*
X25460Y71653D01*
X74148Y35367D02*
X73623Y34842D01*
Y33792D01*
X74148Y33268D01*
X76247D01*
X76772Y33792D01*
Y34842D01*
X76247Y35367D01*
X73623Y36416D02*
Y38515D01*
X74148D01*
X76247Y36416D01*
X76772D01*
X21655Y32677D02*
Y34776D01*
Y33727D01*
X24803D01*
X21655Y35826D02*
X23754D01*
X24803Y36875D01*
X23754Y37925D01*
X21655D01*
X22179Y41073D02*
X21655Y40549D01*
Y39499D01*
X22179Y38974D01*
X22704D01*
X23229Y39499D01*
Y40549D01*
X23754Y41073D01*
X24278D01*
X24803Y40549D01*
Y39499D01*
X24278Y38974D01*
X24803Y42123D02*
Y43172D01*
Y42648D01*
X21655D01*
X22179Y42123D01*
X146194Y55183D02*
X145669Y55708D01*
X144619D01*
X144095Y55183D01*
Y53084D01*
X144619Y52559D01*
X145669D01*
X146194Y53084D01*
X148817Y52559D02*
Y55708D01*
X147243Y54133D01*
X149342D01*
X164896Y11942D02*
X164371Y11417D01*
Y10367D01*
X164896Y9843D01*
X166995D01*
X167520Y10367D01*
Y11417D01*
X166995Y11942D01*
X167520Y12991D02*
Y14041D01*
Y13516D01*
X164371D01*
X164896Y12991D01*
Y15615D02*
X164371Y16140D01*
Y17189D01*
X164896Y17714D01*
X166995D01*
X167520Y17189D01*
Y16140D01*
X166995Y15615D01*
X164896D01*
X114107Y80773D02*
X113582Y81298D01*
X112533D01*
X112008Y80773D01*
Y78674D01*
X112533Y78150D01*
X113582D01*
X114107Y78674D01*
X115156Y78150D02*
X116206D01*
X115681D01*
Y81298D01*
X115156Y80773D01*
X119879Y78150D02*
X117780D01*
X119879Y80249D01*
Y80773D01*
X119355Y81298D01*
X118305D01*
X117780Y80773D01*
X122441Y132087D02*
X119292D01*
Y133661D01*
X119817Y134186D01*
X120867D01*
X121391Y133661D01*
Y132087D01*
Y133136D02*
X122441Y134186D01*
Y135235D02*
Y136285D01*
Y135760D01*
X119292D01*
X119817Y135235D01*
X119292Y139958D02*
Y137859D01*
X120867D01*
X120342Y138909D01*
Y139433D01*
X120867Y139958D01*
X121916D01*
X122441Y139433D01*
Y138384D01*
X121916Y137859D01*
X103543Y137992D02*
X100395D01*
Y139566D01*
X100919Y140091D01*
X101969D01*
X102494Y139566D01*
Y137992D01*
Y139042D02*
X103543Y140091D01*
Y141141D02*
Y142190D01*
Y141665D01*
X100395D01*
X100919Y141141D01*
X100395Y145864D02*
X100919Y144814D01*
X101969Y143765D01*
X103018D01*
X103543Y144289D01*
Y145339D01*
X103018Y145864D01*
X102494D01*
X101969Y145339D01*
Y143765D01*
X27297Y124737D02*
X26773Y124212D01*
Y123163D01*
X27297Y122638D01*
X29397D01*
X29921Y123163D01*
Y124212D01*
X29397Y124737D01*
X29921Y127885D02*
Y125786D01*
X27822Y127885D01*
X27297D01*
X26773Y127361D01*
Y126311D01*
X27297Y125786D01*
Y128935D02*
X26773Y129460D01*
Y130509D01*
X27297Y131034D01*
X29397D01*
X29921Y130509D01*
Y129460D01*
X29397Y128935D01*
X27297D01*
X103543Y95669D02*
X100395D01*
Y97244D01*
X100919Y97768D01*
X101969D01*
X102494Y97244D01*
Y95669D01*
Y96719D02*
X103543Y97768D01*
Y100917D02*
Y98818D01*
X101444Y100917D01*
X100919D01*
X100395Y100392D01*
Y99343D01*
X100919Y98818D01*
Y101967D02*
X100395Y102491D01*
Y103541D01*
X100919Y104066D01*
X103018D01*
X103543Y103541D01*
Y102491D01*
X103018Y101967D01*
X100919D01*
X122441Y102756D02*
X119292D01*
Y104330D01*
X119817Y104855D01*
X120867D01*
X121391Y104330D01*
Y102756D01*
Y103805D02*
X122441Y104855D01*
Y108004D02*
Y105904D01*
X120342Y108004D01*
X119817D01*
X119292Y107479D01*
Y106429D01*
X119817Y105904D01*
X122441Y109053D02*
Y110103D01*
Y109578D01*
X119292D01*
X119817Y109053D01*
X94488Y123621D02*
Y120997D01*
X95013Y120472D01*
X96062D01*
X96587Y120997D01*
Y123621D01*
X97637Y123096D02*
X98162Y123621D01*
X99211D01*
X99736Y123096D01*
Y122572D01*
X99211Y122047D01*
X98686D01*
X99211D01*
X99736Y121522D01*
Y120997D01*
X99211Y120472D01*
X98162D01*
X97637Y120997D01*
X102099Y71915D02*
X101574Y72440D01*
X100525D01*
X100000Y71915D01*
Y69816D01*
X100525Y69291D01*
X101574D01*
X102099Y69816D01*
X103149Y69291D02*
X104198D01*
X103673D01*
Y72440D01*
X103149Y71915D01*
X128872Y110367D02*
X128348Y109842D01*
Y108792D01*
X128872Y108268D01*
X130971D01*
X131496Y108792D01*
Y109842D01*
X130971Y110367D01*
X131496Y113515D02*
Y111416D01*
X129397Y113515D01*
X128872D01*
X128348Y112991D01*
Y111941D01*
X128872Y111416D01*
Y114565D02*
X128348Y115090D01*
Y116139D01*
X128872Y116664D01*
X129397D01*
X129922Y116139D01*
Y115614D01*
Y116139D01*
X130447Y116664D01*
X130971D01*
X131496Y116139D01*
Y115090D01*
X130971Y114565D01*
X128872Y162335D02*
X128348Y161811D01*
Y160761D01*
X128872Y160236D01*
X130971D01*
X131496Y160761D01*
Y161811D01*
X130971Y162335D01*
X131496Y165484D02*
Y163385D01*
X129397Y165484D01*
X128872D01*
X128348Y164959D01*
Y163910D01*
X128872Y163385D01*
X131496Y168632D02*
Y166533D01*
X129397Y168632D01*
X128872D01*
X128348Y168108D01*
Y167058D01*
X128872Y166533D01*
X128348Y32480D02*
X130971D01*
X131496Y33005D01*
Y34055D01*
X130971Y34579D01*
X128348D01*
X131496Y37728D02*
Y35629D01*
X129397Y37728D01*
X128872D01*
X128348Y37203D01*
Y36154D01*
X128872Y35629D01*
X27165Y169753D02*
X24017D01*
Y171327D01*
X24542Y171852D01*
X25591D01*
X26116Y171327D01*
Y169753D01*
Y170802D02*
X27165Y171852D01*
Y172901D02*
Y173951D01*
Y173426D01*
X24017D01*
X24542Y172901D01*
X27165Y177099D02*
X24017D01*
X25591Y175525D01*
Y177624D01*
X40945Y92323D02*
X37796D01*
Y93897D01*
X38321Y94422D01*
X39371D01*
X39895Y93897D01*
Y92323D01*
Y93372D02*
X40945Y94422D01*
Y97571D02*
Y95471D01*
X38846Y97571D01*
X38321D01*
X37796Y97046D01*
Y95996D01*
X38321Y95471D01*
X37796Y98620D02*
Y100719D01*
X38321D01*
X40420Y98620D01*
X40945D01*
X36417Y92323D02*
X33269D01*
Y93897D01*
X33794Y94422D01*
X34843D01*
X35368Y93897D01*
Y92323D01*
Y93372D02*
X36417Y94422D01*
Y97571D02*
Y95471D01*
X34318Y97571D01*
X33794D01*
X33269Y97046D01*
Y95996D01*
X33794Y95471D01*
X33269Y100719D02*
Y98620D01*
X34843D01*
X34318Y99669D01*
Y100194D01*
X34843Y100719D01*
X35893D01*
X36417Y100194D01*
Y99145D01*
X35893Y98620D01*
X122441Y117913D02*
X119292D01*
Y119488D01*
X119817Y120012D01*
X120867D01*
X121391Y119488D01*
Y117913D01*
Y118963D02*
X122441Y120012D01*
Y123161D02*
Y121062D01*
X120342Y123161D01*
X119817D01*
X119292Y122636D01*
Y121587D01*
X119817Y121062D01*
Y124211D02*
X119292Y124735D01*
Y125785D01*
X119817Y126310D01*
X120342D01*
X120867Y125785D01*
Y125260D01*
Y125785D01*
X121391Y126310D01*
X121916D01*
X122441Y125785D01*
Y124735D01*
X121916Y124211D01*
X103543Y125000D02*
X100395D01*
Y126574D01*
X100919Y127099D01*
X101969D01*
X102494Y126574D01*
Y125000D01*
Y126049D02*
X103543Y127099D01*
Y130248D02*
Y128149D01*
X101444Y130248D01*
X100919D01*
X100395Y129723D01*
Y128673D01*
X100919Y128149D01*
X103543Y133396D02*
Y131297D01*
X101444Y133396D01*
X100919D01*
X100395Y132871D01*
Y131822D01*
X100919Y131297D01*
X85039Y92913D02*
Y96062D01*
X86614D01*
X87138Y95537D01*
Y94488D01*
X86614Y93963D01*
X85039D01*
X86089D02*
X87138Y92913D01*
X88188D02*
X89237D01*
X88713D01*
Y96062D01*
X88188Y95537D01*
X90812D02*
X91337Y96062D01*
X92386D01*
X92911Y95537D01*
Y95012D01*
X92386Y94488D01*
X92911Y93963D01*
Y93438D01*
X92386Y92913D01*
X91337D01*
X90812Y93438D01*
Y93963D01*
X91337Y94488D01*
X90812Y95012D01*
Y95537D01*
X91337Y94488D02*
X92386D01*
X64370Y98819D02*
Y101968D01*
X65944D01*
X66469Y101443D01*
Y100393D01*
X65944Y99868D01*
X64370D01*
X65420D02*
X66469Y98819D01*
X67519D02*
X68568D01*
X68043D01*
Y101968D01*
X67519Y101443D01*
X70143Y101968D02*
X72242D01*
Y101443D01*
X70143Y99344D01*
Y98819D01*
X62402Y186614D02*
Y189763D01*
X63976D01*
X64501Y189238D01*
Y188189D01*
X63976Y187664D01*
X62402D01*
X63451D02*
X64501Y186614D01*
X65550D02*
X66600D01*
X66075D01*
Y189763D01*
X65550Y189238D01*
X68174Y187139D02*
X68699Y186614D01*
X69748D01*
X70273Y187139D01*
Y189238D01*
X69748Y189763D01*
X68699D01*
X68174Y189238D01*
Y188713D01*
X68699Y188189D01*
X70273D01*
X157677Y28150D02*
Y31298D01*
X159251D01*
X159776Y30773D01*
Y29724D01*
X159251Y29199D01*
X157677D01*
X158727D02*
X159776Y28150D01*
X160826D02*
X161875D01*
X161351D01*
Y31298D01*
X160826Y30773D01*
X163450Y28150D02*
X164499D01*
X163974D01*
Y31298D01*
X163450Y30773D01*
X149803Y2756D02*
Y5904D01*
X151377D01*
X151902Y5380D01*
Y4330D01*
X151377Y3805D01*
X149803D01*
X150853D02*
X151902Y2756D01*
X152952D02*
X154001D01*
X153477D01*
Y5904D01*
X152952Y5380D01*
X155576D02*
X156100Y5904D01*
X157150D01*
X157675Y5380D01*
Y3281D01*
X157150Y2756D01*
X156100D01*
X155576Y3281D01*
Y5380D01*
X39830Y108398D02*
X37731D01*
X37206Y107873D01*
Y106824D01*
X37731Y106299D01*
X39830D01*
X40354Y106824D01*
Y107873D01*
X39305Y107349D02*
X40354Y108398D01*
Y107873D02*
X39830Y108398D01*
X37206Y111547D02*
Y109448D01*
X38780D01*
X38255Y110497D01*
Y111022D01*
X38780Y111547D01*
X39830D01*
X40354Y111022D01*
Y109973D01*
X39830Y109448D01*
X59579Y83989D02*
Y86088D01*
X59055Y86613D01*
X58005D01*
X57480Y86088D01*
Y83989D01*
X58005Y83465D01*
X59055D01*
X58530Y84514D02*
X59579Y83465D01*
X59055D02*
X59579Y83989D01*
X60629Y86088D02*
X61154Y86613D01*
X62203D01*
X62728Y86088D01*
Y85564D01*
X62203Y85039D01*
X61678D01*
X62203D01*
X62728Y84514D01*
Y83989D01*
X62203Y83465D01*
X61154D01*
X60629Y83989D01*
X19292Y169488D02*
X22441D01*
Y171587D01*
X19292Y172637D02*
X22441D01*
Y174211D01*
X21916Y174736D01*
X19817D01*
X19292Y174211D01*
Y172637D01*
X22441Y177884D02*
Y175785D01*
X20342Y177884D01*
X19817D01*
X19292Y177360D01*
Y176310D01*
X19817Y175785D01*
X75590Y155117D02*
Y151969D01*
X77690D01*
X80838D02*
X78739D01*
X80838Y154068D01*
Y154592D01*
X80313Y155117D01*
X79264D01*
X78739Y154592D01*
X105118Y36613D02*
Y33465D01*
X107217D01*
X108267D02*
X109316D01*
X108791D01*
Y36613D01*
X108267Y36088D01*
X23359Y219684D02*
X22309D01*
X22834D01*
Y217060D01*
X22309Y216535D01*
X21785D01*
X21260Y217060D01*
X26507Y216535D02*
X24408D01*
X26507Y218635D01*
Y219159D01*
X25983Y219684D01*
X24933D01*
X24408Y219159D01*
X53674Y7479D02*
X52624D01*
X53149D01*
Y4856D01*
X52624Y4331D01*
X52100D01*
X51575Y4856D01*
X54723Y4331D02*
X55773D01*
X55248D01*
Y7479D01*
X54723Y6955D01*
X231036Y35235D02*
X228937D01*
Y33661D01*
X229987D01*
X228937D01*
Y32087D01*
X232086Y35235D02*
X233135D01*
X232610D01*
Y32087D01*
X232086D01*
X233135D01*
X234709Y35235D02*
Y32087D01*
X236284D01*
X236808Y32611D01*
Y34710D01*
X236284Y35235D01*
X234709D01*
X237858Y34710D02*
X238383Y35235D01*
X239432D01*
X239957Y34710D01*
Y34186D01*
X239432Y33661D01*
X238908D01*
X239432D01*
X239957Y33136D01*
Y32611D01*
X239432Y32087D01*
X238383D01*
X237858Y32611D01*
X41272Y15550D02*
X39173D01*
Y13976D01*
X40223D01*
X39173D01*
Y12402D01*
X42322Y15550D02*
X43371D01*
X42847D01*
Y12402D01*
X42322D01*
X43371D01*
X44946Y15550D02*
Y12402D01*
X46520D01*
X47045Y12926D01*
Y15025D01*
X46520Y15550D01*
X44946D01*
X50193Y12402D02*
X48094D01*
X50193Y14501D01*
Y15025D01*
X49668Y15550D01*
X48619D01*
X48094Y15025D01*
X17847Y190550D02*
X15748D01*
Y188976D01*
X16798D01*
X15748D01*
Y187402D01*
X18897Y190550D02*
X19946D01*
X19421D01*
Y187402D01*
X18897D01*
X19946D01*
X21520Y190550D02*
Y187402D01*
X23095D01*
X23619Y187926D01*
Y190025D01*
X23095Y190550D01*
X21520D01*
X24669Y187402D02*
X25719D01*
X25194D01*
Y190550D01*
X24669Y190025D01*
X35564Y148293D02*
X35039Y148818D01*
X33989D01*
X33465Y148293D01*
Y146194D01*
X33989Y145669D01*
X35039D01*
X35564Y146194D01*
X38712Y145669D02*
X36613D01*
X38712Y147768D01*
Y148293D01*
X38188Y148818D01*
X37138D01*
X36613Y148293D01*
X39762Y145669D02*
X40811D01*
X40286D01*
Y148818D01*
X39762Y148293D01*
X32416Y124737D02*
X31891Y124212D01*
Y123163D01*
X32416Y122638D01*
X34515D01*
X35039Y123163D01*
Y124212D01*
X34515Y124737D01*
X35039Y125786D02*
Y126836D01*
Y126311D01*
X31891D01*
X32416Y125786D01*
Y128410D02*
X31891Y128935D01*
Y129984D01*
X32416Y130509D01*
X32940D01*
X33465Y129984D01*
X33990Y130509D01*
X34515D01*
X35039Y129984D01*
Y128935D01*
X34515Y128410D01*
X33990D01*
X33465Y128935D01*
X32940Y128410D01*
X32416D01*
X33465Y128935D02*
Y129984D01*
X35564Y140025D02*
X35039Y140550D01*
X33989D01*
X33465Y140025D01*
Y137926D01*
X33989Y137402D01*
X35039D01*
X35564Y137926D01*
X36613Y137402D02*
X37663D01*
X37138D01*
Y140550D01*
X36613Y140025D01*
X39237Y137926D02*
X39762Y137402D01*
X40811D01*
X41336Y137926D01*
Y140025D01*
X40811Y140550D01*
X39762D01*
X39237Y140025D01*
Y139501D01*
X39762Y138976D01*
X41336D01*
X37534Y124737D02*
X37009Y124212D01*
Y123163D01*
X37534Y122638D01*
X39633D01*
X40157Y123163D01*
Y124212D01*
X39633Y124737D01*
X40157Y125786D02*
Y126836D01*
Y126311D01*
X37009D01*
X37534Y125786D01*
X37009Y128410D02*
Y130509D01*
X37534D01*
X39633Y128410D01*
X40157D01*
X100919Y112335D02*
X100395Y111811D01*
Y110761D01*
X100919Y110236D01*
X103018D01*
X103543Y110761D01*
Y111811D01*
X103018Y112335D01*
X103543Y113385D02*
Y114434D01*
Y113910D01*
X100395D01*
X100919Y113385D01*
X100395Y118108D02*
X100919Y117058D01*
X101969Y116009D01*
X103018D01*
X103543Y116533D01*
Y117583D01*
X103018Y118108D01*
X102494D01*
X101969Y117583D01*
Y116009D01*
X66272Y97309D02*
X65747Y97834D01*
X64698D01*
X64173Y97309D01*
Y95210D01*
X64698Y94685D01*
X65747D01*
X66272Y95210D01*
X67322Y94685D02*
X68371D01*
X67847D01*
Y97834D01*
X67322Y97309D01*
X71520Y94685D02*
Y97834D01*
X69946Y96259D01*
X72045D01*
X86745Y189238D02*
X86220Y189763D01*
X85170D01*
X84646Y189238D01*
Y187139D01*
X85170Y186614D01*
X86220D01*
X86745Y187139D01*
X87794Y186614D02*
X88844D01*
X88319D01*
Y189763D01*
X87794Y189238D01*
X92517Y189763D02*
X90418D01*
Y188189D01*
X91468Y188713D01*
X91992D01*
X92517Y188189D01*
Y187139D01*
X91992Y186614D01*
X90943D01*
X90418Y187139D01*
X114107Y76049D02*
X113582Y76574D01*
X112533D01*
X112008Y76049D01*
Y73950D01*
X112533Y73425D01*
X113582D01*
X114107Y73950D01*
X115156Y73425D02*
X116206D01*
X115681D01*
Y76574D01*
X115156Y76049D01*
X117780D02*
X118305Y76574D01*
X119355D01*
X119879Y76049D01*
Y75524D01*
X119355Y74999D01*
X118830D01*
X119355D01*
X119879Y74475D01*
Y73950D01*
X119355Y73425D01*
X118305D01*
X117780Y73950D01*
X114107Y71325D02*
X113582Y71849D01*
X112533D01*
X112008Y71325D01*
Y69226D01*
X112533Y68701D01*
X113582D01*
X114107Y69226D01*
X115156Y68701D02*
X116206D01*
X115681D01*
Y71849D01*
X115156Y71325D01*
X117780Y68701D02*
X118830D01*
X118305D01*
Y71849D01*
X117780Y71325D01*
X135957Y5380D02*
X135433Y5904D01*
X134383D01*
X133858Y5380D01*
Y3281D01*
X134383Y2756D01*
X135433D01*
X135957Y3281D01*
X137007D02*
X137532Y2756D01*
X138581D01*
X139106Y3281D01*
Y5380D01*
X138581Y5904D01*
X137532D01*
X137007Y5380D01*
Y4855D01*
X137532Y4330D01*
X139106D01*
X144028Y5380D02*
X143503Y5904D01*
X142454D01*
X141929Y5380D01*
Y3281D01*
X142454Y2756D01*
X143503D01*
X144028Y3281D01*
X147177Y5904D02*
X146127Y5380D01*
X145078Y4330D01*
Y3281D01*
X145603Y2756D01*
X146652D01*
X147177Y3281D01*
Y3805D01*
X146652Y4330D01*
X145078D01*
X145997Y63648D02*
X145472Y64172D01*
X144422D01*
X143898Y63648D01*
Y61548D01*
X144422Y61024D01*
X145472D01*
X145997Y61548D01*
X147046Y63648D02*
X147571Y64172D01*
X148620D01*
X149145Y63648D01*
Y63123D01*
X148620Y62598D01*
X148096D01*
X148620D01*
X149145Y62073D01*
Y61548D01*
X148620Y61024D01*
X147571D01*
X147046Y61548D01*
X145997Y72899D02*
X145472Y73424D01*
X144422D01*
X143898Y72899D01*
Y70800D01*
X144422Y70276D01*
X145472D01*
X145997Y70800D01*
X149145Y70276D02*
X147046D01*
X149145Y72375D01*
Y72899D01*
X148620Y73424D01*
X147571D01*
X147046Y72899D01*
D12*
X22638Y28936D02*
X26836D01*
X24737Y31035D02*
Y26837D01*
D13*
X240291Y63712D02*
X238979Y62400D01*
Y59777D01*
X240291Y58465D01*
X241603D01*
X242915Y59777D01*
Y62400D01*
X244227Y63712D01*
X245538D01*
X246850Y62400D01*
Y59777D01*
X245538Y58465D01*
X240291Y71584D02*
X238979Y70272D01*
Y67648D01*
X240291Y66336D01*
X245538D01*
X246850Y67648D01*
Y70272D01*
X245538Y71584D01*
X246850Y74208D02*
X238979D01*
Y78143D01*
X240291Y79455D01*
X242915D01*
X244227Y78143D01*
Y74208D01*
X242915Y82079D02*
Y87327D01*
X246850Y89951D02*
X238979D01*
Y93886D01*
X240291Y95198D01*
X242915D01*
X244227Y93886D01*
Y89951D01*
X238979Y97822D02*
Y100446D01*
Y99134D01*
X246850D01*
Y97822D01*
Y100446D01*
X242915Y104382D02*
Y109629D01*
X238979Y112253D02*
X246850D01*
Y116189D01*
X245538Y117501D01*
X244227D01*
X242915Y116189D01*
Y112253D01*
Y116189D01*
X241603Y117501D01*
X240291D01*
X238979Y116189D01*
Y112253D01*
M02*
