M48
;Layer_Color=6321
;FILE_FORMAT=2:5
INCH,TZ
;TYPE=PLATED
T1F00S00C0.01181
T2F00S00C0.03150
T3F00S00C0.03937
T4F00S00C0.04724
;TYPE=NON_PLATED
T5F00S00C0.03937
T6F00S00C0.10827
%
T01
X7480Y42913
Y57874
X23031Y61221
X24409Y47441
X21260Y46457
X52165Y53543
X58071Y49016
Y37992
X58268Y30709
X61024Y27756
X74016Y36811
X84842Y39567
Y42913
Y46260
X87598Y47835
Y44488
Y41142
Y37992
X97441Y60039
Y63189
Y66536
Y69882
X100197Y68307
Y64961
Y61614
X144291Y60039
Y63189
Y66536
Y69882
X147047Y68307
Y64961
Y61614
X147835Y37992
X151772Y37993
Y32874
X147835Y32874
X143110
X138386
X134449Y32874
X130511Y32874
X126574Y32874
X128543Y35433
X132480Y35433
X134449Y37992
X138386Y37992
X143110
X130511Y37993
X126574Y37993
X155905Y7087
X187795Y6299
X246063Y42913
X234646Y91535
X242520Y150787
Y180512
X227165Y208268
X217952Y201693
X197953Y201693
X187952Y211693
X177953
X147952Y201693
X127953Y211693
Y187795
X118110Y189961
X107874Y191339
X87874
X80708Y182677
X77953Y201693
X97953Y211693
X97973Y164823
X85236Y160630
X100984Y139173
X103740Y128740
X92716Y121653
X87008Y116142
X82677
Y111811
X87008
Y107480
X82677
X80905Y97244
X77559Y93504
X81890Y84842
X91732Y99016
X95669Y105905
X100000Y109646
X104527Y103149
X119095Y99606
X119095Y114173
X119095Y121653
Y135827
Y142913
X124213Y146850
X102953Y78543
X187795Y81102
X73228Y101969
X68504Y99607
X61417Y100788
X56496Y105905
X57480Y113583
X45079Y110236
X38780Y121653
X44291Y136024
X48229Y136023
X52167Y136023
X56104Y136023
X60042Y136022
X58074Y138582
X54136Y138582
X50198Y138582
X46260Y138583
X50590Y145866
Y152953
X50984Y178543
X42913Y178347
X69685Y177559
Y172047
Y164823
Y159843
X62992Y190551
X57953Y211693
X23228Y197047
X21260Y161811
Y153543
X14961Y148425
X27362Y80709
T02
X129921Y102559
Y122244
Y154134
Y173819
T03
X73032Y12402
X71850Y53267
Y63267
X90748Y12402
X237126Y157480
X247126
Y187008
X237126
X114450Y177323
X104449
Y167323
X114450
Y157323
X104449
X47244Y80709
X37244
T04
X34843Y23622
X48622
X68504Y22244
X95276
T05
X82953Y201693
Y211693
X92953
X102953
X112953
X122953
X132953
X142953
X152953
X162953
X172953
X182953
X192953
X202953
X212953
X222953
Y201693
X212953
X202953
X192953
X182953
X172953
X162953
X152953
X142953
X132953
X122953
X112953
X102953
X92953
X72953
Y211693
X62953
X52953
X42953
X32953
Y201693
X42953
X52953
X62953
T06
X13780Y13780
X242126
Y206693
X13780
M30
