G04*
G04 #@! TF.GenerationSoftware,Altium Limited,Altium Designer,19.1.8 (144)*
G04*
G04 Layer_Physical_Order=2*
G04 Layer_Color=11436288*
%FSLAX25Y25*%
%MOIN*%
G70*
G01*
G75*
%ADD10C,0.00787*%
%ADD56C,0.02362*%
%ADD86C,0.02362*%
%ADD91C,0.06299*%
G04:AMPARAMS|DCode=92|XSize=62.99mil|YSize=62.99mil|CornerRadius=15.75mil|HoleSize=0mil|Usage=FLASHONLY|Rotation=0.000|XOffset=0mil|YOffset=0mil|HoleType=Round|Shape=RoundedRectangle|*
%AMROUNDEDRECTD92*
21,1,0.06299,0.03150,0,0,0.0*
21,1,0.03150,0.06299,0,0,0.0*
1,1,0.03150,0.01575,-0.01575*
1,1,0.03150,-0.01575,-0.01575*
1,1,0.03150,-0.01575,0.01575*
1,1,0.03150,0.01575,0.01575*
%
%ADD92ROUNDEDRECTD92*%
G04:AMPARAMS|DCode=93|XSize=70.87mil|YSize=86.61mil|CornerRadius=17.72mil|HoleSize=0mil|Usage=FLASHONLY|Rotation=180.000|XOffset=0mil|YOffset=0mil|HoleType=Round|Shape=RoundedRectangle|*
%AMROUNDEDRECTD93*
21,1,0.07087,0.05118,0,0,180.0*
21,1,0.03543,0.08661,0,0,180.0*
1,1,0.03543,-0.01772,0.02559*
1,1,0.03543,0.01772,0.02559*
1,1,0.03543,0.01772,-0.02559*
1,1,0.03543,-0.01772,-0.02559*
%
%ADD93ROUNDEDRECTD93*%
G04:AMPARAMS|DCode=94|XSize=55.12mil|YSize=70.87mil|CornerRadius=13.78mil|HoleSize=0mil|Usage=FLASHONLY|Rotation=0.000|XOffset=0mil|YOffset=0mil|HoleType=Round|Shape=RoundedRectangle|*
%AMROUNDEDRECTD94*
21,1,0.05512,0.04331,0,0,0.0*
21,1,0.02756,0.07087,0,0,0.0*
1,1,0.02756,0.01378,-0.02165*
1,1,0.02756,-0.01378,-0.02165*
1,1,0.02756,-0.01378,0.02165*
1,1,0.02756,0.01378,0.02165*
%
%ADD94ROUNDEDRECTD94*%
%ADD95O,0.05512X0.07087*%
%ADD96O,0.07874X0.09449*%
G04:AMPARAMS|DCode=97|XSize=78.74mil|YSize=94.49mil|CornerRadius=19.68mil|HoleSize=0mil|Usage=FLASHONLY|Rotation=0.000|XOffset=0mil|YOffset=0mil|HoleType=Round|Shape=RoundedRectangle|*
%AMROUNDEDRECTD97*
21,1,0.07874,0.05512,0,0,0.0*
21,1,0.03937,0.09449,0,0,0.0*
1,1,0.03937,0.01968,-0.02756*
1,1,0.03937,-0.01968,-0.02756*
1,1,0.03937,-0.01968,0.02756*
1,1,0.03937,0.01968,0.02756*
%
%ADD97ROUNDEDRECTD97*%
%ADD98R,0.03937X0.07874*%
G36*
X230311Y218013D02*
Y206693D01*
X230311Y206691D01*
X230326Y206113D01*
X230368Y205535D01*
X230439Y204959D01*
X230538Y204388D01*
X230665Y203822D01*
X230820Y203263D01*
X231002Y202713D01*
X231211Y202172D01*
X231446Y201642D01*
X231706Y201124D01*
X231992Y200619D01*
X232302Y200129D01*
X232636Y199655D01*
X232993Y199198D01*
X233372Y198759D01*
X233772Y198339D01*
X234192Y197939D01*
X234631Y197560D01*
X235088Y197203D01*
X235562Y196870D01*
X236052Y196559D01*
X236557Y196273D01*
X237075Y196013D01*
X237605Y195778D01*
X238146Y195569D01*
X238696Y195387D01*
X239255Y195232D01*
X239821Y195105D01*
X240392Y195006D01*
X240968Y194935D01*
X241546Y194893D01*
X242124Y194878D01*
X242126Y194878D01*
X249903D01*
X253899Y190883D01*
Y120137D01*
X253829Y120104D01*
X253563Y119945D01*
X253314Y119761D01*
X253085Y119553D01*
X252877Y119323D01*
X252693Y119075D01*
X252534Y118809D01*
X252402Y118530D01*
X252297Y118238D01*
X252222Y117938D01*
X252222Y117938D01*
X252177Y117632D01*
X252162Y117323D01*
X252162D01*
Y103150D01*
X252162Y103150D01*
X252177Y102840D01*
X252222Y102535D01*
X252222Y102534D01*
X252256Y102401D01*
X252256Y102401D01*
X252257Y102395D01*
X252297Y102234D01*
X252402Y101943D01*
X252534Y101663D01*
X252693Y101398D01*
X252877Y101149D01*
X253085Y100920D01*
X253314Y100712D01*
X253563Y100528D01*
X253829Y100368D01*
X253899Y100335D01*
Y29590D01*
X249903Y25594D01*
X242126D01*
X242124Y25594D01*
X241546Y25580D01*
X240968Y25537D01*
X240392Y25466D01*
X239821Y25367D01*
X239255Y25240D01*
X238696Y25085D01*
X238146Y24904D01*
X237605Y24695D01*
X237075Y24460D01*
X236557Y24199D01*
X236052Y23913D01*
X235562Y23603D01*
X235088Y23269D01*
X234631Y22912D01*
X234192Y22534D01*
X233772Y22134D01*
X233372Y21714D01*
X232993Y21275D01*
X232636Y20818D01*
X232302Y20343D01*
X231992Y19853D01*
X231706Y19349D01*
X231446Y18831D01*
X231211Y18301D01*
X231002Y17760D01*
X230820Y17209D01*
X230665Y16650D01*
X230538Y16084D01*
X230439Y15513D01*
X230368Y14938D01*
X230326Y14359D01*
X230311Y13781D01*
X230311Y13780D01*
Y6003D01*
X226316Y2007D01*
X115011D01*
X114906Y2162D01*
X115325Y2949D01*
X165613D01*
X165798Y2964D01*
X165979Y3007D01*
X166151Y3078D01*
X166309Y3175D01*
X166451Y3296D01*
X170720Y7565D01*
X170840Y7706D01*
X170938Y7865D01*
X171009Y8037D01*
X171052Y8218D01*
X171067Y8403D01*
Y12553D01*
X171210Y12670D01*
X172228Y12483D01*
X172308Y12345D01*
X172328Y12314D01*
X172346Y12282D01*
X172388Y12222D01*
X172429Y12160D01*
X172452Y12132D01*
X172474Y12101D01*
X172523Y12046D01*
X172570Y11990D01*
X172596Y11964D01*
X172621Y11936D01*
X173354Y11203D01*
X173381Y11179D01*
X173407Y11152D01*
X173464Y11105D01*
X173519Y11056D01*
X173549Y11035D01*
X173577Y11011D01*
X173639Y10971D01*
X173699Y10928D01*
X173731Y10910D01*
X173762Y10890D01*
X174660Y10372D01*
X174693Y10355D01*
X174724Y10336D01*
X174792Y10305D01*
X174857Y10272D01*
X174892Y10259D01*
X174925Y10244D01*
X174996Y10221D01*
X175065Y10195D01*
X175100Y10186D01*
X175135Y10175D01*
X176137Y9907D01*
X176173Y9899D01*
X176208Y9889D01*
X176281Y9877D01*
X176353Y9861D01*
X176390Y9858D01*
X176426Y9852D01*
X176500Y9848D01*
X176573Y9841D01*
X176610Y9842D01*
X176647Y9839D01*
X177684D01*
X177720Y9842D01*
X177757Y9841D01*
X177831Y9848D01*
X177904Y9852D01*
X177941Y9858D01*
X177978Y9861D01*
X178050Y9877D01*
X178122Y9889D01*
X178158Y9899D01*
X178194Y9907D01*
X179195Y10175D01*
X179230Y10187D01*
X179266Y10195D01*
X179335Y10221D01*
X179405Y10244D01*
X179439Y10259D01*
X179473Y10272D01*
X179539Y10306D01*
X179606Y10336D01*
X179638Y10355D01*
X179671Y10372D01*
X180569Y10890D01*
X180599Y10910D01*
X180632Y10928D01*
X180692Y10971D01*
X180754Y11011D01*
X180782Y11035D01*
X180812Y11056D01*
X180867Y11105D01*
X180924Y11152D01*
X180949Y11179D01*
X180977Y11203D01*
X181710Y11936D01*
X181734Y11964D01*
X181761Y11990D01*
X181808Y12046D01*
X181857Y12101D01*
X181879Y12132D01*
X181902Y12160D01*
X181942Y12221D01*
X181985Y12282D01*
X182003Y12314D01*
X182023Y12345D01*
X182542Y13243D01*
X182558Y13275D01*
X182577Y13307D01*
X182608Y13374D01*
X182641Y13440D01*
X182654Y13475D01*
X182669Y13508D01*
X182692Y13578D01*
X182718Y13647D01*
X182727Y13683D01*
X182738Y13718D01*
X183007Y14719D01*
X183014Y14755D01*
X183025Y14791D01*
X183037Y14864D01*
X183052Y14936D01*
X183055Y14973D01*
X183062Y15009D01*
X183066Y15083D01*
X183073Y15156D01*
X183072Y15193D01*
X183074Y15230D01*
Y15748D01*
Y74803D01*
Y75322D01*
X183072Y75358D01*
X183073Y75395D01*
X183066Y75469D01*
X183062Y75542D01*
X183055Y75579D01*
X183052Y75615D01*
X183037Y75687D01*
X183025Y75760D01*
X183014Y75796D01*
X183007Y75832D01*
X182738Y76833D01*
X182727Y76868D01*
X182718Y76904D01*
X182692Y76973D01*
X182669Y77043D01*
X182654Y77077D01*
X182641Y77111D01*
X182608Y77177D01*
X182577Y77244D01*
X182558Y77276D01*
X182542Y77309D01*
X182023Y78206D01*
X182003Y78237D01*
X181985Y78269D01*
X181942Y78330D01*
X181902Y78391D01*
X181879Y78420D01*
X181857Y78450D01*
X181808Y78505D01*
X181761Y78562D01*
X181734Y78587D01*
X181710Y78615D01*
X180977Y79348D01*
X180949Y79372D01*
X180924Y79399D01*
X180867Y79446D01*
X180812Y79495D01*
X180782Y79516D01*
X180754Y79540D01*
X180692Y79580D01*
X180632Y79623D01*
X180599Y79641D01*
X180569Y79661D01*
X179671Y80179D01*
X179638Y80196D01*
X179606Y80215D01*
X179539Y80246D01*
X179473Y80279D01*
X179439Y80292D01*
X179405Y80307D01*
X179335Y80330D01*
X179266Y80356D01*
X179230Y80365D01*
X179195Y80376D01*
X178194Y80645D01*
X178158Y80652D01*
X178122Y80662D01*
X178050Y80675D01*
X177978Y80690D01*
X177941Y80693D01*
X177904Y80699D01*
X177831Y80704D01*
X177757Y80710D01*
X177720Y80710D01*
X177684Y80712D01*
X176647D01*
X176610Y80710D01*
X176573Y80710D01*
X176500Y80704D01*
X176426Y80699D01*
X176390Y80693D01*
X176353Y80690D01*
X176281Y80675D01*
X176208Y80662D01*
X176173Y80652D01*
X176137Y80645D01*
X175135Y80376D01*
X175100Y80365D01*
X175065Y80356D01*
X174995Y80330D01*
X174925Y80307D01*
X174892Y80292D01*
X174857Y80279D01*
X174792Y80246D01*
X174724Y80215D01*
X174693Y80196D01*
X174660Y80179D01*
X173762Y79661D01*
X173731Y79641D01*
X173699Y79623D01*
X173639Y79580D01*
X173577Y79540D01*
X173549Y79516D01*
X173519Y79495D01*
X173464Y79446D01*
X173407Y79399D01*
X173381Y79372D01*
X173354Y79348D01*
X172621Y78615D01*
X172596Y78587D01*
X172570Y78562D01*
X172523Y78505D01*
X172474Y78450D01*
X172452Y78420D01*
X172429Y78391D01*
X172388Y78330D01*
X172346Y78269D01*
X172328Y78237D01*
X172308Y78206D01*
X172228Y78068D01*
X171211Y77881D01*
X171067Y77998D01*
Y78802D01*
X171052Y78987D01*
X171009Y79168D01*
X170938Y79340D01*
X170840Y79498D01*
X170720Y79640D01*
X166898Y83461D01*
X167224Y84249D01*
X224797D01*
X224880Y84254D01*
X224963Y84256D01*
X224990Y84260D01*
X225018Y84261D01*
X225100Y84275D01*
X225182Y84287D01*
X225942Y84438D01*
X226023Y84459D01*
X226104Y84477D01*
X226130Y84486D01*
X226156Y84493D01*
X226234Y84523D01*
X226312Y84550D01*
X227029Y84847D01*
X227104Y84883D01*
X227179Y84917D01*
X227203Y84931D01*
X227228Y84943D01*
X227298Y84987D01*
X227370Y85029D01*
X228014Y85460D01*
X228081Y85510D01*
X228148Y85558D01*
X228169Y85576D01*
X228191Y85593D01*
X228252Y85650D01*
X228313Y85705D01*
X228862Y86254D01*
X228917Y86315D01*
X228974Y86376D01*
X228991Y86398D01*
X229009Y86418D01*
X229057Y86486D01*
X229107Y86552D01*
X229538Y87197D01*
X229580Y87269D01*
X229624Y87339D01*
X229636Y87364D01*
X229650Y87388D01*
X229684Y87463D01*
X229720Y87538D01*
X230017Y88255D01*
X230044Y88333D01*
X230074Y88410D01*
X230081Y88437D01*
X230090Y88463D01*
X230108Y88544D01*
X230129Y88624D01*
X230280Y89385D01*
X230292Y89467D01*
X230306Y89549D01*
X230307Y89577D01*
X230311Y89604D01*
X230313Y89687D01*
X230318Y89770D01*
Y90158D01*
Y186221D01*
Y186608D01*
X230313Y186691D01*
X230311Y186774D01*
X230307Y186801D01*
X230306Y186829D01*
X230292Y186911D01*
X230280Y186993D01*
X230129Y187753D01*
X230108Y187834D01*
X230090Y187915D01*
X230081Y187941D01*
X230074Y187968D01*
X230044Y188045D01*
X230017Y188123D01*
X229720Y188840D01*
X229684Y188915D01*
X229650Y188990D01*
X229636Y189014D01*
X229624Y189039D01*
X229580Y189109D01*
X229538Y189181D01*
X229107Y189825D01*
X229057Y189892D01*
X229009Y189959D01*
X228991Y189980D01*
X228974Y190002D01*
X228917Y190063D01*
X228862Y190124D01*
X228313Y190673D01*
X228252Y190728D01*
X228191Y190785D01*
X228169Y190802D01*
X228148Y190820D01*
X228081Y190868D01*
X228014Y190918D01*
X227370Y191349D01*
X227298Y191391D01*
X227228Y191435D01*
X227203Y191447D01*
X227179Y191461D01*
X227104Y191495D01*
X227029Y191531D01*
X226312Y191828D01*
X226234Y191855D01*
X226157Y191885D01*
X226130Y191892D01*
X226104Y191901D01*
X226023Y191919D01*
X225942Y191940D01*
X225182Y192091D01*
X225100Y192103D01*
X225018Y192117D01*
X224990Y192118D01*
X224963Y192122D01*
X224880Y192124D01*
X224797Y192129D01*
X224410D01*
X145669Y192129D01*
X145282D01*
X145199Y192124D01*
X145116Y192122D01*
X145088Y192118D01*
X145061Y192117D01*
X144979Y192103D01*
X144897Y192091D01*
X144136Y191940D01*
X144056Y191919D01*
X143975Y191901D01*
X143949Y191892D01*
X143922Y191885D01*
X143845Y191855D01*
X143766Y191828D01*
X143050Y191531D01*
X142975Y191495D01*
X142900Y191461D01*
X142876Y191447D01*
X142851Y191435D01*
X142780Y191391D01*
X142709Y191349D01*
X142064Y190918D01*
X141998Y190868D01*
X141930Y190820D01*
X141910Y190802D01*
X141888Y190785D01*
X141827Y190728D01*
X141765Y190673D01*
X141217Y190124D01*
X141162Y190062D01*
X141105Y190002D01*
X141088Y189980D01*
X141070Y189959D01*
X141022Y189892D01*
X140972Y189825D01*
X140541Y189181D01*
X140499Y189109D01*
X140455Y189039D01*
X140443Y189014D01*
X140429Y188990D01*
X140395Y188915D01*
X140359Y188840D01*
X140062Y188123D01*
X140035Y188045D01*
X140005Y187968D01*
X139998Y187941D01*
X139989Y187915D01*
X139971Y187834D01*
X139950Y187753D01*
X139799Y186993D01*
X139787Y186911D01*
X139773Y186829D01*
X139771Y186801D01*
X139768Y186774D01*
X139765Y186691D01*
X139761Y186608D01*
X139761Y186220D01*
Y185249D01*
X139033Y184948D01*
X126667Y197314D01*
X126526Y197435D01*
X126367Y197532D01*
X126196Y197603D01*
X126015Y197647D01*
X125829Y197661D01*
X109137D01*
Y200120D01*
X109182Y200152D01*
X109347Y200299D01*
X109494Y200464D01*
X109584Y200590D01*
X109955Y200641D01*
X110124Y200640D01*
X110269Y200610D01*
X110453Y200533D01*
X110519Y200392D01*
X110658Y200160D01*
X110820Y199942D01*
X111002Y199742D01*
X111202Y199560D01*
X111420Y199399D01*
X111652Y199259D01*
X111897Y199144D01*
X112152Y199052D01*
X112414Y198987D01*
X112682Y198947D01*
X112953Y198933D01*
X113223Y198947D01*
X113491Y198987D01*
X113754Y199052D01*
X114008Y199144D01*
X114253Y199259D01*
X114486Y199399D01*
X114703Y199560D01*
X114904Y199742D01*
X115085Y199942D01*
X115247Y200160D01*
X115386Y200392D01*
X115502Y200637D01*
X115593Y200892D01*
X115659Y201154D01*
X115699Y201422D01*
X115712Y201693D01*
X115699Y201963D01*
X115659Y202231D01*
X115593Y202494D01*
X115502Y202749D01*
X115386Y202993D01*
X115247Y203226D01*
X115085Y203443D01*
X114904Y203644D01*
X114703Y203826D01*
X114486Y203987D01*
X114253Y204126D01*
X114008Y204242D01*
X113754Y204333D01*
X113491Y204399D01*
X113223Y204439D01*
X112953Y204452D01*
X112682Y204439D01*
X112414Y204399D01*
X112152Y204333D01*
X111897Y204242D01*
X111652Y204126D01*
X111420Y203987D01*
X111202Y203826D01*
X111002Y203644D01*
X110820Y203443D01*
X110658Y203226D01*
X110519Y202993D01*
X110453Y202853D01*
X110268Y202776D01*
X110123Y202746D01*
X109955Y202745D01*
X109584Y202796D01*
X109494Y202922D01*
X109347Y203087D01*
X109182Y203235D01*
X109002Y203362D01*
X108808Y203469D01*
X108604Y203554D01*
X108391Y203615D01*
X108174Y203652D01*
X107953Y203665D01*
X107732Y203652D01*
X107514Y203615D01*
X107302Y203554D01*
X107097Y203469D01*
X106904Y203362D01*
X106723Y203235D01*
X106559Y203087D01*
X106411Y202922D01*
X106321Y202796D01*
X105953Y202745D01*
X105780Y202746D01*
X105639Y202775D01*
X105452Y202853D01*
X105386Y202993D01*
X105247Y203226D01*
X105086Y203443D01*
X104904Y203644D01*
X104703Y203826D01*
X104486Y203987D01*
X104253Y204126D01*
X104008Y204242D01*
X103754Y204333D01*
X103491Y204399D01*
X103223Y204439D01*
X102953Y204452D01*
X102682Y204439D01*
X102414Y204399D01*
X102152Y204333D01*
X101897Y204242D01*
X101652Y204126D01*
X101420Y203987D01*
X101202Y203826D01*
X101002Y203644D01*
X100820Y203443D01*
X100658Y203226D01*
X100519Y202993D01*
X100403Y202749D01*
X100312Y202494D01*
X100246Y202231D01*
X100207Y201963D01*
X100193Y201693D01*
X100207Y201422D01*
X100246Y201154D01*
X100312Y200892D01*
X100403Y200637D01*
X100519Y200392D01*
X100658Y200160D01*
X100820Y199942D01*
X101002Y199742D01*
X101202Y199560D01*
X101420Y199399D01*
X101652Y199259D01*
X101897Y199144D01*
X102152Y199052D01*
X102414Y198987D01*
X102682Y198947D01*
X102953Y198933D01*
X103223Y198947D01*
X103491Y198987D01*
X103754Y199052D01*
X104008Y199144D01*
X104253Y199259D01*
X104486Y199399D01*
X104703Y199560D01*
X104904Y199742D01*
X105086Y199942D01*
X105247Y200160D01*
X105386Y200392D01*
X105453Y200533D01*
X105638Y200611D01*
X105779Y200639D01*
X105953Y200641D01*
X106322Y200590D01*
X106411Y200464D01*
X106559Y200299D01*
X106723Y200152D01*
X106768Y200120D01*
Y196476D01*
Y191260D01*
X106783Y191075D01*
X106826Y190894D01*
X106897Y190722D01*
X106994Y190563D01*
X107115Y190422D01*
X108461Y189076D01*
Y181303D01*
X105634D01*
Y184330D01*
X105620Y184515D01*
X105576Y184696D01*
X105505Y184868D01*
X105408Y185026D01*
X105287Y185168D01*
X98279Y192176D01*
X98137Y192297D01*
X97979Y192394D01*
X97807Y192465D01*
X97626Y192509D01*
X97441Y192523D01*
X89447D01*
X89416Y192568D01*
X89268Y192733D01*
X89103Y192880D01*
X88923Y193008D01*
X88730Y193115D01*
X88525Y193200D01*
X88313Y193261D01*
X88095Y193298D01*
X87874Y193310D01*
X87653Y193298D01*
X87435Y193261D01*
X87223Y193200D01*
X87019Y193115D01*
X86825Y193008D01*
X86645Y192880D01*
X86480Y192733D01*
X86333Y192568D01*
X86205Y192387D01*
X86098Y192194D01*
X86013Y191990D01*
X85952Y191777D01*
X85915Y191559D01*
X85902Y191339D01*
X85915Y191118D01*
X85952Y190900D01*
X86013Y190687D01*
X86098Y190483D01*
X86205Y190290D01*
X86333Y190109D01*
X86480Y189945D01*
X86645Y189797D01*
X86825Y189669D01*
X87019Y189562D01*
X87223Y189478D01*
X87435Y189416D01*
X87653Y189379D01*
X87874Y189367D01*
X88095Y189379D01*
X88313Y189416D01*
X88525Y189478D01*
X88730Y189562D01*
X88923Y189669D01*
X89103Y189797D01*
X89268Y189945D01*
X89416Y190109D01*
X89447Y190154D01*
X96950D01*
X103265Y183839D01*
Y181296D01*
X103161Y181288D01*
X103058Y181264D01*
X102875D01*
X102610Y181249D01*
X102348Y181204D01*
X102093Y181131D01*
X101848Y181029D01*
X101616Y180901D01*
X101400Y180747D01*
X101202Y180571D01*
X101025Y180373D01*
X100871Y180156D01*
X100743Y179924D01*
X100642Y179679D01*
X100568Y179424D01*
X100524Y179163D01*
X100509Y178898D01*
Y175748D01*
X100524Y175483D01*
X100568Y175222D01*
X100592Y175140D01*
X97135Y171684D01*
X97014Y171542D01*
X96917Y171384D01*
X96846Y171212D01*
X96802Y171031D01*
X96788Y170846D01*
Y166396D01*
X96743Y166364D01*
X96578Y166217D01*
X96431Y166052D01*
X96303Y165872D01*
X96196Y165678D01*
X96112Y165474D01*
X96050Y165262D01*
X96013Y165044D01*
X96001Y164823D01*
X96013Y164602D01*
X96050Y164384D01*
X96112Y164172D01*
X96196Y163967D01*
X96303Y163774D01*
X96431Y163594D01*
X96522Y163303D01*
X96245Y162685D01*
X91635Y158074D01*
X61614D01*
X61429Y158060D01*
X61248Y158017D01*
X61076Y157945D01*
X60918Y157848D01*
X60776Y157728D01*
X50865Y147816D01*
X50811Y147826D01*
X50590Y147838D01*
X50370Y147826D01*
X50152Y147789D01*
X49939Y147727D01*
X49735Y147643D01*
X49542Y147536D01*
X49361Y147408D01*
X49196Y147260D01*
X49049Y147096D01*
X48921Y146915D01*
X48814Y146722D01*
X48730Y146518D01*
X48668Y146305D01*
X48631Y146087D01*
X48619Y145866D01*
X48631Y145645D01*
X48668Y145428D01*
X48730Y145215D01*
X48814Y145011D01*
X48921Y144817D01*
X49049Y144637D01*
X49196Y144472D01*
X49361Y144325D01*
X49542Y144197D01*
X49735Y144090D01*
X49939Y144005D01*
X50152Y143944D01*
X50370Y143907D01*
X50590Y143895D01*
X50811Y143907D01*
X51029Y143944D01*
X51242Y144005D01*
X51446Y144090D01*
X51639Y144197D01*
X51820Y144325D01*
X51985Y144472D01*
X52132Y144637D01*
X52260Y144817D01*
X52367Y145011D01*
X52451Y145215D01*
X52513Y145428D01*
X52550Y145645D01*
X52562Y145866D01*
X52550Y146087D01*
X52540Y146141D01*
X62105Y155705D01*
X92126D01*
X92311Y155720D01*
X92492Y155763D01*
X92664Y155834D01*
X92822Y155931D01*
X92964Y156052D01*
X97932Y161020D01*
X101507D01*
X101717Y160672D01*
X101797Y160233D01*
X101663Y160109D01*
X101431Y159856D01*
X101221Y159583D01*
X101037Y159293D01*
X100878Y158988D01*
X100746Y158671D01*
X100643Y158343D01*
X100569Y158007D01*
X100524Y157666D01*
X100509Y157323D01*
X100524Y156979D01*
X100569Y156639D01*
X100643Y156303D01*
X100746Y155975D01*
X100878Y155657D01*
X101037Y155352D01*
X101221Y155062D01*
X101431Y154790D01*
X101663Y154536D01*
X101916Y154304D01*
X102189Y154095D01*
X102479Y153910D01*
X102784Y153751D01*
X103102Y153620D01*
X103429Y153516D01*
X103765Y153442D01*
X104106Y153397D01*
X104449Y153382D01*
X104793Y153397D01*
X105134Y153442D01*
X105469Y153516D01*
X105797Y153620D01*
X106115Y153751D01*
X106420Y153910D01*
X106710Y154095D01*
X106983Y154304D01*
X107236Y154536D01*
X107468Y154790D01*
X107677Y155062D01*
X107862Y155352D01*
X108021Y155657D01*
X108152Y155975D01*
X108256Y156303D01*
X108330Y156639D01*
X108375Y156979D01*
X108390Y157323D01*
X108375Y157666D01*
X108330Y158007D01*
X108256Y158343D01*
X108152Y158671D01*
X108021Y158988D01*
X107862Y159293D01*
X107677Y159583D01*
X107468Y159856D01*
X107236Y160109D01*
X107102Y160233D01*
X107182Y160672D01*
X107392Y161020D01*
X111507D01*
X111717Y160672D01*
X111797Y160233D01*
X111663Y160109D01*
X111431Y159856D01*
X111221Y159583D01*
X111037Y159293D01*
X110878Y158988D01*
X110746Y158671D01*
X110643Y158343D01*
X110591Y158110D01*
X118307D01*
X118256Y158343D01*
X118152Y158671D01*
X118021Y158988D01*
X117862Y159293D01*
X117677Y159583D01*
X117468Y159856D01*
X117236Y160109D01*
X117102Y160233D01*
X117182Y160672D01*
X117392Y161020D01*
X119882D01*
X120067Y161035D01*
X120248Y161078D01*
X120420Y161149D01*
X120578Y161246D01*
X120720Y161367D01*
X124657Y165304D01*
X124777Y165445D01*
X124874Y165604D01*
X124946Y165776D01*
X124989Y165956D01*
X125004Y166142D01*
Y181793D01*
X128247Y185036D01*
X133368D01*
X136610Y181793D01*
Y145818D01*
X135883Y145517D01*
X133515Y147885D01*
X133374Y148006D01*
X133215Y148103D01*
X133043Y148174D01*
X132862Y148217D01*
X132677Y148232D01*
X111614D01*
X111429Y148217D01*
X111248Y148174D01*
X111076Y148103D01*
X110918Y148006D01*
X110776Y147885D01*
X102902Y140011D01*
X102782Y139870D01*
X102684Y139711D01*
X102613Y139539D01*
X102570Y139359D01*
X102555Y139173D01*
Y130313D01*
X102511Y130282D01*
X102346Y130134D01*
X102199Y129969D01*
X102167Y129925D01*
X99801D01*
X99770Y129969D01*
X99622Y130134D01*
X99458Y130282D01*
X99277Y130410D01*
X99084Y130517D01*
X98879Y130601D01*
X98667Y130662D01*
X98449Y130699D01*
X98228Y130712D01*
X98008Y130699D01*
X97790Y130662D01*
X97577Y130601D01*
X97373Y130517D01*
X97179Y130410D01*
X96999Y130282D01*
X96834Y130134D01*
X96687Y129969D01*
X96559Y129789D01*
X96452Y129596D01*
X96367Y129391D01*
X96306Y129179D01*
X96269Y128961D01*
X96257Y128740D01*
X96269Y128519D01*
X96306Y128301D01*
X96367Y128089D01*
X96452Y127885D01*
X96559Y127691D01*
X96687Y127511D01*
X96834Y127346D01*
X96999Y127199D01*
X97179Y127071D01*
X97373Y126964D01*
X97577Y126879D01*
X97790Y126818D01*
X98008Y126781D01*
X98228Y126769D01*
X98449Y126781D01*
X98667Y126818D01*
X98879Y126879D01*
X99084Y126964D01*
X99277Y127071D01*
X99458Y127199D01*
X99622Y127346D01*
X99770Y127511D01*
X99801Y127555D01*
X102167D01*
X102199Y127511D01*
X102346Y127346D01*
X102511Y127199D01*
X102691Y127071D01*
X102885Y126964D01*
X103089Y126879D01*
X103301Y126818D01*
X103519Y126781D01*
X103740Y126769D01*
X103961Y126781D01*
X104179Y126818D01*
X104391Y126879D01*
X104596Y126964D01*
X104789Y127071D01*
X104969Y127199D01*
X105134Y127346D01*
X105282Y127511D01*
X105410Y127691D01*
X105517Y127885D01*
X105601Y128089D01*
X105662Y128301D01*
X105699Y128519D01*
X105712Y128740D01*
X105699Y128961D01*
X105662Y129179D01*
X105601Y129391D01*
X105517Y129596D01*
X105410Y129789D01*
X105282Y129969D01*
X105134Y130134D01*
X104969Y130282D01*
X104925Y130313D01*
Y138682D01*
X112105Y145862D01*
X132186D01*
X135036Y143013D01*
Y128889D01*
X134308Y128588D01*
X126231Y136664D01*
X126090Y136785D01*
X125932Y136882D01*
X125760Y136953D01*
X125579Y136997D01*
X125394Y137012D01*
X120668D01*
X120636Y137056D01*
X120489Y137221D01*
X120324Y137368D01*
X120143Y137496D01*
X119950Y137603D01*
X119746Y137688D01*
X119533Y137749D01*
X119315Y137786D01*
X119095Y137798D01*
X118874Y137786D01*
X118656Y137749D01*
X118443Y137688D01*
X118239Y137603D01*
X118045Y137496D01*
X117865Y137368D01*
X117700Y137221D01*
X117553Y137056D01*
X117425Y136876D01*
X117318Y136682D01*
X117234Y136478D01*
X117172Y136266D01*
X117135Y136047D01*
X117123Y135827D01*
X117135Y135606D01*
X117172Y135388D01*
X117234Y135176D01*
X117318Y134971D01*
X117425Y134778D01*
X117553Y134598D01*
X117700Y134433D01*
X117865Y134285D01*
X118045Y134157D01*
X118239Y134050D01*
X118443Y133966D01*
X118656Y133905D01*
X118874Y133868D01*
X119095Y133855D01*
X119315Y133868D01*
X119533Y133905D01*
X119746Y133966D01*
X119950Y134050D01*
X120143Y134157D01*
X120324Y134285D01*
X120489Y134433D01*
X120636Y134598D01*
X120668Y134642D01*
X124903D01*
X133209Y126336D01*
X133238Y125549D01*
X132477Y125242D01*
X132454Y125263D01*
X132182Y125472D01*
X131892Y125657D01*
X131587Y125816D01*
X131269Y125947D01*
X130941Y126051D01*
X130606Y126125D01*
X130265Y126170D01*
X129921Y126185D01*
X129578Y126170D01*
X129237Y126125D01*
X128901Y126051D01*
X128574Y125947D01*
X128256Y125816D01*
X127951Y125657D01*
X127661Y125472D01*
X127388Y125263D01*
X127135Y125031D01*
X126902Y124777D01*
X126693Y124504D01*
X126508Y124214D01*
X126350Y123909D01*
X126218Y123592D01*
X126115Y123264D01*
X126040Y122928D01*
X125996Y122588D01*
X125980Y122244D01*
X125996Y121901D01*
X126040Y121560D01*
X126115Y121224D01*
X126218Y120896D01*
X126350Y120579D01*
X126508Y120274D01*
X126693Y119984D01*
X126902Y119711D01*
X127135Y119458D01*
X127388Y119225D01*
X127661Y119016D01*
X127951Y118831D01*
X128256Y118673D01*
X128574Y118541D01*
X128901Y118438D01*
X129237Y118363D01*
X129578Y118318D01*
X129921Y118303D01*
X130265Y118318D01*
X130606Y118363D01*
X130941Y118438D01*
X131269Y118541D01*
X131587Y118673D01*
X131892Y118831D01*
X132182Y119016D01*
X132454Y119225D01*
X132477Y119246D01*
X133238Y118940D01*
X133264Y118914D01*
Y105889D01*
X133238Y105864D01*
X132477Y105557D01*
X132454Y105578D01*
X132182Y105787D01*
X131892Y105972D01*
X131587Y106131D01*
X131269Y106262D01*
X130941Y106366D01*
X130709Y106417D01*
Y102559D01*
Y98701D01*
X130941Y98753D01*
X131269Y98856D01*
X131587Y98988D01*
X131892Y99146D01*
X132182Y99331D01*
X132454Y99540D01*
X132477Y99561D01*
X133238Y99255D01*
X133264Y99229D01*
Y93269D01*
X133010Y93015D01*
X126808D01*
X126623Y93001D01*
X126442Y92958D01*
X126270Y92886D01*
X126112Y92789D01*
X125971Y92668D01*
X122873Y89571D01*
X116927D01*
X116896Y89615D01*
X116748Y89780D01*
X116584Y89927D01*
X116403Y90055D01*
X116210Y90162D01*
X116006Y90247D01*
X115793Y90308D01*
X115575Y90345D01*
X115354Y90357D01*
X115134Y90345D01*
X114916Y90308D01*
X114703Y90247D01*
X114499Y90162D01*
X114305Y90055D01*
X114125Y89927D01*
X113960Y89780D01*
X113813Y89615D01*
X113685Y89435D01*
X113578Y89241D01*
X113493Y89037D01*
X113432Y88824D01*
X113395Y88607D01*
X113383Y88386D01*
X113395Y88165D01*
X113432Y87947D01*
X113493Y87735D01*
X113578Y87530D01*
X113685Y87337D01*
X113813Y87157D01*
X113960Y86992D01*
X114125Y86844D01*
X114305Y86716D01*
X114499Y86610D01*
X114703Y86525D01*
X114916Y86464D01*
X115134Y86427D01*
X115354Y86414D01*
X115575Y86427D01*
X115793Y86464D01*
X116006Y86525D01*
X116210Y86610D01*
X116403Y86716D01*
X116584Y86844D01*
X116748Y86992D01*
X116896Y87157D01*
X116927Y87201D01*
X123363D01*
X123549Y87216D01*
X123730Y87259D01*
X123901Y87330D01*
X124060Y87427D01*
X124201Y87548D01*
X127299Y90646D01*
X131769D01*
X131969Y90431D01*
X132212Y89908D01*
X132141Y89736D01*
X132098Y89555D01*
X132083Y89370D01*
Y88384D01*
X132038Y88353D01*
X132021Y88337D01*
X131686Y88205D01*
X131307D01*
X130971Y88337D01*
X130954Y88353D01*
X130773Y88480D01*
X130580Y88587D01*
X130376Y88672D01*
X130163Y88733D01*
X129945Y88770D01*
X129724Y88783D01*
X129504Y88770D01*
X129286Y88733D01*
X129073Y88672D01*
X128869Y88587D01*
X128675Y88480D01*
X128495Y88353D01*
X128330Y88205D01*
X128183Y88040D01*
X128055Y87860D01*
X127948Y87666D01*
X127864Y87462D01*
X127802Y87250D01*
X127765Y87032D01*
X127753Y86811D01*
X127765Y86590D01*
X127802Y86372D01*
X127864Y86160D01*
X127948Y85956D01*
X128055Y85762D01*
X128183Y85582D01*
X128330Y85417D01*
X128495Y85270D01*
X128540Y85238D01*
Y84252D01*
X128554Y84067D01*
X128598Y83886D01*
X128669Y83714D01*
X128766Y83556D01*
X128887Y83414D01*
X134989Y77312D01*
X135130Y77191D01*
X135289Y77094D01*
X135461Y77023D01*
X135641Y76979D01*
X135827Y76965D01*
X163092D01*
X163776Y76281D01*
Y13877D01*
X160927Y11027D01*
X157478D01*
X157447Y11072D01*
X157299Y11237D01*
X157134Y11384D01*
X156954Y11512D01*
X156761Y11619D01*
X156556Y11704D01*
X156344Y11765D01*
X156126Y11802D01*
X155905Y11814D01*
X155684Y11802D01*
X155466Y11765D01*
X155254Y11704D01*
X155050Y11619D01*
X154856Y11512D01*
X154676Y11384D01*
X154511Y11237D01*
X154364Y11072D01*
X154236Y10892D01*
X154129Y10698D01*
X154044Y10494D01*
X153983Y10281D01*
X153946Y10063D01*
X153934Y9843D01*
X153946Y9622D01*
X153983Y9404D01*
X154044Y9191D01*
X154129Y8987D01*
X154236Y8794D01*
X154364Y8613D01*
X154511Y8448D01*
X154676Y8301D01*
X154856Y8173D01*
X155050Y8066D01*
X155254Y7982D01*
X155466Y7920D01*
X155684Y7883D01*
X155905Y7871D01*
X156126Y7883D01*
X156344Y7920D01*
X156556Y7982D01*
X156761Y8066D01*
X156954Y8173D01*
X157134Y8301D01*
X157299Y8448D01*
X157447Y8613D01*
X157478Y8658D01*
X161417D01*
X161603Y8672D01*
X161783Y8716D01*
X161955Y8787D01*
X162114Y8884D01*
X162255Y9005D01*
X165798Y12548D01*
X165919Y12689D01*
X166016Y12848D01*
X166087Y13020D01*
X166131Y13201D01*
X166145Y13386D01*
Y76772D01*
X166131Y76957D01*
X166087Y77138D01*
X166016Y77310D01*
X165919Y77468D01*
X165798Y77609D01*
X164420Y78987D01*
X164279Y79108D01*
X164120Y79205D01*
X163949Y79276D01*
X163768Y79320D01*
X163583Y79334D01*
X136318D01*
X131405Y84247D01*
X131525Y85155D01*
X131902Y85332D01*
X132021Y85285D01*
X132038Y85270D01*
X132219Y85142D01*
X132412Y85035D01*
X132616Y84950D01*
X132829Y84889D01*
X133047Y84852D01*
X133268Y84839D01*
X133489Y84852D01*
X133706Y84889D01*
X133919Y84950D01*
X134123Y85035D01*
X134317Y85142D01*
X134497Y85270D01*
X134514Y85285D01*
X134850Y85417D01*
X134913D01*
X135626Y84794D01*
Y84252D01*
X135641Y84067D01*
X135684Y83886D01*
X135755Y83714D01*
X135853Y83556D01*
X135973Y83414D01*
X138729Y80658D01*
X138871Y80538D01*
X139029Y80440D01*
X139201Y80369D01*
X139382Y80326D01*
X139567Y80311D01*
X164470D01*
X167122Y77659D01*
Y9546D01*
X164470Y6893D01*
X104182D01*
X104005Y7672D01*
X104199Y7779D01*
X104379Y7907D01*
X104544Y8055D01*
X104691Y8219D01*
X104819Y8400D01*
X104926Y8593D01*
X105011Y8798D01*
X105072Y9010D01*
X105109Y9228D01*
X105121Y9449D01*
X105109Y9670D01*
X105072Y9888D01*
X105011Y10100D01*
X104926Y10304D01*
X104819Y10498D01*
X104691Y10678D01*
X104544Y10843D01*
X104379Y10990D01*
X104199Y11118D01*
X104005Y11225D01*
X103801Y11310D01*
X103588Y11371D01*
X103370Y11408D01*
X103150Y11420D01*
X102929Y11408D01*
X102711Y11371D01*
X102498Y11310D01*
X102294Y11225D01*
X102101Y11118D01*
X101920Y10990D01*
X101755Y10843D01*
X101608Y10678D01*
X101480Y10498D01*
X101373Y10304D01*
X101289Y10100D01*
X101227Y9888D01*
X101190Y9670D01*
X101178Y9449D01*
X101190Y9228D01*
X101199Y9174D01*
X100494Y8468D01*
X93367D01*
X93148Y8899D01*
X93115Y9256D01*
X93281Y9383D01*
X93534Y9615D01*
X93767Y9868D01*
X93976Y10141D01*
X94161Y10431D01*
X94319Y10736D01*
X94451Y11054D01*
X94555Y11382D01*
X94629Y11717D01*
X94674Y12058D01*
X94689Y12402D01*
X94674Y12745D01*
X94629Y13086D01*
X94555Y13421D01*
X94451Y13749D01*
X94319Y14067D01*
X94161Y14372D01*
X93976Y14662D01*
X93767Y14935D01*
X93534Y15188D01*
X93281Y15420D01*
X93008Y15630D01*
X92718Y15814D01*
X92413Y15973D01*
X92096Y16105D01*
X91768Y16208D01*
X91432Y16283D01*
X91092Y16327D01*
X90748Y16342D01*
X90404Y16327D01*
X90064Y16283D01*
X89728Y16208D01*
X89400Y16105D01*
X89083Y15973D01*
X88778Y15814D01*
X88488Y15630D01*
X88215Y15420D01*
X87962Y15188D01*
X87729Y14935D01*
X87520Y14662D01*
X87335Y14372D01*
X87177Y14067D01*
X87045Y13749D01*
X86941Y13421D01*
X86867Y13086D01*
X86822Y12745D01*
X86807Y12402D01*
X86822Y12058D01*
X86867Y11717D01*
X86941Y11382D01*
X87045Y11054D01*
X87177Y10736D01*
X87335Y10431D01*
X87520Y10141D01*
X87729Y9868D01*
X87962Y9615D01*
X88215Y9383D01*
X88381Y9256D01*
X88348Y8899D01*
X88129Y8468D01*
X75650D01*
X75431Y8899D01*
X75399Y9256D01*
X75565Y9383D01*
X75818Y9615D01*
X76050Y9868D01*
X76260Y10141D01*
X76444Y10431D01*
X76603Y10736D01*
X76735Y11054D01*
X76838Y11382D01*
X76912Y11717D01*
X76957Y12058D01*
X76972Y12402D01*
X76957Y12745D01*
X76912Y13086D01*
X76838Y13421D01*
X76735Y13749D01*
X76603Y14067D01*
X76444Y14372D01*
X76260Y14662D01*
X76050Y14935D01*
X75818Y15188D01*
X75565Y15420D01*
X75292Y15630D01*
X75002Y15814D01*
X74697Y15973D01*
X74379Y16105D01*
X74051Y16208D01*
X73716Y16283D01*
X73375Y16327D01*
X73032Y16342D01*
X72688Y16327D01*
X72347Y16283D01*
X72012Y16208D01*
X71684Y16105D01*
X71366Y15973D01*
X71061Y15814D01*
X70771Y15630D01*
X70498Y15420D01*
X70245Y15188D01*
X70013Y14935D01*
X69803Y14662D01*
X69619Y14372D01*
X69460Y14067D01*
X69328Y13749D01*
X69225Y13421D01*
X69151Y13086D01*
X69106Y12745D01*
X69091Y12402D01*
X69106Y12058D01*
X69151Y11717D01*
X69225Y11382D01*
X69328Y11054D01*
X69460Y10736D01*
X69619Y10431D01*
X69803Y10141D01*
X70013Y9868D01*
X70245Y9615D01*
X70498Y9383D01*
X70664Y9256D01*
X70632Y8899D01*
X70413Y8468D01*
X31987D01*
X30909Y9546D01*
Y17930D01*
X30913Y17936D01*
X31301Y18227D01*
X31697Y18374D01*
X31818Y18317D01*
X32073Y18226D01*
X32336Y18160D01*
X32604Y18120D01*
X32874Y18107D01*
X36811D01*
X37082Y18120D01*
X37349Y18160D01*
X37612Y18226D01*
X37867Y18317D01*
X38112Y18433D01*
X38344Y18572D01*
X38561Y18733D01*
X38762Y18915D01*
X38944Y19116D01*
X39105Y19333D01*
X39244Y19566D01*
X39360Y19810D01*
X39451Y20065D01*
X39517Y20328D01*
X39557Y20596D01*
X39570Y20866D01*
Y26378D01*
X39557Y26648D01*
X39517Y26916D01*
X39451Y27179D01*
X39360Y27434D01*
X39244Y27679D01*
X39105Y27911D01*
X38944Y28128D01*
X38762Y28329D01*
X38561Y28511D01*
X38344Y28672D01*
X38112Y28811D01*
X37867Y28927D01*
X37612Y29018D01*
X37349Y29084D01*
X37082Y29124D01*
X36811Y29137D01*
X32874D01*
X32604Y29124D01*
X32336Y29084D01*
X32073Y29018D01*
X31818Y28927D01*
X31573Y28811D01*
X31341Y28672D01*
X31124Y28511D01*
X30923Y28329D01*
X30741Y28128D01*
X30580Y27911D01*
X30441Y27679D01*
X30325Y27434D01*
X30234Y27179D01*
X30168Y26916D01*
X30128Y26648D01*
X30115Y26378D01*
Y23894D01*
X29387Y23593D01*
X21040Y31940D01*
X20899Y32061D01*
X20740Y32158D01*
X20568Y32229D01*
X20388Y32272D01*
X20202Y32287D01*
X7701D01*
X6696Y33291D01*
Y68086D01*
X8685Y70075D01*
X22564D01*
X22750Y70090D01*
X22930Y70133D01*
X23102Y70204D01*
X23261Y70301D01*
X23402Y70422D01*
X28262Y75282D01*
X28382Y75423D01*
X28480Y75582D01*
X28551Y75753D01*
X28594Y75934D01*
X28609Y76119D01*
Y148167D01*
X28594Y148352D01*
X28551Y148533D01*
X28480Y148705D01*
X28382Y148863D01*
X28262Y149004D01*
X20454Y156812D01*
X20463Y156866D01*
X20475Y157087D01*
X20463Y157307D01*
X20426Y157525D01*
X20365Y157738D01*
X20280Y157942D01*
X20173Y158136D01*
X20045Y158316D01*
X19898Y158481D01*
X19733Y158628D01*
X19553Y158756D01*
X19359Y158863D01*
X19155Y158948D01*
X18943Y159009D01*
X18725Y159046D01*
X18504Y159058D01*
X18283Y159046D01*
X18065Y159009D01*
X17853Y158948D01*
X17649Y158863D01*
X17523Y158794D01*
X17218Y158882D01*
X16857Y159074D01*
X16736Y159203D01*
Y162108D01*
X18061Y163433D01*
X18065Y163432D01*
X18283Y163395D01*
X18504Y163383D01*
X18725Y163395D01*
X18943Y163432D01*
X19155Y163493D01*
X19359Y163578D01*
X19553Y163685D01*
X19733Y163813D01*
X19898Y163960D01*
X20045Y164125D01*
X20173Y164305D01*
X20280Y164499D01*
X20365Y164703D01*
X20426Y164916D01*
X20463Y165134D01*
X20475Y165354D01*
X20463Y165575D01*
X20426Y165793D01*
X20365Y166006D01*
X20280Y166210D01*
X20173Y166403D01*
X20045Y166584D01*
X19898Y166748D01*
X19733Y166896D01*
X19553Y167024D01*
X19359Y167131D01*
X19155Y167215D01*
X18943Y167277D01*
X18725Y167314D01*
X18504Y167326D01*
X18283Y167314D01*
X18065Y167277D01*
X17853Y167215D01*
X17649Y167131D01*
X17455Y167024D01*
X17275Y166896D01*
X17110Y166748D01*
X16962Y166584D01*
X16835Y166403D01*
X16728Y166210D01*
X16643Y166006D01*
X16582Y165793D01*
X16545Y165575D01*
X16532Y165354D01*
X16538Y165260D01*
X14713Y163436D01*
X14593Y163295D01*
X14496Y163136D01*
X14424Y162964D01*
X14381Y162784D01*
X14366Y162598D01*
Y155905D01*
X14381Y155720D01*
X14424Y155539D01*
X14496Y155368D01*
X14593Y155209D01*
X14713Y155068D01*
X24664Y145117D01*
Y83192D01*
X24470Y82962D01*
X23943Y82641D01*
X23877Y82639D01*
X23708Y82668D01*
X23487Y82680D01*
X23266Y82668D01*
X23048Y82631D01*
X22836Y82570D01*
X22632Y82485D01*
X22479Y82401D01*
X22260Y82459D01*
X21853Y82644D01*
X21692Y82801D01*
Y100051D01*
X21831Y100134D01*
X22079Y100318D01*
X22309Y100526D01*
X22516Y100755D01*
X22701Y101004D01*
X22860Y101269D01*
X22992Y101549D01*
X23096Y101840D01*
X23172Y102141D01*
X23172Y102141D01*
X23217Y102447D01*
X23232Y102756D01*
X23232D01*
Y116929D01*
X23232Y116929D01*
X23217Y117238D01*
X23172Y117544D01*
X23172Y117544D01*
X23138Y117677D01*
X23138Y117678D01*
X23137Y117683D01*
X23096Y117844D01*
X22992Y118136D01*
X22860Y118416D01*
X22701Y118681D01*
X22516Y118930D01*
X22309Y119159D01*
X22079Y119367D01*
X21831Y119551D01*
X21692Y119634D01*
Y139764D01*
X21682Y139813D01*
X21690Y139862D01*
X21671Y140248D01*
X21634Y140392D01*
Y140541D01*
X21484Y141298D01*
X21408Y141481D01*
X21370Y141675D01*
X21074Y142388D01*
X20965Y142552D01*
X20889Y142735D01*
X20460Y143377D01*
X20320Y143516D01*
X20211Y143681D01*
X19665Y144226D01*
X19500Y144336D01*
X19361Y144476D01*
X18719Y144905D01*
X18536Y144980D01*
X18372Y145090D01*
X17659Y145386D01*
X17465Y145424D01*
X17282Y145500D01*
X16525Y145650D01*
X16377D01*
X16232Y145686D01*
X15846Y145705D01*
X15797Y145698D01*
X15748Y145708D01*
X3747D01*
X3374Y145782D01*
X3023Y145928D01*
X2707Y146139D01*
X2438Y146407D01*
X2227Y146724D01*
X2081Y147075D01*
X2007Y147448D01*
Y147638D01*
Y190883D01*
X6003Y194878D01*
X13780D01*
X13781Y194878D01*
X14359Y194893D01*
X14938Y194935D01*
X15513Y195006D01*
X16084Y195105D01*
X16650Y195232D01*
X17209Y195387D01*
X17760Y195569D01*
X18301Y195778D01*
X18831Y196013D01*
X19349Y196273D01*
X19853Y196559D01*
X20343Y196870D01*
X20818Y197203D01*
X21275Y197560D01*
X21714Y197939D01*
X22134Y198339D01*
X22534Y198759D01*
X22912Y199198D01*
X23269Y199655D01*
X23603Y200129D01*
X23913Y200619D01*
X24199Y201124D01*
X24460Y201642D01*
X24695Y202172D01*
X24904Y202713D01*
X25085Y203263D01*
X25240Y203822D01*
X25367Y204388D01*
X25466Y204959D01*
X25537Y205535D01*
X25580Y206113D01*
X25594Y206691D01*
X25594Y206693D01*
Y216438D01*
X29590Y220434D01*
X118434D01*
X118636Y220211D01*
X118866Y220003D01*
X119114Y219819D01*
X119380Y219660D01*
X119659Y219528D01*
X119951Y219423D01*
X120251Y219348D01*
X120252Y219348D01*
X120557Y219303D01*
X120866Y219287D01*
Y219288D01*
X135039D01*
X135039Y219287D01*
X135348Y219303D01*
X135654Y219348D01*
X135655Y219348D01*
X135788Y219381D01*
X135788Y219381D01*
X135794Y219383D01*
X135955Y219423D01*
X136246Y219528D01*
X136526Y219660D01*
X136791Y219819D01*
X137040Y220003D01*
X137269Y220211D01*
X137471Y220434D01*
X227891D01*
X230311Y218013D01*
D02*
G37*
G36*
X132498Y188133D02*
X132196Y187405D01*
X127756D01*
X127571Y187391D01*
X127390Y187347D01*
X127218Y187276D01*
X127059Y187179D01*
X126918Y187058D01*
X122981Y183121D01*
X122860Y182980D01*
X122763Y182821D01*
X122692Y182650D01*
X122649Y182469D01*
X122634Y182283D01*
Y166632D01*
X119492Y163490D01*
X118704Y163633D01*
Y178789D01*
X119504Y179589D01*
X119652Y179754D01*
X119780Y179935D01*
X119887Y180128D01*
X119971Y180332D01*
X120032Y180545D01*
X120069Y180763D01*
X120082Y180984D01*
Y189961D01*
X120069Y190181D01*
X120032Y190399D01*
X119971Y190612D01*
X119887Y190816D01*
X119780Y191010D01*
X119652Y191190D01*
X119504Y191355D01*
X119340Y191502D01*
X119159Y191630D01*
X118966Y191737D01*
X118761Y191822D01*
X118549Y191883D01*
X118331Y191920D01*
X118110Y191932D01*
X117889Y191920D01*
X117672Y191883D01*
X117459Y191822D01*
X117255Y191737D01*
X117061Y191630D01*
X116881Y191502D01*
X116716Y191355D01*
X116569Y191190D01*
X116441Y191010D01*
X116334Y190816D01*
X116249Y190612D01*
X116188Y190399D01*
X116151Y190181D01*
X116139Y189961D01*
Y181800D01*
X115641Y181303D01*
X110830D01*
Y189567D01*
X110816Y189752D01*
X110772Y189933D01*
X110701Y190105D01*
X110604Y190263D01*
X110483Y190405D01*
X109137Y191751D01*
Y195292D01*
X125339D01*
X132498Y188133D01*
D02*
G37*
%LPC*%
G36*
X222953Y214452D02*
X222682Y214439D01*
X222414Y214399D01*
X222152Y214333D01*
X221897Y214242D01*
X221652Y214126D01*
X221420Y213987D01*
X221202Y213826D01*
X221002Y213644D01*
X220820Y213443D01*
X220658Y213226D01*
X220519Y212994D01*
X220403Y212749D01*
X220312Y212494D01*
X220246Y212231D01*
X220207Y211963D01*
X220193Y211693D01*
X220207Y211422D01*
X220246Y211155D01*
X220312Y210892D01*
X220403Y210637D01*
X220519Y210392D01*
X220658Y210160D01*
X220820Y209942D01*
X221002Y209742D01*
X221202Y209560D01*
X221420Y209399D01*
X221652Y209259D01*
X221897Y209144D01*
X222152Y209052D01*
X222414Y208987D01*
X222682Y208947D01*
X222953Y208934D01*
X223223Y208947D01*
X223491Y208987D01*
X223754Y209052D01*
X224008Y209144D01*
X224253Y209259D01*
X224486Y209399D01*
X224703Y209560D01*
X224904Y209742D01*
X225085Y209942D01*
X225247Y210160D01*
X225386Y210392D01*
X225502Y210637D01*
X225593Y210892D01*
X225659Y211155D01*
X225698Y211422D01*
X225712Y211693D01*
X225698Y211963D01*
X225659Y212231D01*
X225593Y212494D01*
X225502Y212749D01*
X225386Y212994D01*
X225247Y213226D01*
X225085Y213443D01*
X224904Y213644D01*
X224703Y213826D01*
X224486Y213987D01*
X224253Y214126D01*
X224008Y214242D01*
X223754Y214333D01*
X223491Y214399D01*
X223223Y214439D01*
X222953Y214452D01*
D02*
G37*
G36*
X212953D02*
X212682Y214439D01*
X212414Y214399D01*
X212152Y214333D01*
X211897Y214242D01*
X211652Y214126D01*
X211420Y213987D01*
X211202Y213826D01*
X211002Y213644D01*
X210820Y213443D01*
X210658Y213226D01*
X210519Y212994D01*
X210403Y212749D01*
X210312Y212494D01*
X210246Y212231D01*
X210207Y211963D01*
X210193Y211693D01*
X210207Y211422D01*
X210246Y211155D01*
X210312Y210892D01*
X210403Y210637D01*
X210519Y210392D01*
X210658Y210160D01*
X210820Y209942D01*
X211002Y209742D01*
X211202Y209560D01*
X211420Y209399D01*
X211652Y209259D01*
X211897Y209144D01*
X212152Y209052D01*
X212414Y208987D01*
X212682Y208947D01*
X212953Y208934D01*
X213223Y208947D01*
X213491Y208987D01*
X213754Y209052D01*
X214008Y209144D01*
X214253Y209259D01*
X214486Y209399D01*
X214703Y209560D01*
X214904Y209742D01*
X215086Y209942D01*
X215247Y210160D01*
X215386Y210392D01*
X215502Y210637D01*
X215593Y210892D01*
X215659Y211155D01*
X215699Y211422D01*
X215712Y211693D01*
X215699Y211963D01*
X215659Y212231D01*
X215593Y212494D01*
X215502Y212749D01*
X215386Y212994D01*
X215247Y213226D01*
X215086Y213443D01*
X214904Y213644D01*
X214703Y213826D01*
X214486Y213987D01*
X214253Y214126D01*
X214008Y214242D01*
X213754Y214333D01*
X213491Y214399D01*
X213223Y214439D01*
X212953Y214452D01*
D02*
G37*
G36*
X202953D02*
X202682Y214439D01*
X202414Y214399D01*
X202152Y214333D01*
X201897Y214242D01*
X201652Y214126D01*
X201420Y213987D01*
X201202Y213826D01*
X201002Y213644D01*
X200820Y213443D01*
X200658Y213226D01*
X200519Y212994D01*
X200403Y212749D01*
X200312Y212494D01*
X200246Y212231D01*
X200207Y211963D01*
X200193Y211693D01*
X200207Y211422D01*
X200246Y211155D01*
X200312Y210892D01*
X200403Y210637D01*
X200519Y210392D01*
X200658Y210160D01*
X200820Y209942D01*
X201002Y209742D01*
X201202Y209560D01*
X201420Y209399D01*
X201652Y209259D01*
X201897Y209144D01*
X202152Y209052D01*
X202414Y208987D01*
X202682Y208947D01*
X202953Y208934D01*
X203223Y208947D01*
X203491Y208987D01*
X203754Y209052D01*
X204009Y209144D01*
X204253Y209259D01*
X204486Y209399D01*
X204703Y209560D01*
X204904Y209742D01*
X205085Y209942D01*
X205247Y210160D01*
X205386Y210392D01*
X205502Y210637D01*
X205593Y210892D01*
X205659Y211155D01*
X205698Y211422D01*
X205712Y211693D01*
X205698Y211963D01*
X205659Y212231D01*
X205593Y212494D01*
X205502Y212749D01*
X205386Y212994D01*
X205247Y213226D01*
X205085Y213443D01*
X204904Y213644D01*
X204703Y213826D01*
X204486Y213987D01*
X204253Y214126D01*
X204009Y214242D01*
X203754Y214333D01*
X203491Y214399D01*
X203223Y214439D01*
X202953Y214452D01*
D02*
G37*
G36*
X192953D02*
X192682Y214439D01*
X192414Y214399D01*
X192152Y214333D01*
X191897Y214242D01*
X191652Y214126D01*
X191420Y213987D01*
X191202Y213826D01*
X191002Y213644D01*
X190820Y213443D01*
X190658Y213226D01*
X190519Y212994D01*
X190403Y212749D01*
X190312Y212494D01*
X190246Y212231D01*
X190207Y211963D01*
X190193Y211693D01*
X190207Y211422D01*
X190246Y211155D01*
X190312Y210892D01*
X190403Y210637D01*
X190519Y210392D01*
X190658Y210160D01*
X190820Y209942D01*
X191002Y209742D01*
X191202Y209560D01*
X191420Y209399D01*
X191652Y209259D01*
X191897Y209144D01*
X192152Y209052D01*
X192414Y208987D01*
X192682Y208947D01*
X192953Y208934D01*
X193223Y208947D01*
X193491Y208987D01*
X193754Y209052D01*
X194009Y209144D01*
X194253Y209259D01*
X194486Y209399D01*
X194703Y209560D01*
X194904Y209742D01*
X195086Y209942D01*
X195247Y210160D01*
X195386Y210392D01*
X195502Y210637D01*
X195593Y210892D01*
X195659Y211155D01*
X195699Y211422D01*
X195712Y211693D01*
X195699Y211963D01*
X195659Y212231D01*
X195593Y212494D01*
X195502Y212749D01*
X195386Y212994D01*
X195247Y213226D01*
X195086Y213443D01*
X194904Y213644D01*
X194703Y213826D01*
X194486Y213987D01*
X194253Y214126D01*
X194009Y214242D01*
X193754Y214333D01*
X193491Y214399D01*
X193223Y214439D01*
X192953Y214452D01*
D02*
G37*
G36*
X182953D02*
X182682Y214439D01*
X182414Y214399D01*
X182152Y214333D01*
X181897Y214242D01*
X181652Y214126D01*
X181420Y213987D01*
X181202Y213826D01*
X181002Y213644D01*
X180820Y213443D01*
X180658Y213226D01*
X180519Y212994D01*
X180403Y212749D01*
X180312Y212494D01*
X180246Y212231D01*
X180207Y211963D01*
X180193Y211693D01*
X180207Y211422D01*
X180246Y211155D01*
X180312Y210892D01*
X180403Y210637D01*
X180519Y210392D01*
X180658Y210160D01*
X180820Y209942D01*
X181002Y209742D01*
X181202Y209560D01*
X181420Y209399D01*
X181652Y209259D01*
X181897Y209144D01*
X182152Y209052D01*
X182414Y208987D01*
X182682Y208947D01*
X182953Y208934D01*
X183223Y208947D01*
X183491Y208987D01*
X183754Y209052D01*
X184009Y209144D01*
X184253Y209259D01*
X184486Y209399D01*
X184703Y209560D01*
X184904Y209742D01*
X185085Y209942D01*
X185247Y210160D01*
X185386Y210392D01*
X185502Y210637D01*
X185593Y210892D01*
X185659Y211155D01*
X185699Y211422D01*
X185712Y211693D01*
X185699Y211963D01*
X185659Y212231D01*
X185593Y212494D01*
X185502Y212749D01*
X185386Y212994D01*
X185247Y213226D01*
X185085Y213443D01*
X184904Y213644D01*
X184703Y213826D01*
X184486Y213987D01*
X184253Y214126D01*
X184009Y214242D01*
X183754Y214333D01*
X183491Y214399D01*
X183223Y214439D01*
X182953Y214452D01*
D02*
G37*
G36*
X172953D02*
X172682Y214439D01*
X172414Y214399D01*
X172152Y214333D01*
X171897Y214242D01*
X171652Y214126D01*
X171420Y213987D01*
X171202Y213826D01*
X171002Y213644D01*
X170820Y213443D01*
X170658Y213226D01*
X170519Y212994D01*
X170403Y212749D01*
X170312Y212494D01*
X170246Y212231D01*
X170207Y211963D01*
X170193Y211693D01*
X170207Y211422D01*
X170246Y211155D01*
X170312Y210892D01*
X170403Y210637D01*
X170519Y210392D01*
X170658Y210160D01*
X170820Y209942D01*
X171002Y209742D01*
X171202Y209560D01*
X171420Y209399D01*
X171652Y209259D01*
X171897Y209144D01*
X172152Y209052D01*
X172414Y208987D01*
X172682Y208947D01*
X172953Y208934D01*
X173223Y208947D01*
X173491Y208987D01*
X173754Y209052D01*
X174009Y209144D01*
X174253Y209259D01*
X174486Y209399D01*
X174703Y209560D01*
X174904Y209742D01*
X175085Y209942D01*
X175247Y210160D01*
X175386Y210392D01*
X175502Y210637D01*
X175593Y210892D01*
X175659Y211155D01*
X175699Y211422D01*
X175712Y211693D01*
X175699Y211963D01*
X175659Y212231D01*
X175593Y212494D01*
X175502Y212749D01*
X175386Y212994D01*
X175247Y213226D01*
X175085Y213443D01*
X174904Y213644D01*
X174703Y213826D01*
X174486Y213987D01*
X174253Y214126D01*
X174009Y214242D01*
X173754Y214333D01*
X173491Y214399D01*
X173223Y214439D01*
X172953Y214452D01*
D02*
G37*
G36*
X162953D02*
X162682Y214439D01*
X162414Y214399D01*
X162152Y214333D01*
X161897Y214242D01*
X161652Y214126D01*
X161420Y213987D01*
X161202Y213826D01*
X161002Y213644D01*
X160820Y213443D01*
X160658Y213226D01*
X160519Y212994D01*
X160403Y212749D01*
X160312Y212494D01*
X160246Y212231D01*
X160207Y211963D01*
X160193Y211693D01*
X160207Y211422D01*
X160246Y211155D01*
X160312Y210892D01*
X160403Y210637D01*
X160519Y210392D01*
X160658Y210160D01*
X160820Y209942D01*
X161002Y209742D01*
X161202Y209560D01*
X161420Y209399D01*
X161652Y209259D01*
X161897Y209144D01*
X162152Y209052D01*
X162414Y208987D01*
X162682Y208947D01*
X162953Y208934D01*
X163223Y208947D01*
X163491Y208987D01*
X163754Y209052D01*
X164008Y209144D01*
X164253Y209259D01*
X164486Y209399D01*
X164703Y209560D01*
X164904Y209742D01*
X165085Y209942D01*
X165247Y210160D01*
X165386Y210392D01*
X165502Y210637D01*
X165593Y210892D01*
X165659Y211155D01*
X165699Y211422D01*
X165712Y211693D01*
X165699Y211963D01*
X165659Y212231D01*
X165593Y212494D01*
X165502Y212749D01*
X165386Y212994D01*
X165247Y213226D01*
X165085Y213443D01*
X164904Y213644D01*
X164703Y213826D01*
X164486Y213987D01*
X164253Y214126D01*
X164008Y214242D01*
X163754Y214333D01*
X163491Y214399D01*
X163223Y214439D01*
X162953Y214452D01*
D02*
G37*
G36*
X152953D02*
X152682Y214439D01*
X152414Y214399D01*
X152152Y214333D01*
X151897Y214242D01*
X151652Y214126D01*
X151420Y213987D01*
X151202Y213826D01*
X151002Y213644D01*
X150820Y213443D01*
X150658Y213226D01*
X150519Y212994D01*
X150403Y212749D01*
X150312Y212494D01*
X150246Y212231D01*
X150207Y211963D01*
X150193Y211693D01*
X150207Y211422D01*
X150246Y211155D01*
X150312Y210892D01*
X150403Y210637D01*
X150519Y210392D01*
X150658Y210160D01*
X150820Y209942D01*
X151002Y209742D01*
X151202Y209560D01*
X151420Y209399D01*
X151652Y209259D01*
X151897Y209144D01*
X152152Y209052D01*
X152414Y208987D01*
X152682Y208947D01*
X152953Y208934D01*
X153223Y208947D01*
X153491Y208987D01*
X153754Y209052D01*
X154008Y209144D01*
X154253Y209259D01*
X154486Y209399D01*
X154703Y209560D01*
X154904Y209742D01*
X155086Y209942D01*
X155247Y210160D01*
X155386Y210392D01*
X155502Y210637D01*
X155593Y210892D01*
X155659Y211155D01*
X155699Y211422D01*
X155712Y211693D01*
X155699Y211963D01*
X155659Y212231D01*
X155593Y212494D01*
X155502Y212749D01*
X155386Y212994D01*
X155247Y213226D01*
X155086Y213443D01*
X154904Y213644D01*
X154703Y213826D01*
X154486Y213987D01*
X154253Y214126D01*
X154008Y214242D01*
X153754Y214333D01*
X153491Y214399D01*
X153223Y214439D01*
X152953Y214452D01*
D02*
G37*
G36*
X142953D02*
X142682Y214439D01*
X142414Y214399D01*
X142152Y214333D01*
X141897Y214242D01*
X141652Y214126D01*
X141420Y213987D01*
X141202Y213826D01*
X141002Y213644D01*
X140820Y213443D01*
X140658Y213226D01*
X140519Y212994D01*
X140403Y212749D01*
X140312Y212494D01*
X140246Y212231D01*
X140207Y211963D01*
X140193Y211693D01*
X140207Y211422D01*
X140246Y211155D01*
X140312Y210892D01*
X140403Y210637D01*
X140519Y210392D01*
X140658Y210160D01*
X140820Y209942D01*
X141002Y209742D01*
X141202Y209560D01*
X141420Y209399D01*
X141652Y209259D01*
X141897Y209144D01*
X142152Y209052D01*
X142414Y208987D01*
X142682Y208947D01*
X142953Y208934D01*
X143223Y208947D01*
X143491Y208987D01*
X143754Y209052D01*
X144009Y209144D01*
X144253Y209259D01*
X144486Y209399D01*
X144703Y209560D01*
X144904Y209742D01*
X145086Y209942D01*
X145247Y210160D01*
X145386Y210392D01*
X145502Y210637D01*
X145593Y210892D01*
X145659Y211155D01*
X145699Y211422D01*
X145712Y211693D01*
X145699Y211963D01*
X145659Y212231D01*
X145593Y212494D01*
X145502Y212749D01*
X145386Y212994D01*
X145247Y213226D01*
X145086Y213443D01*
X144904Y213644D01*
X144703Y213826D01*
X144486Y213987D01*
X144253Y214126D01*
X144009Y214242D01*
X143754Y214333D01*
X143491Y214399D01*
X143223Y214439D01*
X142953Y214452D01*
D02*
G37*
G36*
X132953D02*
X132682Y214439D01*
X132414Y214399D01*
X132152Y214333D01*
X131897Y214242D01*
X131652Y214126D01*
X131420Y213987D01*
X131202Y213826D01*
X131002Y213644D01*
X130820Y213443D01*
X130658Y213226D01*
X130519Y212994D01*
X130403Y212749D01*
X130312Y212494D01*
X130246Y212231D01*
X130207Y211963D01*
X130193Y211693D01*
X130207Y211422D01*
X130246Y211155D01*
X130312Y210892D01*
X130403Y210637D01*
X130519Y210392D01*
X130658Y210160D01*
X130820Y209942D01*
X131002Y209742D01*
X131202Y209560D01*
X131420Y209399D01*
X131652Y209259D01*
X131897Y209144D01*
X132152Y209052D01*
X132414Y208987D01*
X132682Y208947D01*
X132953Y208934D01*
X133223Y208947D01*
X133491Y208987D01*
X133754Y209052D01*
X134009Y209144D01*
X134253Y209259D01*
X134486Y209399D01*
X134703Y209560D01*
X134904Y209742D01*
X135085Y209942D01*
X135247Y210160D01*
X135386Y210392D01*
X135502Y210637D01*
X135593Y210892D01*
X135659Y211155D01*
X135699Y211422D01*
X135712Y211693D01*
X135699Y211963D01*
X135659Y212231D01*
X135593Y212494D01*
X135502Y212749D01*
X135386Y212994D01*
X135247Y213226D01*
X135085Y213443D01*
X134904Y213644D01*
X134703Y213826D01*
X134486Y213987D01*
X134253Y214126D01*
X134009Y214242D01*
X133754Y214333D01*
X133491Y214399D01*
X133223Y214439D01*
X132953Y214452D01*
D02*
G37*
G36*
X122953D02*
X122682Y214439D01*
X122414Y214399D01*
X122152Y214333D01*
X121897Y214242D01*
X121652Y214126D01*
X121420Y213987D01*
X121202Y213826D01*
X121002Y213644D01*
X120820Y213443D01*
X120658Y213226D01*
X120519Y212994D01*
X120403Y212749D01*
X120312Y212494D01*
X120246Y212231D01*
X120207Y211963D01*
X120193Y211693D01*
X120207Y211422D01*
X120246Y211155D01*
X120312Y210892D01*
X120403Y210637D01*
X120519Y210392D01*
X120658Y210160D01*
X120820Y209942D01*
X121002Y209742D01*
X121202Y209560D01*
X121420Y209399D01*
X121652Y209259D01*
X121897Y209144D01*
X122152Y209052D01*
X122414Y208987D01*
X122682Y208947D01*
X122953Y208934D01*
X123223Y208947D01*
X123491Y208987D01*
X123754Y209052D01*
X124009Y209144D01*
X124253Y209259D01*
X124486Y209399D01*
X124703Y209560D01*
X124904Y209742D01*
X125085Y209942D01*
X125247Y210160D01*
X125386Y210392D01*
X125502Y210637D01*
X125593Y210892D01*
X125659Y211155D01*
X125699Y211422D01*
X125712Y211693D01*
X125699Y211963D01*
X125659Y212231D01*
X125593Y212494D01*
X125502Y212749D01*
X125386Y212994D01*
X125247Y213226D01*
X125085Y213443D01*
X124904Y213644D01*
X124703Y213826D01*
X124486Y213987D01*
X124253Y214126D01*
X124009Y214242D01*
X123754Y214333D01*
X123491Y214399D01*
X123223Y214439D01*
X122953Y214452D01*
D02*
G37*
G36*
X112953D02*
X112682Y214439D01*
X112414Y214399D01*
X112152Y214333D01*
X111897Y214242D01*
X111652Y214126D01*
X111420Y213987D01*
X111202Y213826D01*
X111002Y213644D01*
X110820Y213443D01*
X110658Y213226D01*
X110519Y212994D01*
X110403Y212749D01*
X110312Y212494D01*
X110246Y212231D01*
X110207Y211963D01*
X110193Y211693D01*
X110207Y211422D01*
X110246Y211155D01*
X110312Y210892D01*
X110403Y210637D01*
X110519Y210392D01*
X110658Y210160D01*
X110820Y209942D01*
X111002Y209742D01*
X111202Y209560D01*
X111420Y209399D01*
X111652Y209259D01*
X111897Y209144D01*
X112152Y209052D01*
X112414Y208987D01*
X112682Y208947D01*
X112953Y208934D01*
X113223Y208947D01*
X113491Y208987D01*
X113754Y209052D01*
X114008Y209144D01*
X114253Y209259D01*
X114486Y209399D01*
X114703Y209560D01*
X114904Y209742D01*
X115085Y209942D01*
X115247Y210160D01*
X115386Y210392D01*
X115502Y210637D01*
X115593Y210892D01*
X115659Y211155D01*
X115699Y211422D01*
X115712Y211693D01*
X115699Y211963D01*
X115659Y212231D01*
X115593Y212494D01*
X115502Y212749D01*
X115386Y212994D01*
X115247Y213226D01*
X115085Y213443D01*
X114904Y213644D01*
X114703Y213826D01*
X114486Y213987D01*
X114253Y214126D01*
X114008Y214242D01*
X113754Y214333D01*
X113491Y214399D01*
X113223Y214439D01*
X112953Y214452D01*
D02*
G37*
G36*
X102953D02*
X102682Y214439D01*
X102414Y214399D01*
X102152Y214333D01*
X101897Y214242D01*
X101652Y214126D01*
X101420Y213987D01*
X101202Y213826D01*
X101002Y213644D01*
X100820Y213443D01*
X100658Y213226D01*
X100519Y212994D01*
X100403Y212749D01*
X100312Y212494D01*
X100246Y212231D01*
X100207Y211963D01*
X100193Y211693D01*
X100207Y211422D01*
X100246Y211155D01*
X100312Y210892D01*
X100403Y210637D01*
X100519Y210392D01*
X100658Y210160D01*
X100820Y209942D01*
X101002Y209742D01*
X101202Y209560D01*
X101420Y209399D01*
X101652Y209259D01*
X101897Y209144D01*
X102152Y209052D01*
X102414Y208987D01*
X102682Y208947D01*
X102953Y208934D01*
X103223Y208947D01*
X103491Y208987D01*
X103754Y209052D01*
X104008Y209144D01*
X104253Y209259D01*
X104486Y209399D01*
X104703Y209560D01*
X104904Y209742D01*
X105086Y209942D01*
X105247Y210160D01*
X105386Y210392D01*
X105502Y210637D01*
X105593Y210892D01*
X105659Y211155D01*
X105699Y211422D01*
X105712Y211693D01*
X105699Y211963D01*
X105659Y212231D01*
X105593Y212494D01*
X105502Y212749D01*
X105386Y212994D01*
X105247Y213226D01*
X105086Y213443D01*
X104904Y213644D01*
X104703Y213826D01*
X104486Y213987D01*
X104253Y214126D01*
X104008Y214242D01*
X103754Y214333D01*
X103491Y214399D01*
X103223Y214439D01*
X102953Y214452D01*
D02*
G37*
G36*
X92953D02*
X92682Y214439D01*
X92414Y214399D01*
X92152Y214333D01*
X91897Y214242D01*
X91652Y214126D01*
X91420Y213987D01*
X91202Y213826D01*
X91002Y213644D01*
X90820Y213443D01*
X90658Y213226D01*
X90519Y212994D01*
X90403Y212749D01*
X90312Y212494D01*
X90246Y212231D01*
X90207Y211963D01*
X90193Y211693D01*
X90207Y211422D01*
X90246Y211155D01*
X90312Y210892D01*
X90403Y210637D01*
X90519Y210392D01*
X90658Y210160D01*
X90820Y209942D01*
X91002Y209742D01*
X91202Y209560D01*
X91420Y209399D01*
X91652Y209259D01*
X91897Y209144D01*
X92152Y209052D01*
X92414Y208987D01*
X92682Y208947D01*
X92953Y208934D01*
X93223Y208947D01*
X93491Y208987D01*
X93754Y209052D01*
X94008Y209144D01*
X94253Y209259D01*
X94486Y209399D01*
X94703Y209560D01*
X94904Y209742D01*
X95086Y209942D01*
X95247Y210160D01*
X95386Y210392D01*
X95502Y210637D01*
X95593Y210892D01*
X95659Y211155D01*
X95699Y211422D01*
X95712Y211693D01*
X95699Y211963D01*
X95659Y212231D01*
X95593Y212494D01*
X95502Y212749D01*
X95386Y212994D01*
X95247Y213226D01*
X95086Y213443D01*
X94904Y213644D01*
X94703Y213826D01*
X94486Y213987D01*
X94253Y214126D01*
X94008Y214242D01*
X93754Y214333D01*
X93491Y214399D01*
X93223Y214439D01*
X92953Y214452D01*
D02*
G37*
G36*
X82953D02*
X82682Y214439D01*
X82414Y214399D01*
X82152Y214333D01*
X81897Y214242D01*
X81652Y214126D01*
X81420Y213987D01*
X81202Y213826D01*
X81002Y213644D01*
X80820Y213443D01*
X80658Y213226D01*
X80519Y212994D01*
X80403Y212749D01*
X80312Y212494D01*
X80246Y212231D01*
X80207Y211963D01*
X80193Y211693D01*
X80207Y211422D01*
X80246Y211155D01*
X80312Y210892D01*
X80403Y210637D01*
X80519Y210392D01*
X80658Y210160D01*
X80820Y209942D01*
X81002Y209742D01*
X81202Y209560D01*
X81420Y209399D01*
X81652Y209259D01*
X81897Y209144D01*
X82152Y209052D01*
X82414Y208987D01*
X82682Y208947D01*
X82953Y208934D01*
X83223Y208947D01*
X83491Y208987D01*
X83754Y209052D01*
X84009Y209144D01*
X84253Y209259D01*
X84486Y209399D01*
X84703Y209560D01*
X84904Y209742D01*
X85085Y209942D01*
X85247Y210160D01*
X85386Y210392D01*
X85502Y210637D01*
X85593Y210892D01*
X85659Y211155D01*
X85699Y211422D01*
X85712Y211693D01*
X85699Y211963D01*
X85659Y212231D01*
X85593Y212494D01*
X85502Y212749D01*
X85386Y212994D01*
X85247Y213226D01*
X85085Y213443D01*
X84904Y213644D01*
X84703Y213826D01*
X84486Y213987D01*
X84253Y214126D01*
X84009Y214242D01*
X83754Y214333D01*
X83491Y214399D01*
X83223Y214439D01*
X82953Y214452D01*
D02*
G37*
G36*
X72953D02*
X72682Y214439D01*
X72414Y214399D01*
X72152Y214333D01*
X71897Y214242D01*
X71652Y214126D01*
X71420Y213987D01*
X71202Y213826D01*
X71002Y213644D01*
X70820Y213443D01*
X70658Y213226D01*
X70519Y212994D01*
X70403Y212749D01*
X70312Y212494D01*
X70246Y212231D01*
X70207Y211963D01*
X70193Y211693D01*
X70207Y211422D01*
X70246Y211155D01*
X70312Y210892D01*
X70403Y210637D01*
X70519Y210392D01*
X70658Y210160D01*
X70820Y209942D01*
X71002Y209742D01*
X71202Y209560D01*
X71420Y209399D01*
X71652Y209259D01*
X71897Y209144D01*
X72152Y209052D01*
X72414Y208987D01*
X72682Y208947D01*
X72953Y208934D01*
X73223Y208947D01*
X73491Y208987D01*
X73754Y209052D01*
X74009Y209144D01*
X74253Y209259D01*
X74486Y209399D01*
X74703Y209560D01*
X74904Y209742D01*
X75086Y209942D01*
X75247Y210160D01*
X75386Y210392D01*
X75502Y210637D01*
X75593Y210892D01*
X75659Y211155D01*
X75699Y211422D01*
X75712Y211693D01*
X75699Y211963D01*
X75659Y212231D01*
X75593Y212494D01*
X75502Y212749D01*
X75386Y212994D01*
X75247Y213226D01*
X75086Y213443D01*
X74904Y213644D01*
X74703Y213826D01*
X74486Y213987D01*
X74253Y214126D01*
X74009Y214242D01*
X73754Y214333D01*
X73491Y214399D01*
X73223Y214439D01*
X72953Y214452D01*
D02*
G37*
G36*
X62953D02*
X62682Y214439D01*
X62414Y214399D01*
X62152Y214333D01*
X61897Y214242D01*
X61652Y214126D01*
X61420Y213987D01*
X61202Y213826D01*
X61002Y213644D01*
X60820Y213443D01*
X60658Y213226D01*
X60519Y212994D01*
X60403Y212749D01*
X60312Y212494D01*
X60246Y212231D01*
X60207Y211963D01*
X60193Y211693D01*
X60207Y211422D01*
X60246Y211155D01*
X60312Y210892D01*
X60403Y210637D01*
X60519Y210392D01*
X60658Y210160D01*
X60820Y209942D01*
X61002Y209742D01*
X61202Y209560D01*
X61420Y209399D01*
X61652Y209259D01*
X61897Y209144D01*
X62152Y209052D01*
X62414Y208987D01*
X62682Y208947D01*
X62953Y208934D01*
X63223Y208947D01*
X63491Y208987D01*
X63754Y209052D01*
X64008Y209144D01*
X64253Y209259D01*
X64486Y209399D01*
X64703Y209560D01*
X64904Y209742D01*
X65086Y209942D01*
X65247Y210160D01*
X65386Y210392D01*
X65502Y210637D01*
X65593Y210892D01*
X65659Y211155D01*
X65699Y211422D01*
X65712Y211693D01*
X65699Y211963D01*
X65659Y212231D01*
X65593Y212494D01*
X65502Y212749D01*
X65386Y212994D01*
X65247Y213226D01*
X65086Y213443D01*
X64904Y213644D01*
X64703Y213826D01*
X64486Y213987D01*
X64253Y214126D01*
X64008Y214242D01*
X63754Y214333D01*
X63491Y214399D01*
X63223Y214439D01*
X62953Y214452D01*
D02*
G37*
G36*
X52953D02*
X52682Y214439D01*
X52414Y214399D01*
X52152Y214333D01*
X51897Y214242D01*
X51652Y214126D01*
X51420Y213987D01*
X51202Y213826D01*
X51002Y213644D01*
X50820Y213443D01*
X50658Y213226D01*
X50519Y212994D01*
X50403Y212749D01*
X50312Y212494D01*
X50246Y212231D01*
X50207Y211963D01*
X50193Y211693D01*
X50207Y211422D01*
X50246Y211155D01*
X50312Y210892D01*
X50403Y210637D01*
X50519Y210392D01*
X50658Y210160D01*
X50820Y209942D01*
X51002Y209742D01*
X51202Y209560D01*
X51420Y209399D01*
X51652Y209259D01*
X51897Y209144D01*
X52152Y209052D01*
X52414Y208987D01*
X52682Y208947D01*
X52953Y208934D01*
X53223Y208947D01*
X53491Y208987D01*
X53754Y209052D01*
X54009Y209144D01*
X54253Y209259D01*
X54486Y209399D01*
X54703Y209560D01*
X54904Y209742D01*
X55085Y209942D01*
X55247Y210160D01*
X55386Y210392D01*
X55502Y210637D01*
X55593Y210892D01*
X55659Y211155D01*
X55699Y211422D01*
X55712Y211693D01*
X55699Y211963D01*
X55659Y212231D01*
X55593Y212494D01*
X55502Y212749D01*
X55386Y212994D01*
X55247Y213226D01*
X55085Y213443D01*
X54904Y213644D01*
X54703Y213826D01*
X54486Y213987D01*
X54253Y214126D01*
X54009Y214242D01*
X53754Y214333D01*
X53491Y214399D01*
X53223Y214439D01*
X52953Y214452D01*
D02*
G37*
G36*
X42953D02*
X42682Y214439D01*
X42414Y214399D01*
X42152Y214333D01*
X41897Y214242D01*
X41652Y214126D01*
X41420Y213987D01*
X41202Y213826D01*
X41002Y213644D01*
X40820Y213443D01*
X40658Y213226D01*
X40519Y212994D01*
X40403Y212749D01*
X40312Y212494D01*
X40246Y212231D01*
X40207Y211963D01*
X40193Y211693D01*
X40207Y211422D01*
X40246Y211155D01*
X40312Y210892D01*
X40403Y210637D01*
X40519Y210392D01*
X40658Y210160D01*
X40820Y209942D01*
X41002Y209742D01*
X41202Y209560D01*
X41420Y209399D01*
X41652Y209259D01*
X41897Y209144D01*
X42152Y209052D01*
X42414Y208987D01*
X42682Y208947D01*
X42953Y208934D01*
X43223Y208947D01*
X43491Y208987D01*
X43754Y209052D01*
X44008Y209144D01*
X44253Y209259D01*
X44486Y209399D01*
X44703Y209560D01*
X44904Y209742D01*
X45085Y209942D01*
X45247Y210160D01*
X45386Y210392D01*
X45502Y210637D01*
X45593Y210892D01*
X45659Y211155D01*
X45699Y211422D01*
X45712Y211693D01*
X45699Y211963D01*
X45659Y212231D01*
X45593Y212494D01*
X45502Y212749D01*
X45386Y212994D01*
X45247Y213226D01*
X45085Y213443D01*
X44904Y213644D01*
X44703Y213826D01*
X44486Y213987D01*
X44253Y214126D01*
X44008Y214242D01*
X43754Y214333D01*
X43491Y214399D01*
X43223Y214439D01*
X42953Y214452D01*
D02*
G37*
G36*
X32953D02*
X32682Y214439D01*
X32414Y214399D01*
X32152Y214333D01*
X31897Y214242D01*
X31652Y214126D01*
X31420Y213987D01*
X31202Y213826D01*
X31002Y213644D01*
X30820Y213443D01*
X30658Y213226D01*
X30519Y212994D01*
X30403Y212749D01*
X30312Y212494D01*
X30246Y212231D01*
X30207Y211963D01*
X30193Y211693D01*
X30207Y211422D01*
X30246Y211155D01*
X30312Y210892D01*
X30403Y210637D01*
X30519Y210392D01*
X30658Y210160D01*
X30820Y209942D01*
X31002Y209742D01*
X31202Y209560D01*
X31420Y209399D01*
X31652Y209259D01*
X31897Y209144D01*
X32152Y209052D01*
X32414Y208987D01*
X32682Y208947D01*
X32953Y208934D01*
X33223Y208947D01*
X33491Y208987D01*
X33754Y209052D01*
X34008Y209144D01*
X34253Y209259D01*
X34486Y209399D01*
X34703Y209560D01*
X34904Y209742D01*
X35085Y209942D01*
X35247Y210160D01*
X35386Y210392D01*
X35502Y210637D01*
X35593Y210892D01*
X35659Y211155D01*
X35699Y211422D01*
X35712Y211693D01*
X35699Y211963D01*
X35659Y212231D01*
X35593Y212494D01*
X35502Y212749D01*
X35386Y212994D01*
X35247Y213226D01*
X35085Y213443D01*
X34904Y213644D01*
X34703Y213826D01*
X34486Y213987D01*
X34253Y214126D01*
X34008Y214242D01*
X33754Y214333D01*
X33491Y214399D01*
X33223Y214439D01*
X32953Y214452D01*
D02*
G37*
G36*
X222953Y204452D02*
X222682Y204439D01*
X222414Y204399D01*
X222152Y204333D01*
X221897Y204242D01*
X221652Y204126D01*
X221420Y203987D01*
X221202Y203826D01*
X221002Y203644D01*
X220820Y203443D01*
X220658Y203226D01*
X220519Y202993D01*
X220403Y202749D01*
X220312Y202494D01*
X220246Y202231D01*
X220207Y201963D01*
X220193Y201693D01*
X220207Y201422D01*
X220246Y201154D01*
X220312Y200892D01*
X220403Y200637D01*
X220519Y200392D01*
X220658Y200160D01*
X220820Y199942D01*
X221002Y199742D01*
X221202Y199560D01*
X221420Y199399D01*
X221652Y199259D01*
X221897Y199144D01*
X222152Y199052D01*
X222414Y198987D01*
X222682Y198947D01*
X222953Y198933D01*
X223223Y198947D01*
X223491Y198987D01*
X223754Y199052D01*
X224008Y199144D01*
X224253Y199259D01*
X224486Y199399D01*
X224703Y199560D01*
X224904Y199742D01*
X225085Y199942D01*
X225247Y200160D01*
X225386Y200392D01*
X225502Y200637D01*
X225593Y200892D01*
X225659Y201154D01*
X225698Y201422D01*
X225712Y201693D01*
X225698Y201963D01*
X225659Y202231D01*
X225593Y202494D01*
X225502Y202749D01*
X225386Y202993D01*
X225247Y203226D01*
X225085Y203443D01*
X224904Y203644D01*
X224703Y203826D01*
X224486Y203987D01*
X224253Y204126D01*
X224008Y204242D01*
X223754Y204333D01*
X223491Y204399D01*
X223223Y204439D01*
X222953Y204452D01*
D02*
G37*
G36*
X212953D02*
X212682Y204439D01*
X212414Y204399D01*
X212152Y204333D01*
X211897Y204242D01*
X211652Y204126D01*
X211420Y203987D01*
X211202Y203826D01*
X211002Y203644D01*
X210820Y203443D01*
X210658Y203226D01*
X210519Y202993D01*
X210403Y202749D01*
X210312Y202494D01*
X210246Y202231D01*
X210207Y201963D01*
X210193Y201693D01*
X210207Y201422D01*
X210246Y201154D01*
X210312Y200892D01*
X210403Y200637D01*
X210519Y200392D01*
X210658Y200160D01*
X210820Y199942D01*
X211002Y199742D01*
X211202Y199560D01*
X211420Y199399D01*
X211652Y199259D01*
X211897Y199144D01*
X212152Y199052D01*
X212414Y198987D01*
X212682Y198947D01*
X212953Y198933D01*
X213223Y198947D01*
X213491Y198987D01*
X213754Y199052D01*
X214008Y199144D01*
X214253Y199259D01*
X214486Y199399D01*
X214703Y199560D01*
X214904Y199742D01*
X215086Y199942D01*
X215247Y200160D01*
X215386Y200392D01*
X215502Y200637D01*
X215593Y200892D01*
X215659Y201154D01*
X215699Y201422D01*
X215712Y201693D01*
X215699Y201963D01*
X215659Y202231D01*
X215593Y202494D01*
X215502Y202749D01*
X215386Y202993D01*
X215247Y203226D01*
X215086Y203443D01*
X214904Y203644D01*
X214703Y203826D01*
X214486Y203987D01*
X214253Y204126D01*
X214008Y204242D01*
X213754Y204333D01*
X213491Y204399D01*
X213223Y204439D01*
X212953Y204452D01*
D02*
G37*
G36*
X202953D02*
X202682Y204439D01*
X202414Y204399D01*
X202152Y204333D01*
X201897Y204242D01*
X201652Y204126D01*
X201420Y203987D01*
X201202Y203826D01*
X201002Y203644D01*
X200820Y203443D01*
X200658Y203226D01*
X200519Y202993D01*
X200403Y202749D01*
X200312Y202494D01*
X200246Y202231D01*
X200207Y201963D01*
X200193Y201693D01*
X200207Y201422D01*
X200246Y201154D01*
X200312Y200892D01*
X200403Y200637D01*
X200519Y200392D01*
X200658Y200160D01*
X200820Y199942D01*
X201002Y199742D01*
X201202Y199560D01*
X201420Y199399D01*
X201652Y199259D01*
X201897Y199144D01*
X202152Y199052D01*
X202414Y198987D01*
X202682Y198947D01*
X202953Y198933D01*
X203223Y198947D01*
X203491Y198987D01*
X203754Y199052D01*
X204009Y199144D01*
X204253Y199259D01*
X204486Y199399D01*
X204703Y199560D01*
X204904Y199742D01*
X205085Y199942D01*
X205247Y200160D01*
X205386Y200392D01*
X205502Y200637D01*
X205593Y200892D01*
X205659Y201154D01*
X205698Y201422D01*
X205712Y201693D01*
X205698Y201963D01*
X205659Y202231D01*
X205593Y202494D01*
X205502Y202749D01*
X205386Y202993D01*
X205247Y203226D01*
X205085Y203443D01*
X204904Y203644D01*
X204703Y203826D01*
X204486Y203987D01*
X204253Y204126D01*
X204009Y204242D01*
X203754Y204333D01*
X203491Y204399D01*
X203223Y204439D01*
X202953Y204452D01*
D02*
G37*
G36*
X192953D02*
X192682Y204439D01*
X192414Y204399D01*
X192152Y204333D01*
X191897Y204242D01*
X191652Y204126D01*
X191420Y203987D01*
X191202Y203826D01*
X191002Y203644D01*
X190820Y203443D01*
X190658Y203226D01*
X190519Y202993D01*
X190403Y202749D01*
X190312Y202494D01*
X190246Y202231D01*
X190207Y201963D01*
X190193Y201693D01*
X190207Y201422D01*
X190246Y201154D01*
X190312Y200892D01*
X190403Y200637D01*
X190519Y200392D01*
X190658Y200160D01*
X190820Y199942D01*
X191002Y199742D01*
X191202Y199560D01*
X191420Y199399D01*
X191652Y199259D01*
X191897Y199144D01*
X192152Y199052D01*
X192414Y198987D01*
X192682Y198947D01*
X192953Y198933D01*
X193223Y198947D01*
X193491Y198987D01*
X193754Y199052D01*
X194009Y199144D01*
X194253Y199259D01*
X194486Y199399D01*
X194703Y199560D01*
X194904Y199742D01*
X195086Y199942D01*
X195247Y200160D01*
X195386Y200392D01*
X195502Y200637D01*
X195593Y200892D01*
X195659Y201154D01*
X195699Y201422D01*
X195712Y201693D01*
X195699Y201963D01*
X195659Y202231D01*
X195593Y202494D01*
X195502Y202749D01*
X195386Y202993D01*
X195247Y203226D01*
X195086Y203443D01*
X194904Y203644D01*
X194703Y203826D01*
X194486Y203987D01*
X194253Y204126D01*
X194009Y204242D01*
X193754Y204333D01*
X193491Y204399D01*
X193223Y204439D01*
X192953Y204452D01*
D02*
G37*
G36*
X182953D02*
X182682Y204439D01*
X182414Y204399D01*
X182152Y204333D01*
X181897Y204242D01*
X181652Y204126D01*
X181420Y203987D01*
X181202Y203826D01*
X181002Y203644D01*
X180820Y203443D01*
X180658Y203226D01*
X180519Y202993D01*
X180403Y202749D01*
X180312Y202494D01*
X180246Y202231D01*
X180207Y201963D01*
X180193Y201693D01*
X180207Y201422D01*
X180246Y201154D01*
X180312Y200892D01*
X180403Y200637D01*
X180519Y200392D01*
X180658Y200160D01*
X180820Y199942D01*
X181002Y199742D01*
X181202Y199560D01*
X181420Y199399D01*
X181652Y199259D01*
X181897Y199144D01*
X182152Y199052D01*
X182414Y198987D01*
X182682Y198947D01*
X182953Y198933D01*
X183223Y198947D01*
X183491Y198987D01*
X183754Y199052D01*
X184009Y199144D01*
X184253Y199259D01*
X184486Y199399D01*
X184703Y199560D01*
X184904Y199742D01*
X185085Y199942D01*
X185247Y200160D01*
X185386Y200392D01*
X185502Y200637D01*
X185593Y200892D01*
X185659Y201154D01*
X185699Y201422D01*
X185712Y201693D01*
X185699Y201963D01*
X185659Y202231D01*
X185593Y202494D01*
X185502Y202749D01*
X185386Y202993D01*
X185247Y203226D01*
X185085Y203443D01*
X184904Y203644D01*
X184703Y203826D01*
X184486Y203987D01*
X184253Y204126D01*
X184009Y204242D01*
X183754Y204333D01*
X183491Y204399D01*
X183223Y204439D01*
X182953Y204452D01*
D02*
G37*
G36*
X172953D02*
X172682Y204439D01*
X172414Y204399D01*
X172152Y204333D01*
X171897Y204242D01*
X171652Y204126D01*
X171420Y203987D01*
X171202Y203826D01*
X171002Y203644D01*
X170820Y203443D01*
X170658Y203226D01*
X170519Y202993D01*
X170403Y202749D01*
X170312Y202494D01*
X170246Y202231D01*
X170207Y201963D01*
X170193Y201693D01*
X170207Y201422D01*
X170246Y201154D01*
X170312Y200892D01*
X170403Y200637D01*
X170519Y200392D01*
X170658Y200160D01*
X170820Y199942D01*
X171002Y199742D01*
X171202Y199560D01*
X171420Y199399D01*
X171652Y199259D01*
X171897Y199144D01*
X172152Y199052D01*
X172414Y198987D01*
X172682Y198947D01*
X172953Y198933D01*
X173223Y198947D01*
X173491Y198987D01*
X173754Y199052D01*
X174009Y199144D01*
X174253Y199259D01*
X174486Y199399D01*
X174703Y199560D01*
X174904Y199742D01*
X175085Y199942D01*
X175247Y200160D01*
X175386Y200392D01*
X175502Y200637D01*
X175593Y200892D01*
X175659Y201154D01*
X175699Y201422D01*
X175712Y201693D01*
X175699Y201963D01*
X175659Y202231D01*
X175593Y202494D01*
X175502Y202749D01*
X175386Y202993D01*
X175247Y203226D01*
X175085Y203443D01*
X174904Y203644D01*
X174703Y203826D01*
X174486Y203987D01*
X174253Y204126D01*
X174009Y204242D01*
X173754Y204333D01*
X173491Y204399D01*
X173223Y204439D01*
X172953Y204452D01*
D02*
G37*
G36*
X162953D02*
X162682Y204439D01*
X162414Y204399D01*
X162152Y204333D01*
X161897Y204242D01*
X161652Y204126D01*
X161420Y203987D01*
X161202Y203826D01*
X161002Y203644D01*
X160820Y203443D01*
X160658Y203226D01*
X160519Y202993D01*
X160403Y202749D01*
X160312Y202494D01*
X160246Y202231D01*
X160207Y201963D01*
X160193Y201693D01*
X160207Y201422D01*
X160246Y201154D01*
X160312Y200892D01*
X160403Y200637D01*
X160519Y200392D01*
X160658Y200160D01*
X160820Y199942D01*
X161002Y199742D01*
X161202Y199560D01*
X161420Y199399D01*
X161652Y199259D01*
X161897Y199144D01*
X162152Y199052D01*
X162414Y198987D01*
X162682Y198947D01*
X162953Y198933D01*
X163223Y198947D01*
X163491Y198987D01*
X163754Y199052D01*
X164008Y199144D01*
X164253Y199259D01*
X164486Y199399D01*
X164703Y199560D01*
X164904Y199742D01*
X165085Y199942D01*
X165247Y200160D01*
X165386Y200392D01*
X165502Y200637D01*
X165593Y200892D01*
X165659Y201154D01*
X165699Y201422D01*
X165712Y201693D01*
X165699Y201963D01*
X165659Y202231D01*
X165593Y202494D01*
X165502Y202749D01*
X165386Y202993D01*
X165247Y203226D01*
X165085Y203443D01*
X164904Y203644D01*
X164703Y203826D01*
X164486Y203987D01*
X164253Y204126D01*
X164008Y204242D01*
X163754Y204333D01*
X163491Y204399D01*
X163223Y204439D01*
X162953Y204452D01*
D02*
G37*
G36*
X152953D02*
X152682Y204439D01*
X152414Y204399D01*
X152152Y204333D01*
X151897Y204242D01*
X151652Y204126D01*
X151420Y203987D01*
X151202Y203826D01*
X151002Y203644D01*
X150820Y203443D01*
X150658Y203226D01*
X150519Y202993D01*
X150403Y202749D01*
X150312Y202494D01*
X150246Y202231D01*
X150207Y201963D01*
X150193Y201693D01*
X150207Y201422D01*
X150246Y201154D01*
X150312Y200892D01*
X150403Y200637D01*
X150519Y200392D01*
X150658Y200160D01*
X150820Y199942D01*
X151002Y199742D01*
X151202Y199560D01*
X151420Y199399D01*
X151652Y199259D01*
X151897Y199144D01*
X152152Y199052D01*
X152414Y198987D01*
X152682Y198947D01*
X152953Y198933D01*
X153223Y198947D01*
X153491Y198987D01*
X153754Y199052D01*
X154008Y199144D01*
X154253Y199259D01*
X154486Y199399D01*
X154703Y199560D01*
X154904Y199742D01*
X155086Y199942D01*
X155247Y200160D01*
X155386Y200392D01*
X155502Y200637D01*
X155593Y200892D01*
X155659Y201154D01*
X155699Y201422D01*
X155712Y201693D01*
X155699Y201963D01*
X155659Y202231D01*
X155593Y202494D01*
X155502Y202749D01*
X155386Y202993D01*
X155247Y203226D01*
X155086Y203443D01*
X154904Y203644D01*
X154703Y203826D01*
X154486Y203987D01*
X154253Y204126D01*
X154008Y204242D01*
X153754Y204333D01*
X153491Y204399D01*
X153223Y204439D01*
X152953Y204452D01*
D02*
G37*
G36*
X142953D02*
X142682Y204439D01*
X142414Y204399D01*
X142152Y204333D01*
X141897Y204242D01*
X141652Y204126D01*
X141420Y203987D01*
X141202Y203826D01*
X141002Y203644D01*
X140820Y203443D01*
X140658Y203226D01*
X140519Y202993D01*
X140403Y202749D01*
X140312Y202494D01*
X140246Y202231D01*
X140207Y201963D01*
X140193Y201693D01*
X140207Y201422D01*
X140246Y201154D01*
X140312Y200892D01*
X140403Y200637D01*
X140519Y200392D01*
X140658Y200160D01*
X140820Y199942D01*
X141002Y199742D01*
X141202Y199560D01*
X141420Y199399D01*
X141652Y199259D01*
X141897Y199144D01*
X142152Y199052D01*
X142414Y198987D01*
X142682Y198947D01*
X142953Y198933D01*
X143223Y198947D01*
X143491Y198987D01*
X143754Y199052D01*
X144009Y199144D01*
X144253Y199259D01*
X144486Y199399D01*
X144703Y199560D01*
X144904Y199742D01*
X145086Y199942D01*
X145247Y200160D01*
X145386Y200392D01*
X145502Y200637D01*
X145593Y200892D01*
X145659Y201154D01*
X145699Y201422D01*
X145712Y201693D01*
X145699Y201963D01*
X145659Y202231D01*
X145593Y202494D01*
X145502Y202749D01*
X145386Y202993D01*
X145247Y203226D01*
X145086Y203443D01*
X144904Y203644D01*
X144703Y203826D01*
X144486Y203987D01*
X144253Y204126D01*
X144009Y204242D01*
X143754Y204333D01*
X143491Y204399D01*
X143223Y204439D01*
X142953Y204452D01*
D02*
G37*
G36*
X132953D02*
X132682Y204439D01*
X132414Y204399D01*
X132152Y204333D01*
X131897Y204242D01*
X131652Y204126D01*
X131420Y203987D01*
X131202Y203826D01*
X131002Y203644D01*
X130820Y203443D01*
X130658Y203226D01*
X130519Y202993D01*
X130403Y202749D01*
X130312Y202494D01*
X130246Y202231D01*
X130207Y201963D01*
X130193Y201693D01*
X130207Y201422D01*
X130246Y201154D01*
X130312Y200892D01*
X130403Y200637D01*
X130519Y200392D01*
X130658Y200160D01*
X130820Y199942D01*
X131002Y199742D01*
X131202Y199560D01*
X131420Y199399D01*
X131652Y199259D01*
X131897Y199144D01*
X132152Y199052D01*
X132414Y198987D01*
X132682Y198947D01*
X132953Y198933D01*
X133223Y198947D01*
X133491Y198987D01*
X133754Y199052D01*
X134009Y199144D01*
X134253Y199259D01*
X134486Y199399D01*
X134703Y199560D01*
X134904Y199742D01*
X135085Y199942D01*
X135247Y200160D01*
X135386Y200392D01*
X135502Y200637D01*
X135593Y200892D01*
X135659Y201154D01*
X135699Y201422D01*
X135712Y201693D01*
X135699Y201963D01*
X135659Y202231D01*
X135593Y202494D01*
X135502Y202749D01*
X135386Y202993D01*
X135247Y203226D01*
X135085Y203443D01*
X134904Y203644D01*
X134703Y203826D01*
X134486Y203987D01*
X134253Y204126D01*
X134009Y204242D01*
X133754Y204333D01*
X133491Y204399D01*
X133223Y204439D01*
X132953Y204452D01*
D02*
G37*
G36*
X122953D02*
X122682Y204439D01*
X122414Y204399D01*
X122152Y204333D01*
X121897Y204242D01*
X121652Y204126D01*
X121420Y203987D01*
X121202Y203826D01*
X121002Y203644D01*
X120820Y203443D01*
X120658Y203226D01*
X120519Y202993D01*
X120403Y202749D01*
X120312Y202494D01*
X120246Y202231D01*
X120207Y201963D01*
X120193Y201693D01*
X120207Y201422D01*
X120246Y201154D01*
X120312Y200892D01*
X120403Y200637D01*
X120519Y200392D01*
X120658Y200160D01*
X120820Y199942D01*
X121002Y199742D01*
X121202Y199560D01*
X121420Y199399D01*
X121652Y199259D01*
X121897Y199144D01*
X122152Y199052D01*
X122414Y198987D01*
X122682Y198947D01*
X122953Y198933D01*
X123223Y198947D01*
X123491Y198987D01*
X123754Y199052D01*
X124009Y199144D01*
X124253Y199259D01*
X124486Y199399D01*
X124703Y199560D01*
X124904Y199742D01*
X125085Y199942D01*
X125247Y200160D01*
X125386Y200392D01*
X125502Y200637D01*
X125593Y200892D01*
X125659Y201154D01*
X125699Y201422D01*
X125712Y201693D01*
X125699Y201963D01*
X125659Y202231D01*
X125593Y202494D01*
X125502Y202749D01*
X125386Y202993D01*
X125247Y203226D01*
X125085Y203443D01*
X124904Y203644D01*
X124703Y203826D01*
X124486Y203987D01*
X124253Y204126D01*
X124009Y204242D01*
X123754Y204333D01*
X123491Y204399D01*
X123223Y204439D01*
X122953Y204452D01*
D02*
G37*
G36*
X92953D02*
X92682Y204439D01*
X92414Y204399D01*
X92152Y204333D01*
X91897Y204242D01*
X91652Y204126D01*
X91420Y203987D01*
X91202Y203826D01*
X91002Y203644D01*
X90820Y203443D01*
X90658Y203226D01*
X90519Y202993D01*
X90403Y202749D01*
X90312Y202494D01*
X90246Y202231D01*
X90207Y201963D01*
X90193Y201693D01*
X90207Y201422D01*
X90246Y201154D01*
X90312Y200892D01*
X90403Y200637D01*
X90519Y200392D01*
X90658Y200160D01*
X90820Y199942D01*
X91002Y199742D01*
X91202Y199560D01*
X91420Y199399D01*
X91652Y199259D01*
X91897Y199144D01*
X92152Y199052D01*
X92414Y198987D01*
X92682Y198947D01*
X92953Y198933D01*
X93223Y198947D01*
X93491Y198987D01*
X93754Y199052D01*
X94008Y199144D01*
X94253Y199259D01*
X94486Y199399D01*
X94703Y199560D01*
X94904Y199742D01*
X95086Y199942D01*
X95247Y200160D01*
X95386Y200392D01*
X95502Y200637D01*
X95593Y200892D01*
X95659Y201154D01*
X95699Y201422D01*
X95712Y201693D01*
X95699Y201963D01*
X95659Y202231D01*
X95593Y202494D01*
X95502Y202749D01*
X95386Y202993D01*
X95247Y203226D01*
X95086Y203443D01*
X94904Y203644D01*
X94703Y203826D01*
X94486Y203987D01*
X94253Y204126D01*
X94008Y204242D01*
X93754Y204333D01*
X93491Y204399D01*
X93223Y204439D01*
X92953Y204452D01*
D02*
G37*
G36*
X82953D02*
X82682Y204439D01*
X82414Y204399D01*
X82152Y204333D01*
X81897Y204242D01*
X81652Y204126D01*
X81420Y203987D01*
X81202Y203826D01*
X81002Y203644D01*
X80820Y203443D01*
X80658Y203226D01*
X80519Y202993D01*
X80403Y202749D01*
X80312Y202494D01*
X80246Y202231D01*
X80207Y201963D01*
X80193Y201693D01*
X80207Y201422D01*
X80246Y201154D01*
X80312Y200892D01*
X80403Y200637D01*
X80519Y200392D01*
X80658Y200160D01*
X80820Y199942D01*
X81002Y199742D01*
X81202Y199560D01*
X81420Y199399D01*
X81652Y199259D01*
X81897Y199144D01*
X82152Y199052D01*
X82414Y198987D01*
X82682Y198947D01*
X82953Y198933D01*
X83223Y198947D01*
X83491Y198987D01*
X83754Y199052D01*
X84009Y199144D01*
X84253Y199259D01*
X84486Y199399D01*
X84703Y199560D01*
X84904Y199742D01*
X85085Y199942D01*
X85247Y200160D01*
X85386Y200392D01*
X85502Y200637D01*
X85593Y200892D01*
X85659Y201154D01*
X85699Y201422D01*
X85712Y201693D01*
X85699Y201963D01*
X85659Y202231D01*
X85593Y202494D01*
X85502Y202749D01*
X85386Y202993D01*
X85247Y203226D01*
X85085Y203443D01*
X84904Y203644D01*
X84703Y203826D01*
X84486Y203987D01*
X84253Y204126D01*
X84009Y204242D01*
X83754Y204333D01*
X83491Y204399D01*
X83223Y204439D01*
X82953Y204452D01*
D02*
G37*
G36*
X72953D02*
X72682Y204439D01*
X72414Y204399D01*
X72152Y204333D01*
X71897Y204242D01*
X71652Y204126D01*
X71420Y203987D01*
X71202Y203826D01*
X71002Y203644D01*
X70820Y203443D01*
X70658Y203226D01*
X70519Y202993D01*
X70403Y202749D01*
X70312Y202494D01*
X70246Y202231D01*
X70207Y201963D01*
X70193Y201693D01*
X70207Y201422D01*
X70246Y201154D01*
X70312Y200892D01*
X70403Y200637D01*
X70519Y200392D01*
X70658Y200160D01*
X70820Y199942D01*
X71002Y199742D01*
X71202Y199560D01*
X71420Y199399D01*
X71652Y199259D01*
X71897Y199144D01*
X72152Y199052D01*
X72414Y198987D01*
X72682Y198947D01*
X72953Y198933D01*
X73223Y198947D01*
X73491Y198987D01*
X73754Y199052D01*
X74009Y199144D01*
X74253Y199259D01*
X74486Y199399D01*
X74703Y199560D01*
X74904Y199742D01*
X75086Y199942D01*
X75247Y200160D01*
X75386Y200392D01*
X75502Y200637D01*
X75593Y200892D01*
X75659Y201154D01*
X75699Y201422D01*
X75712Y201693D01*
X75699Y201963D01*
X75659Y202231D01*
X75593Y202494D01*
X75502Y202749D01*
X75386Y202993D01*
X75247Y203226D01*
X75086Y203443D01*
X74904Y203644D01*
X74703Y203826D01*
X74486Y203987D01*
X74253Y204126D01*
X74009Y204242D01*
X73754Y204333D01*
X73491Y204399D01*
X73223Y204439D01*
X72953Y204452D01*
D02*
G37*
G36*
X62953D02*
X62682Y204439D01*
X62414Y204399D01*
X62152Y204333D01*
X61897Y204242D01*
X61652Y204126D01*
X61420Y203987D01*
X61202Y203826D01*
X61002Y203644D01*
X60820Y203443D01*
X60658Y203226D01*
X60519Y202993D01*
X60403Y202749D01*
X60312Y202494D01*
X60246Y202231D01*
X60207Y201963D01*
X60193Y201693D01*
X60207Y201422D01*
X60246Y201154D01*
X60312Y200892D01*
X60403Y200637D01*
X60519Y200392D01*
X60658Y200160D01*
X60820Y199942D01*
X61002Y199742D01*
X61202Y199560D01*
X61420Y199399D01*
X61652Y199259D01*
X61897Y199144D01*
X62152Y199052D01*
X62414Y198987D01*
X62682Y198947D01*
X62953Y198933D01*
X63223Y198947D01*
X63491Y198987D01*
X63754Y199052D01*
X64008Y199144D01*
X64253Y199259D01*
X64486Y199399D01*
X64703Y199560D01*
X64904Y199742D01*
X65086Y199942D01*
X65247Y200160D01*
X65386Y200392D01*
X65502Y200637D01*
X65593Y200892D01*
X65659Y201154D01*
X65699Y201422D01*
X65712Y201693D01*
X65699Y201963D01*
X65659Y202231D01*
X65593Y202494D01*
X65502Y202749D01*
X65386Y202993D01*
X65247Y203226D01*
X65086Y203443D01*
X64904Y203644D01*
X64703Y203826D01*
X64486Y203987D01*
X64253Y204126D01*
X64008Y204242D01*
X63754Y204333D01*
X63491Y204399D01*
X63223Y204439D01*
X62953Y204452D01*
D02*
G37*
G36*
X52953D02*
X52682Y204439D01*
X52414Y204399D01*
X52152Y204333D01*
X51897Y204242D01*
X51652Y204126D01*
X51420Y203987D01*
X51202Y203826D01*
X51002Y203644D01*
X50820Y203443D01*
X50658Y203226D01*
X50519Y202993D01*
X50403Y202749D01*
X50312Y202494D01*
X50246Y202231D01*
X50207Y201963D01*
X50193Y201693D01*
X50207Y201422D01*
X50246Y201154D01*
X50312Y200892D01*
X50403Y200637D01*
X50519Y200392D01*
X50658Y200160D01*
X50820Y199942D01*
X51002Y199742D01*
X51202Y199560D01*
X51420Y199399D01*
X51652Y199259D01*
X51897Y199144D01*
X52152Y199052D01*
X52414Y198987D01*
X52682Y198947D01*
X52953Y198933D01*
X53223Y198947D01*
X53491Y198987D01*
X53754Y199052D01*
X54009Y199144D01*
X54253Y199259D01*
X54486Y199399D01*
X54703Y199560D01*
X54904Y199742D01*
X55085Y199942D01*
X55247Y200160D01*
X55386Y200392D01*
X55502Y200637D01*
X55593Y200892D01*
X55659Y201154D01*
X55699Y201422D01*
X55712Y201693D01*
X55699Y201963D01*
X55659Y202231D01*
X55593Y202494D01*
X55502Y202749D01*
X55386Y202993D01*
X55247Y203226D01*
X55085Y203443D01*
X54904Y203644D01*
X54703Y203826D01*
X54486Y203987D01*
X54253Y204126D01*
X54009Y204242D01*
X53754Y204333D01*
X53491Y204399D01*
X53223Y204439D01*
X52953Y204452D01*
D02*
G37*
G36*
X42953D02*
X42682Y204439D01*
X42414Y204399D01*
X42152Y204333D01*
X41897Y204242D01*
X41652Y204126D01*
X41420Y203987D01*
X41202Y203826D01*
X41002Y203644D01*
X40820Y203443D01*
X40658Y203226D01*
X40519Y202993D01*
X40403Y202749D01*
X40312Y202494D01*
X40246Y202231D01*
X40207Y201963D01*
X40193Y201693D01*
X40207Y201422D01*
X40246Y201154D01*
X40312Y200892D01*
X40403Y200637D01*
X40519Y200392D01*
X40658Y200160D01*
X40820Y199942D01*
X41002Y199742D01*
X41202Y199560D01*
X41420Y199399D01*
X41652Y199259D01*
X41897Y199144D01*
X42152Y199052D01*
X42414Y198987D01*
X42682Y198947D01*
X42953Y198933D01*
X43223Y198947D01*
X43491Y198987D01*
X43754Y199052D01*
X44008Y199144D01*
X44253Y199259D01*
X44486Y199399D01*
X44703Y199560D01*
X44904Y199742D01*
X45085Y199942D01*
X45247Y200160D01*
X45386Y200392D01*
X45502Y200637D01*
X45593Y200892D01*
X45659Y201154D01*
X45699Y201422D01*
X45712Y201693D01*
X45699Y201963D01*
X45659Y202231D01*
X45593Y202494D01*
X45502Y202749D01*
X45386Y202993D01*
X45247Y203226D01*
X45085Y203443D01*
X44904Y203644D01*
X44703Y203826D01*
X44486Y203987D01*
X44253Y204126D01*
X44008Y204242D01*
X43754Y204333D01*
X43491Y204399D01*
X43223Y204439D01*
X42953Y204452D01*
D02*
G37*
G36*
X32953D02*
X32682Y204439D01*
X32414Y204399D01*
X32152Y204333D01*
X31897Y204242D01*
X31652Y204126D01*
X31420Y203987D01*
X31202Y203826D01*
X31002Y203644D01*
X30820Y203443D01*
X30658Y203226D01*
X30519Y202993D01*
X30403Y202749D01*
X30312Y202494D01*
X30246Y202231D01*
X30207Y201963D01*
X30193Y201693D01*
X30207Y201422D01*
X30246Y201154D01*
X30312Y200892D01*
X30403Y200637D01*
X30519Y200392D01*
X30658Y200160D01*
X30820Y199942D01*
X31002Y199742D01*
X31202Y199560D01*
X31420Y199399D01*
X31652Y199259D01*
X31897Y199144D01*
X32152Y199052D01*
X32414Y198987D01*
X32682Y198947D01*
X32953Y198933D01*
X33223Y198947D01*
X33491Y198987D01*
X33754Y199052D01*
X34008Y199144D01*
X34253Y199259D01*
X34486Y199399D01*
X34703Y199560D01*
X34904Y199742D01*
X35085Y199942D01*
X35247Y200160D01*
X35386Y200392D01*
X35502Y200637D01*
X35593Y200892D01*
X35659Y201154D01*
X35699Y201422D01*
X35712Y201693D01*
X35699Y201963D01*
X35659Y202231D01*
X35593Y202494D01*
X35502Y202749D01*
X35386Y202993D01*
X35247Y203226D01*
X35085Y203443D01*
X34904Y203644D01*
X34703Y203826D01*
X34486Y203987D01*
X34253Y204126D01*
X34008Y204242D01*
X33754Y204333D01*
X33491Y204399D01*
X33223Y204439D01*
X32953Y204452D01*
D02*
G37*
G36*
X247126Y191342D02*
X246817Y191328D01*
X246510Y191288D01*
X246208Y191221D01*
X245913Y191128D01*
X245627Y191010D01*
X245353Y190867D01*
X245092Y190700D01*
X244846Y190512D01*
X244618Y190303D01*
X244409Y190075D01*
X244221Y189830D01*
X244055Y189569D01*
X243912Y189294D01*
X243793Y189008D01*
X243700Y188713D01*
X243633Y188411D01*
X243593Y188104D01*
X243579Y187795D01*
Y186221D01*
X243593Y185911D01*
X243633Y185605D01*
X243700Y185302D01*
X243793Y185007D01*
X243912Y184722D01*
X244055Y184447D01*
X244221Y184186D01*
X244409Y183941D01*
X244618Y183713D01*
X244846Y183504D01*
X245092Y183315D01*
X245353Y183149D01*
X245627Y183006D01*
X245913Y182888D01*
X246208Y182795D01*
X246510Y182728D01*
X246817Y182687D01*
X247126Y182674D01*
X247435Y182687D01*
X247742Y182728D01*
X248044Y182795D01*
X248339Y182888D01*
X248625Y183006D01*
X248899Y183149D01*
X249160Y183315D01*
X249406Y183504D01*
X249634Y183713D01*
X249843Y183941D01*
X250031Y184186D01*
X250198Y184447D01*
X250340Y184722D01*
X250459Y185007D01*
X250552Y185302D01*
X250619Y185605D01*
X250659Y185911D01*
X250673Y186221D01*
Y187795D01*
X250659Y188104D01*
X250619Y188411D01*
X250552Y188713D01*
X250459Y189008D01*
X250340Y189294D01*
X250198Y189569D01*
X250031Y189830D01*
X249843Y190075D01*
X249634Y190303D01*
X249406Y190512D01*
X249160Y190700D01*
X248899Y190867D01*
X248625Y191010D01*
X248339Y191128D01*
X248044Y191221D01*
X247742Y191288D01*
X247435Y191328D01*
X247126Y191342D01*
D02*
G37*
G36*
X238504Y191342D02*
X235748D01*
X235505Y191328D01*
X235265Y191288D01*
X235032Y191220D01*
X234807Y191127D01*
X234594Y191010D01*
X234396Y190869D01*
X234214Y190707D01*
X234052Y190525D01*
X233912Y190327D01*
X233794Y190114D01*
X233701Y189890D01*
X233634Y189656D01*
X233593Y189416D01*
X233579Y189173D01*
Y184843D01*
X233593Y184600D01*
X233634Y184360D01*
X233701Y184126D01*
X233794Y183902D01*
X233912Y183689D01*
X234052Y183490D01*
X234214Y183309D01*
X234396Y183147D01*
X234594Y183006D01*
X234807Y182888D01*
X235032Y182796D01*
X235265Y182728D01*
X235505Y182687D01*
X235748Y182674D01*
X238504D01*
X238747Y182687D01*
X238986Y182728D01*
X239220Y182796D01*
X239445Y182888D01*
X239658Y183006D01*
X239856Y183147D01*
X240037Y183309D01*
X240199Y183490D01*
X240340Y183689D01*
X240458Y183902D01*
X240551Y184126D01*
X240618Y184360D01*
X240659Y184600D01*
X240673Y184843D01*
Y189173D01*
X240659Y189416D01*
X240618Y189656D01*
X240551Y189890D01*
X240458Y190114D01*
X240340Y190327D01*
X240199Y190525D01*
X240037Y190707D01*
X239856Y190869D01*
X239658Y191010D01*
X239445Y191127D01*
X239220Y191220D01*
X238986Y191288D01*
X238747Y191328D01*
X238504Y191342D01*
D02*
G37*
G36*
X129921Y177760D02*
X129578Y177745D01*
X129237Y177700D01*
X128901Y177625D01*
X128574Y177522D01*
X128256Y177390D01*
X127951Y177232D01*
X127661Y177047D01*
X127388Y176838D01*
X127135Y176605D01*
X126902Y176352D01*
X126693Y176079D01*
X126508Y175789D01*
X126350Y175484D01*
X126218Y175167D01*
X126115Y174839D01*
X126040Y174503D01*
X125996Y174162D01*
X125980Y173819D01*
X125996Y173475D01*
X126040Y173135D01*
X126115Y172799D01*
X126218Y172471D01*
X126350Y172153D01*
X126508Y171848D01*
X126693Y171559D01*
X126902Y171286D01*
X127135Y171032D01*
X127388Y170800D01*
X127661Y170591D01*
X127951Y170406D01*
X128256Y170247D01*
X128574Y170116D01*
X128901Y170012D01*
X129237Y169938D01*
X129578Y169893D01*
X129921Y169878D01*
X130265Y169893D01*
X130606Y169938D01*
X130941Y170012D01*
X131269Y170116D01*
X131587Y170247D01*
X131892Y170406D01*
X132182Y170591D01*
X132454Y170800D01*
X132708Y171032D01*
X132940Y171286D01*
X133149Y171559D01*
X133334Y171848D01*
X133493Y172153D01*
X133624Y172471D01*
X133728Y172799D01*
X133802Y173135D01*
X133847Y173475D01*
X133862Y173819D01*
X133847Y174162D01*
X133802Y174503D01*
X133728Y174839D01*
X133624Y175167D01*
X133493Y175484D01*
X133334Y175789D01*
X133149Y176079D01*
X132940Y176352D01*
X132708Y176605D01*
X132454Y176838D01*
X132182Y177047D01*
X131892Y177232D01*
X131587Y177390D01*
X131269Y177522D01*
X130941Y177625D01*
X130606Y177700D01*
X130265Y177745D01*
X129921Y177760D01*
D02*
G37*
G36*
X69685Y166794D02*
X69464Y166782D01*
X69246Y166745D01*
X69034Y166684D01*
X68830Y166599D01*
X68636Y166492D01*
X68456Y166364D01*
X68291Y166217D01*
X68144Y166052D01*
X68112Y166008D01*
X53799D01*
X53614Y165993D01*
X53433Y165950D01*
X53261Y165878D01*
X53103Y165781D01*
X52961Y165661D01*
X49753Y162452D01*
X49632Y162311D01*
X49535Y162152D01*
X49464Y161980D01*
X49420Y161799D01*
X49406Y161614D01*
Y154526D01*
X49361Y154494D01*
X49196Y154347D01*
X49049Y154182D01*
X48921Y154002D01*
X48814Y153808D01*
X48730Y153604D01*
X48668Y153392D01*
X48631Y153173D01*
X48619Y152953D01*
X48631Y152732D01*
X48668Y152514D01*
X48730Y152302D01*
X48814Y152097D01*
X48921Y151904D01*
X49049Y151724D01*
X49196Y151559D01*
X49361Y151411D01*
X49542Y151283D01*
X49735Y151176D01*
X49939Y151092D01*
X50152Y151031D01*
X50370Y150994D01*
X50590Y150981D01*
X50811Y150994D01*
X51029Y151031D01*
X51242Y151092D01*
X51446Y151176D01*
X51639Y151283D01*
X51820Y151411D01*
X51985Y151559D01*
X52132Y151724D01*
X52260Y151904D01*
X52367Y152097D01*
X52451Y152302D01*
X52513Y152514D01*
X52550Y152732D01*
X52562Y152953D01*
X52550Y153173D01*
X52513Y153392D01*
X52451Y153604D01*
X52367Y153808D01*
X52260Y154002D01*
X52132Y154182D01*
X51985Y154347D01*
X51820Y154494D01*
X51775Y154526D01*
Y161123D01*
X54290Y163638D01*
X68112D01*
X68144Y163594D01*
X68291Y163429D01*
X68456Y163281D01*
X68636Y163153D01*
X68830Y163047D01*
X69034Y162962D01*
X69246Y162901D01*
X69464Y162864D01*
X69685Y162851D01*
X69906Y162864D01*
X70124Y162901D01*
X70336Y162962D01*
X70540Y163047D01*
X70734Y163153D01*
X70914Y163281D01*
X71079Y163429D01*
X71227Y163594D01*
X71354Y163774D01*
X71461Y163967D01*
X71546Y164172D01*
X71607Y164384D01*
X71644Y164602D01*
X71657Y164823D01*
X71644Y165044D01*
X71607Y165262D01*
X71546Y165474D01*
X71461Y165678D01*
X71354Y165872D01*
X71227Y166052D01*
X71079Y166217D01*
X70914Y166364D01*
X70734Y166492D01*
X70540Y166599D01*
X70336Y166684D01*
X70124Y166745D01*
X69906Y166782D01*
X69685Y166794D01*
D02*
G37*
G36*
X118307Y156535D02*
X115237D01*
Y153465D01*
X115469Y153516D01*
X115797Y153620D01*
X116115Y153751D01*
X116420Y153910D01*
X116710Y154095D01*
X116982Y154304D01*
X117236Y154536D01*
X117468Y154790D01*
X117677Y155062D01*
X117862Y155352D01*
X118021Y155657D01*
X118152Y155975D01*
X118256Y156303D01*
X118307Y156535D01*
D02*
G37*
G36*
X113662D02*
X110591D01*
X110643Y156303D01*
X110746Y155975D01*
X110878Y155657D01*
X111037Y155352D01*
X111221Y155062D01*
X111431Y154790D01*
X111663Y154536D01*
X111916Y154304D01*
X112189Y154095D01*
X112479Y153910D01*
X112784Y153751D01*
X113102Y153620D01*
X113429Y153516D01*
X113662Y153465D01*
Y156535D01*
D02*
G37*
G36*
X247126Y161814D02*
X246817Y161801D01*
X246510Y161760D01*
X246208Y161694D01*
X245913Y161600D01*
X245627Y161482D01*
X245353Y161339D01*
X245092Y161173D01*
X244846Y160985D01*
X244618Y160776D01*
X244409Y160547D01*
X244221Y160302D01*
X244055Y160041D01*
X243912Y159767D01*
X243793Y159481D01*
X243700Y159186D01*
X243633Y158884D01*
X243593Y158577D01*
X243579Y158268D01*
Y156693D01*
X243593Y156384D01*
X243633Y156077D01*
X243700Y155775D01*
X243793Y155480D01*
X243912Y155194D01*
X244055Y154920D01*
X244221Y154659D01*
X244409Y154413D01*
X244618Y154185D01*
X244846Y153976D01*
X245092Y153788D01*
X245353Y153621D01*
X245627Y153479D01*
X245913Y153360D01*
X246208Y153267D01*
X246510Y153200D01*
X246817Y153160D01*
X247126Y153146D01*
X247435Y153160D01*
X247742Y153200D01*
X248044Y153267D01*
X248339Y153360D01*
X248625Y153479D01*
X248899Y153621D01*
X249160Y153788D01*
X249406Y153976D01*
X249634Y154185D01*
X249843Y154413D01*
X250031Y154659D01*
X250198Y154920D01*
X250340Y155194D01*
X250459Y155480D01*
X250552Y155775D01*
X250619Y156077D01*
X250659Y156384D01*
X250673Y156693D01*
Y158268D01*
X250659Y158577D01*
X250619Y158884D01*
X250552Y159186D01*
X250459Y159481D01*
X250340Y159767D01*
X250198Y160041D01*
X250031Y160302D01*
X249843Y160547D01*
X249634Y160776D01*
X249406Y160985D01*
X249160Y161173D01*
X248899Y161339D01*
X248625Y161482D01*
X248339Y161600D01*
X248044Y161694D01*
X247742Y161760D01*
X247435Y161801D01*
X247126Y161814D01*
D02*
G37*
G36*
X238504Y161814D02*
X235748D01*
X235505Y161801D01*
X235265Y161760D01*
X235032Y161693D01*
X234807Y161600D01*
X234594Y161482D01*
X234396Y161341D01*
X234214Y161179D01*
X234052Y160998D01*
X233912Y160800D01*
X233794Y160587D01*
X233701Y160362D01*
X233634Y160128D01*
X233593Y159889D01*
X233579Y159646D01*
Y155315D01*
X233593Y155072D01*
X233634Y154832D01*
X233701Y154599D01*
X233794Y154374D01*
X233912Y154161D01*
X234052Y153963D01*
X234214Y153781D01*
X234396Y153619D01*
X234594Y153479D01*
X234807Y153361D01*
X235032Y153268D01*
X235265Y153201D01*
X235505Y153160D01*
X235748Y153146D01*
X238504D01*
X238747Y153160D01*
X238986Y153201D01*
X239220Y153268D01*
X239445Y153361D01*
X239658Y153479D01*
X239856Y153619D01*
X240037Y153781D01*
X240199Y153963D01*
X240340Y154161D01*
X240458Y154374D01*
X240551Y154599D01*
X240618Y154832D01*
X240659Y155072D01*
X240673Y155315D01*
Y159646D01*
X240659Y159889D01*
X240618Y160128D01*
X240551Y160362D01*
X240458Y160587D01*
X240340Y160800D01*
X240199Y160998D01*
X240037Y161179D01*
X239856Y161341D01*
X239658Y161482D01*
X239445Y161600D01*
X239220Y161693D01*
X238986Y161760D01*
X238747Y161801D01*
X238504Y161814D01*
D02*
G37*
G36*
X129921Y158075D02*
X129578Y158060D01*
X129237Y158015D01*
X128901Y157940D01*
X128574Y157837D01*
X128256Y157705D01*
X127951Y157547D01*
X127661Y157362D01*
X127388Y157153D01*
X127135Y156920D01*
X126902Y156667D01*
X126693Y156394D01*
X126508Y156104D01*
X126350Y155799D01*
X126218Y155482D01*
X126115Y155154D01*
X126040Y154818D01*
X125996Y154477D01*
X125980Y154134D01*
X125996Y153790D01*
X126040Y153450D01*
X126115Y153114D01*
X126218Y152786D01*
X126350Y152468D01*
X126508Y152164D01*
X126693Y151874D01*
X126902Y151601D01*
X127135Y151347D01*
X127388Y151115D01*
X127661Y150906D01*
X127951Y150721D01*
X128256Y150562D01*
X128574Y150431D01*
X128901Y150327D01*
X129237Y150253D01*
X129578Y150208D01*
X129921Y150193D01*
X130265Y150208D01*
X130606Y150253D01*
X130941Y150327D01*
X131269Y150431D01*
X131587Y150562D01*
X131892Y150721D01*
X132182Y150906D01*
X132454Y151115D01*
X132708Y151347D01*
X132940Y151601D01*
X133149Y151874D01*
X133334Y152164D01*
X133493Y152468D01*
X133624Y152786D01*
X133728Y153114D01*
X133802Y153450D01*
X133847Y153790D01*
X133862Y154134D01*
X133847Y154477D01*
X133802Y154818D01*
X133728Y155154D01*
X133624Y155482D01*
X133493Y155799D01*
X133334Y156104D01*
X133149Y156394D01*
X132940Y156667D01*
X132708Y156920D01*
X132454Y157153D01*
X132182Y157362D01*
X131892Y157547D01*
X131587Y157705D01*
X131269Y157837D01*
X130941Y157940D01*
X130606Y158015D01*
X130265Y158060D01*
X129921Y158075D01*
D02*
G37*
G36*
X119095Y112208D02*
X118874Y112195D01*
X118656Y112158D01*
X118444Y112097D01*
X118239Y112013D01*
X118046Y111906D01*
X117866Y111778D01*
X117701Y111630D01*
X117553Y111466D01*
X117522Y111421D01*
X105510D01*
X105479Y111466D01*
X105331Y111630D01*
X105166Y111778D01*
X104986Y111906D01*
X104792Y112013D01*
X104588Y112097D01*
X104376Y112158D01*
X104158Y112195D01*
X103937Y112208D01*
X103716Y112195D01*
X103498Y112158D01*
X103286Y112097D01*
X103082Y112013D01*
X102888Y111906D01*
X102708Y111778D01*
X102543Y111630D01*
X102396Y111466D01*
X102268Y111285D01*
X102161Y111092D01*
X102076Y110887D01*
X102015Y110675D01*
X101978Y110457D01*
X101965Y110236D01*
X101978Y110015D01*
X102015Y109798D01*
X102076Y109585D01*
X102161Y109381D01*
X102268Y109187D01*
X102396Y109007D01*
X102543Y108842D01*
X102708Y108695D01*
X102888Y108567D01*
X103082Y108460D01*
X103286Y108375D01*
X103498Y108314D01*
X103716Y108277D01*
X103937Y108265D01*
X104158Y108277D01*
X104376Y108314D01*
X104588Y108375D01*
X104792Y108460D01*
X104986Y108567D01*
X105166Y108695D01*
X105331Y108842D01*
X105479Y109007D01*
X105510Y109051D01*
X117522D01*
X117553Y109007D01*
X117701Y108842D01*
X117866Y108695D01*
X118046Y108567D01*
X118239Y108460D01*
X118444Y108375D01*
X118656Y108314D01*
X118874Y108277D01*
X119095Y108265D01*
X119316Y108277D01*
X119534Y108314D01*
X119746Y108375D01*
X119950Y108460D01*
X120144Y108567D01*
X120324Y108695D01*
X120489Y108842D01*
X120636Y109007D01*
X120764Y109187D01*
X120871Y109381D01*
X120956Y109585D01*
X121017Y109798D01*
X121054Y110015D01*
X121066Y110236D01*
X121054Y110457D01*
X121017Y110675D01*
X120956Y110887D01*
X120871Y111092D01*
X120764Y111285D01*
X120636Y111466D01*
X120489Y111630D01*
X120324Y111778D01*
X120144Y111906D01*
X119950Y112013D01*
X119746Y112097D01*
X119534Y112158D01*
X119316Y112195D01*
X119095Y112208D01*
D02*
G37*
G36*
X129134Y106417D02*
X128901Y106366D01*
X128574Y106262D01*
X128256Y106131D01*
X127951Y105972D01*
X127661Y105787D01*
X127388Y105578D01*
X127135Y105346D01*
X126902Y105092D01*
X126693Y104819D01*
X126508Y104529D01*
X126350Y104225D01*
X126218Y103907D01*
X126115Y103579D01*
X126063Y103347D01*
X129134D01*
Y106417D01*
D02*
G37*
G36*
X74213Y105318D02*
X73992Y105306D01*
X73774Y105269D01*
X73561Y105207D01*
X73357Y105123D01*
X73164Y105016D01*
X72983Y104888D01*
X72818Y104741D01*
X72671Y104576D01*
X72543Y104395D01*
X72436Y104202D01*
X72352Y103998D01*
X72290Y103785D01*
X72253Y103567D01*
X72241Y103347D01*
X72253Y103126D01*
X72263Y103072D01*
X69832Y100641D01*
X69711Y100499D01*
X69614Y100341D01*
X69542Y100169D01*
X69499Y99989D01*
X69485Y99803D01*
Y99014D01*
X69440Y98982D01*
X69275Y98835D01*
X69128Y98670D01*
X69000Y98490D01*
X68893Y98296D01*
X68808Y98092D01*
X68747Y97880D01*
X68710Y97662D01*
X68698Y97441D01*
X68710Y97220D01*
X68747Y97002D01*
X68808Y96790D01*
X68893Y96586D01*
X69000Y96392D01*
X69128Y96212D01*
X69275Y96047D01*
X69440Y95899D01*
X69620Y95771D01*
X69814Y95665D01*
X70018Y95580D01*
X70231Y95519D01*
X70448Y95482D01*
X70669Y95469D01*
X70890Y95482D01*
X71108Y95519D01*
X71320Y95580D01*
X71525Y95665D01*
X71718Y95771D01*
X71899Y95899D01*
X72063Y96047D01*
X72211Y96212D01*
X72339Y96392D01*
X72446Y96586D01*
X72530Y96790D01*
X72592Y97002D01*
X72628Y97220D01*
X72641Y97441D01*
X72628Y97662D01*
X72592Y97880D01*
X72530Y98092D01*
X72446Y98296D01*
X72339Y98490D01*
X72211Y98670D01*
X72063Y98835D01*
X72185Y99603D01*
X72219Y99677D01*
X73938Y101396D01*
X73992Y101387D01*
X74213Y101375D01*
X74433Y101387D01*
X74651Y101424D01*
X74864Y101486D01*
X75068Y101570D01*
X75261Y101677D01*
X75442Y101805D01*
X75607Y101952D01*
X75754Y102117D01*
X75882Y102297D01*
X75989Y102491D01*
X76074Y102695D01*
X76135Y102908D01*
X76172Y103126D01*
X76184Y103347D01*
X76172Y103567D01*
X76135Y103785D01*
X76074Y103998D01*
X75989Y104202D01*
X75882Y104395D01*
X75754Y104576D01*
X75607Y104741D01*
X75442Y104888D01*
X75261Y105016D01*
X75068Y105123D01*
X74864Y105207D01*
X74651Y105269D01*
X74433Y105306D01*
X74213Y105318D01*
D02*
G37*
G36*
X129134Y101772D02*
X126063D01*
X126115Y101539D01*
X126218Y101211D01*
X126350Y100894D01*
X126508Y100589D01*
X126693Y100299D01*
X126902Y100026D01*
X127135Y99773D01*
X127388Y99540D01*
X127661Y99331D01*
X127951Y99146D01*
X128256Y98988D01*
X128574Y98856D01*
X128901Y98753D01*
X129134Y98701D01*
Y101772D01*
D02*
G37*
G36*
X45079Y112208D02*
X44858Y112195D01*
X44640Y112158D01*
X44428Y112097D01*
X44223Y112013D01*
X44030Y111906D01*
X43850Y111778D01*
X43685Y111630D01*
X43537Y111466D01*
X43409Y111285D01*
X43302Y111092D01*
X43218Y110887D01*
X43157Y110675D01*
X43119Y110457D01*
X43107Y110236D01*
X43119Y110015D01*
X43157Y109798D01*
X43218Y109585D01*
X43302Y109381D01*
X43409Y109187D01*
X43537Y109007D01*
X43685Y108842D01*
X43850Y108695D01*
X43894Y108663D01*
Y105709D01*
X43909Y105523D01*
X43952Y105343D01*
X44023Y105171D01*
X44120Y105012D01*
X44241Y104871D01*
X57430Y91682D01*
X57571Y91561D01*
X57730Y91464D01*
X57902Y91393D01*
X58082Y91350D01*
X58268Y91335D01*
X71653D01*
X71839Y91350D01*
X72020Y91393D01*
X72191Y91464D01*
X72350Y91561D01*
X72491Y91682D01*
X78443Y97634D01*
X88781D01*
X88813Y97590D01*
X88960Y97425D01*
X89125Y97277D01*
X89305Y97149D01*
X89499Y97043D01*
X89703Y96958D01*
X89916Y96897D01*
X90134Y96860D01*
X90354Y96847D01*
X90575Y96860D01*
X90793Y96897D01*
X91005Y96958D01*
X91210Y97043D01*
X91403Y97149D01*
X91584Y97277D01*
X91748Y97425D01*
X91896Y97590D01*
X92024Y97770D01*
X92131Y97964D01*
X92215Y98168D01*
X92277Y98380D01*
X92313Y98598D01*
X92326Y98819D01*
X92313Y99040D01*
X92277Y99258D01*
X92215Y99470D01*
X92131Y99674D01*
X92024Y99868D01*
X91896Y100048D01*
X91748Y100213D01*
X91584Y100360D01*
X91403Y100488D01*
X91210Y100595D01*
X91005Y100680D01*
X90793Y100741D01*
X90575Y100778D01*
X90354Y100791D01*
X90134Y100778D01*
X89916Y100741D01*
X89703Y100680D01*
X89499Y100595D01*
X89305Y100488D01*
X89125Y100360D01*
X88960Y100213D01*
X88813Y100048D01*
X88781Y100004D01*
X77953D01*
X77767Y99989D01*
X77587Y99946D01*
X77415Y99875D01*
X77256Y99777D01*
X77115Y99657D01*
X71163Y93704D01*
X58758D01*
X46264Y106199D01*
Y108663D01*
X46308Y108695D01*
X46473Y108842D01*
X46620Y109007D01*
X46748Y109187D01*
X46855Y109381D01*
X46940Y109585D01*
X47001Y109798D01*
X47038Y110015D01*
X47050Y110236D01*
X47038Y110457D01*
X47001Y110675D01*
X46940Y110887D01*
X46855Y111092D01*
X46748Y111285D01*
X46620Y111466D01*
X46473Y111630D01*
X46308Y111778D01*
X46128Y111906D01*
X45934Y112013D01*
X45730Y112097D01*
X45518Y112158D01*
X45300Y112195D01*
X45079Y112208D01*
D02*
G37*
G36*
X102756Y103940D02*
X102535Y103928D01*
X102317Y103891D01*
X102104Y103829D01*
X101900Y103745D01*
X101707Y103638D01*
X101526Y103510D01*
X101362Y103362D01*
X101214Y103198D01*
X101086Y103017D01*
X100979Y102824D01*
X100895Y102620D01*
X100833Y102407D01*
X100796Y102189D01*
X100784Y101968D01*
X100796Y101748D01*
X100833Y101530D01*
X100895Y101317D01*
X100979Y101113D01*
X101086Y100919D01*
X101214Y100739D01*
X101362Y100574D01*
X101526Y100427D01*
X101571Y100395D01*
Y96947D01*
X100522Y95898D01*
X100468Y95907D01*
X100248Y95920D01*
X100027Y95907D01*
X99809Y95871D01*
X99596Y95809D01*
X99392Y95725D01*
X99199Y95618D01*
X99018Y95490D01*
X98853Y95342D01*
X98706Y95178D01*
X98578Y94997D01*
X98471Y94804D01*
X98387Y94599D01*
X98325Y94387D01*
X98288Y94169D01*
X98276Y93948D01*
X98288Y93728D01*
X98325Y93510D01*
X98387Y93297D01*
X98471Y93093D01*
X98578Y92899D01*
X98706Y92719D01*
X98853Y92554D01*
X99018Y92407D01*
X99199Y92279D01*
X99392Y92172D01*
X99596Y92087D01*
X99809Y92026D01*
X100027Y91989D01*
X100248Y91977D01*
X100468Y91989D01*
X100686Y92026D01*
X100899Y92087D01*
X101103Y92172D01*
X101296Y92279D01*
X101477Y92407D01*
X101642Y92554D01*
X101789Y92719D01*
X101917Y92899D01*
X102024Y93093D01*
X102109Y93297D01*
X102170Y93510D01*
X102207Y93728D01*
X102219Y93948D01*
X102207Y94169D01*
X102198Y94223D01*
X103594Y95619D01*
X103714Y95760D01*
X103812Y95919D01*
X103883Y96091D01*
X103926Y96271D01*
X103941Y96457D01*
Y100395D01*
X103985Y100427D01*
X104150Y100574D01*
X104297Y100739D01*
X104425Y100919D01*
X104532Y101113D01*
X104617Y101317D01*
X104678Y101530D01*
X104715Y101748D01*
X104727Y101968D01*
X104715Y102189D01*
X104678Y102407D01*
X104617Y102620D01*
X104532Y102824D01*
X104425Y103017D01*
X104297Y103198D01*
X104150Y103362D01*
X103985Y103510D01*
X103805Y103638D01*
X103611Y103745D01*
X103407Y103829D01*
X103194Y103891D01*
X102976Y103928D01*
X102756Y103940D01*
D02*
G37*
G36*
X96457Y106499D02*
X96236Y106487D01*
X96018Y106450D01*
X95806Y106388D01*
X95601Y106304D01*
X95408Y106197D01*
X95227Y106069D01*
X95063Y105922D01*
X94915Y105757D01*
X94787Y105577D01*
X94680Y105383D01*
X94596Y105179D01*
X94534Y104966D01*
X94498Y104748D01*
X94485Y104528D01*
X94498Y104307D01*
X94534Y104089D01*
X94596Y103876D01*
X94680Y103672D01*
X94787Y103479D01*
X94915Y103298D01*
X95063Y103133D01*
X95227Y102986D01*
X95272Y102954D01*
Y99703D01*
X90061Y94492D01*
X79919D01*
X79888Y94536D01*
X79741Y94701D01*
X79576Y94849D01*
X79395Y94977D01*
X79202Y95083D01*
X78998Y95168D01*
X78785Y95229D01*
X78567Y95266D01*
X78347Y95279D01*
X78126Y95266D01*
X77908Y95229D01*
X77695Y95168D01*
X77491Y95083D01*
X77298Y94977D01*
X77117Y94849D01*
X76952Y94701D01*
X76805Y94536D01*
X76677Y94356D01*
X76570Y94162D01*
X76486Y93958D01*
X76424Y93746D01*
X76387Y93528D01*
X76376Y93332D01*
X76374Y93307D01*
X76376Y93282D01*
X76387Y93086D01*
X76424Y92868D01*
X76486Y92656D01*
X76570Y92452D01*
X76677Y92258D01*
X76805Y92078D01*
X76952Y91913D01*
X77117Y91766D01*
X77298Y91638D01*
X77491Y91531D01*
X77695Y91446D01*
X77908Y91385D01*
X78126Y91348D01*
X78347Y91335D01*
X78567Y91348D01*
X78785Y91385D01*
X78998Y91446D01*
X79202Y91531D01*
X79395Y91638D01*
X79576Y91766D01*
X79741Y91913D01*
X79888Y92078D01*
X79919Y92122D01*
X90551D01*
X90737Y92137D01*
X90917Y92180D01*
X91089Y92251D01*
X91248Y92349D01*
X91389Y92469D01*
X97294Y98375D01*
X97415Y98516D01*
X97512Y98675D01*
X97584Y98847D01*
X97627Y99027D01*
X97641Y99213D01*
Y102954D01*
X97686Y102986D01*
X97851Y103133D01*
X97998Y103298D01*
X98126Y103479D01*
X98233Y103672D01*
X98318Y103876D01*
X98379Y104089D01*
X98416Y104307D01*
X98428Y104528D01*
X98416Y104748D01*
X98379Y104966D01*
X98318Y105179D01*
X98233Y105383D01*
X98126Y105577D01*
X97998Y105757D01*
X97851Y105922D01*
X97686Y106069D01*
X97506Y106197D01*
X97312Y106304D01*
X97108Y106388D01*
X96895Y106450D01*
X96677Y106487D01*
X96457Y106499D01*
D02*
G37*
G36*
X95472Y94491D02*
X95252Y94479D01*
X95034Y94442D01*
X94821Y94381D01*
X94617Y94296D01*
X94424Y94189D01*
X94243Y94061D01*
X94078Y93914D01*
X93931Y93749D01*
X93803Y93569D01*
X93696Y93375D01*
X93612Y93171D01*
X93550Y92958D01*
X93513Y92740D01*
X93501Y92520D01*
X93513Y92299D01*
X93522Y92245D01*
X91635Y90358D01*
X84250D01*
X84219Y90403D01*
X84071Y90567D01*
X83906Y90715D01*
X83726Y90843D01*
X83533Y90950D01*
X83328Y91034D01*
X83116Y91095D01*
X82898Y91132D01*
X82677Y91145D01*
X82456Y91132D01*
X82239Y91095D01*
X82026Y91034D01*
X81822Y90950D01*
X81628Y90843D01*
X81448Y90715D01*
X81283Y90567D01*
X81136Y90403D01*
X81008Y90222D01*
X80901Y90029D01*
X80816Y89824D01*
X80755Y89612D01*
X80718Y89394D01*
X80706Y89173D01*
X80718Y88952D01*
X80755Y88735D01*
X80816Y88522D01*
X80901Y88318D01*
X81008Y88124D01*
X81136Y87944D01*
X81283Y87779D01*
X81448Y87632D01*
X81628Y87504D01*
X81822Y87397D01*
X82026Y87312D01*
X82239Y87251D01*
X82456Y87214D01*
X82677Y87202D01*
X82898Y87214D01*
X83116Y87251D01*
X83328Y87312D01*
X83533Y87397D01*
X83726Y87504D01*
X83906Y87632D01*
X84071Y87779D01*
X84219Y87944D01*
X84250Y87989D01*
X92126D01*
X92311Y88003D01*
X92492Y88046D01*
X92664Y88118D01*
X92822Y88215D01*
X92964Y88336D01*
X95198Y90570D01*
X95252Y90561D01*
X95472Y90548D01*
X95693Y90561D01*
X95911Y90597D01*
X96124Y90659D01*
X96328Y90743D01*
X96521Y90850D01*
X96702Y90978D01*
X96867Y91126D01*
X97014Y91290D01*
X97142Y91471D01*
X97249Y91664D01*
X97333Y91869D01*
X97395Y92081D01*
X97432Y92299D01*
X97444Y92520D01*
X97432Y92740D01*
X97395Y92958D01*
X97333Y93171D01*
X97249Y93375D01*
X97142Y93569D01*
X97014Y93749D01*
X96867Y93914D01*
X96702Y94061D01*
X96521Y94189D01*
X96328Y94296D01*
X96124Y94381D01*
X95911Y94442D01*
X95693Y94479D01*
X95472Y94491D01*
D02*
G37*
G36*
X48819Y84649D02*
X48031D01*
Y81496D01*
X51185D01*
Y82284D01*
X51170Y82548D01*
X51126Y82810D01*
X51052Y83065D01*
X50950Y83310D01*
X50822Y83542D01*
X50669Y83759D01*
X50492Y83956D01*
X50294Y84133D01*
X50078Y84287D01*
X49845Y84415D01*
X49600Y84517D01*
X49345Y84590D01*
X49084Y84635D01*
X48819Y84649D01*
D02*
G37*
G36*
X46457D02*
X45669D01*
X45404Y84635D01*
X45143Y84590D01*
X44888Y84517D01*
X44643Y84415D01*
X44410Y84287D01*
X44194Y84133D01*
X43996Y83956D01*
X43819Y83759D01*
X43666Y83542D01*
X43538Y83310D01*
X43436Y83065D01*
X43363Y82810D01*
X43318Y82548D01*
X43303Y82284D01*
Y81496D01*
X46457D01*
Y84649D01*
D02*
G37*
G36*
X118898Y80909D02*
X118677Y80896D01*
X118459Y80859D01*
X118246Y80798D01*
X118042Y80713D01*
X117849Y80606D01*
X117668Y80479D01*
X117503Y80331D01*
X117356Y80166D01*
X117325Y80122D01*
X104329D01*
X104297Y80166D01*
X104150Y80331D01*
X103985Y80479D01*
X103805Y80606D01*
X103611Y80713D01*
X103407Y80798D01*
X103195Y80859D01*
X102977Y80896D01*
X102756Y80909D01*
X102535Y80896D01*
X102317Y80859D01*
X102105Y80798D01*
X101900Y80713D01*
X101707Y80606D01*
X101527Y80479D01*
X101362Y80331D01*
X101214Y80166D01*
X101086Y79986D01*
X100980Y79792D01*
X100895Y79588D01*
X100834Y79376D01*
X100797Y79158D01*
X100784Y78937D01*
X100797Y78716D01*
X100834Y78498D01*
X100895Y78286D01*
X100980Y78082D01*
X101086Y77888D01*
X101214Y77708D01*
X101362Y77543D01*
X101527Y77396D01*
X101707Y77268D01*
X101900Y77161D01*
X102105Y77076D01*
X102317Y77015D01*
X102535Y76978D01*
X102756Y76965D01*
X102977Y76978D01*
X103195Y77015D01*
X103407Y77076D01*
X103611Y77161D01*
X103805Y77268D01*
X103985Y77396D01*
X104150Y77543D01*
X104297Y77708D01*
X104329Y77752D01*
X117325D01*
X117356Y77708D01*
X117503Y77543D01*
X117668Y77396D01*
X117849Y77268D01*
X118042Y77161D01*
X118246Y77076D01*
X118459Y77015D01*
X118677Y76978D01*
X118898Y76965D01*
X119118Y76978D01*
X119336Y77015D01*
X119549Y77076D01*
X119753Y77161D01*
X119947Y77268D01*
X120127Y77396D01*
X120292Y77543D01*
X120439Y77708D01*
X120567Y77888D01*
X120674Y78082D01*
X120759Y78286D01*
X120820Y78498D01*
X120857Y78716D01*
X120869Y78937D01*
X120857Y79158D01*
X120820Y79376D01*
X120759Y79588D01*
X120674Y79792D01*
X120567Y79986D01*
X120439Y80166D01*
X120292Y80331D01*
X120127Y80479D01*
X119947Y80606D01*
X119753Y80713D01*
X119549Y80798D01*
X119336Y80859D01*
X119118Y80896D01*
X118898Y80909D01*
D02*
G37*
G36*
X51185Y79921D02*
X48031D01*
Y76768D01*
X48819D01*
X49084Y76783D01*
X49345Y76827D01*
X49600Y76901D01*
X49845Y77002D01*
X50078Y77131D01*
X50294Y77284D01*
X50492Y77461D01*
X50669Y77659D01*
X50822Y77875D01*
X50950Y78107D01*
X51052Y78352D01*
X51126Y78607D01*
X51170Y78869D01*
X51185Y79134D01*
Y79921D01*
D02*
G37*
G36*
X46457D02*
X43303D01*
Y79134D01*
X43318Y78869D01*
X43363Y78607D01*
X43436Y78352D01*
X43538Y78107D01*
X43666Y77875D01*
X43819Y77659D01*
X43996Y77461D01*
X44194Y77284D01*
X44410Y77131D01*
X44643Y77002D01*
X44888Y76901D01*
X45143Y76827D01*
X45404Y76783D01*
X45669Y76768D01*
X46457D01*
Y79921D01*
D02*
G37*
G36*
X37244Y84649D02*
X36901Y84634D01*
X36560Y84589D01*
X36224Y84515D01*
X35896Y84412D01*
X35579Y84280D01*
X35274Y84122D01*
X34984Y83937D01*
X34711Y83727D01*
X34458Y83495D01*
X34225Y83242D01*
X34016Y82969D01*
X33831Y82679D01*
X33673Y82374D01*
X33541Y82056D01*
X33438Y81729D01*
X33363Y81393D01*
X33318Y81052D01*
X33303Y80709D01*
X33318Y80365D01*
X33363Y80024D01*
X33438Y79689D01*
X33541Y79361D01*
X33673Y79043D01*
X33831Y78738D01*
X34016Y78448D01*
X34225Y78176D01*
X34458Y77922D01*
X34711Y77690D01*
X34984Y77481D01*
X35274Y77296D01*
X35579Y77137D01*
X35896Y77006D01*
X36224Y76902D01*
X36560Y76828D01*
X36901Y76783D01*
X37244Y76768D01*
X37587Y76783D01*
X37928Y76828D01*
X38264Y76902D01*
X38592Y77006D01*
X38910Y77137D01*
X39215Y77296D01*
X39504Y77481D01*
X39777Y77690D01*
X40031Y77922D01*
X40263Y78176D01*
X40472Y78448D01*
X40657Y78738D01*
X40816Y79043D01*
X40947Y79361D01*
X41051Y79689D01*
X41125Y80024D01*
X41170Y80365D01*
X41185Y80709D01*
X41170Y81052D01*
X41125Y81393D01*
X41051Y81729D01*
X40947Y82056D01*
X40816Y82374D01*
X40657Y82679D01*
X40472Y82969D01*
X40263Y83242D01*
X40031Y83495D01*
X39777Y83727D01*
X39504Y83937D01*
X39215Y84122D01*
X38910Y84280D01*
X38592Y84412D01*
X38264Y84515D01*
X37928Y84589D01*
X37587Y84634D01*
X37244Y84649D01*
D02*
G37*
G36*
X72638Y67125D02*
Y64055D01*
X75708D01*
X75657Y64287D01*
X75554Y64615D01*
X75422Y64933D01*
X75263Y65237D01*
X75078Y65527D01*
X74869Y65800D01*
X74637Y66054D01*
X74383Y66286D01*
X74111Y66495D01*
X73821Y66680D01*
X73516Y66839D01*
X73198Y66970D01*
X72870Y67074D01*
X72638Y67125D01*
D02*
G37*
G36*
X71063Y67125D02*
X70830Y67074D01*
X70503Y66970D01*
X70185Y66839D01*
X69880Y66680D01*
X69590Y66495D01*
X69317Y66286D01*
X69064Y66054D01*
X68832Y65800D01*
X68622Y65527D01*
X68438Y65237D01*
X68279Y64933D01*
X68147Y64615D01*
X68044Y64287D01*
X67992Y64055D01*
X71063D01*
Y67125D01*
D02*
G37*
G36*
X75708Y62480D02*
X72638D01*
Y59409D01*
X72870Y59461D01*
X73198Y59564D01*
X73516Y59696D01*
X73821Y59854D01*
X74111Y60039D01*
X74383Y60248D01*
X74637Y60481D01*
X74869Y60734D01*
X75078Y61007D01*
X75263Y61297D01*
X75422Y61602D01*
X75554Y61919D01*
X75657Y62247D01*
X75708Y62480D01*
D02*
G37*
G36*
X71063D02*
X67992D01*
X68044Y62247D01*
X68147Y61919D01*
X68279Y61602D01*
X68438Y61297D01*
X68622Y61007D01*
X68832Y60734D01*
X69064Y60481D01*
X69317Y60248D01*
X69590Y60039D01*
X69880Y59854D01*
X70185Y59696D01*
X70503Y59564D01*
X70830Y59461D01*
X71063Y59409D01*
Y62480D01*
D02*
G37*
G36*
X149410Y69885D02*
X96063Y69885D01*
X95909Y69870D01*
X95760Y69825D01*
X95624Y69752D01*
X95504Y69654D01*
X93929Y68079D01*
X93830Y67959D01*
X93757Y67822D01*
X93712Y67674D01*
X93697Y67519D01*
X93697Y57480D01*
X93712Y57326D01*
X93757Y57177D01*
X93830Y57040D01*
X93929Y56920D01*
X95700Y55149D01*
X95820Y55050D01*
X95957Y54977D01*
X96105Y54932D01*
X96260Y54917D01*
X149606Y54917D01*
X149760Y54932D01*
X149909Y54977D01*
X150046Y55050D01*
X150165Y55149D01*
X151741Y56724D01*
X151839Y56844D01*
X151912Y56981D01*
X151957Y57129D01*
X151972Y57284D01*
X151972Y67323D01*
X151957Y67477D01*
X151912Y67626D01*
X151839Y67762D01*
X151741Y67882D01*
X149969Y69654D01*
X149849Y69752D01*
X149713Y69825D01*
X149564Y69870D01*
X149410Y69885D01*
D02*
G37*
G36*
X73425Y57208D02*
X70276D01*
X70011Y57193D01*
X69749Y57148D01*
X69494Y57075D01*
X69249Y56973D01*
X69017Y56845D01*
X68800Y56692D01*
X68603Y56515D01*
X68426Y56317D01*
X68272Y56101D01*
X68144Y55868D01*
X68042Y55623D01*
X67969Y55368D01*
X67924Y55107D01*
X67910Y54842D01*
Y51692D01*
X67924Y51427D01*
X67969Y51166D01*
X68042Y50911D01*
X68144Y50666D01*
X68272Y50433D01*
X68426Y50217D01*
X68603Y50019D01*
X68800Y49843D01*
X69017Y49689D01*
X69249Y49561D01*
X69494Y49459D01*
X69749Y49386D01*
X70011Y49341D01*
X70276Y49326D01*
X73425D01*
X73690Y49341D01*
X73952Y49386D01*
X74207Y49459D01*
X74452Y49561D01*
X74684Y49689D01*
X74900Y49843D01*
X75098Y50019D01*
X75275Y50217D01*
X75428Y50433D01*
X75557Y50666D01*
X75658Y50911D01*
X75732Y51166D01*
X75776Y51427D01*
X75791Y51692D01*
Y54842D01*
X75776Y55107D01*
X75732Y55368D01*
X75658Y55623D01*
X75557Y55868D01*
X75428Y56101D01*
X75275Y56317D01*
X75098Y56515D01*
X74900Y56692D01*
X74684Y56845D01*
X74452Y56973D01*
X74207Y57075D01*
X73952Y57148D01*
X73690Y57193D01*
X73425Y57208D01*
D02*
G37*
G36*
X52165Y55515D02*
X51945Y55502D01*
X51727Y55466D01*
X51514Y55404D01*
X51310Y55320D01*
X51116Y55213D01*
X50936Y55085D01*
X50771Y54937D01*
X50624Y54773D01*
X50496Y54592D01*
X50389Y54399D01*
X50304Y54194D01*
X50243Y53982D01*
X50206Y53764D01*
X50194Y53543D01*
X50206Y53323D01*
X50243Y53105D01*
X50304Y52892D01*
X50389Y52688D01*
X50496Y52494D01*
X50624Y52314D01*
X50771Y52149D01*
X50936Y52002D01*
X50981Y51970D01*
Y36811D01*
X50995Y36626D01*
X51039Y36445D01*
X51110Y36273D01*
X51207Y36115D01*
X51328Y35973D01*
X56347Y30954D01*
X56346Y30950D01*
X56309Y30732D01*
X56296Y30511D01*
X56309Y30290D01*
X56346Y30073D01*
X56407Y29860D01*
X56491Y29656D01*
X56598Y29462D01*
X56726Y29282D01*
X56874Y29117D01*
X57038Y28970D01*
X57219Y28842D01*
X57412Y28735D01*
X57617Y28650D01*
X57829Y28589D01*
X58047Y28552D01*
X58268Y28540D01*
X58489Y28552D01*
X58706Y28589D01*
X58919Y28650D01*
X59123Y28735D01*
X59317Y28842D01*
X59497Y28970D01*
X59662Y29117D01*
X59809Y29282D01*
X59937Y29462D01*
X60044Y29656D01*
X60129Y29860D01*
X60190Y30073D01*
X60227Y30290D01*
X60239Y30511D01*
X60227Y30732D01*
X60190Y30950D01*
X60129Y31162D01*
X60044Y31367D01*
X59937Y31560D01*
X59809Y31740D01*
X59662Y31905D01*
X59497Y32053D01*
X59317Y32181D01*
X59123Y32288D01*
X58919Y32372D01*
X58706Y32433D01*
X58489Y32470D01*
X58268Y32483D01*
X58174Y32478D01*
X53350Y37302D01*
Y51970D01*
X53395Y52002D01*
X53559Y52149D01*
X53707Y52314D01*
X53835Y52494D01*
X53942Y52688D01*
X54026Y52892D01*
X54088Y53105D01*
X54124Y53323D01*
X54137Y53543D01*
X54124Y53764D01*
X54088Y53982D01*
X54026Y54194D01*
X53942Y54399D01*
X53835Y54592D01*
X53707Y54773D01*
X53559Y54937D01*
X53395Y55085D01*
X53214Y55213D01*
X53021Y55320D01*
X52816Y55404D01*
X52604Y55466D01*
X52386Y55502D01*
X52165Y55515D01*
D02*
G37*
G36*
X49409Y29070D02*
Y24409D01*
X53350D01*
X53335Y24780D01*
X53292Y25149D01*
X53219Y25513D01*
X53119Y25870D01*
X52990Y26219D01*
X52835Y26556D01*
X52653Y26880D01*
X52447Y27189D01*
X52217Y27480D01*
X51965Y27753D01*
X51693Y28005D01*
X51401Y28234D01*
X51092Y28441D01*
X50769Y28622D01*
X50431Y28778D01*
X50083Y28906D01*
X49726Y29007D01*
X49409Y29070D01*
D02*
G37*
G36*
X47835D02*
X47518Y29007D01*
X47161Y28906D01*
X46813Y28778D01*
X46476Y28622D01*
X46152Y28441D01*
X45843Y28234D01*
X45551Y28005D01*
X45279Y27753D01*
X45027Y27480D01*
X44797Y27189D01*
X44591Y26880D01*
X44409Y26556D01*
X44254Y26219D01*
X44125Y25870D01*
X44025Y25513D01*
X43952Y25149D01*
X43909Y24780D01*
X43894Y24409D01*
X47835D01*
Y29070D01*
D02*
G37*
G36*
X53350Y22835D02*
X49409D01*
Y18174D01*
X49726Y18237D01*
X50083Y18338D01*
X50431Y18466D01*
X50769Y18622D01*
X51092Y18803D01*
X51401Y19010D01*
X51693Y19239D01*
X51965Y19491D01*
X52217Y19764D01*
X52447Y20056D01*
X52653Y20364D01*
X52835Y20688D01*
X52990Y21025D01*
X53119Y21374D01*
X53219Y21731D01*
X53292Y22095D01*
X53335Y22464D01*
X53350Y22835D01*
D02*
G37*
G36*
X47835D02*
X43894D01*
X43909Y22464D01*
X43952Y22095D01*
X44025Y21731D01*
X44125Y21374D01*
X44254Y21025D01*
X44409Y20688D01*
X44591Y20364D01*
X44797Y20056D01*
X45027Y19764D01*
X45279Y19491D01*
X45551Y19239D01*
X45843Y19010D01*
X46152Y18803D01*
X46476Y18622D01*
X46813Y18466D01*
X47161Y18338D01*
X47518Y18237D01*
X47835Y18174D01*
Y22835D01*
D02*
G37*
G36*
X97047Y27365D02*
X93504D01*
X93253Y27353D01*
X93004Y27316D01*
X92760Y27255D01*
X92523Y27170D01*
X92296Y27063D01*
X92080Y26934D01*
X91878Y26784D01*
X91692Y26615D01*
X91523Y26429D01*
X91374Y26227D01*
X91244Y26011D01*
X91137Y25784D01*
X91052Y25547D01*
X90991Y25303D01*
X90954Y25054D01*
X90942Y24803D01*
Y19685D01*
X90954Y19434D01*
X90991Y19185D01*
X91052Y18941D01*
X91137Y18704D01*
X91244Y18477D01*
X91374Y18262D01*
X91523Y18060D01*
X91692Y17873D01*
X91878Y17705D01*
X92080Y17555D01*
X92296Y17425D01*
X92523Y17318D01*
X92760Y17233D01*
X93004Y17172D01*
X93253Y17135D01*
X93504Y17123D01*
X97047D01*
X97298Y17135D01*
X97547Y17172D01*
X97791Y17233D01*
X98028Y17318D01*
X98255Y17425D01*
X98471Y17555D01*
X98673Y17705D01*
X98859Y17873D01*
X99028Y18060D01*
X99178Y18262D01*
X99307Y18477D01*
X99414Y18704D01*
X99499Y18941D01*
X99560Y19185D01*
X99597Y19434D01*
X99609Y19685D01*
Y24803D01*
X99597Y25054D01*
X99560Y25303D01*
X99499Y25547D01*
X99414Y25784D01*
X99307Y26011D01*
X99178Y26227D01*
X99028Y26429D01*
X98859Y26615D01*
X98673Y26784D01*
X98471Y26934D01*
X98255Y27063D01*
X98028Y27170D01*
X97791Y27255D01*
X97547Y27316D01*
X97298Y27353D01*
X97047Y27365D01*
D02*
G37*
G36*
X70276D02*
X66732D01*
X66481Y27353D01*
X66232Y27316D01*
X65988Y27255D01*
X65752Y27170D01*
X65525Y27063D01*
X65309Y26934D01*
X65107Y26784D01*
X64921Y26615D01*
X64752Y26429D01*
X64602Y26227D01*
X64473Y26011D01*
X64365Y25784D01*
X64280Y25547D01*
X64219Y25303D01*
X64183Y25054D01*
X64170Y24803D01*
Y19685D01*
X64183Y19434D01*
X64219Y19185D01*
X64280Y18941D01*
X64365Y18704D01*
X64473Y18477D01*
X64602Y18262D01*
X64752Y18060D01*
X64921Y17873D01*
X65107Y17705D01*
X65309Y17555D01*
X65525Y17425D01*
X65752Y17318D01*
X65988Y17233D01*
X66232Y17172D01*
X66481Y17135D01*
X66732Y17123D01*
X70276D01*
X70527Y17135D01*
X70775Y17172D01*
X71019Y17233D01*
X71256Y17318D01*
X71483Y17425D01*
X71699Y17555D01*
X71901Y17705D01*
X72087Y17873D01*
X72256Y18060D01*
X72406Y18262D01*
X72535Y18477D01*
X72643Y18704D01*
X72727Y18941D01*
X72789Y19185D01*
X72825Y19434D01*
X72838Y19685D01*
Y24803D01*
X72825Y25054D01*
X72789Y25303D01*
X72727Y25547D01*
X72643Y25784D01*
X72535Y26011D01*
X72406Y26227D01*
X72256Y26429D01*
X72087Y26615D01*
X71901Y26784D01*
X71699Y26934D01*
X71483Y27063D01*
X71256Y27170D01*
X71019Y27255D01*
X70775Y27316D01*
X70527Y27353D01*
X70276Y27365D01*
D02*
G37*
%LPD*%
G36*
X151181Y67323D02*
X151181Y57284D01*
X149606Y55708D01*
X96260Y55708D01*
X94488Y57480D01*
X94488Y67519D01*
X96063Y69094D01*
X149410Y69094D01*
X151181Y67323D01*
D02*
G37*
D10*
X58268Y30511D02*
Y30708D01*
X58268Y30708D01*
X52165Y36811D02*
X58268Y30708D01*
X18504Y157087D02*
X27424Y148167D01*
Y76119D02*
Y148167D01*
X15551Y155905D02*
Y162598D01*
Y155905D02*
X25849Y145607D01*
Y76772D02*
Y145607D01*
X15551Y162598D02*
X18307Y165354D01*
X18504D01*
X92126Y89173D02*
X95472Y92520D01*
X82677Y89173D02*
X92126D01*
X77953Y98819D02*
X90354D01*
X71653Y92520D02*
X77953Y98819D01*
X70669Y99803D02*
X74213Y103347D01*
X70669Y97441D02*
Y99803D01*
X58268Y92520D02*
X71653D01*
X45079Y105709D02*
X58268Y92520D01*
X98228Y128740D02*
X103740D01*
X119095Y110236D02*
X119095Y110236D01*
X103937Y110236D02*
X119095D01*
X103937Y110236D02*
X103937Y110236D01*
X22564Y71260D02*
X27424Y76119D01*
X21912Y72835D02*
X25849Y76772D01*
X23487Y76636D02*
Y80709D01*
X21260Y74410D02*
X23487Y76636D01*
X8194Y71260D02*
X22564D01*
X7542Y72835D02*
X21912D01*
X127756Y186221D02*
X133858D01*
X123819Y182283D02*
X127756Y186221D01*
X123819Y166142D02*
Y182283D01*
X136221Y92323D02*
Y143504D01*
X132677Y147047D02*
X136221Y143504D01*
X111614Y147047D02*
X132677D01*
X103740Y139173D02*
X111614Y147047D01*
X103740Y128740D02*
Y139173D01*
X135827Y78150D02*
X163583D01*
X129724Y84252D02*
X135827Y78150D01*
X129724Y84252D02*
Y86811D01*
X102756Y78937D02*
X118898D01*
X119488D01*
X133268Y86811D02*
Y89370D01*
X136811Y86811D02*
Y90551D01*
Y84252D02*
Y86811D01*
X139370Y83920D02*
Y182936D01*
X97441Y162205D02*
X119882D01*
X92126Y156890D02*
X97441Y162205D01*
X119882D02*
X123819Y166142D01*
X134449Y92778D02*
Y126772D01*
X133501Y91831D02*
X134449Y92778D01*
X126808Y91831D02*
X133501D01*
X133268Y89370D02*
X136221Y92323D01*
X137795Y91535D02*
Y182283D01*
X136811Y90551D02*
X137795Y91535D01*
X119095Y135827D02*
X125394D01*
X134449Y126772D01*
X115354Y88386D02*
X123363D01*
X126808Y91831D01*
X102756Y96457D02*
Y101969D01*
X100248Y93948D02*
X102756Y96457D01*
X45079Y105709D02*
Y110236D01*
X6890Y74410D02*
X21260D01*
X61614Y156890D02*
X92126D01*
X50590Y145866D02*
X61614Y156890D01*
X107953Y196476D02*
Y201693D01*
Y191260D02*
Y196476D01*
X125829D01*
X139370Y182936D01*
X107953Y191260D02*
X109646Y189567D01*
X104449Y177323D02*
Y184330D01*
Y167323D02*
X109646Y172519D01*
X97973Y164823D02*
Y170846D01*
X104449Y177323D01*
X50590Y152953D02*
Y161614D01*
X87874Y191339D02*
X97441D01*
X104449Y184330D01*
X109646Y172519D02*
Y189567D01*
X50590Y161614D02*
X53799Y164823D01*
X69626D01*
X69685Y164764D01*
X30191Y4134D02*
X165613D01*
X26575Y7750D02*
X30191Y4134D01*
X165613D02*
X169882Y8403D01*
X26575Y7750D02*
Y20276D01*
X30844Y5709D02*
X164961D01*
X28150Y8403D02*
X30844Y5709D01*
X28150Y8403D02*
Y20928D01*
X31496Y7283D02*
X100984D01*
X29724Y9055D02*
X31496Y7283D01*
X29724Y9055D02*
Y21580D01*
X18898Y27953D02*
X26575Y20276D01*
X19550Y29528D02*
X28150Y20928D01*
X20202Y31102D02*
X29724Y21580D01*
X5512Y68577D02*
X8194Y71260D01*
X5512Y32801D02*
Y68577D01*
X3937Y69230D02*
X7542Y72835D01*
X2362Y69882D02*
X6890Y74410D01*
X2362Y31496D02*
X5905Y27953D01*
X2362Y31496D02*
Y69882D01*
X3937Y32148D02*
X6558Y29528D01*
X3937Y32148D02*
Y69230D01*
X5512Y32801D02*
X7210Y31102D01*
X20202D01*
X6558Y29528D02*
X19550D01*
X5905Y27953D02*
X18898D01*
X52165Y36811D02*
Y53543D01*
X164961Y5709D02*
X168307Y9055D01*
X100984Y7283D02*
X103150Y9449D01*
X169882Y8403D02*
Y78802D01*
X165613Y83071D02*
X169882Y78802D01*
X140219Y83071D02*
X165613D01*
X168307Y9055D02*
Y78150D01*
X164961Y81496D02*
X168307Y78150D01*
X139567Y81496D02*
X164961D01*
X163583Y78150D02*
X164961Y76772D01*
Y13386D02*
Y76772D01*
X161417Y9843D02*
X164961Y13386D01*
X155905Y9843D02*
X161417D01*
X77559Y93307D02*
X90551D01*
X96457Y99213D02*
Y104528D01*
X90551Y93307D02*
X96457Y99213D01*
X137598Y83465D02*
X139567Y81496D01*
X136811Y84252D02*
X137598Y83465D01*
X133858Y186221D02*
X137795Y182283D01*
X139370Y83920D02*
X140219Y83071D01*
X77559Y93307D02*
X78347D01*
X77559Y93307D02*
X77559Y93307D01*
D56*
X58268Y30511D02*
D03*
X65945D02*
D03*
X58268Y38386D02*
D03*
X18504Y157087D02*
D03*
Y165354D02*
D03*
X14961Y148425D02*
D03*
X82677Y89173D02*
D03*
X90354Y98819D02*
D03*
X102756Y101968D02*
D03*
X95472Y92520D02*
D03*
X70669Y97441D02*
D03*
X74213Y103347D02*
D03*
X23228Y197047D02*
D03*
X98228Y128740D02*
D03*
X127953Y201693D02*
D03*
X32283Y78347D02*
D03*
X119095Y114173D02*
D03*
Y110236D02*
D03*
X127953Y189370D02*
D03*
X23228Y84449D02*
D03*
X23487Y80709D02*
D03*
X148425Y60827D02*
D03*
Y64173D02*
D03*
Y57480D02*
D03*
X145669Y62402D02*
D03*
Y65748D02*
D03*
Y59055D02*
D03*
X148425Y67323D02*
D03*
X123819Y83268D02*
D03*
X102756Y78937D02*
D03*
X136811Y86811D02*
D03*
X133268D02*
D03*
X118898Y78937D02*
D03*
X103937Y110236D02*
D03*
X119095Y135827D02*
D03*
X115354Y88386D02*
D03*
X100248Y93948D02*
D03*
X97244Y57480D02*
D03*
X100000Y65748D02*
D03*
Y59055D02*
D03*
Y62402D02*
D03*
X97244Y67323D02*
D03*
Y60630D02*
D03*
Y63976D02*
D03*
X61417Y100788D02*
D03*
X57480Y113583D02*
D03*
X56496Y105905D02*
D03*
X45079Y110236D02*
D03*
X46260Y138583D02*
D03*
X44291Y136024D02*
D03*
X48229Y136023D02*
D03*
X52167Y136023D02*
D03*
X50198Y138582D02*
D03*
X54136Y138582D02*
D03*
X56104Y136023D02*
D03*
X60042Y136022D02*
D03*
X58074Y138582D02*
D03*
X69685Y159843D02*
D03*
X97973Y164823D02*
D03*
X87874Y191339D02*
D03*
X50984Y178543D02*
D03*
X42913Y178347D02*
D03*
X118110Y189961D02*
D03*
X50590Y152953D02*
D03*
Y145866D02*
D03*
X80708Y182677D02*
D03*
X85236Y160630D02*
D03*
X69685Y172047D02*
D03*
Y177559D02*
D03*
Y164823D02*
D03*
X24409Y47441D02*
D03*
X58071Y49016D02*
D03*
X82677Y116142D02*
D03*
X87008Y107480D02*
D03*
X82677D02*
D03*
X87008Y111811D02*
D03*
X82677D02*
D03*
X87008Y116142D02*
D03*
X143110Y37992D02*
D03*
Y32874D02*
D03*
X147835D02*
D03*
X138386Y37992D02*
D03*
X147835D02*
D03*
X138386Y32874D02*
D03*
X246063Y42913D02*
D03*
X100197Y39567D02*
D03*
Y42913D02*
D03*
X97441Y44488D02*
D03*
Y41142D02*
D03*
Y37992D02*
D03*
X100197Y46260D02*
D03*
X97441Y47835D02*
D03*
X52165Y53543D02*
D03*
X227953Y209449D02*
D03*
X235039Y93504D02*
D03*
X187795Y80905D02*
D03*
Y7087D02*
D03*
X242520Y181496D02*
D03*
X243110Y150984D02*
D03*
X72441Y78740D02*
D03*
X155905Y9843D02*
D03*
X151772Y37993D02*
D03*
Y32874D02*
D03*
X103150Y9449D02*
D03*
X78347Y93307D02*
D03*
X96457Y104528D02*
D03*
X129724Y86811D02*
D03*
X126574Y37993D02*
D03*
X128543Y35433D02*
D03*
X103740Y128740D02*
D03*
X126574Y32874D02*
D03*
X130511Y32874D02*
D03*
X134449Y32874D02*
D03*
X130511Y37993D02*
D03*
X132480Y35433D02*
D03*
X134449Y37992D02*
D03*
X57953Y211693D02*
D03*
X107953Y201693D02*
D03*
X119095Y99606D02*
D03*
Y121653D02*
D03*
Y142913D02*
D03*
X77953Y201693D02*
D03*
X197953Y201693D02*
D03*
X217952Y201693D02*
D03*
X187952Y211693D02*
D03*
X127953D02*
D03*
X147952Y201693D02*
D03*
X177953Y211693D02*
D03*
X97953D02*
D03*
D86*
X114450Y177323D02*
X118110Y180984D01*
Y189961D01*
D91*
X114450Y177323D02*
D03*
X104449Y167323D02*
D03*
X114450D02*
D03*
Y157323D02*
D03*
X104449D02*
D03*
X71850Y63267D02*
D03*
X90748Y12402D02*
D03*
X73032D02*
D03*
X129921Y122244D02*
D03*
Y102559D02*
D03*
Y173819D02*
D03*
Y154134D02*
D03*
X37244Y80709D02*
D03*
D92*
X104449Y177323D02*
D03*
X71850Y53267D02*
D03*
X47244Y80709D02*
D03*
D93*
X95276Y22244D02*
D03*
X68504D02*
D03*
D94*
X237126Y157480D02*
D03*
Y187008D02*
D03*
D95*
X247126Y157480D02*
D03*
Y187008D02*
D03*
D96*
X48622Y23622D02*
D03*
D97*
X34843D02*
D03*
D98*
X127953Y102559D02*
D03*
M02*
